<?xml version="1.0" encoding="UTF-8"?>
<!DOCTYPE svg PUBLIC "-//W3C//DTD SVG 1.1//EN" "http://www.w3.org/Graphics/SVG/1.1/DTD/svg11.dtd">
<!-- Creator: CorelDRAW X7 -->
<svg xmlns="http://www.w3.org/2000/svg" xml:space="preserve" width="297mm" height="210mm" version="1.1" style="shape-rendering:geometricPrecision; text-rendering:geometricPrecision; image-rendering:optimizeQuality; fill-rule:evenodd; clip-rule:evenodd"
viewBox="0 0 29700 21000"
 xmlns:xlink="http://www.w3.org/1999/xlink">
 <defs>
  <style type="text/css">
   <![CDATA[
    .str1 {stroke:#FEFEFE;stroke-width:282.22}
    .str4 {stroke:#E6E7E8;stroke-width:105.83}
    .str3 {stroke:#E6E7E8;stroke-width:211.66}
    .str6 {stroke:#2178B6;stroke-width:211.66}
    .str5 {stroke:#33B5E5;stroke-width:211.66}
    .str0 {stroke:#3ACFE6;stroke-width:211.66}
    .str2 {stroke:#3ED6DB;stroke-width:211.66}
    .fil1 {fill:none}
    .fil3 {fill:#E6E7E8}
    .fil6 {fill:#373435}
    .fil0 {fill:black}
    .fil8 {fill:#2178B6}
    .fil7 {fill:#33B5E5}
    .fil5 {fill:#3ED6DB}
    .fil2 {fill:#E6E7E8;fill-rule:nonzero}
    .fil4 {fill:url(#id0)}
   ]]>
  </style>
  <linearGradient id="id0" gradientUnits="userSpaceOnUse" x1="17736.3" y1="9644.27" x2="20581.8" y2="12491.8">
   <stop offset="0" style="stop-opacity:1; stop-color:#13548A"/>
   <stop offset="0.321569" style="stop-opacity:1; stop-color:#2B92D5"/>
   <stop offset="0.54902" style="stop-opacity:1; stop-color:#37C9EE"/>
   <stop offset="0.811765" style="stop-opacity:1; stop-color:#40D9D7"/>
   <stop offset="1" style="stop-opacity:1; stop-color:#ADD9DA"/>
  </linearGradient>
 </defs>
 <g id="Capa_x0020_1">
  <metadata id="CorelCorpID_0Corel-Layer"/>
  <path class="fil0" d="M3363 7068l22974 0c460,0 836,376 836,836l0 4869c0,460 -376,836 -836,836l-22974 0c-460,0 -836,-376 -836,-836l0 -4869c0,-460 376,-836 836,-836z"/>
  <polyline class="fil1 str0" points="3909,10591 3909,11870 9733,11870 "/>
  <path class="fil2" d="M3365 8679l0 -332 1087 0 0 332 -366 0 0 1960 -354 0 0 -1960 -367 0zm1250 1960l0 -2292 922 0 0 332 -568 0 0 600 409 0 0 331 -409 0 0 685 568 0 0 344 -922 0zm1546 -1960l0 665 140 0c94,0 157,-37 189,-111 19,-45 28,-124 28,-236 0,-107 -12,-182 -36,-226 -33,-62 -97,-92 -194,-92l-127 0zm0 996l0 964 -354 0 0 -2292 519 0c207,0 354,61 442,183 74,103 111,263 111,480 0,272 -75,461 -225,564l260 1065 -368 0 -218 -964 -167 0zm1003 964l0 -2292 469 0 231 1270c21,105 31,220 31,344 0,-100 10,-213 31,-341l220 -1273 479 0 0 2292 -334 0 0 -1447c0,-84 10,-217 29,-399 0,3 -7,45 -20,126 -11,66 -23,132 -36,198l-288 1522 -176 0 -273 -1523c-11,-77 -30,-184 -58,-323 16,168 23,301 23,399l0 1447 -328 0zm1822 0l0 -2292 360 0 0 2292 -360 0zm714 0l0 -2292 316 0 450 1370c17,54 41,135 69,244 -28,-151 -42,-254 -42,-309l0 -1305 334 0 0 2292 -332 0 -432 -1266c0,-1 0,-3 -1,-5l-7 -19c-30,-91 -52,-166 -66,-225 26,167 39,273 39,317l0 1198 -328 0zm1461 -2292l361 0 0 1775c0,146 62,219 187,219 120,0 180,-73 180,-219l0 -1775 360 0 0 1714c0,190 -42,339 -125,448 -93,120 -232,179 -417,179 -364,0 -546,-212 -546,-637l0 -1704zm1322 1711l338 -51c12,227 91,340 234,340 66,0 118,-20 158,-61 39,-42 59,-95 59,-160 0,-119 -95,-273 -286,-462l-33 -33c-146,-146 -245,-257 -298,-333 -93,-136 -139,-274 -139,-415 0,-158 52,-294 156,-406 104,-112 235,-168 392,-168 159,0 286,56 381,168 87,103 137,236 150,400l-346 49c-12,-191 -76,-286 -194,-286 -126,0 -189,71 -189,212 0,133 111,307 334,521 5,5 12,12 20,20 137,132 230,240 280,322 78,123 116,257 116,405 0,163 -51,299 -152,408 -102,109 -234,163 -396,163 -184,0 -328,-60 -431,-182 -94,-112 -145,-262 -154,-451z"/>
  <path class="fil2" d="M10484 12712l24 -319c-161,1 -249,3 -266,5 -16,2 -30,3 -42,3 -114,0 -172,-59 -172,-178l0 -1626 -328 0 0 1563c0,191 32,333 95,425 65,96 161,142 288,138l401 -11zm738 -694l-260 0 5 277c1,123 43,184 126,184 87,0 130,-61 129,-184l0 -277zm301 -431l0 705c0,134 -39,244 -119,329 -82,88 -190,132 -323,132 -133,0 -236,-40 -308,-120 -72,-79 -108,-213 -108,-402 0,-333 186,-492 557,-478l0 -157c1,-146 -41,-219 -126,-219 -48,0 -99,10 -151,28l-118 -229 235 -70c308,-6 461,155 461,481zm543 826c44,48 90,72 138,72 68,0 102,-47 102,-141l0 -811c0,-108 -40,-162 -120,-162 -42,0 -82,22 -120,64l0 978zm-296 298l0 -2126 296 0 0 684c80,-99 166,-148 258,-148 189,0 284,132 284,395l0 870c0,231 -89,346 -266,346 -110,0 -202,-47 -276,-141l0 120 -296 0zm994 -425l283 -63c23,171 88,256 193,256 90,0 135,-46 135,-138 0,-83 -101,-201 -305,-353 -182,-136 -273,-289 -273,-457 0,-128 40,-232 118,-311 79,-78 183,-117 313,-117 123,0 222,37 296,111 71,73 112,172 121,296l-277 66c-21,-133 -73,-199 -156,-199 -84,0 -126,46 -126,138 0,68 69,157 207,267 29,22 58,45 87,70 94,78 160,145 200,204 56,82 84,171 84,270 0,130 -40,234 -120,311 -80,78 -185,116 -317,116 -133,0 -241,-45 -325,-136 -74,-83 -121,-193 -138,-331z"/>
  <path class="fil3 str1" d="M24467 9909l-4186 -4186c-325,-325 -857,-325 -1182,0l-4186 4186c-325,325 -325,857 0,1182l4186 4186c325,325 857,325 1182,0l4186 -4186c325,-325 325,-857 0,-1182z"/>
  <line class="fil1 str2" x1="19074" y1="9140" x2="18798" y2= "8314" />
  <path class="fil4" d="M16781 9762c-207,207 -211,491 -55,647l3094 3094c141,141 451,141 592,0 196,-196 174,-329 271,-658l479 -1778c77,-314 539,-1900 539,-2073 1,-260 -206,-467 -466,-467 -111,0 -190,32 -297,60l-2369 639c-198,53 -392,101 -592,160l-889 240c-104,26 -207,37 -307,136z"/>
  <path class="fil5 str2" d="M18910 7818c-117,-117 -308,-117 -425,0 -118,118 -118,308 0,425 117,118 308,118 425,0 118,-117 118,-307 0,-425z"/>
  <polyline class="fil1 str3" points="21185,11507 19774,11507 18770,12512 "/>
  <path class="fil6 str4" d="M18820 9977c-118,-117 -308,-117 -425,0 -118,118 -118,308 0,425 117,118 307,118 425,0 117,-117 117,-307 0,-425z"/>
  <path class="fil7 str5" d="M17872 12318c-117,-118 -308,-118 -425,0 -118,117 -118,308 0,425 117,118 308,118 425,0 117,-117 117,-308 0,-425z"/>
  <line class="fil1 str5" x1="18292" y1="11937" x2="17879" y2= "12325" />
  <polyline class="fil1 str3" points="21698,9308 20921,9308 18273,11956 "/>
  <polygon class="fil8" points="21695,11614 21014,11614 21072,11403 21681,11403 "/>
  <path class="fil8 str6" d="M22222 11280c-118,-118 -308,-118 -426,0 -117,117 -117,307 0,425 118,117 308,117 426,0 117,-118 117,-308 0,-425z"/>
  <path class="fil6" d="M22222 11280c-118,-118 -308,-118 -426,0 -117,117 -117,307 0,425 118,117 308,117 426,0 117,-118 117,-308 0,-425z"/>
  <path class="fil6" d="M18910 7818c-117,-117 -308,-117 -425,0 -118,118 -118,308 0,425 117,118 308,118 425,0 118,-117 118,-307 0,-425z"/>
  <path class="fil6" d="M17872 12318c-117,-118 -308,-118 -425,0 -118,117 -118,308 0,425 117,118 308,118 425,0 117,-117 117,-308 0,-425z"/>
  <polygon class="fil5" points="17482,11165 17631,11314 15314,13609 15013,13609 "/>
  <line class="fil1 str3" x1="18395" y1="10402" x2="17557" y2= "11240" />
  <polygon class="fil7" points="21611,9415 21664,9200 27173,9198 27173,9411 "/>
 </g>
</svg>
