<?xml version="1.0" encoding="UTF-8" standalone="no"?>
<!-- Creator: CorelDRAW X7 -->

<svg
   xmlns:dc="http://purl.org/dc/elements/1.1/"
   xmlns:cc="http://creativecommons.org/ns#"
   xmlns:rdf="http://www.w3.org/1999/02/22-rdf-syntax-ns#"
   xmlns:svg="http://www.w3.org/2000/svg"
   xmlns="http://www.w3.org/2000/svg"
   xmlns:sodipodi="http://sodipodi.sourceforge.net/DTD/sodipodi-0.dtd"
   xmlns:inkscape="http://www.inkscape.org/namespaces/inkscape"
   xml:space="preserve"
   width="31.827522mm"
   height="5.27596mm"
   version="1.1"
   style="clip-rule:evenodd;fill-rule:evenodd;image-rendering:optimizeQuality;shape-rendering:geometricPrecision;text-rendering:geometricPrecision"
   viewBox="0 0 3182.7522 527.596"
   id="svg59"
   sodipodi:docname="brand-name-inline.svg"
   inkscape:version="0.92.4 (f8dce91, 2019-08-02)"><metadata
   id="metadata63"><rdf:RDF><cc:Work
       rdf:about=""><dc:format>image/svg+xml</dc:format><dc:type
         rdf:resource="http://purl.org/dc/dcmitype/StillImage" /><dc:title></dc:title></cc:Work></rdf:RDF></metadata><sodipodi:namedview
   pagecolor="#ffffff"
   bordercolor="#666666"
   borderopacity="1"
   objecttolerance="10"
   gridtolerance="10"
   guidetolerance="10"
   inkscape:pageopacity="0"
   inkscape:pageshadow="2"
   inkscape:window-width="1920"
   inkscape:window-height="996"
   id="namedview61"
   showgrid="false"
   inkscape:zoom="1.6820162"
   inkscape:cx="-51.895136"
   inkscape:cy="22.655168"
   inkscape:window-x="1920"
   inkscape:window-y="0"
   inkscape:window-maximized="1"
   inkscape:current-layer="Capa_x0020_1"
   fit-margin-top="0"
   fit-margin-left="0"
   fit-margin-right="0"
   fit-margin-bottom="0" />
 <defs
   id="defs15">
  <style
   type="text/css"
   id="style2">
   <![CDATA[
    .str0 {stroke:#373435;stroke-width:282.22}
    .str3 {stroke:#E6E7E8;stroke-width:105.83}
    .str2 {stroke:#E6E7E8;stroke-width:211.66}
    .str5 {stroke:#2178B6;stroke-width:211.66}
    .str4 {stroke:#33B5E5;stroke-width:211.66}
    .str1 {stroke:#3ED6DB;stroke-width:211.66}
    .fil4 {fill:none}
    .fil0 {fill:#FEFEFE}
    .fil3 {fill:#E6E7E8}
    .fil7 {fill:#373435}
    .fil9 {fill:#2178B6}
    .fil8 {fill:#33B5E5}
    .fil6 {fill:#3ED6DB}
    .fil1 {fill:#373435;fill-rule:nonzero}
    .fil2 {fill:#3ACFE6;fill-rule:nonzero}
    .fil5 {fill:url(#id0)}
   ]]>
  </style>
  <linearGradient
   id="id0"
   gradientUnits="userSpaceOnUse"
   x1="19799.699"
   y1="9644.2695"
   x2="22645.199"
   y2="12491.8">
   <stop
   offset="0"
   style="stop-opacity:1; stop-color:#13548A"
   id="stop4" />
   <stop
   offset="0.321569"
   style="stop-opacity:1; stop-color:#2B92D5"
   id="stop6" />
   <stop
   offset="0.54902"
   style="stop-opacity:1; stop-color:#37C9EE"
   id="stop8" />
   <stop
   offset="0.811765"
   style="stop-opacity:1; stop-color:#40D9D7"
   id="stop10" />
   <stop
   offset="1"
   style="stop-opacity:1; stop-color:#ADD9DA"
   id="stop12" />
  </linearGradient>
 </defs>
 <g
   id="Capa_x0020_1"
   transform="translate(-7379.6237,-10090.202)">
  <metadata
   id="CorelCorpID_0Corel-Layer" />
  
  <path
   class="fil1"
   d="m 7379.6237,10171.895 v -73.105 H 7619.2 v 73.105 h -80.8129 v 431.591 h -77.9504 v -431.591 z m 275.4687,431.591 v -504.696 h 203.0233 v 73.105 h -125.2932 v 132.12 h 90.2815 v 72.886 h -90.2815 v 150.836 h 125.2932 v 75.749 z m 340.207,-431.591 v 146.432 h 30.8279 c 20.6986,0 34.7913,-8.147 41.6175,-24.441 4.1838,-9.909 6.3858,-27.305 6.3858,-51.967 0,-23.561 -2.6424,-40.076 -8.1474,-49.765 -7.2665,-13.652 -21.3592,-20.259 -42.4983,-20.259 z m 0,219.318 v 212.273 h -77.7301 v -504.696 h 114.2831 c 45.361,0 77.7302,13.431 97.1077,40.296 16.2946,22.68 24.4421,57.912 24.4421,105.695 0,59.894 -16.515,101.512 -49.5448,124.193 l 57.2517,234.512 h -81.0332 l -48.0033,-212.273 z m 221.0795,212.273 v -504.696 h 103.053 l 50.8659,279.652 c 4.6243,23.121 6.8262,48.444 6.8262,75.748 0,-22.019 2.202,-46.902 6.8261,-75.087 l 48.4438,-280.313 h 105.6954 v 504.696 h -73.7666 v -318.628 c 0,-18.497 2.202,-47.784 6.3858,-87.86 0,0.661 -1.5414,9.91 -4.404,27.745 -2.4222,14.533 -4.8444,29.067 -7.7069,43.6 l -63.6374,335.143 h -38.7551 l -60.1142,-335.364 c -2.4222,-16.954 -6.606,-40.516 -12.7715,-71.124 3.5231,36.994 5.2847,66.28 5.2847,87.86 v 318.628 z m 400.9819,0 v -504.696 h 79.2716 v 504.696 z m 157.4421,0 v -504.696 h 69.5828 l 98.8692,301.672 c 3.9637,11.89 9.0282,29.727 15.1938,53.728 -6.1656,-33.249 -9.2484,-55.93 -9.2484,-68.041 v -287.359 h 73.5464 v 504.696 h -73.106 l -94.9057,-278.772 c 0,-0.22 -0.2202,-0.661 -0.4404,-1.102 l -1.3212,-4.183 c -6.8261,-20.038 -11.6704,-36.553 -14.7532,-49.545 5.9454,36.773 8.8079,60.115 8.8079,69.803 v 263.799 z m 321.7104,-504.696 h 79.2715 v 390.852 c 0,32.149 13.6523,48.224 41.1772,48.224 26.4238,0 39.6358,-16.075 39.6358,-48.224 v -390.852 h 79.2715 v 377.42 c 0,41.838 -9.0282,74.648 -27.5249,98.65 -20.4785,26.423 -51.0861,39.415 -91.8228,39.415 -80.1523,0 -120.0083,-46.682 -120.0083,-140.267 z m 291.1027,376.76 74.2069,-11.231 c 2.8626,49.985 20.0381,74.868 51.5266,74.868 14.5331,0 25.9834,-4.404 34.7913,-13.432 8.5878,-9.249 12.9918,-20.919 12.9918,-35.232 0,-26.204 -20.9189,-60.114 -62.9768,-101.732 l -7.2666,-7.266 c -31.9289,-32.149 -53.9487,-56.591 -65.3991,-73.327 -20.4784,-29.946 -30.8278,-60.334 -30.8278,-91.382 0,-34.791 11.4504,-64.738 34.3511,-89.401 22.9006,-24.661 51.7466,-37.213 86.538,-37.213 35.0116,0 62.7567,12.552 83.8958,37.213 18.937,22.681 29.947,51.967 32.8096,88.08 l -76.1888,10.79 c -2.6424,-42.058 -16.7351,-62.977 -42.7185,-62.977 -27.7451,0 -41.3974,15.634 -41.3974,46.682 0,29.286 24.4421,67.601 73.3261,114.724 1.101,1.1 2.6424,2.642 4.404,4.403 30.1673,29.067 50.6457,52.849 61.8758,70.905 16.9553,27.084 25.5431,56.59 25.5431,88.96 0,36.113 -11.2301,66.059 -33.4702,90.061 -22.4602,24.002 -51.5265,35.892 -87.4189,35.892 -40.5165,0 -72.0049,-13.211 -94.9056,-40.075 -20.6987,-24.663 -31.9288,-57.693 -33.6904,-99.31 z"
   id="path20"
   inkscape:connector-curvature="0"
   style="fill:#373435;fill-rule:nonzero;stroke-width:0.22019874" />
  <path
   class="fil2"
   d="m 9862.1445,10608.77 5.0641,-70.243 c -35.2316,0.22 -54.8291,0.66 -58.3524,1.1 -3.5234,0.441 -6.6057,0.661 -9.2485,0.661 -25.1026,0 -37.8741,-12.992 -37.8741,-39.196 v -358.043 h -72.2252 v 344.171 c 0,42.058 7.0464,73.326 20.9189,93.585 14.3129,21.139 35.452,31.268 63.4172,30.387 z m 162.5065,-152.818 h -57.252 l 1.1013,60.995 c 0.2201,27.085 9.4686,40.517 27.7447,40.517 19.157,0 28.626,-13.432 28.406,-40.517 z m 66.279,-94.905 v 155.019 c 0,29.727 -8.587,53.729 -26.203,72.666 -18.057,19.377 -41.838,29.066 -71.124,29.066 -29.5064,0 -51.967,-8.808 -67.8211,-26.424 -15.8549,-17.396 -23.782,-47.122 -23.782,-88.52 0,-73.326 40.9576,-108.337 122.6511,-105.254 v -34.572 c 0.22,-32.149 -9.029,-48.223 -27.7448,-48.223 -10.57,0 -21.8003,1.982 -33.4707,6.165 l -25.9831,-50.425 51.9669,-15.414 c 67.8207,-1.321 101.5107,33.91 101.5107,105.916 z m 119.348,181.663 c 9.689,10.79 20.039,16.075 30.388,16.075 15.194,0 22.68,-10.349 22.68,-31.048 v -178.582 c 0,-23.781 -8.808,-35.672 -26.424,-35.672 -9.248,0 -18.276,4.624 -26.644,14.093 z m -64.958,65.84 v -468.143 h 64.958 v 150.616 c 17.837,-21.8 36.773,-32.59 57.032,-32.59 41.618,0 62.316,28.846 62.316,86.759 v 191.793 c 0,50.866 -19.378,76.189 -58.573,76.189 -24.002,0 -44.26,-10.35 -60.775,-31.048 v 26.424 z m 218.877,-93.584 62.317,-13.874 c 5.064,37.655 19.157,56.372 42.278,56.372 20.038,0 29.947,-10.13 29.947,-30.388 0,-18.277 -22.461,-44.26 -67.161,-77.73 -40.076,-29.947 -60.114,-63.638 -60.114,-100.631 0,-28.185 8.587,-51.086 25.984,-68.481 17.395,-17.176 40.295,-25.764 68.701,-25.764 27.305,0 49.105,8.148 65.399,24.442 15.634,16.074 24.443,37.655 26.424,65.179 l -60.775,14.533 c -4.844,-29.286 -16.074,-43.819 -34.351,-43.819 -18.496,0 -27.745,10.129 -27.745,30.387 0,14.973 15.194,34.571 45.582,58.793 6.385,4.844 12.771,9.909 19.157,15.414 20.478,17.176 35.232,31.929 44.04,44.92 12.331,18.057 18.496,37.655 18.496,59.454 0,28.626 -8.807,51.527 -26.424,68.482 -17.616,17.176 -40.957,25.543 -69.803,25.543 -29.286,0 -53.287,-9.909 -71.564,-29.947 -16.516,-18.276 -26.644,-42.499 -30.388,-72.885 z"
   id="path22"
   inkscape:connector-curvature="0"
   style="fill:#3acfe6;fill-rule:nonzero;stroke-width:0.22019874" />
  
  
  
  
  
  
  
  
  
  
  
  
  
  
  
  
  
 </g>
</svg>