<?xml version="1.0" encoding="UTF-8" standalone="no"?>
<!-- Creator: CorelDRAW X7 -->

<svg
   xmlns:dc="http://purl.org/dc/elements/1.1/"
   xmlns:cc="http://creativecommons.org/ns#"
   xmlns:rdf="http://www.w3.org/1999/02/22-rdf-syntax-ns#"
   xmlns:svg="http://www.w3.org/2000/svg"
   xmlns="http://www.w3.org/2000/svg"
   xmlns:sodipodi="http://sodipodi.sourceforge.net/DTD/sodipodi-0.dtd"
   xmlns:inkscape="http://www.inkscape.org/namespaces/inkscape"
   xml:space="preserve"
   width="60.950001mm"
   height="26.003817mm"
   version="1.1"
   style="clip-rule:evenodd;fill-rule:evenodd;image-rendering:optimizeQuality;shape-rendering:geometricPrecision;text-rendering:geometricPrecision"
   viewBox="0 0 6095.0003 2600.3817"
   id="svg62"
   sodipodi:docname="brand-blanco-transparente2.svg"
   inkscape:version="0.92.4 (f8dce91, 2019-08-02)"><metadata
   id="metadata66"><rdf:RDF><cc:Work
       rdf:about=""><dc:format>image/svg+xml</dc:format><dc:type
         rdf:resource="http://purl.org/dc/dcmitype/StillImage" /><dc:title></dc:title></cc:Work></rdf:RDF></metadata><sodipodi:namedview
   pagecolor="#ffffff"
   bordercolor="#666666"
   borderopacity="1"
   objecttolerance="10"
   gridtolerance="10"
   guidetolerance="10"
   inkscape:pageopacity="0"
   inkscape:pageshadow="2"
   inkscape:window-width="1250"
   inkscape:window-height="567"
   id="namedview64"
   showgrid="false"
   inkscape:zoom="0.78484147"
   inkscape:cx="-262.68889"
   inkscape:cy="91.895785"
   inkscape:window-x="2258"
   inkscape:window-y="54"
   inkscape:window-maximized="0"
   inkscape:current-layer="_944043562816"
   fit-margin-top="0"
   fit-margin-left="0"
   fit-margin-right="0"
   fit-margin-bottom="0"
   showguides="true"
   inkscape:guide-bbox="true"><sodipodi:guide
     position="7434.5961,-1771.0476"
     orientation="0,1"
     id="guide5024"
     inkscape:locked="false" /><sodipodi:guide
     position="10235.35,4260.1538"
     orientation="0,1"
     id="guide5026"
     inkscape:locked="false" /></sodipodi:namedview>
 <defs
   id="defs15">
  <style
   type="text/css"
   id="style2">
   <![CDATA[
    .str1 {stroke:#373435;stroke-width:282.22}
    .str4 {stroke:#E6E7E8;stroke-width:105.83}
    .str6 {stroke:#33B5E5;stroke-width:105.83}
    .str3 {stroke:#E6E7E8;stroke-width:211.66}
    .str7 {stroke:#2178B6;stroke-width:211.66}
    .str5 {stroke:#33B5E5;stroke-width:211.66}
    .str0 {stroke:#3ACFE6;stroke-width:211.66}
    .str2 {stroke:#3ED6DB;stroke-width:211.66}
    .fil1 {fill:none}
    .fil0 {fill:#FEFEFE}
    .fil3 {fill:#E6E7E8}
    .fil6 {fill:#373435}
    .fil8 {fill:#2178B6}
    .fil7 {fill:#33B5E5}
    .fil5 {fill:#3ED6DB}
    .fil2 {fill:#373435;fill-rule:nonzero}
    .fil4 {fill:url(#id0)}
   ]]>
  </style>
  <linearGradient
   id="id0"
   gradientUnits="userSpaceOnUse"
   x1="17736.199"
   y1="9644.2598"
   x2="20581.801"
   y2="12491.8"
   gradientTransform="matrix(0.25190848,0,0,0.25190848,8322.0763,7888.6722)">
   <stop
   offset="0"
   style="stop-opacity:1; stop-color:#13548A"
   id="stop4" />
   <stop
   offset="0.321569"
   style="stop-opacity:1; stop-color:#2B92D5"
   id="stop6" />
   <stop
   offset="0.54902"
   style="stop-opacity:1; stop-color:#37C9EE"
   id="stop8" />
   <stop
   offset="0.811765"
   style="stop-opacity:1; stop-color:#40D9D7"
   id="stop10" />
   <stop
   offset="1"
   style="stop-opacity:1; stop-color:#ADD9DA"
   id="stop12" />
  </linearGradient>
 </defs>
 <g
   id="Capa_x0020_1"
   transform="translate(-11981.963,-9233.5203)">
  <metadata
   id="CorelCorpID_0Corel-Layer" />
  <g
   id="_944043562816">
   
   <polyline
   class="fil1 str0"
   points="3909,10591 3909,11870 9733,11870 "
   id="polyline20"
   style="fill:none;stroke:#3acfe6;stroke-width:211.66000366"
   transform="matrix(0.32076992,0,0,0.32076992,13693.963,7163.9255)" />
   <path
   class="fil2"
   d="m 14773.354,9947.8877 v -106.4955 h 348.677 v 106.4955 h -117.402 v 628.7103 h -113.553 v -628.7103 z m 400.962,628.7103 v -735.2058 h 295.75 v 106.4955 h -182.197 v 192.4613 h 131.195 v 106.175 h -131.195 v 219.729 h 182.197 v 110.345 z m 495.911,-628.7103 V 10161.2 h 44.908 c 30.152,0 50.36,-11.869 60.625,-35.606 6.095,-14.434 8.981,-39.775 8.981,-75.702 0,-34.322 -3.849,-58.3796 -11.547,-72.4934 -10.585,-19.8879 -31.114,-29.5109 -62.229,-29.5109 z m 0,319.4873 v 309.223 h -113.553 v -735.2058 h 166.48 c 66.4,0 113.552,19.5668 141.78,58.7007 23.737,33.0394 35.605,84.363 35.605,153.9701 0,87.249 -24.057,147.874 -72.173,180.913 l 83.4,341.622 h -118.042 l -69.929,-309.223 z m 321.731,309.223 v -735.2058 h 150.442 l 74.098,407.3778 c 6.736,33.68 9.943,70.57 9.943,110.345 0,-32.078 3.209,-68.324 9.944,-109.382 l 70.57,-408.3408 h 153.648 v 735.2058 h -107.137 v -464.155 c 0,-26.944 3.208,-69.607 9.303,-127.9871 0,0.9615 -2.246,14.4347 -6.416,40.4161 -3.528,21.171 -7.378,42.343 -11.548,63.513 l -92.381,488.213 h -56.455 l -87.57,-488.534 c -3.53,-24.699 -9.624,-59.021 -18.605,-103.6081 5.132,53.8891 7.377,96.5511 7.377,127.9871 v 464.155 z m 584.443,0 v -735.2058 h 115.478 v 735.2058 z m 229.03,0 v -735.2058 h 101.363 l 144.348,439.4538 c 5.452,17.322 13.151,43.305 22.132,78.269 -8.981,-48.436 -13.472,-81.476 -13.472,-99.119 v -418.6038 h 107.137 v 735.2058 h -106.495 l -138.573,-406.097 c 0,-0.32 0,-0.962 -0.321,-1.603 l -2.245,-6.095 c -9.624,-29.189 -16.681,-53.247 -21.171,-72.173 8.34,53.569 12.51,87.57 12.51,101.685 v 384.283 z m 468.645,-735.2058 h 115.798 v 569.3668 c 0,46.832 19.888,70.249 59.984,70.249 38.172,0 57.739,-23.417 57.739,-70.249 v -569.3668 h 115.477 v 549.7988 c 0,60.948 -13.474,108.743 -40.097,143.706 -29.83,38.492 -74.418,57.418 -133.76,57.418 -116.762,0 -175.141,-68.004 -175.141,-204.331 z m 424.058,548.8378 108.42,-16.36 c 3.849,72.815 29.19,109.061 75.06,109.061 21.171,0 37.851,-6.414 50.681,-19.565 12.512,-13.473 18.927,-30.475 18.927,-51.323 0,-38.173 -30.474,-87.571 -91.74,-148.197 l -10.586,-10.586 c -46.833,-46.831 -78.589,-82.436 -95.589,-106.816 -29.833,-43.624 -44.588,-87.891 -44.588,-133.119 0,-50.6818 16.68,-94.3066 50.04,-130.2328 33.361,-35.9263 75.382,-54.2102 125.743,-54.2102 51.002,0 91.74,18.2839 122.212,54.2102 27.908,33.0392 43.947,75.7017 48.116,128.3078 l -110.986,15.718 c -3.85,-61.2672 -24.379,-91.7403 -62.23,-91.7403 -40.416,0 -60.626,22.7746 -60.626,68.0033 0,42.662 35.606,98.476 107.138,167.12 1.603,1.605 3.849,3.85 6.416,6.416 43.946,42.342 73.776,76.985 89.815,103.288 25.02,39.455 37.21,82.439 37.21,129.592 0,52.606 -16.359,96.231 -48.758,131.195 -32.718,34.964 -75.06,52.284 -127.025,52.284 -59.021,0 -105.212,-19.245 -138.251,-58.379 -30.154,-35.927 -46.513,-84.042 -49.399,-144.667 z"
   id="path22"
   inkscape:connector-curvature="0"
   style="fill:#373435;fill-rule:nonzero;stroke-width:0.32076994" />
   <path
   class="fil2"
   d="m 17056.914,11241.553 7.379,-102.325 c -51.324,0.321 -79.551,0.962 -85.004,1.603 -5.133,0.642 -9.623,0.963 -13.473,0.963 -36.567,0 -55.172,-18.925 -55.172,-57.097 v -521.572 h -105.213 v 501.363 c 0,61.267 10.265,106.817 30.473,136.327 20.85,30.794 51.644,45.55 92.382,44.267 z m 236.729,-222.615 h -83.4 l 1.604,88.855 c 0.321,39.453 13.793,59.021 40.417,59.021 27.907,0 41.7,-19.568 41.379,-59.021 z m 96.552,-138.252 v 226.143 c 0,42.984 -12.51,77.948 -38.171,105.534 -26.304,28.227 -60.947,42.341 -103.609,42.341 -42.663,0 -75.702,-12.83 -98.798,-38.491 -23.094,-25.342 -34.643,-68.324 -34.643,-128.95 0,-106.817 59.663,-157.819 178.669,-153.328 v -50.361 c 0.321,-46.833 -13.151,-70.249 -40.417,-70.249 -15.397,0 -31.756,3.209 -48.436,8.981 l -37.851,-73.456 75.381,-22.454 c 98.797,-1.925 147.875,49.72 147.875,154.29 z m 174.178,264.957 c 14.114,15.397 28.869,23.096 44.266,23.096 21.813,0 32.719,-15.077 32.719,-45.229 v -260.144 c 0,-34.643 -12.831,-51.965 -38.493,-51.965 -13.472,0 -26.303,7.057 -38.492,20.529 z m -94.948,95.59 v -681.957 h 94.948 v 219.407 c 25.662,-31.757 53.248,-47.474 82.759,-47.474 60.625,0 91.098,42.341 91.098,126.704 v 279.07 c 0,74.097 -28.548,110.986 -85.325,110.986 -35.284,0 -64.796,-15.076 -88.532,-45.229 v 38.493 z m 318.845,-136.328 90.778,-20.208 c 7.377,54.852 28.227,82.117 61.909,82.117 28.87,0 43.303,-14.756 43.303,-44.267 0,-26.624 -32.397,-64.474 -97.835,-113.232 -58.379,-43.624 -87.57,-92.701 -87.57,-146.592 0,-41.058 12.831,-74.418 37.851,-99.758 25.342,-25.02 58.701,-37.531 100.402,-37.531 39.454,0 71.21,11.869 94.947,35.605 22.775,23.417 35.927,55.172 38.814,94.948 l -88.854,21.172 c -6.736,-42.663 -23.416,-63.834 -50.04,-63.834 -26.945,0 -40.417,14.755 -40.417,44.266 0,21.813 22.134,50.362 66.4,85.646 9.302,7.057 18.604,14.434 27.906,22.454 29.833,25.02 51.324,46.512 64.155,65.437 17.963,26.303 26.944,54.852 26.944,86.608 0,41.7 -12.83,75.06 -38.492,99.759 -25.662,25.02 -59.343,37.209 -101.684,37.209 -42.662,0 -77.305,-14.434 -104.25,-43.624 -24.058,-26.624 -38.813,-61.909 -44.267,-106.175 z"
   id="path24"
   inkscape:connector-curvature="0"
   style="fill:#373435;fill-rule:nonzero;stroke-width:0.32076994" />
   <path
   class="fil3 str1"
   d="M 14485.521,10384.832 13431.033,9330.3444 c -81.871,-81.8702 -215.886,-81.8702 -297.757,0 l -1054.489,1054.4876 c -81.87,81.871 -81.87,215.887 0,297.757 l 1054.489,1054.489 c 81.871,81.87 215.886,81.87 297.757,0 l 1054.488,-1054.489 c 81.871,-81.87 81.871,-215.886 0,-297.757 z"
   id="path26"
   inkscape:connector-curvature="0"
   style="fill:#e6e7e8;stroke:#373435;stroke-width:71.09361267" />
   <line
   class="fil1 str2"
   x1="13126.979"
   y1="10191.115"
   x2="13057.452"
   y2="9983.0391"
   id="line28"
   style="fill:none;stroke:#3ed6db;stroke-width:53.31895065" />
   <path
   class="fil4"
   d="m 12549.352,10347.803 c -52.144,52.144 -53.152,123.687 -13.855,162.984 l 779.406,779.405 c 35.519,35.519 113.61,35.519 149.13,0 49.374,-49.373 43.83,-82.877 68.266,-165.755 l 120.665,-447.894 c 19.396,-79.099 135.779,-478.626 135.779,-522.206 0,-65.496 -51.893,-117.641 -117.39,-117.641 -27.961,0 -47.863,8.061 -74.816,15.114 l -596.772,160.97 c -49.877,13.351 -98.748,25.443 -149.129,40.306 l -223.948,60.458 c -26.198,6.549 -52.144,9.068 -77.336,34.259 z"
   id="path30"
   style="fill:url(#id0);stroke-width:0.25190848"
   inkscape:connector-curvature="0" />
   <path
   class="fil5 str2"
   d="m 13085.666,9858.0927 c -29.474,-29.4733 -77.588,-29.4733 -107.061,0 -29.726,29.7252 -29.726,77.5879 0,107.0611 29.473,29.7251 77.587,29.7251 107.061,0 29.725,-29.4732 29.725,-77.3359 0,-107.0611 z"
   id="path32"
   inkscape:connector-curvature="0"
   style="fill:#3ed6db;stroke:#3ed6db;stroke-width:53.31895065" />
   <polyline
   class="fil1 str3"
   points="21185,11507 19774,11507 18770,12512 "
   id="polyline34"
   style="fill:none;stroke:#e6e7e8;stroke-width:211.66000366"
   transform="matrix(0.25190847,0,0,0.25190847,8322.0764,7888.6722)" />
   <path
   class="fil6 str4"
   d="m 13062.994,10401.963 c -29.725,-29.474 -77.588,-29.474 -107.313,0 -29.474,29.725 -29.474,77.588 0,107.06 29.725,29.726 77.588,29.726 107.313,0 29.473,-29.472 29.473,-77.335 0,-107.06 z"
   id="path36"
   inkscape:connector-curvature="0"
   style="fill:#373435;stroke:#e6e7e8;stroke-width:26.65947533" />
   <path
   class="fil7 str5"
   d="m 12824.185,10991.68 c -29.474,-29.725 -77.588,-29.725 -107.062,0 -29.725,29.474 -29.725,77.589 0,107.062 29.474,29.725 77.588,29.725 107.062,0 29.474,-29.473 29.474,-77.588 0,-107.062 z"
   id="path38"
   inkscape:connector-curvature="0"
   style="fill:#33b5e5;stroke:#33b5e5;stroke-width:53.31895065" />
   <line
   class="fil1 str6"
   x1="12929.986"
   y1="10895.703"
   x2="12825.947"
   y2="10993.444"
   id="line40"
   style="fill:none;stroke:#33b5e5;stroke-width:26.65947533" />
   <polyline
   class="fil1 str3"
   points="21698,9308 20921,9308 18273,11956 "
   id="polyline42"
   style="fill:none;stroke:#e6e7e8;stroke-width:211.66000366"
   transform="matrix(0.25190847,0,0,0.25190847,8322.0764,7888.6722)" />
   <polygon
   class="fil8"
   points="21071,11403 21681,11403 21695,11614 21014,11614 "
   id="polygon44"
   style="fill:#2178b6"
   transform="matrix(0.25190847,0,0,0.25190847,8322.0764,7888.6722)" />
   <path
   class="fil8 str7"
   d="m 13919.987,10730.199 c -29.725,-29.724 -77.588,-29.724 -107.314,0 -29.472,29.474 -29.472,77.337 0,107.062 29.726,29.472 77.589,29.472 107.314,0 29.473,-29.725 29.473,-77.588 0,-107.062 z"
   id="path46"
   inkscape:connector-curvature="0"
   style="fill:#2178b6;stroke:#2178b6;stroke-width:53.31895065" />
   <path
   class="fil6"
   d="m 13919.735,10730.199 c -29.473,-29.724 -77.336,-29.724 -107.062,0 -29.472,29.474 -29.472,77.337 0,107.062 29.726,29.472 77.589,29.472 107.062,0 29.725,-29.725 29.725,-77.588 0,-107.062 z"
   id="path48"
   inkscape:connector-curvature="0"
   style="fill:#373435;stroke-width:0.25190848" />
   <path
   class="fil6"
   d="m 13085.666,9858.0927 c -29.474,-29.4733 -77.588,-29.4733 -107.061,0 -29.726,29.7252 -29.726,77.5879 0,107.0611 29.473,29.7251 77.587,29.7251 107.061,0 29.725,-29.4732 29.725,-77.3359 0,-107.0611 z"
   id="path50"
   inkscape:connector-curvature="0"
   style="fill:#373435;stroke-width:0.25190848" />
   <path
   class="fil6"
   d="m 12824.185,10991.68 c -29.474,-29.725 -77.588,-29.725 -107.062,0 -29.725,29.474 -29.725,77.589 0,107.062 29.474,29.725 77.588,29.725 107.062,0 29.474,-29.473 29.474,-77.588 0,-107.062 z"
   id="path52"
   inkscape:connector-curvature="0"
   style="fill:#373435;stroke-width:0.25190848" />
   <path
   style="fill:#3ed6db;stroke-width:0.25190848"
   d="m 12725.94,10701.231 37.534,37.533 -342.723,336.432 -38.245,-36.026 z"
   id="polygon54"
   inkscape:connector-curvature="0"
   sodipodi:nodetypes="ccccc" />
   <line
   class="fil1 str3"
   x1="12955.68"
   y1="10509.024"
   x2="12744.834"
   y2="10720.124"
   id="line56"
   style="fill:none;stroke:#e6e7e8;stroke-width:53.31895065" />
   <path
   style="fill:#33b5e5;stroke-width:0.25190848"
   d="m 13766.07,10260.39 13.352,-54.16 577.098,0.247 55.545,52.907 z"
   id="polygon58"
   inkscape:connector-curvature="0"
   sodipodi:nodetypes="ccccc" />
  </g>
 </g>
</svg>