<?xml version="1.0" encoding="UTF-8" standalone="no"?>
<!-- Creator: CorelDRAW X7 -->

<svg
   xmlns:dc="http://purl.org/dc/elements/1.1/"
   xmlns:cc="http://creativecommons.org/ns#"
   xmlns:rdf="http://www.w3.org/1999/02/22-rdf-syntax-ns#"
   xmlns:svg="http://www.w3.org/2000/svg"
   xmlns="http://www.w3.org/2000/svg"
   xmlns:sodipodi="http://sodipodi.sourceforge.net/DTD/sodipodi-0.dtd"
   xmlns:inkscape="http://www.inkscape.org/namespaces/inkscape"
   xml:space="preserve"
   width="166.26794mm"
   height="59.838737mm"
   version="1.1"
   style="clip-rule:evenodd;fill-rule:evenodd;image-rendering:optimizeQuality;shape-rendering:geometricPrecision;text-rendering:geometricPrecision"
   viewBox="0 0 16626.794 5983.8737"
   id="svg3896"
   sodipodi:docname="brand-transparente.svg"
   inkscape:version="0.92.4 (f8dce91, 2019-08-02)"><metadata
   id="metadata3900"><rdf:RDF><cc:Work
       rdf:about=""><dc:format>image/svg+xml</dc:format><dc:type
         rdf:resource="http://purl.org/dc/dcmitype/StillImage" /><dc:title></dc:title></cc:Work></rdf:RDF></metadata><sodipodi:namedview
   pagecolor="#ffffff"
   bordercolor="#666666"
   borderopacity="1"
   objecttolerance="10"
   gridtolerance="10"
   guidetolerance="10"
   inkscape:pageopacity="0"
   inkscape:pageshadow="2"
   inkscape:window-width="1920"
   inkscape:window-height="996"
   id="namedview3898"
   showgrid="false"
   showguides="false"
   fit-margin-top="0"
   fit-margin-left="0"
   fit-margin-right="0"
   fit-margin-bottom="0"
   inkscape:zoom="1.4503826"
   inkscape:cx="376.54006"
   inkscape:cy="145.89335"
   inkscape:window-x="1920"
   inkscape:window-y="0"
   inkscape:window-maximized="1"
   inkscape:current-layer="_944043562816" />
 <defs
   id="defs3849">
  <style
   type="text/css"
   id="style3836">
   <![CDATA[
    .str1 {stroke:#373435;stroke-width:282.22}
    .str4 {stroke:#E6E7E8;stroke-width:105.83}
    .str6 {stroke:#33B5E5;stroke-width:105.83}
    .str3 {stroke:#E6E7E8;stroke-width:211.66}
    .str7 {stroke:#2178B6;stroke-width:211.66}
    .str5 {stroke:#33B5E5;stroke-width:211.66}
    .str0 {stroke:#3ACFE6;stroke-width:211.66}
    .str2 {stroke:#3ED6DB;stroke-width:211.66}
    .fil1 {fill:none}
    .fil0 {fill:#FEFEFE}
    .fil3 {fill:#E6E7E8}
    .fil6 {fill:#373435}
    .fil8 {fill:#2178B6}
    .fil7 {fill:#33B5E5}
    .fil5 {fill:#3ED6DB}
    .fil2 {fill:#373435;fill-rule:nonzero}
    .fil4 {fill:url(#id0)}
   ]]>
  </style>
  <linearGradient
   id="id0"
   gradientUnits="userSpaceOnUse"
   x1="17736.199"
   y1="9644.2598"
   x2="20581.801"
   y2="12491.8"
   gradientTransform="translate(-10477.509)">
   <stop
   offset="0"
   style="stop-opacity:1; stop-color:#13548A"
   id="stop3838" />
   <stop
   offset="0.321569"
   style="stop-opacity:1; stop-color:#2B92D5"
   id="stop3840" />
   <stop
   offset="0.54902"
   style="stop-opacity:1; stop-color:#37C9EE"
   id="stop3842" />
   <stop
   offset="0.811765"
   style="stop-opacity:1; stop-color:#40D9D7"
   id="stop3844" />
   <stop
   offset="1"
   style="stop-opacity:1; stop-color:#ADD9DA"
   id="stop3846" />
  </linearGradient>
 </defs>
 <g
   id="Capa_x0020_1"
   transform="translate(-6138.929,-7624.8763)">
  <metadata
   id="CorelCorpID_0Corel-Layer" />
  <g
   id="_944043562816">
   
   <polyline
   class="fil1 str0"
   points="3909,10591 3909,11870 9733,11870 "
   id="polyline3854"
   transform="translate(9101.6718)"
   style="fill:none;stroke:#3acfe6;stroke-width:211.66000366" />
   <path
   class="fil2"
   d="m 12466.686,8679 v -332 h 1087.006 v 332 h -366.002 v 1960 h -354.002 V 8679 Z m 1250.007,1960 V 8347 h 922.005 v 332 h -568.003 v 600 h 409.003 v 331 h -409.003 v 685 h 568.003 v 344 z m 1546.009,-1960 v 665 h 140.001 c 94,0 157.001,-37 189.001,-111 19,-45 28,-124 28,-236 0,-107 -12,-182 -36,-226 -33,-62 -97.001,-92 -194.001,-92 z m 0,996 v 964 H 14908.7 V 8347 h 519.003 c 207.001,0 354.002,61 442.002,183 74.001,103 111.001,263 111.001,480 0,272 -75,461 -225.001,564 l 260.001,1065 h -368.002 l -218.001,-964 z m 1003.006,964 V 8347 h 469.002 l 231.002,1270 c 21,105 31,220 31,344 0,-100 10,-213 31,-341 l 220.001,-1273 h 479.003 v 2292 h -334.002 V 9192 c 0,-84 10,-217 29,-399 0,3 -7,45 -20,126 -11,66 -23,132 -36,198 l -288.002,1522 h -176.001 L 16628.71,9116 c -11,-77 -30,-184 -58,-323 16,168 23,301 23,399 v 1447 z m 1822.01,0 V 8347 h 360.002 v 2292 z m 714.004,0 V 8347 h 316.002 l 450,1370 c 17,54 41,135 69,244 -28,-151 -42,-254 -42,-309 V 8347 h 334 v 2292 h -332 l -432,-1266 c 0,-1 0,-3 -1,-5 l -7,-19 c -30,-91 -52,-166 -66,-225 26,167 39,273 39,317 v 1198 z m 1461.002,-2292 h 361 v 1775 c 0,146 62,219 187,219 119,0 180,-73 180,-219 V 8347 h 360 v 1714 c 0,190 -42,339 -125,448 -93,120 -232,179 -417,179 -364,0 -546,-212 -546,-637 z m 1322,1711 338,-51 c 12,227 91,340 234,340 66,0 118,-20 158,-61 39,-42 59,-95 59,-160 0,-119 -95,-273 -286,-462 l -33,-33 c -146,-146 -245,-257 -298,-333 -93,-136 -139,-274 -139,-415 0,-158 52,-294 156,-406 104,-112 235,-169 392,-169 159,0 286,57 381,169 87,103 137,236 150,400 l -346,49 c -12,-191 -76,-286 -194,-286 -126,0 -189,71 -189,212 0,133 111,307 334,521 5,5 12,12 20,20 137,132 230,240 280,322 78,123 116,257 116,404 0,164 -51,300 -152,409 -102,109 -234,163 -396,163 -184,0 -328,-60 -431,-182 -94,-112 -145,-262 -154,-451 z"
   id="path3856"
   inkscape:connector-curvature="0"
   style="fill:#373435;fill-rule:nonzero" />
   <path
   class="fil2"
   d="m 19585.724,12712 23,-319 c -160,1 -248,3 -265,5 -16,2 -30,3 -42,3 -114,0 -172,-59 -172,-178 v -1626 h -328.002 v 1563 c 0,191 32,333 95.001,425 65,96 161.001,142 288.001,138 z m 738,-694 h -260 l 5,277 c 1,123 43,184 126,184 87,0 130,-61 129,-184 z m 301,-431 v 705 c 0,134 -39,243 -119,329 -82,88 -190,132 -323,132 -133,0 -236,-40 -308,-120 -72,-79 -108,-213 -108,-402 0,-333 186,-492 557,-478 v -157 c 1,-146 -41,-219 -126,-219 -48,0 -99,10 -151,28 l -118,-229 235,-70 c 308,-6 461,155 461,481 z m 543,826 c 44,48 90,72 138,72 68,0 102,-47 102,-141 v -811 c 0,-108 -40,-162 -120,-162 -42,0 -82,22 -120,64 z m -296,298 v -2126 h 296 v 684 c 80,-99 166,-148 258,-148 189,0 284,132 284,395 v 870 c 0,231 -89,346 -266,346 -110,0 -202,-47 -276,-141 v 120 z m 994,-425 283,-63 c 23,171 88,256 193,256 90,0 135,-46 135,-138 0,-83 -101,-201 -305,-353 -182,-136 -273,-289 -273,-457 0,-128 40,-232 118,-311 79,-78 183,-117 313,-117 123,0 222,37 296,111 71,73 112,172 121,296 l -277,66 c -21,-133 -73,-199 -156,-199 -84,0 -126,46 -126,138 0,68 69,157 207,267 29,22 58,45 87,70 93,78 160,145 200,204 56,82 84,171 84,270 0,130 -40,234 -120,311 -80,78 -185,116 -317,116 -133,0 -241,-45 -325,-136 -75,-83 -121,-193 -138,-331 z"
   id="path3858"
   inkscape:connector-curvature="0"
   style="fill:#373435;fill-rule:nonzero" />
   
   <line
   class="fil1 str2"
   x1="8596.4834"
   y1="9140"
   x2="8320.4785"
   y2="8314"
   id="line3862"
   style="fill:none;stroke:#3ed6db;stroke-width:211.66000366" />
   <path
   class="fil4"
   d="m 6303.455,9762 c -206.9988,207 -210.9988,491 -54.9997,647 l 3093.9826,3094 c 140.9991,141 450.9973,141 591.9967,0 195.9994,-196 173.9994,-329 270.9994,-658 l 479,-1778 c 77,-314 539,-1900 539,-2073 0,-260 -206,-467 -466,-467 -111,0 -190,32 -297,60 l -2368.9889,639 c -197.9991,53 -391.9979,101 -591.9967,160 l -888.9949,240 c -103.9994,26 -206.9991,36 -306.9985,136 z"
   id="path3864"
   style="fill:url(#id0)"
   inkscape:connector-curvature="0" />
   <path
   class="fil5 str2"
   d="m 8432.443,7818 c -116.9994,-117 -307.9982,-117 -424.9976,0 -117.9994,118 -117.9994,308 0,425 116.9994,118 307.9982,118 424.9976,0 117.9994,-117 117.9994,-307 0,-425 z"
   id="path3866"
   inkscape:connector-curvature="0"
   style="fill:#3ed6db;stroke:#3ed6db;stroke-width:211.66000366" />
   <polyline
   class="fil1 str3"
   points="21185,11507 19774,11507 18770,12512 "
   id="polyline3868"
   transform="translate(-10477.509)"
   style="fill:none;stroke:#e6e7e8;stroke-width:211.66000366" />
   <path
   class="fil6 str4"
   d="m 8342.4436,9977 c -117.9994,-117 -307.9982,-117 -425.9976,0 -116.9994,118 -116.9994,308 0,425 117.9994,118 307.9982,118 425.9976,0 116.9994,-117 116.9994,-307 0,-425 z"
   id="path3870"
   inkscape:connector-curvature="0"
   style="fill:#373435;stroke:#e6e7e8;stroke-width:105.83000183" />
   <path
   class="fil7 str5"
   d="m 7394.449,12318 c -116.9994,-118 -307.9982,-118 -424.9976,0 -117.9994,117 -117.9994,308 0,425 116.9994,118 307.9982,118 424.9976,0 116.9994,-117 116.9994,-308 0,-425 z"
   id="path3872"
   inkscape:connector-curvature="0"
   style="fill:#33b5e5;stroke:#33b5e5;stroke-width:211.66000366" />
   <line
   class="fil1 str6"
   x1="7814.4736"
   y1="11937"
   x2="7401.4692"
   y2="12325"
   id="line3874"
   style="fill:none;stroke:#33b5e5;stroke-width:105.83000183" />
   <polyline
   class="fil1 str3"
   points="21698,9308 20921,9308 18273,11956 "
   id="polyline3876"
   transform="translate(-10477.509)"
   style="fill:none;stroke:#e6e7e8;stroke-width:211.66000366" />
   <polygon
   class="fil8"
   points="21071,11403 21681,11403 21695,11614 21014,11614 "
   id="polygon3878"
   transform="translate(-10477.509)"
   style="fill:#2178b6" />
   <path
   class="fil8 str7"
   d="m 11744.434,11280 c -118,-118 -308,-118 -426,0 -117,117 -117,307 0,425 118,117 308,117 426,0 117,-118 117,-308 0,-425 z"
   id="path3880"
   inkscape:connector-curvature="0"
   style="fill:#2178b6;stroke:#2178b6;stroke-width:211.66000366" />
   <path
   class="fil6"
   d="m 11743.434,11280 c -117,-118 -307,-118 -425,0 -117,117 -117,307 0,425 118,117 308,117 425,0 118,-118 118,-308 0,-425 z"
   id="path3882"
   inkscape:connector-curvature="0"
   style="fill:#373435" />
   <path
   class="fil6"
   d="m 8432.443,7818 c -116.9994,-117 -307.9982,-117 -424.9976,0 -117.9994,118 -117.9994,308 0,425 116.9994,118 307.9982,118 424.9976,0 117.9994,-117 117.9994,-307 0,-425 z"
   id="path3884"
   inkscape:connector-curvature="0"
   style="fill:#373435" />
   <path
   class="fil6"
   d="m 7394.449,12318 c -116.9994,-118 -307.9982,-118 -424.9976,0 -117.9994,117 -117.9994,308 0,425 116.9994,118 307.9982,118 424.9976,0 116.9994,-117 116.9994,-308 0,-425 z"
   id="path3886"
   inkscape:connector-curvature="0"
   style="fill:#373435" />
   
   <line
   class="fil1 str3"
   x1="7916.4736"
   y1="10402"
   x2="7079.4668"
   y2="11240"
   id="line3890"
   style="fill:none;stroke:#e6e7e8;stroke-width:211.66000366" />
   
  </g>
 </g>
</svg>