<?xml version="1.0" encoding="UTF-8" standalone="no"?>
<!-- Creator: CorelDRAW X7 -->

<svg
   xmlns:dc="http://purl.org/dc/elements/1.1/"
   xmlns:cc="http://creativecommons.org/ns#"
   xmlns:rdf="http://www.w3.org/1999/02/22-rdf-syntax-ns#"
   xmlns:svg="http://www.w3.org/2000/svg"
   xmlns="http://www.w3.org/2000/svg"
   xmlns:sodipodi="http://sodipodi.sourceforge.net/DTD/sodipodi-0.dtd"
   xmlns:inkscape="http://www.inkscape.org/namespaces/inkscape"
   xml:space="preserve"
   width="23.985538mm"
   height="10.35205mm"
   version="1.1"
   style="clip-rule:evenodd;fill-rule:evenodd;image-rendering:optimizeQuality;shape-rendering:geometricPrecision;text-rendering:geometricPrecision"
   viewBox="0 0 2398.5538 1035.205"
   id="svg62"
   sodipodi:docname="brand-name.svg"
   inkscape:version="0.92.4 (f8dce91, 2019-08-02)"><metadata
   id="metadata66"><rdf:RDF><cc:Work
       rdf:about=""><dc:format>image/svg+xml</dc:format><dc:type
         rdf:resource="http://purl.org/dc/dcmitype/StillImage" /><dc:title></dc:title></cc:Work></rdf:RDF></metadata><sodipodi:namedview
   pagecolor="#ffffff"
   bordercolor="#666666"
   borderopacity="1"
   objecttolerance="10"
   gridtolerance="10"
   guidetolerance="10"
   inkscape:pageopacity="0"
   inkscape:pageshadow="2"
   inkscape:window-width="1920"
   inkscape:window-height="996"
   id="namedview64"
   showgrid="false"
   fit-margin-top="0"
   fit-margin-left="0"
   fit-margin-right="0"
   fit-margin-bottom="0"
   inkscape:zoom="1.6820162"
   inkscape:cx="193.5268"
   inkscape:cy="-44.095028"
   inkscape:window-x="1920"
   inkscape:window-y="0"
   inkscape:window-maximized="1"
   inkscape:current-layer="_944043562816" />
 <defs
   id="defs15">
  <style
   type="text/css"
   id="style2">
   <![CDATA[
    .str1 {stroke:#373435;stroke-width:282.22}
    .str4 {stroke:#E6E7E8;stroke-width:105.83}
    .str6 {stroke:#33B5E5;stroke-width:105.83}
    .str3 {stroke:#E6E7E8;stroke-width:211.66}
    .str7 {stroke:#2178B6;stroke-width:211.66}
    .str5 {stroke:#33B5E5;stroke-width:211.66}
    .str0 {stroke:#3ACFE6;stroke-width:211.66}
    .str2 {stroke:#3ED6DB;stroke-width:211.66}
    .fil1 {fill:none}
    .fil0 {fill:#FEFEFE}
    .fil3 {fill:#E6E7E8}
    .fil6 {fill:#373435}
    .fil8 {fill:#2178B6}
    .fil7 {fill:#33B5E5}
    .fil5 {fill:#3ED6DB}
    .fil2 {fill:#373435;fill-rule:nonzero}
    .fil4 {fill:url(#id0)}
   ]]>
  </style>
  <linearGradient
   id="id0"
   gradientUnits="userSpaceOnUse"
   x1="17736.199"
   y1="9644.2598"
   x2="20581.801"
   y2="12491.8">
   <stop
   offset="0"
   style="stop-opacity:1; stop-color:#13548A"
   id="stop4" />
   <stop
   offset="0.321569"
   style="stop-opacity:1; stop-color:#2B92D5"
   id="stop6" />
   <stop
   offset="0.54902"
   style="stop-opacity:1; stop-color:#37C9EE"
   id="stop8" />
   <stop
   offset="0.811765"
   style="stop-opacity:1; stop-color:#40D9D7"
   id="stop10" />
   <stop
   offset="1"
   style="stop-opacity:1; stop-color:#ADD9DA"
   id="stop12" />
  </linearGradient>
 </defs>
 <g
   id="Capa_x0020_1"
   transform="translate(-7315.2231,-10012.898)">
  <metadata
   id="CorelCorpID_0Corel-Layer" />
  <g
   id="_944043562816">
   
   
   <path
   class="fil2"
   d="m 7315.2231,10099.3 v -77.319 h 253.1535 v 77.319 h -85.2384 v 456.469 h -82.4438 V 10099.3 Z m 291.1149,456.469 v -533.788 h 214.7263 v 77.319 h -132.2826 v 139.735 h 95.2528 v 77.088 h -95.2528 v 159.531 h 132.2826 v 80.115 z m 360.0509,-456.469 v 154.873 h 32.6048 c 21.8919,0 36.5641,-8.616 44.0166,-25.85 4.425,-10.48 6.521,-28.878 6.521,-54.963 0,-24.919 -2.7948,-42.386 -8.3841,-52.633 -7.6854,-14.439 -22.5905,-21.427 -45.1811,-21.427 z m 0,231.961 v 224.508 h -82.4437 v -533.788 h 120.8709 c 48.2086,0 82.4437,14.206 102.9382,42.619 17.2339,23.987 25.851,61.251 25.851,111.788 0,63.346 -17.4669,107.363 -52.4007,131.351 l 60.5519,248.03 h -85.7043 l -50.7704,-224.508 z m 233.5906,224.508 v -533.788 h 109.2263 l 53.798,295.772 c 4.8908,24.454 7.2197,51.236 7.2197,80.115 0,-23.289 2.3289,-49.605 7.2196,-79.416 l 51.2362,-296.471 h 111.5552 v 533.788 h -77.7858 v -336.995 c 0,-19.563 2.3289,-50.537 6.7538,-92.923 0,0.698 -1.6302,10.48 -4.6579,29.344 -2.5618,15.37 -5.3564,30.742 -8.384,46.112 l -67.0729,354.462 h -40.989 l -63.5794,-354.694 c -2.5618,-17.933 -6.9868,-42.852 -13.5078,-75.224 3.7263,39.125 5.3565,70.1 5.3565,92.923 v 336.995 z m 424.3291,0 v -533.788 h 83.841 v 533.788 z m 166.2848,0 v -533.788 h 73.5938 l 104.8014,319.061 c 3.9592,12.577 9.5485,31.441 16.0695,56.826 -6.521,-35.166 -9.7814,-59.154 -9.7814,-71.963 v -303.924 h 77.7858 v 533.788 h -77.32 l -100.6094,-294.842 c 0,-0.232 0,-0.698 -0.2329,-1.164 l -1.6302,-4.425 c -6.9867,-21.193 -12.1103,-38.659 -15.3709,-52.401 6.0552,38.893 9.0828,63.58 9.0828,73.827 v 279.005 z m 340.255,-533.788 h 84.0741 v 413.382 c 0,34.003 14.4393,51.004 43.5507,51.004 27.7142,0 41.9206,-17.001 41.9206,-51.004 v -413.382 h 83.8411 v 399.177 c 0,44.248 -9.7815,78.95 -29.1115,104.334 -21.659,27.948 -54.0309,41.689 -97.1159,41.689 -84.7727,0 -127.1591,-49.374 -127.1591,-148.353 z m 307.8832,398.478 78.7174,-11.878 c 2.7947,52.866 21.1932,79.183 54.4967,79.183 15.3709,0 27.4813,-4.657 36.797,-14.206 9.0827,-9.782 13.7406,-22.125 13.7406,-37.262 0,-27.715 -22.1247,-63.58 -66.6071,-107.596 l -7.6854,-7.687 c -34.0022,-34.002 -57.0585,-59.852 -69.4018,-77.552 -21.6589,-31.674 -32.372,-63.813 -32.372,-96.65 0,-36.797 12.1104,-68.47 36.3311,-94.555 24.2208,-26.083 54.7296,-39.358 91.2937,-39.358 37.0298,0 66.6071,13.275 88.7318,39.358 20.2616,23.989 31.9062,54.963 34.9338,93.157 l -80.5806,11.412 c -2.7947,-44.482 -17.6998,-66.607 -45.1811,-66.607 -29.3443,0 -44.0166,16.535 -44.0166,49.373 0,30.974 25.851,71.498 77.7859,121.336 1.1646,1.165 2.7947,2.795 4.6579,4.659 31.9062,30.741 53.5652,55.894 65.2098,74.99 18.1655,28.646 27.0154,59.854 27.0154,94.089 0,38.194 -11.8775,69.867 -35.3996,95.253 -23.755,25.385 -54.4967,37.961 -92.2252,37.961 -42.8521,0 -76.3885,-13.973 -100.3764,-42.387 -21.8918,-26.083 -33.7693,-61.017 -35.8653,-105.033 z"
   id="path22"
   inkscape:connector-curvature="0"
   style="fill:#373435;fill-rule:nonzero;stroke-width:0.23289193" />
   <path
   class="fil2"
   d="m 8973.1807,11038.554 5.3564,-74.293 c -37.2627,0.233 -57.7571,0.699 -61.7163,1.165 -3.7263,0.465 -6.9868,0.698 -9.7815,0.698 -26.5496,0 -40.0574,-13.741 -40.0574,-41.455 v -378.681 h -76.3885 v 364.01 c 0,44.482 7.4525,77.552 22.1247,98.979 15.138,22.357 37.4956,33.07 67.0728,32.138 z m 171.8741,-161.627 h -60.5518 l 1.1644,64.511 c 0.2329,28.646 10.0143,42.852 29.3444,42.852 20.2616,0 30.2759,-14.206 30.043,-42.852 z m 70.1006,-100.377 v 164.189 c 0,31.207 -9.0828,56.593 -27.7142,76.622 -19.0971,20.494 -44.2495,30.742 -75.2241,30.742 -30.9746,0 -54.9625,-9.317 -71.7307,-27.948 -16.7682,-18.398 -25.1523,-49.606 -25.1523,-93.622 0,-77.553 43.3179,-114.584 129.7207,-111.322 v -36.565 c 0.2329,-34.002 -9.5485,-51.003 -29.3443,-51.003 -11.1788,0 -23.0563,2.329 -35.1667,6.521 l -27.4813,-53.332 54.7296,-16.303 c 71.7308,-1.397 107.3633,36.098 107.3633,112.021 z m 126.4602,192.369 c 10.2473,11.179 20.9603,16.769 32.1391,16.769 15.8367,0 23.755,-10.947 23.755,-32.838 v -188.875 c 0,-25.153 -9.3156,-37.73 -27.947,-37.73 -9.7815,0 -19.0971,5.124 -27.9471,14.906 z m -68.936,69.402 v -495.128 h 68.936 v 159.298 c 18.6314,-23.057 38.6601,-34.468 60.0861,-34.468 44.0166,0 66.1413,30.742 66.1413,91.992 v 202.616 c 0,53.798 -20.7274,80.581 -61.9492,80.581 -25.6181,0 -47.0442,-10.946 -64.2782,-32.839 v 27.948 z m 231.4946,-98.979 65.9084,-14.673 c 5.3565,39.825 20.4945,59.621 44.9481,59.621 20.9603,0 31.4404,-10.714 31.4404,-32.139 0,-19.33 -23.5221,-46.811 -71.032,-82.211 -42.3863,-31.674 -63.5794,-67.306 -63.5794,-106.432 0,-29.81 9.3156,-54.031 27.4811,-72.429 18.3985,-18.166 42.6193,-27.249 72.8952,-27.249 28.6457,0 51.7021,8.618 68.9361,25.852 16.5353,17 26.0838,40.057 28.1799,68.935 l -64.5111,15.372 c -4.8907,-30.975 -17.0011,-46.346 -36.3312,-46.346 -19.5629,0 -29.3443,10.713 -29.3443,32.139 0,15.837 16.0696,36.564 48.2086,62.183 6.7539,5.123 13.5077,10.48 20.2616,16.301 21.659,18.167 37.2628,33.77 46.5784,47.511 13.0419,19.097 19.5629,39.825 19.5629,62.88 0,30.277 -9.3156,54.497 -27.947,72.43 -18.6314,18.166 -43.085,27.016 -73.8267,27.016 -30.9747,0 -56.127,-10.48 -75.6899,-31.674 -17.4669,-19.33 -28.18,-44.948 -32.1391,-77.087 z"
   id="path24"
   inkscape:connector-curvature="0"
   style="fill:#373435;fill-rule:nonzero;stroke-width:0.23289193" />
   
   
   
   
   
   
   
   
   
   
   
   
   
   
   
   
   
  </g>
 </g>
</svg>