<svg id="Capa_1" data-name="Capa 1" xmlns="http://www.w3.org/2000/svg" xmlns:xlink="http://www.w3.org/1999/xlink" viewBox="0 0 600.01 525.41"><defs><style>.cls-1,.cls-3{opacity:0.49;isolation:isolate;}.cls-1{fill:url(#Degradado_sin_nombre);}.cls-2{fill:url(#Degradado_sin_nombre_2);}.cls-3{fill:url(#Degradado_sin_nombre_3);}.cls-4{fill:url(#Degradado_sin_nombre_4);}.cls-5{fill:url(#Degradado_sin_nombre_5);}.cls-6{fill:url(#Degradado_sin_nombre_6);}.cls-7{fill:url(#Degradado_sin_nombre_7);}.cls-8{fill:url(#Degradado_sin_nombre_8);}.cls-9{fill:url(#Degradado_sin_nombre_9);}.cls-10{fill:#d6e3fa;}.cls-11{fill:url(#Degradado_sin_nombre_10);}.cls-12{fill:url(#Degradado_sin_nombre_11);}.cls-13{fill:url(#Degradado_sin_nombre_138);}.cls-14{fill:url(#Degradado_sin_nombre_134);}.cls-15{fill:#fff;}.cls-16{fill:url(#Degradado_sin_nombre_14);}.cls-17{fill:url(#Degradado_sin_nombre_15);}.cls-18{fill:url(#Degradado_sin_nombre_16);}.cls-19{fill:url(#Degradado_sin_nombre_17);}.cls-20,.cls-63{fill:none;stroke-linecap:round;stroke-linejoin:round;}.cls-20{stroke:#eb6057;}.cls-21{fill:url(#Degradado_sin_nombre_18);}.cls-22{fill:url(#Degradado_sin_nombre_19);}.cls-23{fill:url(#Degradado_sin_nombre_139);}.cls-24{fill:url(#Degradado_sin_nombre_21);}.cls-25{fill:url(#Degradado_sin_nombre_22);}.cls-26{fill:url(#Degradado_sin_nombre_125);}.cls-27{fill:url(#Degradado_sin_nombre_24);}.cls-28{fill:url(#Degradado_sin_nombre_25);}.cls-29{fill:url(#Degradado_sin_nombre_26);}.cls-30{fill:url(#Degradado_sin_nombre_27);}.cls-31{fill:url(#Degradado_sin_nombre_28);}.cls-32{fill:url(#Degradado_sin_nombre_29);}.cls-33{fill:url(#Degradado_sin_nombre_30);}.cls-34{fill:url(#Degradado_sin_nombre_31);}.cls-35{fill:url(#Degradado_sin_nombre_32);}.cls-36{fill:url(#Degradado_sin_nombre_33);}.cls-37{fill:url(#Degradado_sin_nombre_34);}.cls-38{fill:url(#Degradado_sin_nombre_35);}.cls-39{fill:url(#Degradado_sin_nombre_36);}.cls-40{fill:url(#Degradado_sin_nombre_37);}.cls-41{fill:url(#Degradado_sin_nombre_122);}.cls-42{fill:url(#Degradado_sin_nombre_39);}.cls-43{fill:url(#Degradado_sin_nombre_40);}.cls-44{fill:url(#Degradado_sin_nombre_107);}.cls-45{fill:url(#Degradado_sin_nombre_110);}.cls-46{fill:url(#Degradado_sin_nombre_105);}.cls-47{fill:url(#Degradado_sin_nombre_44);}.cls-48{fill:url(#Degradado_sin_nombre_45);}.cls-49{fill:url(#Degradado_sin_nombre_46);}.cls-50{fill:url(#Degradado_sin_nombre_47);}.cls-51{fill:url(#Degradado_sin_nombre_100);}.cls-52{fill:url(#Degradado_sin_nombre_49);}.cls-53{fill:url(#Degradado_sin_nombre_50);}.cls-54{fill:url(#Degradado_sin_nombre_51);}.cls-55{fill:url(#Degradado_sin_nombre_52);}.cls-56{fill:url(#Degradado_sin_nombre_53);}.cls-57{fill:#223762;}.cls-58{fill:url(#Degradado_sin_nombre_54);}.cls-59{fill:#4c93f4;}.cls-60{fill:#3769a5;}.cls-61{fill:url(#Degradado_sin_nombre_55);}.cls-62{fill:url(#Degradado_sin_nombre_56);}.cls-63{stroke:#124;}.cls-64{fill:url(#Degradado_sin_nombre_57);}.cls-65{fill:url(#Degradado_sin_nombre_58);}.cls-66{fill:url(#Degradado_sin_nombre_59);}.cls-67{fill:url(#Degradado_sin_nombre_60);}.cls-68{fill:url(#Degradado_sin_nombre_88);}.cls-69{fill:url(#Degradado_sin_nombre_84);}.cls-70{fill:#c19efa;}.cls-71{fill:url(#Degradado_sin_nombre_63);}.cls-72{fill:url(#Degradado_sin_nombre_64);}.cls-73{fill:url(#Degradado_sin_nombre_65);}.cls-74{fill:url(#Degradado_sin_nombre_66);}.cls-75{fill:url(#Degradado_sin_nombre_67);}.cls-76{fill:#83a4d6;}.cls-77{fill:url(#Degradado_sin_nombre_68);}.cls-78{fill:url(#Degradado_sin_nombre_69);}.cls-79{fill:url(#Degradado_sin_nombre_70);}.cls-80{fill:url(#Degradado_sin_nombre_71);}.cls-81{fill:url(#Degradado_sin_nombre_72);}.cls-82{fill:url(#Degradado_sin_nombre_73);}.cls-83{fill:url(#Degradado_sin_nombre_74);}.cls-84{fill:url(#Degradado_sin_nombre_75);}.cls-85{fill:url(#Degradado_sin_nombre_76);}.cls-86{fill:url(#Degradado_sin_nombre_77);}.cls-87{fill:url(#Degradado_sin_nombre_78);}.cls-88{fill:url(#Degradado_sin_nombre_79);}.cls-89{fill:url(#Degradado_sin_nombre_80);}</style><linearGradient id="Degradado_sin_nombre" x1="-1319.85" y1="368.25" x2="-2011.97" y2="167.22" gradientTransform="matrix(-1, -0.13, 0.14, -1.09, -1258.79, 422.33)" gradientUnits="userSpaceOnUse"><stop offset="0" stop-color="#eaf1fc"/><stop offset="1" stop-color="#c0d4f4"/></linearGradient><linearGradient id="Degradado_sin_nombre_2" x1="-4835.83" y1="9.13" x2="-4254.8" y2="9.13" gradientTransform="translate(-4254.8 528) rotate(180)" gradientUnits="userSpaceOnUse"><stop offset="0" stop-color="#223762"/><stop offset="1" stop-color="#041b48"/></linearGradient><linearGradient id="Degradado_sin_nombre_3" x1="673.99" y1="737.87" x2="582.2" y2="626.04" gradientTransform="translate(1272.64 -126.33) rotate(121.94)" xlink:href="#Degradado_sin_nombre"/><linearGradient id="Degradado_sin_nombre_4" x1="-1290.49" y1="27.43" x2="-1247.33" y2="27.43" gradientTransform="translate(-778.76 528) rotate(180)" xlink:href="#Degradado_sin_nombre_2"/><linearGradient id="Degradado_sin_nombre_5" x1="-1560.54" y1="102.21" x2="-1554.71" y2="119.65" gradientTransform="matrix(-0.99, -0.15, 0.15, -0.99, -1027.62, 368.61)" xlink:href="#Degradado_sin_nombre_2"/><linearGradient id="Degradado_sin_nombre_6" x1="-757.42" y1="37.21" x2="-752.58" y2="213.89" gradientTransform="matrix(1, 0, 0, -1, 1262.65, 528)" gradientUnits="userSpaceOnUse"><stop offset="0" stop-color="#3769a5"/><stop offset="1" stop-color="#08448b"/></linearGradient><linearGradient id="Degradado_sin_nombre_7" x1="-757.31" y1="42.14" x2="-752.57" y2="214.74" gradientTransform="matrix(1, 0, 0, -1, 1262.65, 528)" xlink:href="#Degradado_sin_nombre_2"/><linearGradient id="Degradado_sin_nombre_8" x1="-760.11" y1="30.92" x2="-754.85" y2="222.57" gradientTransform="matrix(1, 0, 0, -1, 1262.65, 528)" gradientUnits="userSpaceOnUse"><stop offset="0" stop-color="#4c93f4"/><stop offset="1" stop-color="#0b63da"/></linearGradient><linearGradient id="Degradado_sin_nombre_9" x1="-977.01" y1="-782.72" x2="-972.1" y2="-798.31" gradientTransform="matrix(1, 0.05, 0.05, -1, 1410.62, -543.5)" xlink:href="#Degradado_sin_nombre_8"/><linearGradient id="Degradado_sin_nombre_10" x1="-976.63" y1="-807.83" x2="-973.89" y2="-807.83" gradientTransform="matrix(0, 1, 1, 0, 1206.48, 1193.09)" xlink:href="#Degradado_sin_nombre_8"/><linearGradient id="Degradado_sin_nombre_11" x1="-856.25" y1="327.77" x2="-844.97" y2="327.77" gradientTransform="matrix(1, 0, 0, -1, 1262.65, 528)" gradientUnits="userSpaceOnUse"><stop offset="0" stop-color="#f8a695"/><stop offset="1" stop-color="#e56045"/></linearGradient><linearGradient id="Degradado_sin_nombre_138" x1="-872.22" y1="307.64" x2="-816.05" y2="327.2" gradientTransform="matrix(1, 0, 0, -1, 1262.65, 528)" gradientUnits="userSpaceOnUse"><stop offset="0" stop-color="#a26ef7"/><stop offset="0.95" stop-color="#5b0bda"/></linearGradient><linearGradient id="Degradado_sin_nombre_134" x1="-733.78" y1="337.19" x2="-784.11" y2="253.32" gradientTransform="matrix(1, 0, 0, -1, 1262.65, 528)" gradientUnits="userSpaceOnUse"><stop offset="0" stop-color="#b286f9"/><stop offset="0.95" stop-color="#5b0bda"/></linearGradient><linearGradient id="Degradado_sin_nombre_14" x1="-769.9" y1="379.51" x2="-771.76" y2="391.55" xlink:href="#Degradado_sin_nombre_11"/><linearGradient id="Degradado_sin_nombre_15" x1="-912.01" y1="224.56" x2="-928.27" y2="236" gradientTransform="matrix(0.99, -0.15, -0.15, -0.99, 1434.4, 202.1)" xlink:href="#Degradado_sin_nombre_2"/><linearGradient id="Degradado_sin_nombre_16" x1="-920.2" y1="229.71" x2="-919.94" y2="249.34" gradientTransform="matrix(0.99, -0.15, -0.15, -0.99, 1434.4, 202.1)" xlink:href="#Degradado_sin_nombre_11"/><linearGradient id="Degradado_sin_nombre_17" x1="-924.48" y1="214.69" x2="-904.26" y2="286.84" gradientTransform="matrix(0.99, -0.15, -0.15, -0.99, 1434.4, 202.1)" xlink:href="#Degradado_sin_nombre_2"/><linearGradient id="Degradado_sin_nombre_18" x1="-1003" y1="306.9" x2="-998.83" y2="306.9" gradientTransform="matrix(1, -0.09, -0.09, -1, 1422.61, 420.78)" xlink:href="#Degradado_sin_nombre_11"/><linearGradient id="Degradado_sin_nombre_19" x1="-708.79" y1="327.77" x2="-708.79" y2="327.77" gradientTransform="matrix(1, 0, 0, -1, 1262.65, 528)" gradientUnits="userSpaceOnUse"><stop offset="0" stop-color="#ffc063"/><stop offset="0.95" stop-color="#e44d0b"/></linearGradient><linearGradient id="Degradado_sin_nombre_139" x1="-705.78" y1="342.16" x2="-736.62" y2="278.6" gradientTransform="matrix(1, 0, 0, -1, 1262.65, 528)" gradientUnits="userSpaceOnUse"><stop offset="0" stop-color="#843df5"/><stop offset="0.95" stop-color="#5b0bda"/></linearGradient><linearGradient id="Degradado_sin_nombre_21" x1="-805.16" y1="301.82" x2="-808.17" y2="315.11" xlink:href="#Degradado_sin_nombre_8"/><linearGradient id="Degradado_sin_nombre_22" x1="-783.83" y1="290.98" x2="-759.77" y2="302.13" xlink:href="#Degradado_sin_nombre_11"/><linearGradient id="Degradado_sin_nombre_125" x1="-735.86" y1="338.73" x2="-724.78" y2="261.48" gradientTransform="matrix(1, 0, 0, -1, 1262.65, 528)" gradientUnits="userSpaceOnUse"><stop offset="0" stop-color="#a26ef7"/><stop offset="0.95" stop-color="#6610f2"/></linearGradient><linearGradient id="Degradado_sin_nombre_24" x1="-714.92" y1="203.12" x2="-755.11" y2="120.29" xlink:href="#Degradado_sin_nombre_6"/><linearGradient id="Degradado_sin_nombre_25" x1="306.94" y1="14.29" x2="323.77" y2="8.45" gradientTransform="matrix(1, 0, 0, -1, 0, 528)" xlink:href="#Degradado_sin_nombre_2"/><linearGradient id="Degradado_sin_nombre_26" x1="-4488.38" y1="14.28" x2="-4471.55" y2="8.44" gradientTransform="translate(-4126.13 528) rotate(180)" xlink:href="#Degradado_sin_nombre_2"/><linearGradient id="Degradado_sin_nombre_27" x1="303.95" y1="54.59" x2="340.59" y2="87.28" gradientTransform="matrix(1, 0, 0, -1, 0, 528)" xlink:href="#Degradado_sin_nombre_2"/><linearGradient id="Degradado_sin_nombre_28" x1="323.46" y1="113.36" x2="336.76" y2="125.22" gradientTransform="matrix(1, 0, 0, -1, 0, 528)" xlink:href="#Degradado_sin_nombre_2"/><linearGradient id="Degradado_sin_nombre_29" x1="-4455.1" y1="64.66" x2="-4455.1" y2="222.04" gradientTransform="translate(-4254.8 528) rotate(180)" xlink:href="#Degradado_sin_nombre_6"/><linearGradient id="Degradado_sin_nombre_30" x1="-4396.21" y1="64.66" x2="-4396.21" y2="222.04" gradientTransform="translate(-4254.8 528) rotate(180)" xlink:href="#Degradado_sin_nombre_6"/><linearGradient id="Degradado_sin_nombre_31" x1="-4731.04" y1="144.78" x2="-4731.04" y2="192.84" gradientTransform="translate(-4254.8 528) rotate(180)" xlink:href="#Degradado_sin_nombre_6"/><linearGradient id="Degradado_sin_nombre_32" x1="-4672.14" y1="144.78" x2="-4672.14" y2="192.84" gradientTransform="translate(-4254.8 528) rotate(180)" xlink:href="#Degradado_sin_nombre_6"/><linearGradient id="Degradado_sin_nombre_33" x1="-4395.28" y1="73.55" x2="-4395.28" y2="190.02" gradientTransform="translate(-4254.8 528) rotate(180)" gradientUnits="userSpaceOnUse"><stop offset="0" stop-color="#a7bde5"/><stop offset="1" stop-color="#2f66cb"/></linearGradient><linearGradient id="Degradado_sin_nombre_34" x1="281.7" y1="-15.14" x2="277.2" y2="0.68" gradientTransform="matrix(1, 0, 0, -1, 0, 528)" xlink:href="#Degradado_sin_nombre_2"/><linearGradient id="Degradado_sin_nombre_35" x1="189.63" y1="-15.14" x2="185.13" y2="0.68" gradientTransform="matrix(1, 0, 0, -1, 0, 528)" xlink:href="#Degradado_sin_nombre_2"/><linearGradient id="Degradado_sin_nombre_36" x1="244.25" y1="123.03" x2="241.78" y2="131.73" gradientTransform="matrix(1, 0, 0, -1, 0, 528)" xlink:href="#Degradado_sin_nombre_2"/><linearGradient id="Degradado_sin_nombre_37" x1="349.57" y1="128.54" x2="347.03" y2="137.48" gradientTransform="matrix(1, 0, 0, -1, 0, 528)" xlink:href="#Degradado_sin_nombre_2"/><linearGradient id="Degradado_sin_nombre_122" x1="253.31" y1="218.13" x2="282.3" y2="243.38" gradientTransform="matrix(1, 0, 0, -1, 0, 528)" gradientUnits="userSpaceOnUse"><stop offset="0" stop-color="#a26ef7"/><stop offset="0.95" stop-color="#510ac2"/></linearGradient><linearGradient id="Degradado_sin_nombre_39" x1="177.2" y1="56.17" x2="244.76" y2="116.46" gradientTransform="matrix(1, 0, 0, -1, 0, 528)" xlink:href="#Degradado_sin_nombre_6"/><linearGradient id="Degradado_sin_nombre_40" x1="180.31" y1="58.35" x2="246.24" y2="117.17" gradientTransform="matrix(1, 0, 0, -1, 0, 528)" xlink:href="#Degradado_sin_nombre_2"/><linearGradient id="Degradado_sin_nombre_107" x1="376.89" y1="319.35" x2="289.13" y2="47.13" gradientTransform="matrix(1, 0, 0, -1, 0, 528)" gradientUnits="userSpaceOnUse"><stop offset="0" stop-color="#843df5"/><stop offset="1" stop-color="#5b0bda"/></linearGradient><linearGradient id="Degradado_sin_nombre_110" x1="376.33" y1="319.47" x2="288.64" y2="47.47" gradientTransform="matrix(1, 0, 0, -1, 0, 528)" gradientUnits="userSpaceOnUse"><stop offset="0" stop-color="#b286f9"/><stop offset="0.95" stop-color="#510ac2"/></linearGradient><linearGradient id="Degradado_sin_nombre_105" x1="287.98" y1="220.73" x2="402.11" y2="220.73" gradientTransform="matrix(1, 0, 0, -1, 0, 528)" gradientUnits="userSpaceOnUse"><stop offset="0" stop-color="#c19efa"/><stop offset="0.95" stop-color="#5b0bda"/></linearGradient><linearGradient id="Degradado_sin_nombre_44" x1="249.82" y1="73.08" x2="319.44" y2="135.2" gradientTransform="matrix(1, 0, 0, -1, 0, 528)" xlink:href="#Degradado_sin_nombre_8"/><linearGradient id="Degradado_sin_nombre_45" x1="388.8" y1="65.64" x2="385.99" y2="67.4" gradientTransform="matrix(1, 0, 0, -1, 0, 528)" xlink:href="#Degradado_sin_nombre_6"/><linearGradient id="Degradado_sin_nombre_46" x1="333.4" y1="205.55" x2="368.55" y2="218.53" gradientTransform="matrix(1, 0, 0, -1, 0, 528)" xlink:href="#Degradado_sin_nombre_11"/><linearGradient id="Degradado_sin_nombre_47" x1="327.11" y1="122.14" x2="324.56" y2="131.09" gradientTransform="matrix(1, 0, 0, -1, 0, 528)" xlink:href="#Degradado_sin_nombre_2"/><linearGradient id="Degradado_sin_nombre_100" x1="355.91" y1="278.9" x2="454.87" y2="174.68" gradientTransform="matrix(1, 0, 0, -1, 0, 528)" xlink:href="#Degradado_sin_nombre_138"/><linearGradient id="Degradado_sin_nombre_49" x1="309.42" y1="62.45" x2="318.54" y2="76.83" gradientTransform="matrix(1, 0, 0, -1, 0, 528)" xlink:href="#Degradado_sin_nombre_6"/><linearGradient id="Degradado_sin_nombre_50" x1="319.42" y1="262.89" x2="319.42" y2="276.33" gradientTransform="matrix(1, -0.02, -0.02, -1, 39.3, 482.59)" xlink:href="#Degradado_sin_nombre_11"/><linearGradient id="Degradado_sin_nombre_51" x1="264.37" y1="268.03" x2="261.97" y2="262.28" gradientTransform="matrix(1, -0.05, -0.05, -1, 93.96, 416.97)" xlink:href="#Degradado_sin_nombre_2"/><linearGradient id="Degradado_sin_nombre_52" x1="314.78" y1="284.4" x2="331.44" y2="343.85" gradientTransform="matrix(1, -0.02, -0.02, -1, 39.3, 482.59)" xlink:href="#Degradado_sin_nombre_11"/><linearGradient id="Degradado_sin_nombre_53" x1="279.3" y1="270.38" x2="285.18" y2="211.08" gradientTransform="matrix(1, -0.05, -0.05, -1, 93.96, 416.97)" xlink:href="#Degradado_sin_nombre_2"/><linearGradient id="Degradado_sin_nombre_54" x1="321.17" y1="279.23" x2="265.76" y2="210.25" gradientTransform="matrix(1, 0, 0, -1, 127.73, 528)" xlink:href="#Degradado_sin_nombre_8"/><linearGradient id="Degradado_sin_nombre_55" x1="-4336.39" y1="73.55" x2="-4336.39" y2="190.02" xlink:href="#Degradado_sin_nombre_33"/><linearGradient id="Degradado_sin_nombre_56" x1="-4337.55" y1="147.23" x2="-4292.66" y2="147.23" xlink:href="#Degradado_sin_nombre_2"/><linearGradient id="Degradado_sin_nombre_57" x1="-4277.46" y1="299.67" x2="-4314.98" y2="222.51" xlink:href="#Degradado_sin_nombre_2"/><linearGradient id="Degradado_sin_nombre_58" x1="-4352.92" y1="222.44" x2="-4328.7" y2="222.44" gradientTransform="translate(-4254.8 528) rotate(180)" xlink:href="#Degradado_sin_nombre_6"/><linearGradient id="Degradado_sin_nombre_59" x1="-4306.13" y1="297.34" x2="-4350.33" y2="96.72" gradientTransform="translate(-4254.8 528) rotate(180)" xlink:href="#Degradado_sin_nombre_8"/><linearGradient id="Degradado_sin_nombre_60" x1="-4257.05" y1="232.83" x2="-4307.9" y2="145.15" gradientTransform="translate(-4254.8 528) rotate(180)" xlink:href="#Degradado_sin_nombre_6"/><linearGradient id="Degradado_sin_nombre_88" x1="-4254.33" y1="79.4" x2="-4349.73" y2="36.85" gradientTransform="translate(-4254.8 528) rotate(180)" gradientUnits="userSpaceOnUse"><stop offset="0" stop-color="#b286f9"/><stop offset="1" stop-color="#6610f2"/></linearGradient><linearGradient id="Degradado_sin_nombre_84" x1="-4261.27" y1="49.82" x2="-4276.7" y2="49.82" gradientTransform="translate(-4254.8 528) rotate(180)" gradientUnits="userSpaceOnUse"><stop offset="0" stop-color="#9355f6"/><stop offset="1" stop-color="#650df2"/></linearGradient><linearGradient id="Degradado_sin_nombre_63" x1="-4315.59" y1="242.83" x2="-4319.57" y2="232.31" gradientTransform="translate(-4254.8 528) rotate(180)" xlink:href="#Degradado_sin_nombre_8"/><linearGradient id="Degradado_sin_nombre_64" x1="-2181.07" y1="-807.71" x2="-2185.04" y2="-818.23" gradientTransform="translate(-2127.77 -519.71) rotate(180)" xlink:href="#Degradado_sin_nombre_8"/><linearGradient id="Degradado_sin_nombre_65" x1="-2158.66" y1="-816.17" x2="-2162.64" y2="-826.7" gradientTransform="translate(-2108.65 -512.54) rotate(180)" xlink:href="#Degradado_sin_nombre_8"/><linearGradient id="Degradado_sin_nombre_66" x1="-3197.94" y1="-566.6" x2="-3201.91" y2="-577.13" gradientTransform="translate(-3148.69 -255.54) rotate(180)" xlink:href="#Degradado_sin_nombre_8"/><linearGradient id="Degradado_sin_nombre_67" x1="-4421.86" y1="201.68" x2="-4906.34" y2="174.09" gradientTransform="translate(-4254.79 528) rotate(180)" xlink:href="#Degradado_sin_nombre_33"/><linearGradient id="Degradado_sin_nombre_68" x1="-4673.1" y1="103.39" x2="-4673.1" y2="225.8" xlink:href="#Degradado_sin_nombre_33"/><linearGradient id="Degradado_sin_nombre_69" x1="-4614.21" y1="103.39" x2="-4614.21" y2="225.8" xlink:href="#Degradado_sin_nombre_33"/><linearGradient id="Degradado_sin_nombre_70" x1="266.47" y1="345.65" x2="170.13" y2="177.76" gradientTransform="matrix(1, 0, 0, -1, 0, 528)" xlink:href="#Degradado_sin_nombre_8"/><linearGradient id="Degradado_sin_nombre_71" x1="-4373.96" y1="218.54" x2="-4347.83" y2="118.58" gradientTransform="translate(-4254.8 528) rotate(180)" xlink:href="#Degradado_sin_nombre_6"/><linearGradient id="Degradado_sin_nombre_72" x1="-4362.26" y1="221.6" x2="-4336.13" y2="121.64" gradientTransform="translate(-4254.8 528) rotate(180)" xlink:href="#Degradado_sin_nombre_8"/><linearGradient id="Degradado_sin_nombre_73" x1="-4365.94" y1="235.66" x2="-4328.48" y2="92.38" gradientTransform="translate(-4254.8 528) rotate(180)" xlink:href="#Degradado_sin_nombre_8"/><linearGradient id="Degradado_sin_nombre_74" x1="-4954.44" y1="1235.44" x2="-4957.51" y2="1227.33" gradientTransform="translate(-1117.15 -4584.7) rotate(-90)" xlink:href="#Degradado_sin_nombre_8"/><linearGradient id="Degradado_sin_nombre_75" x1="-4942.4" y1="1227.96" x2="-4945.47" y2="1219.85" gradientTransform="translate(-1123.67 -4570.41) rotate(-90)" xlink:href="#Degradado_sin_nombre_8"/><linearGradient id="Degradado_sin_nombre_76" x1="-3342.49" y1="-558.52" x2="-3345.55" y2="-566.63" gradientTransform="translate(-3263.25 -203.28) rotate(180)" xlink:href="#Degradado_sin_nombre_8"/><linearGradient id="Degradado_sin_nombre_77" x1="-3338.56" y1="-565.03" x2="-3341.63" y2="-573.14" gradientTransform="translate(-3260.49 -202.3) rotate(180)" xlink:href="#Degradado_sin_nombre_8"/><linearGradient id="Degradado_sin_nombre_78" x1="-3325.24" y1="-565.03" x2="-3328.3" y2="-573.15" gradientTransform="translate(-3256.5 -199.09) rotate(180)" xlink:href="#Degradado_sin_nombre_8"/><linearGradient id="Degradado_sin_nombre_79" x1="-4206.09" y1="68.59" x2="-4209.16" y2="60.48" gradientTransform="translate(-4145.16 440.22) rotate(180)" xlink:href="#Degradado_sin_nombre_8"/><linearGradient id="Degradado_sin_nombre_80" x1="374.08" y1="373.92" x2="352.33" y2="393.1" gradientTransform="matrix(1, 0, 0, -1, 0, 528)" xlink:href="#Degradado_sin_nombre_2"/></defs><title>service</title><g id="Layer_2" data-name="Layer 2"><g id="Layer_1-2" data-name="Layer 1-2"><g id="_13" data-name=" 13"><path class="cls-1" d="M468.47,121.66c-124.28.75-200-97-259.12-115.83C120.53-22.42,3.39,50.69,78.94,252.91S193.62,506.57,329.69,523.82c108.88,13.81,204.76-65.32,243-128.47C632.4,296.56,592.74,120.91,468.47,121.66Z" transform="translate(0 0)"/><polygon class="cls-2" points="0 524.04 581.03 524.04 541.16 513.7 36.78 513.7 0 524.04"/><path class="cls-3" d="M290.05,4.79s73.29,11.62,93.13,12.46,49.54,2,47.52,34.47-6.6,38.56-35.5,40.93c-23.36,1.92-112.29-56-118-68.83s-1.4-15.18,2.2-17.6S290.05,4.79,290.05,4.79Z" transform="translate(0 0)"/><path class="cls-4" d="M506.78,485.94l5,28s-17.42.41-21.22,1-21.62,0-21.62,0-.71,0,0-3.09,13.42-6.18,16.63-6.89h0a5,5,0,0,0,3.81-3.94l1.53-8.17Z" transform="translate(0 0)"/><path class="cls-5" d="M538.1,474.82l11.73,12.63s-12.37,19-14.93,21.13-14.42,7.53-17.37,6.76-3.34-3.8-1.49-6.81,7.89-8.54,9-10.7-.13-15-.13-15Z" transform="translate(0 0)"/><path class="cls-6" d="M471.72,282.26l2.49,102.29s49.12,102.34,50.15,103.94,7.06,2.4,14.08-.8,6.27-7.48,6.27-7.48L513.87,373.13l30.86-94.94Z" transform="translate(0 0)"/><path class="cls-7" d="M471.72,282.26l2.49,102.29,11.69,24.34a25.47,25.47,0,0,0,9.17-2.81c14.29-7.27,13,12.54,20.06,29.08,4.79,11.29,18.69,35.78,27,50.19,3-2.62,2.55-5.15,2.55-5.15L513.87,373.13l30.86-94.94Z" transform="translate(0 0)"/><path class="cls-8" d="M546.54,266.5s2.33.23,3.1,17.78-.42,38-11.25,50.31-45.58,57.88-45.58,57.88l16.54,92.81s-.9,4.87-7.71,7.81S490,494.9,490,494.9s-29.76-95.36-25.73-114.2,26-111.27,26-111.27Z" transform="translate(0 0)"/><path class="cls-9" d="M397.09,184.56l6.23.29a1.18,1.18,0,0,1,1.13,1.23l-1.18,25.07h0l-8.59-.4h0l1.18-25.07a1.17,1.17,0,0,1,1.23-1.12Z" transform="translate(0 0)"/><polygon class="cls-10" points="394.69 210.73 397.35 216.35 400.09 216.51 403.28 211.13 394.69 210.73"/><rect class="cls-11" x="397.25" y="216.46" width="2.8" height="2.74" transform="translate(162.42 605.86) rotate(-87.32)"/><path class="cls-12" d="M415.61,197.46a20,20,0,0,0-4.51-6.2c-3.48-3.48-14.86-1.32-16.83,1.13s-.28,2.73,1.5,3.29,7.8-.28,7.8-.28l-.3,13.83a14.34,14.34,0,0,0,7.26-.66c4-1.3,3.48,2.44,3.48,2.44Z" transform="translate(0 0)"/><path class="cls-13" d="M474.18,152.61s-22.3,62.44-22.33,62.63v.19l-35.54-18.62s-4.7,4.32-6.39,8.84l-1.69,4.51s25.39,20.12,39.3,26,38.22-24.26,38.22-24.26Z" transform="translate(0 0)"/><path class="cls-14" d="M513.87,149.33s25.82,3.48,31.84,10.37,6.14,15.29,6.14,26.58-5.64,40.62-4.14,62.8,4.14,33.85,4.14,33.85-15.8,16.92-44,12.79-41.09-11.89-41.09-11.89,7.5-53,7.75-61-9.36-21.9-9.07-30.93,2.86-31.84,6.27-36.18l3.42-4.34Z" transform="translate(0 0)"/><path class="cls-15" d="M479.55,147.46a13.07,13.07,0,0,0-4.42,3.94c-2.44,3.1,1.82,8.12,8.52,7a7.93,7.93,0,0,0,5-2.55,8.2,8.2,0,0,0,3.32,6.24c2.57,2.12,6.4,4.48,13.79-1.44s8.14-11.38,8.14-11.38L505.72,148Z" transform="translate(0 0)"/><path class="cls-16" d="M480.49,132.61l-.94,14.84s2.81,5,10.93,5.15,15.24-4.6,15.24-4.6l-4.62-14.39Z" transform="translate(0 0)"/><path class="cls-17" d="M452.42,79.7s-6,8.85-.69,28.28c3,11.12,7.7,19.45,9.26,28.74s5.72,10.1,10.24,10.69,20.44-6,26.6-6,13.8,1.48,19.35-2.41c3.12-2.19,4.69-26.93,4.69-26.93l-19.2-37.7L491.23,68Z" transform="translate(0 0)"/><path class="cls-18" d="M456.6,103.94c2.22,10.65,5,23.49,11.22,34.13s28.94,9.66,35-.49,6.47-25,6.47-25,7.78-.65,8.88-6.71-.67-14.58-4.52-15.72S507,93.54,507,93.54s-.41-11.3-9.38-17.07-38.75,1.26-40.2,3S454.39,93.29,456.6,103.94Z" transform="translate(0 0)"/><path class="cls-19" d="M454.23,73.65s-2.67,4.64-2.36,13.55S458,99,467.65,99.86s16.4-2.73,22-2.48S499,111.1,499,125.09s6.29,15.07,11.76,16,26.65-13.2,13.88-38.78C514.12,81.35,516.81,71.25,499,64s-33,.56-38,3.75S454.23,73.65,454.23,73.65Z" transform="translate(0 0)"/><path class="cls-20" d="M465.44,113.08s1.13,13.15,1.13,16,3.93.23,5.14,0" transform="translate(0 0)"/><path class="cls-21" d="M395.06,196.88s3.07.09,4.39,4.13.4,9.69-1.81,9.61-4.94-1.93-5.91-7.35S395.06,196.88,395.06,196.88Z" transform="translate(0 0)"/><path class="cls-22" d="M553.86,200.23" transform="translate(0 0)"/><path class="cls-23" d="M537.26,184.57s.63,13.16,0,15.17-41.36,25.94-41.36,25.94l3.9,13.93s25.55-2.76,31.13-4.14,9.72,5.64,4.7,12.41-17.93,8.27-17,15.17-8,12.79-18.11,15.92c-7,2.19-23.93,3.89-33.48,4.71v.14s12.88,7.75,41.09,11.89,44-12.79,44-12.79-2.63-11.66-4.14-33.85c-1.49-21.92,4-50.8,4.13-62.37Z" transform="translate(0 0)"/><path class="cls-24" d="M491.68,260.18s-5.91-42.31-17.24-50.21-14.53,6.54-14.53,6.54H428.12s3.2-14.44,14.53-6.54,17.24,50.21,17.24,50.21Z" transform="translate(0 0)"/><path class="cls-15" d="M437.45,207.69h-2c-5.54.87-7.3,8.82-7.3,8.82H459.9s1.76-7.94,7.3-8.82Z" transform="translate(0 0)"/><path class="cls-15" d="M467.21,207.69h2A6.7,6.7,0,0,0,467.21,207.69Z" transform="translate(0 0)"/><path class="cls-15" d="M435.43,207.69h2A6.7,6.7,0,0,0,435.43,207.69Z" transform="translate(0 0)"/><path class="cls-25" d="M496.57,226.39s-2.35-2.08-7.9-2.13l-5.55,0,1,3.17s.76,1.4-3.76,1.9-6.77-2.44-9.59-.94-2.95,4.64,1.19,9,9.9,6.71,17.3,6.21a14.69,14.69,0,0,0,11-6.27Z" transform="translate(0 0)"/><path class="cls-26" d="M540.28,159.36a7.4,7.4,0,0,1,8.83,3.56,335.92,335.92,0,0,1,14.57,31.55c9.4,23.27-14.63,29.15-33.22,36.43a171.26,171.26,0,0,1-30.87,8.71s-4-5.37-3.94-9.65v-4.28l47.65-24s-11.19-8.36-13.4-21.46,4.52-19,10.33-20.9Z" transform="translate(0 0)"/><path class="cls-27" d="M543.57,327c-8.59,1.35-18.89,3.71-23.34,7.65C512,342,497.1,378.11,487.13,384s-18.05,11.57-10.34,17.21,6.77,34.41,9.4,49.08c1.94,10.82,14.31,30,20.67,39.38a9.68,9.68,0,0,0,2.64-4.43L493,392.47s34.74-45.52,45.58-57.88A36.07,36.07,0,0,0,543.57,327Z" transform="translate(0 0)"/><polygon class="cls-28" points="328.31 504.14 251.68 513.71 334.6 513.71 334.6 504.14 328.31 504.14"/><polygon class="cls-29" points="340.88 504.14 417.51 513.71 334.6 513.71 334.6 504.14 340.88 504.14"/><rect class="cls-30" x="328.31" y="388.03" width="12.55" height="116.11"/><rect class="cls-31" x="323.07" y="394" width="23.03" height="21.45"/><polygon class="cls-32" points="217.65 513.7 229.57 513.7 182.96 339.73 171.04 339.73 217.65 513.7"/><polygon class="cls-33" points="124.07 513.7 112.14 513.7 158.75 339.73 170.68 339.73 124.07 513.7"/><polygon class="cls-34" points="493.58 513.7 505.51 513.7 458.89 339.73 446.97 339.73 493.58 513.7"/><polygon class="cls-35" points="400 513.7 388.08 513.7 434.69 339.73 446.61 339.73 400 513.7"/><polygon class="cls-36" points="157.83 513.7 169.75 513.7 123.14 339.73 111.21 339.73 157.83 513.7"/><path class="cls-37" d="M301,495s1.87,8.53,2,11.81a24.19,24.19,0,0,1-1,6.87H248.61s-7,.38-8.77-2.31.95-5.53,8.07-8.36c11.75-4.68,31.33-8,31.33-8l2.34-11.34Z" transform="translate(0 0)"/><path class="cls-38" d="M208.92,495s1.87,8.53,2,11.81a24.19,24.19,0,0,1-1,6.87H156.54s-7,.38-8.77-2.31.95-5.53,8.07-8.36c11.75-4.68,31.33-8,31.33-8l2.34-11.34Z" transform="translate(0 0)"/><rect class="cls-39" x="224.82" y="377.8" width="26.86" height="12.05"/><path class="cls-40" d="M429.47,239.45H318c-2.71,0-4.92,2.64-4.93,5.93h0v.19a415.76,415.76,0,0,1-3,43.48,274.32,274.32,0,0,1-6.26,34.49c-2.87,11.2-6.65,21.5-11.33,29.16A69.16,69.16,0,0,1,272,374c-8.26,5.46-17.57,8.76-26.89,8.76a38.85,38.85,0,0,1-18.23-4.53c-2.49-1.3-5.38.08-6.46,3.1s.07,6.52,2.56,7.82a47.37,47.37,0,0,0,19.64,5.44l.14.07H354.47L404,364.78l16.28-27.93,10-75.27Z" transform="translate(0 0)"/><path class="cls-41" d="M314.25,225.06,261.47,302.3l-57.64,11.63,3.25,15.19s64.44-.35,70.4-1.75,53-62.78,53-62.78Z" transform="translate(0 0)"/><path class="cls-42" d="M275.62,348.41c-17.19,2.46-26.07,4.21-33.55,13.68s-56.39,125.56-56.39,125.56,7,5.93,15.66,6.65l8.7.72,61.73-105.93Z" transform="translate(0 0)"/><path class="cls-43" d="M248.08,372.26c1.93,17.19-2.48,36.83-4.4,46.82s-35.06,41.39-42.43,58a89.5,89.5,0,0,0-5.51,16,24.21,24.21,0,0,0,5.58,1.17l8.7.72L271.75,389l3.86-40.68c-10.49,1.5-17.88,2.75-23.76,5.64A29.7,29.7,0,0,0,248.08,372.26Z" transform="translate(0 0)"/><path class="cls-44" d="M370.31,208.07s19.79,5.87,29.06,17-11.76,141.16-11.76,141.16l-6.61-.76-93-10.62s12.48-117.6,22.48-127.43,26.33-16,26.33-16Z" transform="translate(0 0)"/><path class="cls-45" d="M301,353.55a5.42,5.42,0,0,1,4.82,3.29l11.54,1.32A5.41,5.41,0,0,1,328,359.37l10.93,1.25v-.53a5.44,5.44,0,1,1,10.61,1.73l11.64,1.33a5.37,5.37,0,0,1-.52-2.43,5.44,5.44,0,1,1,9.72,3.48l10.84,1.24,3.32.38a5.41,5.41,0,0,1,4.84-9.5c.5-3.3,1.11-7.3,1.78-11.84a5.43,5.43,0,1,1,1.23-8.47C398,296.88,406,232.7,399.6,225s-17.79-12.84-24.25-15.32a5.4,5.4,0,0,1-10-1.17l-12.15,1.2a5.4,5.4,0,0,1-7.52,1.19c-.16-.13-.33-.26-.48-.4l-8.18.81s-16.33,6.22-26.33,16.05a6.18,6.18,0,0,0-.68.85,5.38,5.38,0,0,1-1.31,2.41,81.07,81.07,0,0,0-4,13.12,5.42,5.42,0,1,1-1.06,10.79,5.2,5.2,0,0,1-1.23-.27c-.8,4-1.59,8.33-2.37,12.83a5.42,5.42,0,1,1-.81,7.62,6.42,6.42,0,0,1-.38-.53c-5.93,36.46-10.61,80.61-10.61,80.61l8.28.95A5.42,5.42,0,0,1,301,353.55Zm90.79-129.46a5.44,5.44,0,1,1-5.59,5.29h0a5.44,5.44,0,0,1,5.59-5.28h0Zm-.65,22.17a5.44,5.44,0,1,1-5.59,5.29h0a5.44,5.44,0,0,1,5.59-5.28h0Zm-.65,22.17a5.44,5.44,0,1,1-5.59,5.29h0a5.44,5.44,0,0,1,5.59-5.28h0Zm-.65,22.17a5.44,5.44,0,1,1-5.59,5.29h0a5.44,5.44,0,0,1,5.58-5.29h0Zm-.65,22.17a5.44,5.44,0,1,1-5.59,5.29h0a5.44,5.44,0,0,1,5.58-5.29h0ZM370,223.47a5.44,5.44,0,1,1-5.59,5.29h0a5.44,5.44,0,0,1,5.58-5.29h0Zm-.65,22.17a5.44,5.44,0,1,1-5.59,5.29h0a5.44,5.44,0,0,1,5.58-5.29h0Zm-.65,22.17a5.44,5.44,0,1,1-5.59,5.29h0a5.44,5.44,0,0,1,5.57-5.3h.07ZM368.15,290a5.44,5.44,0,1,1-5.59,5.29h0A5.45,5.45,0,0,1,368.15,290Zm-.65,22.17a5.44,5.44,0,1,1-5.59,5.29h0a5.44,5.44,0,0,1,5.56-5.32h0Zm-.63,21.59a5.44,5.44,0,1,1-5.59,5.29h0a5.44,5.44,0,0,1,5.56-5.32h0ZM348.35,222.83a5.44,5.44,0,1,1-5.59,5.29h0A5.45,5.45,0,0,1,348.35,222.83ZM347.7,245a5.44,5.44,0,1,1-5.59,5.29h0A5.45,5.45,0,0,1,347.7,245Zm-.65,22.17a5.44,5.44,0,1,1-5.59,5.29h0a5.44,5.44,0,0,1,5.59-5.29h0Zm-.65,22.17a5.44,5.44,0,1,1-5.59,5.29h0a5.44,5.44,0,0,1,5.59-5.29h0Zm-.65,22.17a5.44,5.44,0,1,1-5.59,5.29h0a5.44,5.44,0,0,1,5.58-5.3h0Zm-.63,21.59a5.44,5.44,0,1,1-5.59,5.29h0a5.44,5.44,0,0,1,5.58-5.3h0ZM326.61,222.19a5.44,5.44,0,1,1-5.59,5.29h0A5.45,5.45,0,0,1,326.61,222.19ZM326,244.36a5.44,5.44,0,1,1-5.59,5.29h0A5.45,5.45,0,0,1,326,244.36Zm-.65,22.17a5.44,5.44,0,1,1-5.59,5.29h0a5.44,5.44,0,0,1,5.56-5.28Zm-.65,22.17a5.44,5.44,0,1,1-5.59,5.29h0a5.44,5.44,0,0,1,5.56-5.29Zm-.7,22.16a5.44,5.44,0,1,1-5.59,5.29h0A5.45,5.45,0,0,1,324,310.86Zm-.63,21.59a5.44,5.44,0,1,1-5.59,5.29h0a5.44,5.44,0,0,1,5.59-5.28h0Zm-20.46-44.39a5.44,5.44,0,1,1-5.59,5.29h0a5.44,5.44,0,0,1,5.59-5.28h0Zm-.65,22.17a5.44,5.44,0,1,1-5.59,5.29h0a5.44,5.44,0,0,1,5.59-5.28h0Zm-.63,21.59a5.44,5.44,0,1,1-5.59,5.29h0a5.44,5.44,0,0,1,5.59-5.28h0Z" transform="translate(0 0)"/><path class="cls-46" d="M373.34,248.34s6.44,11.69,6.09,20.1c-1.61,39.16-89.45,69-89.45,69l-2,17.39,99.61,11.37,14.52-94.15Z" transform="translate(0 0)"/><path class="cls-47" d="M385.31,366s-80.58-35.25-112.78-19.65C248.35,358,278.84,494,278.84,494s9.09,4.21,16.29,3.51l7.2-.7L307.52,378l48.58,10.62,26.83-10.17Z" transform="translate(0 0)"/><path class="cls-48" d="M383,378.4l2.34-12.4a388.18,388.18,0,0,0-37.25-13.58c-1.36,3.32-3.22,7-5.29,8.72-4.2,3.45-43.13-3.45-53.83,0s-2.28,10.87,3.86,19.44-8.07,27.15-3.86,50.65l4.21,23.5,1.42,42.82h.56l7.2-.7L307.55,378l48.58,10.62Z" transform="translate(0 0)"/><path class="cls-49" d="M353.77,311.06a48.17,48.17,0,0,0-14.48-.53c-7.58,1-11.88,7.86-11.88,7.86s22.22,6.17,25.57,6.26,8.48-2.78,8.48-2.78Z" transform="translate(0 0)"/><rect class="cls-50" x="307.48" y="377.8" width="26.86" height="12.61"/><path class="cls-51" d="M400,225.93s29.16,56.5,28.16,65.81-67.89,31.55-67.89,31.55-7.49-11.53-7.8-13.2c-.44-2.35,46.64-28,46.64-28s-24.9-24.42-26.66-37.29S382.53,223,390,223,400,225.93,400,225.93Z" transform="translate(0 0)"/><path class="cls-52" d="M422.45,245.37v.19a415.76,415.76,0,0,1-3,43.48,274.32,274.32,0,0,1-6.26,34.49c-2.87,11.2-6.65,21.5-11.33,29.16A69,69,0,0,1,381.36,374c-8.26,5.46-17.57,8.76-26.89,8.76a38.85,38.85,0,0,1-18.23-4.53c-2.49-1.3-5.38.08-6.46,3.1s.07,6.52,2.56,7.82a47.14,47.14,0,0,0,22.12,5.51c11.24,0,22.09-3.93,31.6-10.21a79.7,79.7,0,0,0,23.7-24.73c5.82-9.56,10-21.42,13.11-33.86,4.68-18.65,7-38.66,8.18-54.1s1.22-26.26,1.22-26.39c0-3.29-2.18-6-4.89-6s-4.92,2.64-4.93,5.93Z" transform="translate(0 0)"/><path class="cls-15" d="M342.26,208.07l-5.44,3.3s-1.52,1.67,3.45,6.22,11.5,4,18.4.88,11.64-10.4,11.64-10.4L366,207Z" transform="translate(0 0)"/><path class="cls-53" d="M338.74,191.07l3.52,17s2.53,3.22,9.66,3.3S366,207,366,207l.21-17.31Z" transform="translate(0 0)"/><path class="cls-54" d="M329.33,129.64s-1.58,24.29-1.86,32.79,10.21,10.67,10.21,10.67l15.4-16.1-6.8-25.38Z" transform="translate(0 0)"/><path class="cls-55" d="M329.41,158.64c.5,9.57,1.18,21.13,5.19,31.24s23.92,12.31,30.58,4.28,9-20.86,9-20.86,6.86.48,8.64-4.65,1.37-12.79-1.83-14.3-6.25,2-6.25,2,1.16-9.9-5.88-16.13-33.93-4.11-35.42-2.83S328.91,149.07,329.41,158.64Z" transform="translate(0 0)"/><path class="cls-56" d="M370.17,168.91s2.56-12.29,1.63-17.84-4-9.23-10.36-11.46-24.6-.09-28.68-1.27-6.42-3.14-5-11.21,13.06-19.4,29.55-17.7,24.31,9.13,29.72,14.12,2.06,18.61.58,30-5.47,27-8.86,32.45-10.86,4.22-10.86,4.22l6.14-18s2.74,1.22,5.91-2.51,4.43-10.32,2.6-13.5-6.92-2.43-8.54,1.66S370.17,168.91,370.17,168.91Z" transform="translate(0 0)"/><polygon class="cls-57" points="428.52 325.7 377.82 325.7 392 257.79 442.7 257.79 428.52 325.7"/><polygon class="cls-58" points="432.97 325.7 381.35 325.7 395.78 257.79 447.4 257.79 432.97 325.7"/><polygon class="cls-57" points="421.15 278.9 438.31 325.7 411.2 325.7 418.43 278.9 421.15 278.9"/><polygon class="cls-59" points="418.43 278.9 435.6 325.7 408.48 325.7 418.43 278.9"/><polygon class="cls-60" points="330.52 320.89 355.02 325.63 343.9 325.7 330.52 325.7 330.52 320.89"/><polygon class="cls-59" points="330.97 321.44 354.83 325.63 354.83 322.24 330.97 318.05 330.97 321.44"/><path class="cls-57" d="M252,318c-1.54,0-2.79,1.71-2.79,3.83s1.25,3.83,2.79,3.83h79.1V318Z" transform="translate(0 0)"/><polygon class="cls-61" points="64.24 513.7 52.32 513.7 98.93 339.73 110.86 339.73 64.24 513.7"/><path class="cls-62" d="M81.47,377.8c3.81,27.15-1.09,52.46-11.79,69.81C54.62,433.88,43,410.89,39.14,383.74s1.09-52.46,11.79-69.81C66,327.66,77.66,350.65,81.47,377.8Z" transform="translate(0 0)"/><path class="cls-63" d="M47.18,373.47A320.9,320.9,0,0,1,58,411.11c5,22.21,3.78,48.63,3.78,48.63" transform="translate(0 0)"/><path class="cls-63" d="M75,366.22s-3,25.49-6.78,45.13-6.28,45.59-6.28,45.59" transform="translate(0 0)"/><path class="cls-63" d="M81.08,409S75,425.61,70.56,436.36,62,458.18,62,458.18" transform="translate(0 0)"/><path class="cls-64" d="M57.2,268.11c2.5,18.28-.86,35.3-8.1,46.94-10.1-9.28-17.9-24.77-20.4-43s.86-35.3,8.1-46.94C46.9,234.34,54.71,249.83,57.2,268.11Z" transform="translate(0 0)"/><path class="cls-65" d="M77.08,310.23c-1-21.26-2.37-59.64-3.18-82,14.75,18.27,24.22,46.25,24.22,77.66,0,31.05-9.25,58.74-23.71,77C76,361.45,78,329.59,77.08,310.23Z" transform="translate(0 0)"/><path class="cls-66" d="M48.43,305.88c0-31.87,9.73-60.22,24.85-78.46l.63.8c.81,22.37,2.23,60.75,3.18,82C78,329.59,76,361.45,74.41,382.9c-.38.48-.75,1-1.13,1.45C58.15,366.1,48.43,337.75,48.43,305.88Z" transform="translate(0 0)"/><path class="cls-67" d="M46.19,340.11c8.23,18.17,10,36.84,6.11,51.15C39,384.77,26.1,371.12,17.86,353s-10-36.84-6.11-51.15C25.08,308.29,38,321.94,46.19,340.11Z" transform="translate(0 0)"/><polygon class="cls-68" points="34.45 513.63 89.15 513.63 97.27 442.74 26.33 442.74 34.45 513.63"/><polygon class="cls-69" points="97.27 442.74 89.15 513.63 68.22 513.63 74.28 442.74 97.27 442.74"/><rect class="cls-70" x="23.56" y="440.71" width="76.48" height="17.47"/><ellipse class="cls-71" cx="72.18" cy="315.26" rx="2.82" ry="5.02"/><ellipse class="cls-72" cx="65.68" cy="320.8" rx="2.82" ry="5.02" transform="translate(-207.61 140.41) rotate(-45)"/><ellipse class="cls-73" cx="66.59" cy="347.48" rx="3.87" ry="6.89" transform="translate(-226.2 148.86) rotate(-45)"/><ellipse class="cls-74" cx="68.17" cy="361.24" rx="3.87" ry="6.89" transform="translate(-146.12 62.55) rotate(-24.97)"/><rect class="cls-75" x="52.32" y="325.71" width="454.55" height="14.03"/><rect class="cls-60" x="423.22" y="325.71" width="83.64" height="14.03"/><rect class="cls-76" x="52.32" y="335.18" width="454.55" height="4.56"/><rect class="cls-57" x="423.62" y="335.18" width="83.24" height="4.56"/><polygon class="cls-77" points="435.65 513.7 447.57 513.7 400.96 339.73 389.04 339.73 435.65 513.7"/><polygon class="cls-78" points="342.07 513.7 330.14 513.7 376.75 339.73 388.68 339.73 342.07 513.7"/><path class="cls-60" d="M275.3,325.71H208.86v-3.45h64a2.39,2.39,0,0,1,2.4,2.4v1Z" transform="translate(0 0)"/><path class="cls-57" d="M162.22,300.06h155a4.92,4.92,0,0,0,5-4.81c0-.22,0-.43,0-.65l-8.71-99.52a6.07,6.07,0,0,0-5.94-5.46h-155a4.92,4.92,0,0,0-5,4.81c0,.22,0,.43,0,.65l8.71,99.52A6.07,6.07,0,0,0,162.22,300.06Z" transform="translate(0 0)"/><path class="cls-79" d="M157.94,300.06h155a4.92,4.92,0,0,0,5-4.81c0-.22,0-.43,0-.65l-8.71-99.52a6.07,6.07,0,0,0-5.94-5.46h-155a4.92,4.92,0,0,0-5,4.81c0,.22,0,.43,0,.65L152,294.6A6.07,6.07,0,0,0,157.94,300.06Z" transform="translate(0 0)"/><path class="cls-59" d="M162.63,325.7a1.28,1.28,0,0,1-1.28-1.28,1.3,1.3,0,0,1,.22-.72,19.5,19.5,0,0,1,31.73,0,1.28,1.28,0,0,1-.34,1.78,1.3,1.3,0,0,1-.72.22Z" transform="translate(0 0)"/><path class="cls-57" d="M179.74,322.69a26.84,26.84,0,0,0-4.74-7,19.5,19.5,0,0,1,18.28,8,1.28,1.28,0,0,1-.34,1.78,1.3,1.3,0,0,1-.72.22H178.68C179.71,325.7,180.34,324,179.74,322.69Z" transform="translate(0 0)"/><path class="cls-80" d="M114.44,376.07c-8.73,22-23.21,38.95-38.66,47.41,21.38-24.16,43-108.43,43-108.43C124.21,331.8,123.17,354.05,114.44,376.07Z" transform="translate(0 0)"/><path class="cls-81" d="M80.11,362.46c8.73-22,23.21-38.95,38.66-47.41,0,0-21.59,84.27-43,108.43C70.34,406.74,71.38,384.48,80.11,362.46Z" transform="translate(0 0)"/><path class="cls-82" d="M80.11,362.46c8.73-22,23.21-38.95,38.66-47.41,0,0-21.59,84.27-43,108.43C70.34,406.74,71.38,384.48,80.11,362.46Z" transform="translate(0 0)"/><ellipse class="cls-83" cx="95.08" cy="378.52" rx="3.88" ry="2.17" transform="translate(-290.78 319.96) rotate(-67.27)"/><ellipse class="cls-84" cx="81.09" cy="380.77" rx="3.88" ry="2.17" transform="translate(-301.44 308.44) rotate(-67.27)"/><ellipse class="cls-85" cx="88.79" cy="380.54" rx="2.17" ry="3.88" transform="translate(-137.59 62.03) rotate(-22.27)"/><ellipse class="cls-86" cx="87.65" cy="388.03" rx="2.17" ry="3.88" transform="translate(-140.51 62.16) rotate(-22.27)"/><ellipse class="cls-87" cx="81.5" cy="399.78" rx="2.98" ry="5.32" transform="translate(-145.43 60.71) rotate(-22.27)"/><ellipse class="cls-88" cx="78.94" cy="410.3" rx="2.98" ry="5.32" transform="translate(-16.34 3.49) rotate(-2.29)"/><polygon class="cls-60" points="226.1 325.7 187.63 325.7 216.75 238.56 243.69 238.56 226.1 325.7"/><polygon class="cls-57" points="223.07 325.7 184.6 325.7 213.72 238.56 240.66 238.56 223.07 325.7"/><path class="cls-10" d="M228.33,215.57a9.74,9.74,0,0,1-.37-2.74,5.73,5.73,0,0,0-2.9.33c-3.57,1.4-5.44,6-4.18,10.29s5.18,6.63,8.74,5.24c2.81-1.1,4.54-4.19,4.54-7.55A7.43,7.43,0,0,1,228.33,215.57Z" transform="translate(0 0)"/><path class="cls-20" d="M338.36,162.11s-2.16,12.22-1.76,15.26,8.27.82,8.27.82" transform="translate(0 0)"/><path class="cls-89" d="M370.31,128.91c-8.59-3.33-34.55,4.38-38.23.78-1.14-1.12-2-3.74-2.71-6.83a14.33,14.33,0,0,0-1.61,4.33c-1.42,8.07.92,10,5,11.21s22.33-1,28.68,1.27,9.43,5.91,10.36,11.46S370.17,169,370.17,169,378.91,132.24,370.31,128.91Z" transform="translate(0 0)"/><ellipse class="cls-59" cx="331.1" cy="321.88" rx="2.79" ry="3.83"/><path class="cls-20" d="M375.35,161.4s2.32-1.56,3.09.53.69,4.11-2,5.39a1.89,1.89,0,0,1-2.39-.78" transform="translate(0 0)"/></g></g></g></svg>