<svg xmlns="http://www.w3.org/2000/svg" xmlns:xlink="http://www.w3.org/1999/xlink" viewBox="0 0 200 200"><defs><style>.cls-1{fill:none;}.cls-2{opacity:0.1;}.cls-3{fill:#747be3;}.cls-4{fill:#626bdc;}.cls-5{fill:#c0c0f6;}.cls-6{fill:url(#linear-gradient);}.cls-7{fill:#fafaff;}.cls-8{fill:#e0e0fa;}.cls-9{fill:url(#linear-gradient-2);}.cls-10{isolation:isolate;}.cls-11{clip-path:url(#clip-path);}.cls-12{fill:#b8387b;}.cls-13{fill:#ff6d6b;}.cls-14{opacity:0.86;}.cls-15{opacity:0.71;}.cls-16{opacity:0.57;}.cls-17{opacity:0.43;}.cls-18{opacity:0.29;}.cls-19{opacity:0.14;}.cls-20{opacity:0;}.cls-21{fill:#24d9e7;}.cls-22{fill:#ffd400;}.cls-23{fill:url(#linear-gradient-3);}.cls-24{fill:url(#linear-gradient-4);}.cls-25{fill:url(#linear-gradient-5);}.cls-26{fill:url(#linear-gradient-6);}.cls-27{fill:url(#linear-gradient-7);}.cls-28{opacity:0.4;}.cls-29{fill:url(#linear-gradient-8);}.cls-30{fill:url(#linear-gradient-9);}.cls-31{fill:url(#linear-gradient-10);}.cls-32{fill:url(#linear-gradient-11);}.cls-33{fill:#bad1de;}.cls-34{fill:#efb185;}.cls-35{fill:#a3c1ce;}.cls-36{fill:#111114;}.cls-37{fill:#16365c;}.cls-38{fill:#09294f;}.cls-39{fill:#cae0ea;}.cls-40{fill:#feffff;}.cls-41{fill:#dd9569;}.cls-42{fill:#f2b78f;}.cls-43{fill:#e6a376;}.cls-44{fill:#341c09;}.cls-45{fill:#221101;}.cls-46{fill:#9dbcc9;}.cls-47{fill:#b4b9bc;}.cls-48{fill:#7d8183;}.cls-49{fill:#e3e5e5;}.cls-50{fill:#bdbbbb;}.cls-51{fill:#d2d0d0;}.cls-52{fill:#d5dfe6;}.cls-53{fill:#e9f0f4;}.cls-54{fill:#ffeaf5;}.cls-55{fill:url(#linear-gradient-12);}.cls-56{opacity:0.5;}.cls-57{fill:#ff9e64;}</style><linearGradient id="linear-gradient" x1="50.68" y1="115.99" x2="193.67" y2="115.99" gradientUnits="userSpaceOnUse"><stop offset="0" stop-color="#fff2c9"/><stop offset="1" stop-color="#ffb7bb"/></linearGradient><linearGradient id="linear-gradient-2" x1="138.52" y1="117.39" x2="168.7" y2="163.32" gradientUnits="userSpaceOnUse"><stop offset="0" stop-color="#fadd8d"/><stop offset="0.39" stop-color="#f4a3a8"/><stop offset="1" stop-color="#ea3fd6"/></linearGradient><clipPath id="clip-path"><path class="cls-1" d="M156.35,113.31c0-.62,0-1.25,0-1.88h0C156.36,112.06,156.36,112.69,156.35,113.31Z"/></clipPath><linearGradient id="linear-gradient-3" x1="7.69" y1="167.77" x2="81.95" y2="167.77" gradientUnits="userSpaceOnUse"><stop offset="0" stop-color="#b101d0"/><stop offset="0.75" stop-color="#790396"/><stop offset="1" stop-color="#650482"/></linearGradient><linearGradient id="linear-gradient-4" x1="7.69" y1="178.16" x2="55.24" y2="178.16" xlink:href="#linear-gradient-3"/><linearGradient id="linear-gradient-5" x1="55.24" y1="183.78" x2="81.95" y2="183.78" xlink:href="#linear-gradient-3"/><linearGradient id="linear-gradient-6" x1="6610.75" y1="157.77" x2="6626.63" y2="157.77" gradientTransform="matrix(-1, 0, 0, 1, 6645.23, 0)" gradientUnits="userSpaceOnUse"><stop offset="0" stop-color="#31f5db"/><stop offset="1" stop-color="#3cbce2"/></linearGradient><linearGradient id="linear-gradient-7" x1="6582.92" y1="164.26" x2="6604.67" y2="164.26" xlink:href="#linear-gradient-6"/><linearGradient id="linear-gradient-8" x1="6583.78" y1="164.52" x2="6627.7" y2="164.52" xlink:href="#linear-gradient-6"/><linearGradient id="linear-gradient-9" x1="6573.7" y1="145.24" x2="6573.49" y2="182.35" gradientTransform="matrix(-1, 0, 0, 1, 6645.23, 0)" xlink:href="#linear-gradient-2"/><linearGradient id="linear-gradient-10" x1="6573.12" y1="152.83" x2="6617.04" y2="152.83" gradientTransform="matrix(-1, 0, 0, 1, 6645.23, 0)" xlink:href="#linear-gradient-2"/><linearGradient id="linear-gradient-11" x1="6573.99" y1="163.62" x2="6617.9" y2="163.62" gradientTransform="matrix(-1, 0, 0, 1, 6645.23, 0)" xlink:href="#linear-gradient-2"/><linearGradient id="linear-gradient-12" x1="4.9" y1="77.22" x2="85.64" y2="131.4" xlink:href="#linear-gradient"/></defs><title>Artboard 41 copy 29</title><g id="Layer_1" data-name="Layer 1"><g class="cls-2"><path d="M176.86,157.6c7.7,4.45,7.74,11.66.08,16.11s-20.08,4.44-27.78,0-7.74-11.65-.09-16.09S169.16,153.16,176.86,157.6Z"/></g><g class="cls-2"><path d="M198.18,118.58c2.33,1.32,2.34,3.49,0,4.84l-4.58,2.68-84.92,49.69-7.08,4.15a9.23,9.23,0,0,1-8.36,0L43.66,151.51c-2.32-1.33-2.34-3.49,0-4.84L140.2,90.15a9.22,9.22,0,0,1,8.37,0Z"/></g><path class="cls-3" d="M200,102.91a1.83,1.83,0,0,1-.11.61s0,0,0,.07a2.92,2.92,0,0,1-.29.55l-.06.09a3.74,3.74,0,0,1-.47.52,4.56,4.56,0,0,1-.42.31,3.47,3.47,0,0,1-.37.26L193.67,108l0,7.71,4.58-2.66.07,0c.12-.07.19-.14.29-.21s.3-.21.43-.32l0,0a2.74,2.74,0,0,0,.37-.4.31.31,0,0,0,.07-.09l.06-.09a1.63,1.63,0,0,0,.11-.17,2.11,2.11,0,0,0,.16-.34s0,0,0,0,0,0,0-.06a.9.9,0,0,0,.06-.22,1.32,1.32,0,0,0,0-.34v0h0c0-2.24,0-4.49,0-6.73v-1Z"/><path class="cls-4" d="M43.61,133a3,3,0,0,1-1.75-2.44l0,7.72a3,3,0,0,0,1.75,2.44l49.53,28.59,0-7.71Z"/><path class="cls-3" d="M101.51,161.55a7.25,7.25,0,0,1-1.17.51l-.45.14-.59.14c-.23,0-.48.1-.72.13l-.17,0c-.33,0-.67,0-1,.06h-.14a8.26,8.26,0,0,1-1-.06h-.13a9.6,9.6,0,0,1-1-.17l-.16,0a7.44,7.44,0,0,1-.84-.25l-.13-.05a6.19,6.19,0,0,1-.9-.42l0,7.71a6.18,6.18,0,0,0,.86.41l0,0,.14.05.53.18.3.07.16,0,.16,0,.58.1.2,0,.16,0,.21,0,.58,0a1.07,1.07,0,0,0,.18,0h.43l.65,0h.08l.17,0,.5-.07.22-.05c.2,0,.39-.09.59-.15l.31-.07a.84.84,0,0,1,.14-.06,6.81,6.81,0,0,0,1.16-.52l7.1-4.12,0-7.72Z"/><path class="cls-5" d="M198.23,100.48c2.32,1.33,2.33,3.5,0,4.84L193.67,108,108.6,157.42l-7.09,4.13a9.2,9.2,0,0,1-8.36,0L43.61,133c-2.32-1.34-2.33-3.5,0-4.84l96.74-56.23a9.22,9.22,0,0,1,8.37,0Z"/><polygon class="cls-6" points="193.67 107.99 108.6 157.42 50.68 123.99 135.75 74.55 193.67 107.99"/><path class="cls-7" d="M179,93.56c.62.36.63,1.09-.28,1.57a2.23,2.23,0,0,1-2.05.23l-18-10.23c-.62-.36.18-1.2.8-1.56a2.47,2.47,0,0,1,2.23,0Z"/><path class="cls-8" d="M178.44,94c.62.36.63.94,0,1.29a2.46,2.46,0,0,1-2.24,0l-17.31-10a.69.69,0,0,1,0-1.3,2.48,2.48,0,0,1,2.22,0Z"/><polygon class="cls-9" points="193.67 107.99 193.65 115.7 108.58 165.14 108.6 157.42 193.67 107.99"/><g class="cls-10"><g class="cls-11"><g class="cls-10"><path class="cls-12" d="M156.94,111.18v2.12a3.79,3.79,0,0,0-.58.26l0,0v-2.12l0,0a3.38,3.38,0,0,1,.58-.25Z"/></g></g></g><path class="cls-13" d="M144.62,13.47l-8.42,4.9a1.73,1.73,0,0,1-1.72,0L126,13.46a1.71,1.71,0,0,1,0-3l8.43-4.9a1.71,1.71,0,0,1,1.72,0l8.49,4.9A1.72,1.72,0,0,1,144.62,13.47Z"/><g class="cls-14"><path class="cls-13" d="M144.62,18.64l-8.42,4.89a1.71,1.71,0,0,1-1.72,0L126,18.63a1.72,1.72,0,0,1,0-3l8.43-4.89a1.73,1.73,0,0,1,1.72,0l8.49,4.91A1.72,1.72,0,0,1,144.62,18.64Z"/></g><g class="cls-15"><path class="cls-13" d="M144.62,23.8l-8.42,4.89a1.73,1.73,0,0,1-1.72,0L126,23.79a1.72,1.72,0,0,1,0-3l8.43-4.89a1.71,1.71,0,0,1,1.72,0l8.49,4.9A1.72,1.72,0,0,1,144.62,23.8Z"/></g><g class="cls-16"><path class="cls-13" d="M144.62,29l-8.42,4.9a1.71,1.71,0,0,1-1.72,0L126,29a1.72,1.72,0,0,1,0-3l8.43-4.89a1.73,1.73,0,0,1,1.72,0L144.62,26A1.71,1.71,0,0,1,144.62,29Z"/></g><g class="cls-17"><path class="cls-13" d="M144.62,34.13,136.2,39a1.71,1.71,0,0,1-1.72,0L126,34.12a1.72,1.72,0,0,1,0-3l8.43-4.89a1.71,1.71,0,0,1,1.72,0l8.49,4.9A1.72,1.72,0,0,1,144.62,34.13Z"/></g><g class="cls-18"><path class="cls-13" d="M144.62,39.29l-8.42,4.9a1.71,1.71,0,0,1-1.72,0L126,39.29a1.72,1.72,0,0,1,0-3l8.43-4.9a1.73,1.73,0,0,1,1.72,0l8.49,4.9A1.72,1.72,0,0,1,144.62,39.29Z"/></g><g class="cls-19"><path class="cls-13" d="M144.62,44.46l-8.42,4.89a1.71,1.71,0,0,1-1.72,0L126,44.45a1.72,1.72,0,0,1,0-3l8.43-4.89a1.71,1.71,0,0,1,1.72,0l8.49,4.9A1.72,1.72,0,0,1,144.62,44.46Z"/></g><g class="cls-20"><path class="cls-13" d="M144.62,49.62l-8.42,4.89a1.73,1.73,0,0,1-1.72,0L126,49.61a1.71,1.71,0,0,1,0-3l8.43-4.9a1.71,1.71,0,0,1,1.72,0l8.49,4.9A1.72,1.72,0,0,1,144.62,49.62Z"/></g><g class="cls-2"><path d="M144.62,49.11,136.2,54a1.71,1.71,0,0,1-1.72,0L126,49.11a1.72,1.72,0,0,1,0-3l8.43-4.9a1.71,1.71,0,0,1,1.72,0l8.49,4.91A1.71,1.71,0,0,1,144.62,49.11Z"/></g><g class="cls-2"><path class="cls-21" d="M199.15,79.3l-8.43,4.89a1.73,1.73,0,0,1-1.72,0l-8.49-4.91a1.72,1.72,0,0,1,0-3l8.42-4.89a1.71,1.71,0,0,1,1.72,0l8.49,4.9A1.72,1.72,0,0,1,199.15,79.3Z"/></g><path class="cls-21" d="M199.15,35.91l-8.43,4.89a1.73,1.73,0,0,1-1.72,0l-8.49-4.91a1.72,1.72,0,0,1,0-3L188.93,28a1.71,1.71,0,0,1,1.72,0l8.49,4.9A1.72,1.72,0,0,1,199.15,35.91Z"/><g class="cls-14"><path class="cls-21" d="M199.15,42.11,190.72,47A1.71,1.71,0,0,1,189,47l-8.49-4.9a1.72,1.72,0,0,1,0-3l8.42-4.89a1.71,1.71,0,0,1,1.72,0l8.49,4.9A1.72,1.72,0,0,1,199.15,42.11Z"/></g><g class="cls-15"><path class="cls-21" d="M199.15,48.31l-8.43,4.89a1.71,1.71,0,0,1-1.72,0l-8.49-4.9a1.72,1.72,0,0,1,0-3l8.42-4.89a1.73,1.73,0,0,1,1.72,0l8.49,4.91A1.72,1.72,0,0,1,199.15,48.31Z"/></g><g class="cls-16"><path class="cls-21" d="M199.15,54.51l-8.43,4.89a1.71,1.71,0,0,1-1.72,0l-8.49-4.9a1.72,1.72,0,0,1,0-3l8.42-4.89a1.73,1.73,0,0,1,1.72,0l8.49,4.91A1.72,1.72,0,0,1,199.15,54.51Z"/></g><g class="cls-17"><path class="cls-21" d="M199.15,60.7l-8.43,4.9a1.71,1.71,0,0,1-1.72,0l-8.49-4.9a1.72,1.72,0,0,1,0-3l8.42-4.9a1.73,1.73,0,0,1,1.72,0l8.49,4.91A1.71,1.71,0,0,1,199.15,60.7Z"/></g><g class="cls-18"><path class="cls-21" d="M199.15,66.9l-8.43,4.9a1.71,1.71,0,0,1-1.72,0l-8.49-4.9a1.72,1.72,0,0,1,0-3l8.42-4.9a1.71,1.71,0,0,1,1.72,0l8.49,4.9A1.72,1.72,0,0,1,199.15,66.9Z"/></g><g class="cls-19"><path class="cls-21" d="M199.15,73.1,190.72,78A1.73,1.73,0,0,1,189,78l-8.49-4.91a1.71,1.71,0,0,1,0-3l8.42-4.9a1.71,1.71,0,0,1,1.72,0l8.49,4.9A1.72,1.72,0,0,1,199.15,73.1Z"/></g><g class="cls-20"><path class="cls-21" d="M199.15,79.3l-8.43,4.89a1.73,1.73,0,0,1-1.72,0l-8.49-4.91a1.72,1.72,0,0,1,0-3l8.42-4.89a1.71,1.71,0,0,1,1.72,0l8.49,4.9A1.72,1.72,0,0,1,199.15,79.3Z"/></g><path class="cls-22" d="M172.41,8.42,164,13.32a1.73,1.73,0,0,1-1.72,0l-8.49-4.9a1.72,1.72,0,0,1,0-3l8.42-4.9a1.73,1.73,0,0,1,1.72,0l8.5,4.9A1.72,1.72,0,0,1,172.41,8.42Z"/><g class="cls-14"><path class="cls-22" d="M172.41,16.37,164,21.26a1.71,1.71,0,0,1-1.72,0l-8.49-4.9a1.72,1.72,0,0,1,0-3l8.42-4.89a1.71,1.71,0,0,1,1.72,0l8.5,4.9A1.72,1.72,0,0,1,172.41,16.37Z"/></g><g class="cls-15"><path class="cls-22" d="M172.41,24.31,164,29.21a1.71,1.71,0,0,1-1.72,0l-8.49-4.9a1.72,1.72,0,0,1,0-3l8.42-4.9a1.73,1.73,0,0,1,1.72,0l8.5,4.9A1.72,1.72,0,0,1,172.41,24.31Z"/></g><g class="cls-16"><path class="cls-22" d="M172.41,32.26,164,37.15a1.71,1.71,0,0,1-1.72,0l-8.49-4.9a1.72,1.72,0,0,1,0-3l8.42-4.89a1.71,1.71,0,0,1,1.72,0l8.5,4.9A1.72,1.72,0,0,1,172.41,32.26Z"/></g><g class="cls-17"><path class="cls-22" d="M172.41,40.2,164,45.1a1.71,1.71,0,0,1-1.72,0l-8.49-4.9a1.72,1.72,0,0,1,0-3l8.42-4.9a1.73,1.73,0,0,1,1.72,0l8.5,4.91A1.71,1.71,0,0,1,172.41,40.2Z"/></g><g class="cls-18"><path class="cls-22" d="M172.41,48.15,164,53a1.71,1.71,0,0,1-1.72,0l-8.49-4.9a1.72,1.72,0,0,1,0-3l8.42-4.89a1.71,1.71,0,0,1,1.72,0l8.5,4.9A1.72,1.72,0,0,1,172.41,48.15Z"/></g><g class="cls-19"><path class="cls-22" d="M172.41,56.09,164,61a1.71,1.71,0,0,1-1.72,0l-8.49-4.9a1.72,1.72,0,0,1,0-3l8.42-4.9a1.73,1.73,0,0,1,1.72,0l8.5,4.91A1.71,1.71,0,0,1,172.41,56.09Z"/></g><g class="cls-20"><path class="cls-22" d="M172.41,64,164,68.93a1.73,1.73,0,0,1-1.72,0L153.78,64a1.72,1.72,0,0,1,0-3l8.42-4.89a1.71,1.71,0,0,1,1.72,0l8.5,4.9A1.72,1.72,0,0,1,172.41,64Z"/></g><g class="cls-2"><path d="M172.41,64,164,68.91a1.71,1.71,0,0,1-1.72,0L153.78,64a1.72,1.72,0,0,1,0-3l8.42-4.9a1.71,1.71,0,0,1,1.72,0l8.5,4.9A1.72,1.72,0,0,1,172.41,64Z"/></g><g class="cls-2"><polygon points="78.97 182.78 50.57 200.01 0 170.81 28.43 154.23 78.97 182.78"/></g><polygon class="cls-4" points="81.95 178.27 55.24 194.47 7.69 167.02 34.43 151.42 81.95 178.27"/><polygon class="cls-23" points="81.95 173.09 55.24 189.29 7.69 161.84 34.43 146.24 81.95 173.09"/><polygon class="cls-24" points="7.69 161.84 7.69 167.02 55.24 194.47 55.24 189.29 7.69 161.84"/><polygon class="cls-25" points="81.95 173.09 81.95 178.27 55.24 194.47 55.24 189.29 81.95 173.09"/><path class="cls-26" d="M22.61,156.75l-.57-.26c-.34-.13-.64-.24-.93-.32l-.39-.09-.26-.06a3.5,3.5,0,0,0-.54-.05h-.09a2.42,2.42,0,0,0-.39,0h-.08l-.38.08-.06,0a1.92,1.92,0,0,0-.32.14l.86-.5h0l.21-.1.1,0,.06,0,.06,0a1.22,1.22,0,0,1,.26-.06h.13l.17,0h.36a3.8,3.8,0,0,1,.46,0h0l.26,0,.33.08H22a8,8,0,0,1,.92.33l.06,0,.52.24.28.12c.3.16.63.33,1,.53l.66.39c.24.16.48.3.72.44.43.25.85.46,1.25.65l.35.17.73.3c.3.12.59.22.88.31l.48.14.44.1.64.11.31,0,.68,0h.2a5.15,5.15,0,0,0,.8-.09l.15,0a5.43,5.43,0,0,0,.61-.18l.17-.06a4.22,4.22,0,0,0,.68-.32l-.87.51-.06,0a4.81,4.81,0,0,1-.51.25l-.11,0-.16.06-.27.09-.35.08L32,160l-.08,0-.62.07H31c-.13,0-.26,0-.39,0l-.28,0L30,160l-.2,0-.41-.09-.46-.1-.15,0c-.1,0-.21-.08-.32-.11-.29-.09-.58-.19-.89-.31a2.25,2.25,0,0,1-.24-.08l-.48-.22-.36-.16c-.41-.2-.82-.41-1.25-.66l-.72-.43c-.23-.14-.44-.28-.66-.4s-.66-.37-1-.52Z"/><path class="cls-27" d="M41.42,145.1l0,0,.24-.11.23-.09.09,0h.05l.09,0,.23,0h.32l.16,0,.31.06.12.05.12,0,.16.05a4.55,4.55,0,0,1,.49.25,7,7,0,0,1,.73.51l.12.09c.24.19.49.42.74.66l.07.06.08.09c.26.26.52.54.79.85l0,0,.07.08c.29.35.6.71.91,1.11h0l.56.75c.45.61.87,1.19,1.26,1.76l.14.19.18.26.46.67.37.54.4.59.36.54.36.55.33.5.35.55c.1.15.2.3.29.45s.36.56.54.83l.17.28c.13.19.25.39.37.57l.19.28.31.48.16.23q.16.25.33.48c.17.25.34.48.51.7l.17.22c.09.11.18.21.26.32a1.8,1.8,0,0,0,.19.2,2.16,2.16,0,0,0,.25.27l.17.18.33.29.15.12a3,3,0,0,0,.49.33,2.82,2.82,0,0,0,.46.23l.12,0a2.29,2.29,0,0,0,.37.12l.14,0,.35.06.19,0h.6l.28,0,.46-.05.25,0a10.79,10.79,0,0,0,1.1-.26l.74-.23-.06,21.44-.87.51.06-21.44-.68.21h0c-.39.12-.76.2-1.1.27l-.11,0-.15,0-.46.06-.17,0h-.56l-.15,0-.19,0h-.13l-.22-.05-.14,0h-.06l-.31-.11-.12,0h0a3.61,3.61,0,0,1-.44-.22,5.25,5.25,0,0,1-.49-.33l-.15-.13-.32-.28-.08-.07-.11-.12-.23-.25-.11-.11L54.8,161l-.24-.29-.12-.15a.61.61,0,0,1-.07-.1c-.17-.22-.34-.44-.51-.69l0,0c-.09-.12-.18-.25-.26-.38l-.21-.3-.31-.48-.18-.27c-.14-.2-.27-.42-.41-.63l-.12-.2c-.2-.3-.4-.62-.61-.95l-.13-.19c-.16-.25-.32-.51-.5-.77l-.21-.34c-.16-.23-.31-.47-.47-.71l-.27-.4-.48-.72-.31-.45c-.17-.25-.34-.5-.53-.76l-.26-.38c-.41-.58-.83-1.17-1.29-1.79l-.56-.74c-.31-.4-.6-.76-.89-1.1l-.12-.14c-.27-.3-.54-.58-.79-.84l-.14-.14c-.26-.25-.51-.47-.75-.67l-.11-.09a7.58,7.58,0,0,0-.74-.51,4.15,4.15,0,0,0-.65-.3l-.11,0a2.55,2.55,0,0,0-.6-.12h0a2,2,0,0,0-.6.05h0a1.88,1.88,0,0,0-.59.24Z"/><g class="cls-28"><path class="cls-29" d="M43.19,145.78c-2.72-1.57-4.71.63-6.26,8.12-1,4.61-4.18,8.67-11.69,4.33l-.72-.43c-.23-.14-.44-.28-.66-.4-6.32-3.65-6.34.77-6.34,1l43.86,25.32.06-21.44c-2.34.78-3.81.83-5.06.11-2.33-1.35-3.92-5.38-9.09-12.39A15.75,15.75,0,0,0,43.19,145.78Z"/></g><polygon class="cls-30" points="71.19 177.12 72.05 176.61 72.11 155.17 71.24 155.68 71.19 177.12"/><path class="cls-31" d="M29.06,150h0a1.75,1.75,0,0,1,.24-.11l.07,0,.1,0,.12,0,.21,0,.1,0h0l.44,0h.66c.14,0,.31,0,.46,0l.29,0,.08,0,.17,0,.68.14L33,150l.16,0c.18,0,.37.11.56.17l.34.1c.37.12.75.26,1.17.42l1.21.48,2.15.86.13,0,.78.31.34.12.51.2.36.13.42.15.36.12.37.12.34.11.35.1.1,0a10,10,0,0,0,1.25.27l.13,0,.87.09H45a7.25,7.25,0,0,0,.93,0h.17c.4,0,.81-.08,1.25-.15l.34-.06q.45-.09.87-.21l.2-.06c.25-.07.49-.15.73-.24l.05,0c.28-.09.54-.2.81-.3l.7-.27.15-.06.71-.24.08,0,.1,0,.62-.14.12,0h0l.43-.05.18,0h0c.1,0,.22,0,.32,0h.31a1.36,1.36,0,0,1,.29,0c.12,0,.23,0,.34,0h0a4.41,4.41,0,0,1,.59.12l.14,0h0a8.88,8.88,0,0,1,.94.33l.1,0,.37.17.26.12c.27.13.55.28.83.44.46.26.94.57,1.45.93a7.47,7.47,0,0,0,.85.54,6.57,6.57,0,0,0,.92.46,4.66,4.66,0,0,0,.77.26l.15,0a3.78,3.78,0,0,0,.57.1h.12a4,4,0,0,0,.6,0l.15,0,.42-.07.21-.05.27-.08.46-.17.23-.09.7-.32.67-.31.11,0,.11,0,.47-.17.16-.06a.61.61,0,0,0,.13,0l.22,0,.17,0,.28,0,.13,0h.61l.15,0,.22,0,.37.08.13,0,0,0a4.86,4.86,0,0,1,.73.25h0a8.4,8.4,0,0,1,1,.47l.56.35-.87.51c-.19-.13-.38-.25-.56-.35a7.8,7.8,0,0,0-1-.48,4.71,4.71,0,0,0-.8-.27l-.13,0a4.28,4.28,0,0,0-.59-.1h-.15a3.11,3.11,0,0,0-.61,0h-.12l-.46.08-.22.05-.28.08-.48.18-.21.08-.68.31-.69.32-.13.06-.11,0-.45.17-.17.06-.11,0-.21.05-.2.05-.22,0h-.87l-.26,0-.31-.06-.14,0-.07,0a6,6,0,0,1-.71-.24h0a8.76,8.76,0,0,1-.92-.46c-.27-.16-.55-.34-.85-.55-.51-.35-1-.66-1.44-.92q-.43-.25-.84-.45l-.23-.1a4.36,4.36,0,0,0-.51-.22,7.91,7.91,0,0,0-.93-.32l-.17,0-.56-.12-.38,0-.29,0H52.4c-.15,0-.3,0-.44.06l-.17,0a6,6,0,0,0-.61.15l-.19.05-.71.23-.17.07-.64.25-.85.32h0l-.75.25-.12,0-.08,0q-.42.12-.87.21l-.26,0h-.07a12.41,12.41,0,0,1-1.26.16H45c-.32,0-.63,0-.94,0H44a6.71,6.71,0,0,1-.89-.09H43c-.41-.07-.82-.16-1.24-.27h-.06l0,0-.31-.09-.38-.11-.31-.11-.42-.14-.31-.11-.48-.17-.29-.11-.56-.22-.29-.11-.64-.25-.1,0-3.23-1.28c-.41-.17-.8-.3-1.17-.43l-.34-.1-.71-.21-.22,0-.71-.15-.14,0-.4,0-.43-.05h-.63a3.92,3.92,0,0,0-.52.06l-.09,0-.35.09-.09,0a1.66,1.66,0,0,0-.33.15Z"/><g class="cls-28"><path class="cls-32" d="M70.68,155.33a5.16,5.16,0,0,0-5.69-.1c-1.51.72-3,1.44-5.57,0-.27-.16-.55-.34-.85-.55-.51-.35-1-.66-1.44-.92-5-2.87-6.75-.29-10.36.39-3.94.74-5.68-.26-12.45-2.92s-7,.44-7,.61l43.87,25.32,0-21.44C71.05,155.55,70.86,155.43,70.68,155.33Z"/></g><path class="cls-33" d="M143.92,89.92a3.55,3.55,0,0,0-3.3,3.65c-.17,3.53,1.83,19,5.31,22.34s4-3.87,4-3.87S149.48,89.6,143.92,89.92Z"/><path class="cls-34" d="M163,115.92s4.2,1.15,7.21.18,2.32-1.12,2.13-1.58c-.41-1-4.28-1-5-1.3s.65-.7,1-1.16,1.05-1,.83-1.16-.8-.39-2,.38a23.71,23.71,0,0,1-4,1.71Z"/><path class="cls-33" d="M163.88,112.63a7.35,7.35,0,0,0-.38,1.88,4.24,4.24,0,0,0,.43,2.24s-14.14,1.64-17.53-.45c0,0-3-5.55,2.36-6.52Z"/><path class="cls-35" d="M147.57,116.78a1.93,1.93,0,0,1-1.12-.46l0,0v0a4.66,4.66,0,0,1-.46-.37c-3.48-3.34-5.48-18.81-5.31-22.34a4.2,4.2,0,0,1,.4-1.64c.81,4,4.63,22.43,6.23,22.88s12.37.67,16.3.76a3.92,3.92,0,0,0,.38,1.18S152.24,118.1,147.57,116.78Z"/><path class="cls-36" d="M159.15,159.24s-.79,2.78,1.17,3.48a16.87,16.87,0,0,1,4.32,2.14c.75.59,9.18,4.17,10.22,2.48s-1.47-3.61-2.11-4.2-6.38-5.56-6.38-5.56Z"/><path class="cls-36" d="M152.34,164.09s-.79,2.79,1.17,3.49a16.91,16.91,0,0,1,4.32,2.13c.75.59,9.18,4.17,10.22,2.48s-1.48-3.61-2.11-4.2-6.39-5.56-6.39-5.56Z"/><path class="cls-37" d="M145.05,119s20.66,13,21.26,16.29.47,22.77.47,22.77-5.3,2.28-7.85.86l-2.14-18.34s-16.26-12-17-12.44S145.05,119,145.05,119Z"/><path class="cls-38" d="M139.82,128.14c.71.44,17,12.44,17,12.44l2.14,18.34c1.23.69,3.1.5,4.7.14-.72-5.56-2.36-17.82-2.95-20.93-.77-4.06-17.44-13.65-17.44-13.65l-3.4,3.17C139.75,127.91,139.73,128.09,139.82,128.14Z"/><path class="cls-37" d="M145.07,119.5s-2.38,7.09-3.62,8.63c0,0,16.51,8.75,17.35,13s1.88,22.3,1.88,22.3a10.33,10.33,0,0,1-8.66.65s-1.85-13.89-2.05-19.48c0,0-25-6.61-23.12-20.28C126.85,124.29,136.41,128.09,145.07,119.5Z"/><path class="cls-38" d="M150,144.57c.2,5.59,2.05,19.48,2.05,19.48a11.17,11.17,0,0,0,2.43.57c-.14-2.18-.32-5-.54-8.78-.82-14-3-13.74-3-13.74-15.84-7.15-19.05-14-19.05-14L126.8,125C125.87,138.18,150,144.57,150,144.57Z"/><path class="cls-33" d="M134.41,91.22s-7.88,4-8.08,4.62-2.24,2.07.68,9c0,0,3.91,7.52,2,15a47.15,47.15,0,0,1-2.16,6.64s3.5,5.19,13.33,1.57c2-.73,5.33-3.44,6.34-5.61a51.24,51.24,0,0,1,.31-13.94C148,101,148.7,91.27,144.44,90,144.44,90,143.36,88.67,134.41,91.22Z"/><path class="cls-39" d="M146.78,108.53a51.24,51.24,0,0,0-.31,13.94c-1,2.17-4.35,4.88-6.34,5.61a22,22,0,0,1-3,.89,55.56,55.56,0,0,0,1.72-5.55c2-7.52-2-15-2-15-2.92-6.92-.87-8.38-.68-9s8.08-4.62,8.08-4.62c1.13-.32,2.13-.58,3-.79C148.14,97.81,147.58,103.64,146.78,108.53Z"/><path class="cls-40" d="M137.18,88.81s5.73,3,3.18,7.33l2.69,1.49S145.69,90.07,137.18,88.81Z"/><path class="cls-34" d="M133.5,85.77s2.41,3.66.5,6.13c-1.06,1.38,1.45,4.66,5.74,4.39,0,0,1.92-.47,1.72-1.16-.44-1.58.19-2.47.88-3.68S133.5,85.77,133.5,85.77Z"/><path class="cls-41" d="M134,91.9a1.14,1.14,0,0,0-.22.57c1.61-1.64,4.69-1.77,4.69-1.77l-4.07-4.51L134,86l-.12.4C134.45,87.55,135.43,90.06,134,91.9Z"/><path class="cls-42" d="M141.46,95.13c-.4-2.51.19-2.47.88-3.68.19-.33-.4-.91-1.34-1.57a2.88,2.88,0,0,0-.7.78,7.72,7.72,0,0,0-1.45,5.63,3.78,3.78,0,0,0,.89,0C140.26,96.21,141.59,95.9,141.46,95.13Z"/><path class="cls-34" d="M132.61,83.71s1,4.85,4.38,7.05c2.95,1.94,6.39,3.22,7-.3.51-2.81,1.88-9.94-.59-11.38-3.19-1.84-4.36-4.12-8-2.75C135.37,76.33,131.15,78.26,132.61,83.71Z"/><path class="cls-43" d="M132.61,83.71A10.92,10.92,0,0,0,137,90.82a14.38,14.38,0,0,0,2.8,1.49,13.13,13.13,0,0,1-2.91-2.9c-1.21-1.4,1.79-.86-.26-4.45-.69-1.22,2.72.36,3.48.34,4.55-.12,4.21-2.72,4.3-3.82a7.26,7.26,0,0,0-.38-1.34l-.43-.83-.15-.23a16.92,16.92,0,0,0-1.48-1.61c-1.94,0-7.48.16-7.59.18s-1,1.32-1.9,2.54A7.43,7.43,0,0,0,132.61,83.71Z"/><path class="cls-44" d="M134.61,88.41a8.74,8.74,0,0,1-2.4-8.23,5.66,5.66,0,0,1,5-4.42c2.07-.24,6.05-.11,7.62,4.06.49,1.3.16,4.16-5,2.83-.73-.2-2.68-.45-3.36.17a2.67,2.67,0,0,0-.43,2.78c.29.87-.48,1-.58.78s-1.09-2.67-2-1.7S134.51,88.24,134.61,88.41Z"/><path class="cls-45" d="M134.61,88.41c-.1-.17-2-2.85-1.12-3.73s1.91,1.51,2,1.7.87.09.58-.78a2.67,2.67,0,0,1,.43-2.78c.62-.56,2.33-.27,3.36-.17-.85-.55-2.54-.74-3.14-2.15a5,5,0,0,0-3-3.11,5.8,5.8,0,0,0-1.51,2.79A8.74,8.74,0,0,0,134.61,88.41Z"/><path class="cls-40" d="M134.6,90.71a7.45,7.45,0,0,0,5.76,5.43L139,99.56S130.19,95.16,134.6,90.71Z"/><path class="cls-46" d="M126.33,95.84c-.19.61-2.24,2.07.68,9,0,0,3.29,7.46,1.58,15-.73,3.22-1.08,2.44-2.31,5.18-.71,1.56,2.61,4,5.87,4.27,1.68-4,1.22-3.95,1.92-8.3,1-6,.28-10.89-4.61-16.88-4.3-5.26-2.49-7.31-2.59-8.7A1.7,1.7,0,0,0,126.33,95.84Z"/><path class="cls-44" d="M144.84,79.82s.75,4.66-5.18,3a6.85,6.85,0,0,1-4.17-3.54,2.7,2.7,0,0,0-1.94-1.66s1.58-2.25,5.67-2c1.92.14,3.92,2,4.41,2.31S143.32,80.19,144.84,79.82Z"/><g class="cls-10"><polygon class="cls-47" points="134.79 128.54 134.73 129.29 145.57 137.02 145.64 136.27 134.79 128.54"/><polygon class="cls-48" points="145.64 136.27 145.57 137.02 165.83 127.71 165.89 126.96 145.64 136.27"/><polygon class="cls-49" points="134.79 128.54 145.64 136.27 165.89 126.96 155.05 119.23 134.79 128.54"/></g><g class="cls-10"><polygon class="cls-50" points="148.89 123.43 148.08 122.68 144.7 136.23 145.51 136.98 148.89 123.43"/><polygon class="cls-51" points="170.06 113.7 169.25 112.95 148.08 122.68 148.89 123.43 170.06 113.7"/><polygon class="cls-52" points="148.89 123.43 145.51 136.98 166.68 127.25 170.06 113.7 148.89 123.43"/><polygon class="cls-53" points="148.89 123.43 148.89 123.43 166.68 127.25 170.06 113.7 148.89 123.43"/></g><path class="cls-34" d="M138.5,129.37s3.91,4.71,8.62,4.68c0,0,.22-1.18-1.72-2a3.62,3.62,0,0,1-2.34-2.74c.06-.24,1.67-.07,2.38,0s1.75-.71,0-1.14-4.52-1.66-6.26-1.61C139.22,126.58,137.21,128.05,138.5,129.37Z"/><path class="cls-33" d="M129.61,94.7s-4,.16-5.54,3.33-5.89,18.15-4,22.59,18.56,9.77,18.56,9.77a4.76,4.76,0,0,1,1.42-4.64l-13.58-9S133,96.85,129.61,94.7Z"/><path class="cls-39" d="M126.45,116.76l13.58,9a5.43,5.43,0,0,0-.75.88c-3.3-1.88-14.16-8.16-15.06-9.85s5.08-18.58,6-21.18C131.93,100.06,126.45,116.76,126.45,116.76Z"/><path class="cls-54" d="M84,77.94l1.2-.54c.71-.28,1.36-.51,2-.68.29-.08.55-.13.82-.19l.55-.12a9.61,9.61,0,0,1,1.12-.11h.2a7.33,7.33,0,0,1,.83,0l.16,0a6.1,6.1,0,0,1,.79.18l.14,0a4.69,4.69,0,0,1,.68.31l-1.83-1.06,0,0a3.42,3.42,0,0,0-.43-.21L90,75.53l-.14,0-.13,0-.54-.13H89l-.17,0-.34,0h-.77a6.81,6.81,0,0,0-1,.1h-.08l-.54.12c-.24,0-.46.09-.72.16l-.1,0a19.25,19.25,0,0,0-2,.68l-.11,0-1.1.51c-.19.09-.38.16-.58.27-.65.32-1.32.68-2,1.09-.45.26-.9.54-1.38.84s-1,.62-1.51.91q-1.36.78-2.64,1.38c-.25.13-.49.23-.74.35-.52.23-1,.44-1.52.63s-1.26.46-1.86.64c-.34.11-.69.23-1,.31s-.62.14-.93.2-.91.18-1.34.24l-.65.06c-.49,0-1,.06-1.43.06h-.43a11.07,11.07,0,0,1-1.67-.19l-.33-.07a10.35,10.35,0,0,1-1.27-.37l-.36-.12a11.06,11.06,0,0,1-1.43-.68l1.82,1.06.12.07c.35.19.72.37,1.1.53l.22.08.34.12.57.2c.24.07.48.12.73.17l.31.07.16,0c.43.07.86.12,1.31.15H67.2a5.9,5.9,0,0,0,.59-.06c.23,0,.45,0,.68-.06s.29,0,.44,0,.58-.13.86-.19l1-.2.31-.07c.21-.06.44-.16.66-.23.61-.18,1.24-.4,1.89-.65.17-.07.32-.1.49-.17.33-.13.67-.31,1-.46s.51-.22.77-.35c.85-.41,1.72-.86,2.62-1.38.5-.29,1-.59,1.51-.91s.94-.58,1.39-.84c.72-.41,1.4-.77,2-1.1C83.64,78.11,83.83,78,84,77.94Z"/><path class="cls-54" d="M44.46,53.44l-.06,0c-.17-.09-.34-.18-.51-.25A4,4,0,0,0,43.4,53l-.19-.05-.08,0-.2,0a3.93,3.93,0,0,0-.48-.06h-.68l-.35,0a5.12,5.12,0,0,0-.63.14l-.27.09-.25.09a2,2,0,0,0-.32.11,7.11,7.11,0,0,0-1,.52,12.44,12.44,0,0,0-1.56,1.07l-.24.19c-.51.41-1,.88-1.56,1.4l-.14.12-.16.18c-.55.54-1.1,1.14-1.68,1.79l-.06.07c-.05,0-.09.12-.14.17-.62.72-1.26,1.49-1.91,2.33h0l-1.18,1.57c-.95,1.29-1.82,2.51-2.66,3.7-.09.13-.2.27-.28.4s-.26.37-.39.56l-1,1.4-.78,1.13-.84,1.26-.75,1.12-.75,1.16c-.24.35-.47.71-.69,1l-.76,1.17q-.3.48-.6.93l-1.13,1.76-.37.58-.77,1.2c-.14.2-.26.39-.39.59s-.46.69-.67,1l-.34.48c-.23.34-.46.69-.68,1-.37.53-.73,1-1.08,1.47l-.36.46c-.18.24-.36.46-.55.67s-.25.3-.38.44-.35.39-.53.57l-.37.37c-.23.22-.46.42-.69.61l-.32.26a8.31,8.31,0,0,1-1,.69,6.24,6.24,0,0,1-1,.48,1.44,1.44,0,0,1-.25.08,5.07,5.07,0,0,1-.78.25l-.3.07c-.24,0-.48.09-.73.12l-.4,0c-.23,0-.47,0-.71,0H6.48l-.6,0-1-.12-.53-.09c-.73-.14-1.49-.31-2.31-.55q-.75-.21-1.56-.48l.13,45.09,1.82,1.07-.13-45.1c.51.17,1,.32,1.45.45l.09,0c.84.23,1.6.41,2.33.55l.23.06.31,0,1,.12c.11,0,.25,0,.36,0h.24a3.37,3.37,0,0,0,.55,0h.39l.31,0,.4,0a2.23,2.23,0,0,0,.27,0c.16,0,.31-.06.47-.09l.3-.07.12,0c.23-.06.44-.15.66-.23L12,90.3h0a7.49,7.49,0,0,0,.94-.47,9.15,9.15,0,0,0,1-.69c.11-.08.21-.18.32-.27s.45-.38.67-.59l.17-.15.24-.25.48-.53.22-.23.21-.25c.16-.2.33-.4.49-.61l.26-.31.15-.21c.35-.46.7-.93,1.07-1.45a.21.21,0,0,1,0-.06l.55-.81.43-.62.67-1c.12-.19.24-.38.37-.57l.86-1.33.26-.41,1.28-2,.27-.41,1-1.62.46-.71,1-1.49.56-.85c.33-.5.67-1,1-1.51.21-.31.42-.63.64-.94.36-.53.72-1.06,1.11-1.6l.56-.81c.85-1.2,1.74-2.45,2.7-3.76.4-.54.8-1.06,1.19-1.57.64-.82,1.26-1.58,1.87-2.29l.26-.3c.56-.64,1.11-1.23,1.66-1.78.09-.1.19-.19.29-.29.53-.52,1-1,1.56-1.4l.25-.19a12.71,12.71,0,0,1,1.55-1.07,7.84,7.84,0,0,1,1.36-.63l.24-.09a5.16,5.16,0,0,1,1.25-.26h.09A4.51,4.51,0,0,1,45,54L45,54a4.64,4.64,0,0,1,1.24.49Z"/><path class="cls-55" d="M40.74,54.88C46.45,51.58,50.65,56.2,53.9,72c2,9.69,8.79,18.22,24.59,9.1.5-.29,1-.59,1.51-.91s.94-.58,1.39-.84c13.3-7.67,13.33,1.63,13.33,2.12L2.47,134.69l-.13-45.1c4.94,1.64,8,1.75,10.66.23,4.9-2.83,8.25-11.3,19.11-26C35.32,59.41,38.18,56.35,40.74,54.88Z"/><g class="cls-56"><path class="cls-57" d="M26.44,82.54c1.59-.92,2.22.34,2.23,2.22,0,2.11-.74,4-2.25,4.86s-2.22-.3-2.24-2.23S24.9,83.43,26.44,82.54Zm0,5.86c.54-.32.82-1.26.82-2.82s-.29-2.15-.84-1.83-.86,1.25-.85,2.83.33,2.13.87,1.82Z"/><path class="cls-57" d="M31.52,79.61c1.59-.92,2.22.34,2.23,2.22,0,2.11-.74,4-2.25,4.86s-2.22-.31-2.24-2.23S30,80.49,31.52,79.61Zm0,5.85c.54-.31.83-1.25.82-2.81s-.29-2.15-.84-1.83-.86,1.25-.85,2.83.33,2.13.87,1.81Z"/><path class="cls-57" d="M36.6,76.67c1.59-.91,2.22.35,2.22,2.23,0,2.11-.73,4-2.25,4.86s-2.22-.31-2.23-2.24S35.06,77.56,36.6,76.67Zm0,5.86c.54-.31.82-1.25.82-2.81s-.29-2.15-.84-1.83-.87,1.25-.85,2.82.32,2.13.87,1.82Z"/><polygon class="cls-57" points="42.62 73.31 42.64 80.14 41.3 80.92 41.28 75.51 41.26 75.52 40.13 76.79 39.89 75.73 41.47 73.98 42.62 73.31"/><path class="cls-57" d="M46.76,70.81C48.35,69.89,49,71.15,49,73c0,2.11-.73,4-2.25,4.86s-2.22-.3-2.23-2.23S45.22,71.7,46.76,70.81Zm0,5.85c.55-.31.83-1.25.83-2.81S47.3,71.7,46.74,72s-.86,1.25-.84,2.83.32,2.13.86,1.81Z"/><path class="cls-57" d="M51.83,67.88c1.6-.92,2.22.34,2.23,2.22,0,2.11-.73,4-2.25,4.86s-2.22-.3-2.23-2.24S50.3,68.76,51.83,67.88Zm0,5.85c.54-.31.83-1.25.83-2.81s-.29-2.15-.85-1.83S51,70.34,51,71.92s.32,2.13.86,1.81Z"/><path class="cls-57" d="M56.91,64.94c1.59-.91,2.22.35,2.23,2.23,0,2.11-.73,4-2.25,4.86s-2.22-.31-2.23-2.24S55.37,65.83,56.91,64.94Zm0,5.86c.54-.31.83-1.25.83-2.81s-.29-2.15-.85-1.83S56,67.41,56.06,69s.32,2.12.86,1.81Z"/><path class="cls-57" d="M62,62c1.59-.92,2.22.35,2.23,2.23,0,2.11-.73,4-2.25,4.86s-2.22-.31-2.23-2.24S60.45,62.9,62,62Zm0,5.86c.55-.32.83-1.25.83-2.81s-.29-2.15-.85-1.83-.86,1.24-.84,2.82.32,2.13.86,1.82Z"/><path class="cls-57" d="M67.07,59.08c1.59-.92,2.22.34,2.23,2.22,0,2.12-.73,4-2.25,4.86s-2.22-.3-2.23-2.23S65.53,60,67.07,59.08Zm0,5.86c.54-.32.83-1.26.82-2.82s-.28-2.15-.84-1.82-.86,1.24-.85,2.82.33,2.13.87,1.82Z"/><path class="cls-57" d="M72.15,56.15c1.59-.92,2.22.34,2.23,2.22,0,2.11-.73,4-2.25,4.86s-2.22-.31-2.24-2.23S70.61,57,72.15,56.15Zm0,5.85c.54-.31.83-1.25.82-2.81s-.29-2.15-.84-1.83-.86,1.25-.85,2.83.33,2.13.87,1.81Z"/><polygon class="cls-57" points="78.17 52.79 78.19 59.62 76.85 60.39 76.84 54.98 76.81 54.99 75.69 56.26 75.45 55.2 77.02 53.45 78.17 52.79"/><polygon class="cls-57" points="83.25 49.86 83.27 56.69 81.93 57.46 81.91 52.05 81.89 52.06 80.76 53.33 80.53 52.27 82.1 50.52 83.25 49.86"/><polygon class="cls-57" points="88.33 46.93 88.35 53.76 87.01 54.53 86.99 49.12 86.97 49.13 85.84 50.4 85.61 49.34 87.18 47.59 88.33 46.93"/><path class="cls-57" d="M92.47,44.42c1.59-.92,2.22.34,2.22,2.22,0,2.11-.73,4-2.25,4.86s-2.22-.31-2.23-2.23S90.93,45.3,92.47,44.42Zm0,5.85c.54-.31.82-1.25.82-2.81s-.29-2.15-.84-1.83-.87,1.25-.85,2.83.32,2.13.87,1.81Z"/><path class="cls-57" d="M97.55,41.48c1.59-.91,2.22.35,2.22,2.23,0,2.11-.73,4-2.25,4.86s-2.22-.31-2.23-2.24S96,42.37,97.55,41.48Zm0,5.86c.53-.31.82-1.25.82-2.81s-.29-2.15-.84-1.83-.87,1.25-.85,2.83.32,2.12.87,1.81Z"/><path class="cls-57" d="M102.63,38.55c1.59-.92,2.22.35,2.22,2.22,0,2.12-.73,4-2.25,4.87s-2.22-.31-2.23-2.24S101.09,39.44,102.63,38.55Zm0,5.86c.54-.31.83-1.25.83-2.81s-.29-2.15-.85-1.83-.86,1.25-.84,2.82.32,2.13.86,1.82Z"/><path class="cls-57" d="M107.7,35.62c1.6-.92,2.22.35,2.23,2.22,0,2.12-.73,4-2.25,4.86s-2.22-.3-2.23-2.23S106.17,36.51,107.7,35.62Zm0,5.86c.54-.31.83-1.26.83-2.82s-.29-2.15-.85-1.83-.86,1.25-.84,2.83.32,2.13.86,1.82Z"/><path class="cls-57" d="M26.47,95.16c1.6-.92,2.23.35,2.23,2.22,0,2.11-.73,4-2.25,4.87s-2.22-.32-2.23-2.24S24.94,96,26.47,95.16Zm0,5.85c.55-.31.83-1.25.83-2.81s-.29-2.15-.85-1.83-.86,1.25-.84,2.83.32,2.13.86,1.81Z"/><path class="cls-57" d="M31.55,92.23c1.6-.92,2.23.35,2.23,2.22,0,2.11-.73,4-2.25,4.87S29.31,99,29.3,97.07,30,93.11,31.55,92.23Zm0,5.85c.54-.31.83-1.25.83-2.81s-.29-2.15-.85-1.83-.86,1.25-.84,2.83.32,2.13.86,1.81Z"/><polygon class="cls-57" points="37.58 88.86 37.6 95.69 36.25 96.47 36.24 91.06 36.22 91.07 35.09 92.34 34.85 91.28 36.42 89.53 37.58 88.86"/><path class="cls-57" d="M41.71,86.36c1.59-.92,2.22.35,2.23,2.22,0,2.12-.73,4-2.25,4.87s-2.22-.31-2.23-2.24S40.17,87.25,41.71,86.36Zm0,5.86c.54-.31.83-1.26.83-2.82s-.29-2.15-.85-1.82-.86,1.24-.84,2.82.32,2.13.86,1.82Z"/><path class="cls-57" d="M46.79,83.43c1.59-.92,2.22.35,2.23,2.22,0,2.11-.74,4-2.25,4.87s-2.22-.31-2.24-2.24S45.25,84.32,46.79,83.43Zm0,5.86c.54-.32.83-1.26.82-2.82s-.28-2.15-.84-1.83-.86,1.25-.84,2.83.32,2.13.86,1.82Z"/><path class="cls-57" d="M51.87,80.5c1.59-.92,2.22.35,2.23,2.22,0,2.11-.73,4-2.25,4.87s-2.22-.32-2.24-2.24S50.33,81.38,51.87,80.5Zm0,5.85c.54-.31.83-1.25.82-2.81s-.29-2.15-.84-1.83S51,83,51,84.54s.32,2.12.86,1.81Z"/><polygon class="cls-57" points="57.9 77.14 57.91 83.97 56.57 84.74 56.55 79.33 56.53 79.34 55.4 80.61 55.17 79.55 56.74 77.8 57.9 77.14"/><path class="cls-57" d="M62,74.63c1.59-.92,2.22.35,2.23,2.22,0,2.12-.74,4-2.25,4.87s-2.23-.31-2.24-2.24S60.49,75.52,62,74.63Zm0,5.86c.54-.32.83-1.26.82-2.81s-.29-2.15-.84-1.84-.87,1.25-.85,2.83.32,2.13.87,1.82Z"/><path class="cls-57" d="M67.11,71.7c1.59-.92,2.22.35,2.22,2.22,0,2.11-.73,4-2.24,4.87s-2.23-.31-2.24-2.24S65.57,72.59,67.11,71.7Zm0,5.85c.55-.31.83-1.25.83-2.81s-.29-2.15-.84-1.83-.87,1.25-.85,2.83.32,2.13.86,1.81Z"/><path class="cls-57" d="M72.19,68.77c1.59-.92,2.22.35,2.22,2.22,0,2.11-.73,4-2.25,4.87s-2.22-.32-2.23-2.25S70.65,69.65,72.19,68.77Zm0,5.85c.54-.31.82-1.25.82-2.81s-.29-2.15-.84-1.83-.87,1.25-.85,2.83.32,2.12.87,1.81Z"/><polygon class="cls-57" points="78.2 65.41 78.22 72.24 76.89 73.01 76.87 67.6 76.85 67.61 75.72 68.88 75.48 67.82 77.06 66.07 78.2 65.41"/><path class="cls-57" d="M82.34,62.9c1.6-.92,2.23.35,2.23,2.22,0,2.12-.73,4-2.25,4.87s-2.22-.31-2.23-2.24S80.81,63.79,82.34,62.9Zm0,5.86c.54-.31.83-1.25.83-2.82s-.29-2.14-.85-1.82-.86,1.24-.84,2.82.32,2.13.86,1.82Z"/><path class="cls-57" d="M87.42,60c1.59-.92,2.22.35,2.23,2.22,0,2.12-.73,4-2.25,4.87s-2.22-.31-2.23-2.24S85.88,60.86,87.42,60Zm0,5.85c.54-.31.83-1.25.83-2.81s-.29-2.15-.85-1.82-.86,1.24-.84,2.82.32,2.13.86,1.81Z"/><path class="cls-57" d="M92.5,57c1.59-.92,2.22.35,2.23,2.22,0,2.11-.73,4-2.25,4.87s-2.22-.31-2.23-2.24S91,57.93,92.5,57Zm0,5.85c.54-.31.83-1.25.83-2.81s-.29-2.15-.85-1.83-.86,1.25-.84,2.83.32,2.13.86,1.81Z"/><polygon class="cls-57" points="98.52 53.68 98.54 60.51 97.2 61.28 97.19 55.87 97.17 55.88 96.03 57.15 95.8 56.09 97.38 54.34 98.52 53.68"/><path class="cls-57" d="M102.66,51.17c1.59-.92,2.22.36,2.23,2.22,0,2.12-.73,4-2.25,4.87S100.42,58,100.41,56,101.12,52.06,102.66,51.17Zm0,5.86c.53-.31.83-1.25.82-2.81s-.29-2.15-.85-1.83-.85,1.25-.84,2.82.33,2.13.87,1.82Z"/><path class="cls-57" d="M107.74,48.24c1.59-.92,2.22.35,2.23,2.22,0,2.12-.74,4-2.25,4.87s-2.22-.31-2.24-2.24S106.2,49.13,107.74,48.24Zm0,5.86c.53-.31.83-1.26.82-2.82s-.29-2.15-.84-1.83-.86,1.25-.85,2.83.33,2.13.87,1.82Z"/><polygon class="cls-57" points="81.48 14.54 81.5 21.37 80.16 22.15 80.14 16.73 80.13 16.75 78.99 18.02 78.76 16.95 80.33 15.21 81.48 14.54"/><polygon class="cls-57" points="86.56 11.61 86.58 18.44 85.24 19.21 85.23 13.8 85.2 13.81 84.07 15.08 83.84 14.02 85.41 12.27 86.56 11.61"/><path class="cls-57" d="M90.7,9.11c1.59-.93,2.22.34,2.22,2.22,0,2.11-.73,4-2.24,4.86s-2.22-.31-2.24-2.24S89.16,10,90.7,9.11Zm0,5.85c.54-.31.83-1.25.82-2.81s-.29-2.15-.84-1.83-.86,1.25-.85,2.82.33,2.13.87,1.82Z"/><path class="cls-57" d="M95.78,6.17C97.37,5.25,98,6.52,98,8.39c0,2.12-.73,4-2.24,4.86S93.53,13,93.52,11,94.24,7.06,95.78,6.17Zm0,5.86c.53-.31.82-1.25.82-2.82s-.29-2.14-.84-1.82-.87,1.25-.85,2.82.33,2.13.87,1.82Z"/><path class="cls-57" d="M100.86,3.24c1.59-.92,2.22.34,2.22,2.22,0,2.11-.73,4-2.25,4.86S98.61,10,98.6,8.09,99.32,4.13,100.86,3.24Zm0,5.85c.53-.3.82-1.25.82-2.81s-.29-2.15-.85-1.82S100,5.7,100,7.28s.32,2.13.87,1.81Z"/><path class="cls-57" d="M105.93.31c1.6-.92,2.23.34,2.23,2.22,0,2.11-.73,4-2.24,4.86s-2.23-.31-2.24-2.23S104.4,1.2,105.93.31Zm0,5.85c.53-.31.82-1.25.82-2.81s-.29-2.15-.84-1.83-.87,1.25-.85,2.83.32,2.13.87,1.81Z"/><path class="cls-57" d="M70.42,33.45c1.59-.92,2.22.36,2.22,2.22,0,2.12-.73,4-2.24,4.87s-2.23-.31-2.24-2.24S68.88,34.34,70.42,33.45Zm0,5.86c.54-.31.83-1.25.82-2.82s-.29-2.14-.84-1.82-.86,1.25-.85,2.82.33,2.13.87,1.82Z"/><polygon class="cls-57" points="76.44 30.1 76.46 36.92 75.12 37.7 75.1 32.29 75.08 32.3 73.95 33.57 73.72 32.51 75.29 30.76 76.44 30.1"/><path class="cls-57" d="M80.57,27.59c1.6-.92,2.23.35,2.23,2.22,0,2.11-.73,4-2.25,4.87s-2.22-.31-2.23-2.24S79,28.48,80.57,27.59Zm0,5.85c.53-.3.82-1.25.82-2.81s-.29-2.15-.84-1.83-.87,1.25-.85,2.83.32,2.13.87,1.81Z"/><path class="cls-57" d="M85.65,24.66c1.6-.92,2.23.35,2.23,2.22,0,2.11-.73,4-2.25,4.87s-2.22-.32-2.23-2.25S84.12,25.54,85.65,24.66Zm0,5.85c.54-.31.82-1.25.82-2.81s-.29-2.15-.85-1.83-.86,1.25-.84,2.83.32,2.12.87,1.81Z"/><path class="cls-57" d="M90.73,21.72c1.6-.92,2.23.36,2.23,2.22,0,2.12-.73,4-2.25,4.87s-2.22-.31-2.23-2.24S89.2,22.61,90.73,21.72Zm0,5.86c.55-.31.83-1.25.83-2.81s-.29-2.15-.85-1.83-.86,1.25-.84,2.82.32,2.13.86,1.82Z"/><polygon class="cls-57" points="96.75 18.37 96.77 25.19 95.44 25.97 95.42 20.56 95.4 20.57 94.27 21.84 94.03 20.77 95.61 19.03 96.75 18.37"/><path class="cls-57" d="M100.89,15.86c1.59-.92,2.23.35,2.23,2.22,0,2.11-.73,4-2.25,4.87s-2.22-.31-2.23-2.24S99.35,16.75,100.89,15.86Zm0,5.85c.54-.31.83-1.25.83-2.81s-.29-2.15-.85-1.82S100,18.32,100,19.9s.32,2.13.86,1.81Z"/><path class="cls-57" d="M106,12.92c1.59-.91,2.22.36,2.23,2.23,0,2.11-.73,4-2.25,4.87s-2.22-.32-2.23-2.25S104.43,13.81,106,12.92Zm0,5.86c.54-.31.83-1.25.82-2.81s-.28-2.15-.84-1.83-.86,1.25-.84,2.83.32,2.13.86,1.81Z"/><path class="cls-57" d="M65.37,49c1.6-.92,2.23.36,2.23,2.23,0,2.11-.73,4-2.25,4.86s-2.22-.31-2.23-2.24S63.84,49.89,65.37,49Zm0,5.86c.55-.31.83-1.25.83-2.81s-.29-2.15-.85-1.83-.86,1.25-.84,2.82.32,2.13.86,1.82Z"/><polygon class="cls-57" points="71.4 45.64 71.42 52.47 70.08 53.25 70.06 47.84 70.04 47.85 68.91 49.12 68.67 48.05 70.25 46.31 71.4 45.64"/><polygon class="cls-57" points="76.47 42.72 76.49 49.55 75.15 50.32 75.14 44.91 75.12 44.92 73.99 46.19 73.75 45.12 75.33 43.38 76.47 42.72"/><path class="cls-57" d="M80.61,40.21c1.59-.92,2.22.35,2.23,2.22,0,2.11-.73,4-2.25,4.86s-2.22-.31-2.23-2.24S79.07,41.09,80.61,40.21Zm0,5.85c.54-.31.83-1.25.83-2.81s-.29-2.15-.85-1.83-.86,1.25-.84,2.83.32,2.13.86,1.81Z"/><polygon class="cls-57" points="86.63 36.85 86.65 43.68 85.31 44.45 85.3 39.04 85.28 39.05 84.15 40.32 83.91 39.26 85.48 37.51 86.63 36.85"/><polygon class="cls-57" points="91.71 33.92 91.73 40.75 90.39 41.52 90.38 36.11 90.35 36.12 89.22 37.39 88.99 36.33 90.56 34.58 91.71 33.92"/><polygon class="cls-57" points="96.79 30.99 96.81 37.81 95.47 38.59 95.46 33.17 95.44 33.19 94.31 34.46 94.07 33.39 95.64 31.65 96.79 30.99"/><path class="cls-57" d="M100.93,28.48c1.59-.92,2.22.35,2.23,2.22,0,2.11-.74,4-2.25,4.86s-2.22-.3-2.24-2.24S99.39,29.36,100.93,28.48Zm0,5.85c.53-.31.83-1.25.82-2.81s-.29-2.15-.85-1.82-.86,1.24-.84,2.82.33,2.13.87,1.81Z"/><path class="cls-57" d="M106,25.54c1.59-.91,2.22.36,2.22,2.23,0,2.11-.73,4-2.24,4.86s-2.22-.31-2.24-2.24S104.47,26.43,106,25.54Zm0,5.86c.53-.31.83-1.25.82-2.81s-.29-2.15-.84-1.83-.87,1.25-.85,2.83.32,2.12.87,1.81Z"/></g></g></svg>