<svg xmlns="http://www.w3.org/2000/svg" xmlns:xlink="http://www.w3.org/1999/xlink" viewBox="0 0 200 200"><defs><style>.cls-1{fill:none;}.cls-2{fill:#2c3e50;}.cls-2,.cls-37{opacity:0.1;}.cls-3{fill:#778489;}.cls-4{fill:#abbec5;}.cls-5{isolation:isolate;}.cls-6{clip-path:url(#clip-path);}.cls-7{fill:#738085;}.cls-8{fill:#78858a;}.cls-9{fill:#7c8a8f;}.cls-10{fill:#818f94;}.cls-11{fill:#859499;}.cls-12{fill:#8a999e;}.cls-13{fill:#8e9da3;}.cls-14{fill:#93a2a8;}.cls-15{fill:#97a7ad;}.cls-16{fill:#9bacb3;}.cls-17{fill:#a0b1b8;}.cls-18{clip-path:url(#clip-path-2);}.cls-19{fill:#376a80;}.cls-20{fill:#396e85;}.cls-21{fill:#3b7189;}.cls-22{fill:#3d758d;}.cls-23{fill:#3f7992;}.cls-24{fill:#417c96;}.cls-25{fill:#43809b;}.cls-26{fill:#44849f;}.cls-27{fill:#35667c;}.cls-28{fill:#336377;}.cls-29{fill:#315f73;}.cls-30{fill:#336277;}.cls-31{fill:#c0c0f6;}.cls-32{fill:#498dab;}.cls-33{fill:url(#linear-gradient);}.cls-34{fill:#e9f0f4;}.cls-35,.cls-52,.cls-54,.cls-56{opacity:0.5;}.cls-36,.cls-69{fill:#ff9e64;}.cls-38{opacity:0;}.cls-39,.cls-52{fill:#ff6d6b;}.cls-40{opacity:0.14;}.cls-41{opacity:0.29;}.cls-42{opacity:0.43;}.cls-43{opacity:0.57;}.cls-44{opacity:0.71;}.cls-45{opacity:0.86;}.cls-46{fill:#ffd400;}.cls-47{fill:#24d9e7;}.cls-48{fill:url(#linear-gradient-2);}.cls-49{fill:url(#linear-gradient-3);}.cls-50{opacity:0.4;}.cls-51{fill:url(#linear-gradient-4);}.cls-53,.cls-54{fill:#5fe0b5;}.cls-55,.cls-56{fill:#04a8f5;}.cls-57{fill:#efb185;}.cls-58{fill:#f47f7f;}.cls-59{fill:#d35959;}.cls-60{fill:#2b0d04;}.cls-61{fill:#5fb9e6;}.cls-62{fill:#77d2ff;}.cls-63{fill:#779f29;}.cls-64{fill:#e56260;}.cls-65{fill:#e8a476;}.cls-66{fill:#db9669;}.cls-67{fill:#f1b287;}.cls-68{fill:#eff3fc;}.cls-69{opacity:0.7;}.cls-70{fill:#fff;opacity:0.8;}</style><clipPath id="clip-path"><path class="cls-1" d="M66,168.52a2.18,2.18,0,0,0-1.27,1.8V166A2.18,2.18,0,0,1,66,164.16v0a6.86,6.86,0,0,1,6.24,0v0a2.24,2.24,0,0,1,1.31,1.81v4.37a2.2,2.2,0,0,0-1.32-1.82A6.86,6.86,0,0,0,66,168.52Z"/></clipPath><clipPath id="clip-path-2"><path class="cls-1" d="M73.59,165.94v4.36a2.2,2.2,0,0,1-1.28,1.81,6.84,6.84,0,0,1-6.23,0,2.21,2.21,0,0,1-1.32-1.81c0-1.46,0-2.91,0-4.37a2.22,2.22,0,0,0,1.32,1.82,6.86,6.86,0,0,0,6.24,0A2.24,2.24,0,0,0,73.59,165.94Z"/></clipPath><linearGradient id="linear-gradient" x1="53.65" y1="128.7" x2="186.4" y2="128.7" gradientTransform="translate(-7.23 13.72) rotate(-0.26)" gradientUnits="userSpaceOnUse"><stop offset="0" stop-color="#fff2c9"/><stop offset="1" stop-color="#ffb7bb"/></linearGradient><linearGradient id="linear-gradient-2" x1="1.23" y1="86.77" x2="0.79" y2="165.29" gradientUnits="userSpaceOnUse"><stop offset="0" stop-color="#fadd8d"/><stop offset="0.39" stop-color="#f4a3a8"/><stop offset="1" stop-color="#ea3fd6"/></linearGradient><linearGradient id="linear-gradient-3" x1="0" y1="102.84" x2="92.91" y2="102.84" xlink:href="#linear-gradient-2"/><linearGradient id="linear-gradient-4" x1="1.83" y1="125.65" x2="94.75" y2="125.65" xlink:href="#linear-gradient-2"/></defs><title>Artboard 41 copy 30</title><g id="Layer_1" data-name="Layer 1"><path class="cls-2" d="M187.43,145.84l-63.55-36.31a6.7,6.7,0,0,0-6.06,0l-85,49.91c-1.66,1-1.65,2.55,0,3.52l63.55,36.3a6.67,6.67,0,0,0,6.06,0l85-49.91C189.13,148.37,189.11,146.8,187.43,145.84Z"/><polygon class="cls-3" points="179.74 137.94 179.75 142.31 119.23 107.74 119.23 103.38 179.74 137.94"/><polygon class="cls-4" points="119.23 103.38 119.23 107.74 47.03 150.14 47.03 145.78 119.23 103.38"/><g class="cls-5"><g class="cls-6"><g class="cls-5"><path class="cls-7" d="M73.59,165.94v4.36a2.2,2.2,0,0,0-1.32-1.81,4.75,4.75,0,0,0-.64-.3v-4.36a4.68,4.68,0,0,1,.64.3,2.24,2.24,0,0,1,1.31,1.81Z"/><path class="cls-8" d="M71.64,163.83v4.36a4.72,4.72,0,0,0-.53-.18v-4.36q.27.07.54.18Z"/><path class="cls-9" d="M71.1,163.65V168l-.46-.11v-4.36a3.84,3.84,0,0,1,.46.11Z"/><path class="cls-10" d="M70.64,163.54v4.36l-.45-.08v-4.36l.44.08Z"/><path class="cls-11" d="M70.2,163.46v4.36l-.43,0v-4.36l.43,0Z"/><path class="cls-12" d="M69.77,163.42v4.36l-.43,0v-4.37l.44,0Z"/><path class="cls-13" d="M69.33,163.39v4.37h-.45V163.4Z"/><path class="cls-14" d="M68.88,163.4v4.36l-.49,0v-4.36l.49,0Z"/><path class="cls-15" d="M68.39,163.44v4.36a5.54,5.54,0,0,0-.57.07v-4.35a3.43,3.43,0,0,1,.56-.08Z"/><path class="cls-16" d="M67.83,163.52v4.35a7,7,0,0,0-.82.22v-4.36a5.3,5.3,0,0,1,.83-.21Z"/><path class="cls-17" d="M67,163.73v4.36a4.26,4.26,0,0,0-1,.43s0,0-.05,0v-4.37l.06,0a4,4,0,0,1,1-.43Z"/><path class="cls-16" d="M66,164.18v4.37a3.69,3.69,0,0,0-.56.41V164.6a4.3,4.3,0,0,1,.56-.42Z"/><path class="cls-15" d="M65.42,164.6V169a3.65,3.65,0,0,0-.27.3V164.9a1.8,1.8,0,0,1,.26-.3Z"/><path class="cls-14" d="M65.16,164.9v4.36a2.85,2.85,0,0,0-.17.26v-4.36a1.51,1.51,0,0,1,.18-.26Z"/><path class="cls-13" d="M65,165.16v4.36a1.15,1.15,0,0,0-.12.25v-4.36a1.87,1.87,0,0,1,.12-.25Z"/><path class="cls-12" d="M64.86,165.41v4.36a1.82,1.82,0,0,0-.07.25v-4.36c0-.08,0-.16.07-.25Z"/><path class="cls-11" d="M64.79,165.66V170a1.15,1.15,0,0,0,0,.26v-4.37l0-.25Z"/><path class="cls-10" d="M64.76,165.91v0Z"/></g></g></g><g class="cls-5"><g class="cls-18"><g class="cls-5"><path class="cls-19" d="M73.59,165.94v4.36a.09.09,0,0,1,0,0v-4.41Z"/><path class="cls-20" d="M73.59,166v4.37a1.1,1.1,0,0,1,0,.25v-4.37a1,1,0,0,0,0-.25Z"/><path class="cls-21" d="M73.56,166.23v4.37a2.17,2.17,0,0,1-.07.24v-4.36a1.82,1.82,0,0,0,.07-.25Z"/><path class="cls-22" d="M73.49,166.48v4.36a1.51,1.51,0,0,1-.12.26v-4.36a1.51,1.51,0,0,0,.12-.26Z"/><path class="cls-23" d="M73.37,166.74v4.36a2.33,2.33,0,0,1-.17.26V167a1.92,1.92,0,0,0,.17-.26Z"/><path class="cls-24" d="M73.2,167v4.36a3.84,3.84,0,0,1-.28.3V167.3a3.65,3.65,0,0,0,.27-.3Z"/><path class="cls-25" d="M72.93,167.3v4.36a3.69,3.69,0,0,1-.56.41v-4.36a4.27,4.27,0,0,0,.56-.41Z"/><path class="cls-26" d="M72.37,167.71v4.36a.1.1,0,0,1-.05,0,5.59,5.59,0,0,1-1,.43v-4.37a5.67,5.67,0,0,0,1-.42.1.1,0,0,1,.05,0Z"/><path class="cls-25" d="M71.35,168.17v4.37a5.72,5.72,0,0,1-.84.2v-4.36a5.93,5.93,0,0,0,.83-.21Z"/><path class="cls-24" d="M70.52,168.38v4.36a5,5,0,0,1-.56.09v-4.37a5.58,5.58,0,0,0,.57-.08Z"/><path class="cls-23" d="M70,168.46v4.37c-.16,0-.32,0-.49,0V168.5l.49,0Z"/><path class="cls-22" d="M69.46,168.5v4.36H69V168.5Z"/><path class="cls-21" d="M69,168.5v4.37l-.43,0v-4.36l.43,0Z"/><path class="cls-20" d="M68.58,168.48v4.36l-.43,0v-4.36l.43,0Z"/><path class="cls-19" d="M68.15,168.44v4.36l-.44-.07v-4.36l.44.07Z"/><path class="cls-27" d="M67.71,168.37v4.36l-.46-.11v-4.37c.15.05.31.08.46.12Z"/><path class="cls-28" d="M67.25,168.25v4.37l-.54-.18v-4.37l.54.18Z"/><path class="cls-29" d="M66.71,168.07v4.37a4.6,4.6,0,0,1-.63-.31,2.21,2.21,0,0,1-1.32-1.81V166a2.22,2.22,0,0,0,1.32,1.82,4.55,4.55,0,0,0,.63.3Z"/></g></g></g><polygon class="cls-30" points="107.53 180.35 107.54 184.71 47.03 150.14 47.03 145.78 107.53 180.35"/><path class="cls-31" d="M72.28,164.13c1.73,1,1.75,2.61,0,3.62a6.86,6.86,0,0,1-6.24,0c-1.73-1-1.76-2.61,0-3.61A6.86,6.86,0,0,1,72.28,164.13Z"/><polygon class="cls-32" points="179.74 137.94 179.75 142.31 107.54 184.71 107.53 180.35 179.74 137.94"/><polygon class="cls-33" points="179.74 137.94 107.53 180.35 47.03 145.78 119.23 103.38 179.74 137.94"/><path class="cls-31" d="M188.11,138.14a.06.06,0,0,0,0,0,1.77,1.77,0,0,1-.21.41l0,.06a2,2,0,0,1-.34.38c-.09.08-.21.16-.32.24l-.24.18-85,49.91v4.36l85-49.92s0,0,.05,0h0a1.43,1.43,0,0,0,.2-.14c.11-.08.23-.16.32-.24l0,0a1.82,1.82,0,0,0,.27-.29.16.16,0,0,0,0-.07l.05-.06.08-.12a1.12,1.12,0,0,0,.11-.25,0,0,0,0,0,0,0l0-.05a.94.94,0,0,0,0-.16,2.13,2.13,0,0,0,0-.25V137.7A1.68,1.68,0,0,1,188.11,138.14Z"/><path class="cls-34" d="M186.91,135.94c1.68,1,1.7,2.53,0,3.51l-85,49.91a6.7,6.7,0,0,1-6.06,0L32.35,153.08c-1.69-1-1.7-2.53,0-3.51l85-49.91a6.7,6.7,0,0,1,6.06,0Zm-79.38,44.41,72.21-42.41-60.51-34.56L47,145.78l60.5,34.57ZM66.08,167.77a6.86,6.86,0,0,0,6.24,0c1.71-1,1.69-2.63,0-3.62a6.86,6.86,0,0,0-6.24,0c-1.72,1-1.69,2.62,0,3.61Z"/><path class="cls-31" d="M102,189.36a4.27,4.27,0,0,1-.84.37l-.32.1-.43.11a4.71,4.71,0,0,1-.52.09l-.13,0a5.53,5.53,0,0,1-.71,0h-.12a5.78,5.78,0,0,1-.72,0h-.1c-.23,0-.46-.07-.68-.12a.7.7,0,0,1-.14,0l-.57-.17-.12,0a6.62,6.62,0,0,1-.66-.3L32.35,153.08a2.14,2.14,0,0,1-1.28-1.76c0,1.45,0,2.91,0,4.37a2.11,2.11,0,0,0,1.27,1.75L95.9,193.75a5.88,5.88,0,0,0,.62.29h0l.12,0c.12,0,.24.09.37.12l.21,0,.13,0,.11,0,.43.07.15,0h.11l.15,0,.43,0h.43l.48,0h.17l.37-.06.16,0,.42-.11.23-.05.1,0a4.27,4.27,0,0,0,.84-.37Z"/><g class="cls-35"><path class="cls-36" d="M31.83,76.21c1.48-.85,2.06.32,2.06,2.05a5,5,0,0,1-2.08,4.49c-1.42.82-2-.28-2.06-2.06A5.06,5.06,0,0,1,31.83,76.21Zm0,5.4c.5-.28.76-1.15.76-2.59s-.26-2-.78-1.69S31,78.48,31,79.94s.3,2,.8,1.67Z"/><path class="cls-36" d="M36.52,73.5c1.47-.85,2,.32,2.06,2A5,5,0,0,1,36.5,80c-1.42.82-2-.28-2.06-2.06A5.07,5.07,0,0,1,36.52,73.5Zm0,5.41c.5-.29.77-1.16.76-2.6s-.27-2-.78-1.69-.79,1.16-.78,2.61.3,2,.8,1.68Z"/><path class="cls-36" d="M41.21,70.79c1.47-.85,2,.32,2.06,2.06a5,5,0,0,1-2.08,4.48c-1.42.82-2-.28-2.06-2.06A5,5,0,0,1,41.21,70.79Zm0,5.41c.5-.29.76-1.16.76-2.6s-.27-2-.77-1.68-.8,1.15-.79,2.6.3,2,.8,1.68Z"/><polygon class="cls-36" points="46.77 67.69 46.79 74 45.55 74.71 45.54 69.72 45.52 69.73 44.48 70.9 44.26 69.92 45.71 68.3 46.77 67.69"/><path class="cls-36" d="M50.59,65.38c1.47-.85,2,.32,2.06,2.05a5,5,0,0,1-2.08,4.49c-1.42.82-2-.29-2.06-2.06A5,5,0,0,1,50.59,65.38Zm0,5.4c.5-.29.77-1.15.76-2.59s-.27-2-.78-1.69-.79,1.15-.78,2.61.3,2,.8,1.67Z"/><path class="cls-36" d="M55.28,62.67c1.47-.85,2,.32,2.06,2a5,5,0,0,1-2.08,4.49c-1.42.82-2-.28-2.06-2.07A5,5,0,0,1,55.28,62.67Zm0,5.41c.5-.29.77-1.16.76-2.6s-.26-2-.78-1.69-.79,1.16-.78,2.61.3,2,.8,1.68Z"/><path class="cls-36" d="M60,60c1.47-.84,2.05.32,2.06,2A5,5,0,0,1,60,66.5c-1.42.82-2.05-.28-2.06-2.06A5,5,0,0,1,60,60Zm0,5.41c.5-.29.77-1.16.76-2.6s-.27-2-.78-1.68-.8,1.15-.78,2.6.3,2,.8,1.68Z"/><path class="cls-36" d="M64.66,57.26c1.47-.85,2,.31,2,2.05a5,5,0,0,1-2.07,4.49c-1.42.82-2-.29-2.07-2.07A5.06,5.06,0,0,1,64.66,57.26Zm0,5.4c.5-.29.76-1.15.76-2.6s-.27-2-.78-1.68-.8,1.15-.78,2.61.3,2,.8,1.67Z"/><path class="cls-36" d="M69.35,54.55c1.47-.85,2.05.32,2.05,2.05a5,5,0,0,1-2.07,4.49c-1.42.82-2-.28-2.07-2.06A5.08,5.08,0,0,1,69.35,54.55Zm0,5.4c.5-.28.76-1.15.76-2.59s-.27-2-.78-1.69-.8,1.15-.78,2.61.3,2,.8,1.67Z"/><path class="cls-36" d="M74,51.84c1.47-.85,2,.32,2,2A5,5,0,0,1,74,58.38c-1.42.82-2-.28-2.06-2.06A5,5,0,0,1,74,51.84Zm0,5.41c.5-.29.76-1.16.76-2.6s-.27-2-.78-1.69-.8,1.16-.78,2.61.29,2,.8,1.68Z"/><polygon class="cls-36" points="79.59 48.74 79.61 55.05 78.38 55.76 78.36 50.77 78.35 50.78 77.3 51.95 77.08 50.97 78.54 49.35 79.59 48.74"/><polygon class="cls-36" points="84.29 46.03 84.3 52.34 83.07 53.05 83.05 48.06 83.03 48.07 81.99 49.24 81.77 48.26 83.23 46.65 84.29 46.03"/><polygon class="cls-36" points="88.97 43.33 88.99 49.63 87.76 50.34 87.74 45.35 87.72 45.36 86.68 46.53 86.46 45.55 87.92 43.94 88.97 43.33"/><path class="cls-36" d="M92.8,41c1.46-.85,2,.32,2,2.05a4.93,4.93,0,0,1-2.08,4.49c-1.41.82-2-.28-2.06-2.06A5.05,5.05,0,0,1,92.8,41Zm0,5.41c.51-.29.77-1.16.77-2.6s-.27-2-.79-1.69S92,43.29,92,44.74s.3,2,.8,1.68Z"/><path class="cls-36" d="M97.48,38.3c1.48-.84,2.06.32,2.06,2.05,0,1.95-.67,3.69-2.07,4.49s-2.06-.28-2.07-2.06A5.07,5.07,0,0,1,97.48,38.3Zm0,5.41c.49-.28.76-1.16.76-2.6s-.27-2-.79-1.68-.79,1.15-.78,2.6.3,2,.81,1.68Z"/><path class="cls-36" d="M102.17,35.6c1.47-.85,2.06.31,2.06,2a4.93,4.93,0,0,1-2.08,4.49c-1.41.82-2.05-.29-2.06-2.07A5.05,5.05,0,0,1,102.17,35.6Zm0,5.4c.5-.29.77-1.15.76-2.6s-.26-2-.78-1.68-.79,1.15-.77,2.61.29,2,.79,1.67Z"/><path class="cls-36" d="M106.86,32.89c1.47-.85,2.06.32,2.06,2a5,5,0,0,1-2.08,4.49c-1.42.82-2-.28-2.06-2.06A5.07,5.07,0,0,1,106.86,32.89Zm0,5.41c.5-.29.77-1.16.76-2.6s-.26-2-.78-1.69-.79,1.15-.77,2.61.29,2,.79,1.68Z"/><path class="cls-36" d="M31.87,87.86c1.47-.85,2.05.33,2.05,2,0,2-.67,3.69-2.07,4.49s-2.06-.28-2.07-2.06A5.06,5.06,0,0,1,31.87,87.86Zm0,5.41c.51-.29.77-1.16.77-2.6s-.27-2-.78-1.69-.8,1.15-.78,2.61.29,2,.79,1.68Z"/><path class="cls-36" d="M36.56,85.15c1.47-.85,2,.33,2,2a5,5,0,0,1-2.07,4.5c-1.42.82-2.06-.29-2.07-2.07A5.08,5.08,0,0,1,36.56,85.15Zm0,5.41c.51-.29.77-1.16.77-2.6s-.27-2-.78-1.69-.8,1.16-.78,2.61.29,2,.79,1.68Z"/><polygon class="cls-36" points="42.12 82.05 42.14 88.36 40.9 89.07 40.88 84.08 40.86 84.09 39.82 85.26 39.6 84.28 41.05 82.66 42.12 82.05"/><path class="cls-36" d="M45.94,79.74c1.47-.85,2.05.32,2.05,2.05,0,1.95-.67,3.68-2.08,4.49s-2-.28-2.06-2.07A5,5,0,0,1,45.94,79.74Zm0,5.4c.5-.28.77-1.15.76-2.6s-.26-2-.78-1.68-.79,1.15-.78,2.61.3,2,.8,1.67Z"/><path class="cls-36" d="M50.62,77c1.47-.85,2.05.32,2.06,2a5,5,0,0,1-2.08,4.5c-1.42.82-2.05-.29-2.06-2.07A5,5,0,0,1,50.62,77Zm0,5.41c.5-.29.77-1.16.76-2.6s-.26-2-.78-1.69-.79,1.15-.78,2.61.3,2,.8,1.68Z"/><path class="cls-36" d="M55.31,74.32c1.47-.85,2,.33,2.06,2.05a5,5,0,0,1-2.08,4.5c-1.42.82-2-.29-2.06-2.07A5.07,5.07,0,0,1,55.31,74.32Zm0,5.41c.5-.29.77-1.16.76-2.6s-.26-2-.77-1.69-.8,1.15-.79,2.61.3,2,.8,1.68Z"/><polygon class="cls-36" points="60.88 71.22 60.89 77.53 59.65 78.24 59.64 73.25 59.62 73.26 58.58 74.43 58.35 73.45 59.81 71.83 60.88 71.22"/><path class="cls-36" d="M64.69,68.9c1.47-.84,2,.33,2.06,2.06a5,5,0,0,1-2.08,4.49c-1.42.82-2.05-.29-2.06-2.07A5.08,5.08,0,0,1,64.69,68.9Zm0,5.41c.5-.29.77-1.15.76-2.59s-.26-2-.78-1.69-.8,1.15-.78,2.61.3,2,.8,1.67Z"/><path class="cls-36" d="M69.38,66.2c1.47-.85,2.05.32,2.06,2a5,5,0,0,1-2.08,4.5c-1.42.82-2-.29-2.06-2.07A5,5,0,0,1,69.38,66.2Zm0,5.41c.5-.29.76-1.16.76-2.6s-.27-2-.78-1.69-.8,1.15-.78,2.61.3,2,.8,1.68Z"/><path class="cls-36" d="M74.07,63.49c1.47-.85,2.05.33,2.06,2.05,0,2-.68,3.69-2.08,4.5S72,69.75,72,68A5,5,0,0,1,74.07,63.49Zm0,5.41c.5-.29.76-1.16.76-2.6s-.27-2-.78-1.69-.8,1.16-.78,2.61.3,2,.8,1.68Z"/><polygon class="cls-36" points="79.63 60.39 79.64 66.7 78.41 67.41 78.4 62.42 78.38 62.43 77.33 63.6 77.12 62.62 78.57 61 79.63 60.39"/><path class="cls-36" d="M83.45,58.08c1.47-.85,2,.32,2.06,2.05a5,5,0,0,1-2.08,4.49c-1.42.82-2.05-.28-2.06-2.07A5,5,0,0,1,83.45,58.08Zm0,5.4c.49-.28.76-1.15.76-2.59s-.27-2-.78-1.69-.8,1.15-.78,2.61.3,2,.8,1.67Z"/><path class="cls-36" d="M88.14,55.37c1.47-.85,2,.32,2.06,2.05a5,5,0,0,1-2.08,4.5c-1.42.82-2.05-.29-2.06-2.07A5,5,0,0,1,88.14,55.37Zm0,5.4c.5-.28.76-1.15.76-2.59s-.27-2-.78-1.69-.8,1.15-.78,2.61.3,2,.8,1.67Z"/><path class="cls-36" d="M92.83,52.66c1.47-.85,2,.33,2.06,2.05,0,2-.68,3.69-2.08,4.5s-2-.29-2.06-2.07A5,5,0,0,1,92.83,52.66Zm0,5.41c.5-.29.76-1.16.76-2.6s-.27-2-.78-1.69S92,54.94,92,56.39s.3,2,.8,1.68Z"/><polygon class="cls-36" points="98.39 49.56 98.4 55.87 97.17 56.58 97.16 51.59 97.14 51.6 96.09 52.77 95.87 51.79 97.33 50.17 98.39 49.56"/><path class="cls-36" d="M102.21,47.25c1.47-.85,2.05.32,2.05,2a5,5,0,0,1-2.07,4.49c-1.42.82-2-.29-2.07-2.07A5.06,5.06,0,0,1,102.21,47.25Zm0,5.4c.49-.28.76-1.15.76-2.59s-.27-2-.79-1.69-.79,1.15-.77,2.61.29,2,.8,1.67Z"/><path class="cls-36" d="M106.9,44.54c1.47-.85,2,.32,2,2.05a5,5,0,0,1-2.07,4.5c-1.42.82-2.06-.29-2.07-2.07A5.08,5.08,0,0,1,106.9,44.54Zm0,5.41c.49-.29.76-1.16.76-2.6s-.27-2-.78-1.69-.8,1.15-.78,2.61.3,2,.8,1.68Z"/><polygon class="cls-36" points="82.66 13.43 82.67 19.73 81.44 20.45 81.42 15.45 81.4 15.46 80.36 16.64 80.14 15.65 81.59 14.04 82.66 13.43"/><polygon class="cls-36" points="87.34 10.72 87.36 17.03 86.13 17.74 86.11 12.75 86.09 12.76 85.05 13.93 84.83 12.95 86.28 11.33 87.34 10.72"/><path class="cls-36" d="M91.17,8.41c1.46-.85,2,.32,2,2.05,0,1.95-.67,3.68-2.08,4.49s-2-.29-2.06-2.07A5,5,0,0,1,91.17,8.41Zm0,5.4c.5-.29.77-1.15.77-2.59s-.27-2-.79-1.69-.79,1.15-.78,2.61.3,2,.8,1.67Z"/><path class="cls-36" d="M95.85,5.7c1.48-.85,2.05.32,2.06,2.05,0,1.95-.67,3.68-2.07,4.49s-2.06-.28-2.07-2.06A5,5,0,0,1,95.85,5.7Zm0,5.4c.5-.28.77-1.15.76-2.59s-.26-2-.78-1.69S95.05,8,95.06,9.43s.3,2,.8,1.67Z"/><path class="cls-36" d="M100.54,3c1.47-.85,2,.32,2.06,2.05a5,5,0,0,1-2.08,4.49c-1.42.82-2-.28-2.06-2.06A5,5,0,0,1,100.54,3Zm0,5.41c.5-.29.77-1.16.76-2.6s-.26-2-.78-1.68-.79,1.14-.77,2.6.29,2,.79,1.68Z"/><path class="cls-36" d="M105.23.28c1.47-.85,2,.32,2.06,2.06a5,5,0,0,1-2.08,4.48c-1.42.82-2-.28-2.06-2.06A5,5,0,0,1,105.23.28Zm0,5.41c.5-.29.77-1.16.76-2.6s-.26-2-.78-1.69-.8,1.16-.78,2.61.3,2,.8,1.68Z"/><path class="cls-36" d="M72.44,30.89c1.47-.85,2,.32,2,2a5,5,0,0,1-2.07,4.49c-1.42.83-2-.29-2.07-2.07A5.06,5.06,0,0,1,72.44,30.89Zm0,5.4c.5-.29.76-1.15.76-2.59s-.27-2-.78-1.69-.8,1.15-.78,2.61.3,2,.8,1.67Z"/><polygon class="cls-36" points="78 27.79 78.01 34.09 76.78 34.81 76.76 29.81 76.75 29.82 75.7 30.99 75.48 30.01 76.94 28.4 78 27.79"/><path class="cls-36" d="M81.82,25.47c1.47-.85,2.05.33,2.05,2.05A5,5,0,0,1,81.8,32c-1.42.82-2-.29-2.07-2.07A5.08,5.08,0,0,1,81.82,25.47Zm0,5.41c.49-.29.76-1.16.76-2.6s-.27-2-.78-1.69S81,27.75,81,29.2s.3,2,.8,1.68Z"/><path class="cls-36" d="M86.51,22.76c1.47-.84,2,.33,2,2.06a5,5,0,0,1-2.07,4.49c-1.42.82-2-.29-2.06-2.07A5,5,0,0,1,86.51,22.76Zm0,5.41c.5-.29.76-1.16.76-2.6s-.27-2-.78-1.68-.8,1.15-.78,2.61.3,2,.8,1.67Z"/><path class="cls-36" d="M91.2,20.06c1.47-.85,2,.32,2,2.05,0,1.95-.67,3.69-2.07,4.49s-2.05-.28-2.06-2.07A5,5,0,0,1,91.2,20.06Zm0,5.4c.51-.29.77-1.15.77-2.6s-.27-2-.78-1.68-.8,1.15-.78,2.61.3,2,.79,1.67Z"/><polygon class="cls-36" points="96.75 16.96 96.77 23.26 95.54 23.98 95.52 18.98 95.5 18.99 94.46 20.16 94.24 19.18 95.7 17.57 96.75 16.96"/><path class="cls-36" d="M100.57,14.64c1.48-.85,2.06.33,2.06,2.05,0,2-.67,3.69-2.08,4.5s-2-.29-2.06-2.07A5.07,5.07,0,0,1,100.57,14.64Zm0,5.41c.5-.29.77-1.16.76-2.6s-.26-2-.78-1.68-.79,1.15-.78,2.6.3,2,.8,1.68Z"/><path class="cls-36" d="M105.26,11.93c1.48-.84,2.06.33,2.06,2.06a4.93,4.93,0,0,1-2.08,4.49c-1.41.82-2-.29-2.06-2.07A5.07,5.07,0,0,1,105.26,11.93Zm0,5.41c.5-.28.77-1.16.76-2.6s-.26-2-.78-1.69-.79,1.16-.77,2.62.29,2,.79,1.67Z"/><path class="cls-36" d="M67.78,45.25c1.47-.85,2,.32,2.06,2a4.92,4.92,0,0,1-2.08,4.48c-1.42.82-2.05-.28-2.06-2.06A5.05,5.05,0,0,1,67.78,45.25Zm0,5.4c.5-.29.77-1.15.76-2.6s-.26-2-.78-1.68S67,47.52,67,49s.3,2,.8,1.68Z"/><polygon class="cls-36" points="73.35 42.14 73.36 48.45 72.12 49.17 72.11 44.17 72.09 44.18 71.05 45.35 70.83 44.37 72.28 42.76 73.35 42.14"/><polygon class="cls-36" points="78.03 39.44 78.05 45.74 76.81 46.46 76.8 41.46 76.78 41.47 75.73 42.65 75.52 41.66 76.97 40.05 78.03 39.44"/><path class="cls-36" d="M81.85,37.12c1.47-.85,2.05.33,2.06,2.05a5,5,0,0,1-2.08,4.49c-1.42.82-2-.28-2.06-2.06A5,5,0,0,1,81.85,37.12Zm0,5.41c.49-.29.77-1.16.76-2.6s-.27-2-.78-1.69-.8,1.16-.78,2.61.3,2,.8,1.68Z"/><polygon class="cls-36" points="87.41 34.02 87.42 40.33 86.19 41.04 86.18 36.05 86.16 36.06 85.11 37.23 84.9 36.25 86.35 34.63 87.41 34.02"/><polygon class="cls-36" points="92.1 31.32 92.12 37.62 90.88 38.34 90.86 33.34 90.84 33.35 89.8 34.52 89.58 33.54 91.04 31.93 92.1 31.32"/><polygon class="cls-36" points="96.79 28.61 96.81 34.91 95.57 35.63 95.56 30.63 95.54 30.64 94.49 31.81 94.27 30.83 95.73 29.22 96.79 28.61"/><path class="cls-36" d="M100.61,26.29c1.47-.84,2,.33,2.06,2.06a5,5,0,0,1-2.08,4.48c-1.42.82-2-.28-2.06-2.06A5,5,0,0,1,100.61,26.29Zm0,5.41c.49-.29.76-1.16.76-2.6s-.27-2-.79-1.68-.79,1.15-.77,2.6.3,2,.8,1.68Z"/><path class="cls-36" d="M105.3,23.59c1.47-.85,2,.32,2,2.05a5,5,0,0,1-2.07,4.49c-1.42.81-2-.29-2.07-2.07A5.06,5.06,0,0,1,105.3,23.59Zm0,5.4c.49-.28.76-1.15.76-2.6s-.27-2-.78-1.68-.8,1.15-.78,2.61.3,2,.8,1.67Z"/></g><g class="cls-37"><path d="M141.64,92c-3.9,2.25-3.92,5.91,0,8.16a15.53,15.53,0,0,0,14.08,0c3.9-2.25,3.92-5.91,0-8.16A15.53,15.53,0,0,0,141.64,92Z"/></g><g class="cls-37"><path d="M165.51,104.73c-3.52,2-3.53,5.31,0,7.34a14,14,0,0,0,12.68,0c3.51-2,3.53-5.31,0-7.34A14,14,0,0,0,165.51,104.73Z"/></g><g class="cls-37"><path d="M186.45,115.14c-3.12,1.79-3.14,4.71,0,6.51a12.37,12.37,0,0,0,11.24,0c3.12-1.8,3.13-4.72,0-6.51A12.37,12.37,0,0,0,186.45,115.14Z"/></g><g class="cls-38"><path class="cls-39" d="M141.67,91.9c-3.9,2.26-3.92,5.91,0,8.16a15.52,15.52,0,0,0,14.09,0c3.9-2.25,3.92-5.9,0-8.16A15.55,15.55,0,0,0,141.67,91.9Z"/></g><g class="cls-40"><path class="cls-39" d="M141.67,84.54c-3.9,2.25-3.92,5.9,0,8.16a15.55,15.55,0,0,0,14.09,0c3.9-2.26,3.92-5.91,0-8.16A15.55,15.55,0,0,0,141.67,84.54Z"/></g><g class="cls-41"><path class="cls-39" d="M141.67,77.17c-3.9,2.25-3.92,5.91,0,8.16a15.55,15.55,0,0,0,14.09,0c3.9-2.25,3.92-5.91,0-8.16A15.55,15.55,0,0,0,141.67,77.17Z"/></g><g class="cls-42"><path class="cls-39" d="M141.67,69.8c-3.9,2.26-3.92,5.91,0,8.17a15.55,15.55,0,0,0,14.09,0c3.9-2.26,3.92-5.91,0-8.17A15.55,15.55,0,0,0,141.67,69.8Z"/></g><g class="cls-43"><path class="cls-39" d="M141.67,62.44c-3.9,2.25-3.92,5.91,0,8.16a15.55,15.55,0,0,0,14.09,0c3.9-2.25,3.92-5.91,0-8.16A15.55,15.55,0,0,0,141.67,62.44Z"/></g><g class="cls-44"><path class="cls-39" d="M141.67,55.07c-3.9,2.26-3.92,5.91,0,8.16a15.52,15.52,0,0,0,14.09,0c3.9-2.25,3.92-5.9,0-8.16A15.55,15.55,0,0,0,141.67,55.07Z"/></g><g class="cls-45"><path class="cls-39" d="M141.67,47.71c-3.9,2.25-3.92,5.9,0,8.16a15.55,15.55,0,0,0,14.09,0c3.9-2.26,3.92-5.91,0-8.16A15.49,15.49,0,0,0,141.67,47.71Z"/></g><path class="cls-39" d="M141.67,40.34c-3.9,2.25-3.92,5.91,0,8.16a15.55,15.55,0,0,0,14.09,0c3.9-2.25,3.92-5.91,0-8.16A15.55,15.55,0,0,0,141.67,40.34Z"/><path class="cls-39" d="M141.7,40.36c-3.89,2.24-3.9,5.88,0,8.12a15.42,15.42,0,0,0,14,0c3.89-2.24,3.9-5.88,0-8.12A15.42,15.42,0,0,0,141.7,40.36Z"/><g class="cls-38"><path class="cls-46" d="M186.45,115.14c-3.11,1.79-3.12,4.71,0,6.51a12.4,12.4,0,0,0,11.24,0c3.11-1.8,3.12-4.72,0-6.51A12.37,12.37,0,0,0,186.45,115.14Z"/></g><g class="cls-40"><path class="cls-46" d="M186.45,111.8c-3.11,1.8-3.12,4.71,0,6.51a12.4,12.4,0,0,0,11.24,0c3.11-1.8,3.12-4.71,0-6.51A12.37,12.37,0,0,0,186.45,111.8Z"/></g><g class="cls-41"><path class="cls-46" d="M186.45,108.46c-3.11,1.8-3.12,4.71,0,6.51a12.4,12.4,0,0,0,11.24,0c3.11-1.8,3.12-4.71,0-6.51A12.37,12.37,0,0,0,186.45,108.46Z"/></g><g class="cls-42"><path class="cls-46" d="M186.45,105.12c-3.11,1.8-3.12,4.71,0,6.51a12.37,12.37,0,0,0,11.24,0c3.11-1.8,3.12-4.71,0-6.51A12.37,12.37,0,0,0,186.45,105.12Z"/></g><g class="cls-43"><path class="cls-46" d="M186.45,101.78c-3.11,1.8-3.12,4.71,0,6.51a12.37,12.37,0,0,0,11.24,0c3.11-1.79,3.12-4.71,0-6.51A12.43,12.43,0,0,0,186.45,101.78Z"/></g><g class="cls-44"><path class="cls-46" d="M186.45,98.44c-3.11,1.8-3.12,4.72,0,6.51a12.37,12.37,0,0,0,11.24,0c3.11-1.79,3.12-4.71,0-6.51A12.43,12.43,0,0,0,186.45,98.44Z"/></g><g class="cls-45"><path class="cls-46" d="M186.45,95.11c-3.11,1.79-3.12,4.71,0,6.5a12.37,12.37,0,0,0,11.24,0c3.11-1.79,3.12-4.71,0-6.5A12.37,12.37,0,0,0,186.45,95.11Z"/></g><path class="cls-46" d="M186.45,91.77c-3.11,1.79-3.12,4.71,0,6.5a12.37,12.37,0,0,0,11.24,0c3.11-1.79,3.12-4.71,0-6.5A12.37,12.37,0,0,0,186.45,91.77Z"/><path class="cls-46" d="M186.45,91.77c-3.11,1.79-3.12,4.71,0,6.5a12.37,12.37,0,0,0,11.24,0c3.11-1.79,3.12-4.71,0-6.5A12.37,12.37,0,0,0,186.45,91.77Z"/><g class="cls-38"><path class="cls-47" d="M165.53,105.3c-3.51,2-3.53,5.31,0,7.34a14,14,0,0,0,12.66,0c3.51-2,3.53-5.32,0-7.34A13.92,13.92,0,0,0,165.53,105.3Z"/></g><g class="cls-40"><path class="cls-47" d="M165.53,100c-3.51,2-3.53,5.31,0,7.33a13.92,13.92,0,0,0,12.66,0c3.51-2,3.53-5.31,0-7.33A13.92,13.92,0,0,0,165.53,100Z"/></g><g class="cls-41"><path class="cls-47" d="M165.53,94.61c-3.51,2-3.53,5.32,0,7.34a14,14,0,0,0,12.66,0c3.51-2,3.53-5.31,0-7.34A14,14,0,0,0,165.53,94.61Z"/></g><g class="cls-42"><path class="cls-47" d="M165.53,89.27c-3.51,2-3.53,5.31,0,7.34a14,14,0,0,0,12.66,0c3.51-2,3.53-5.31,0-7.34A14,14,0,0,0,165.53,89.27Z"/></g><g class="cls-43"><path class="cls-47" d="M165.53,83.93c-3.51,2-3.53,5.31,0,7.34a14,14,0,0,0,12.66,0c3.51-2,3.53-5.31,0-7.34A14,14,0,0,0,165.53,83.93Z"/></g><g class="cls-44"><path class="cls-47" d="M165.53,78.59c-3.51,2-3.53,5.31,0,7.34a14,14,0,0,0,12.66,0c3.51-2,3.53-5.31,0-7.34A13.92,13.92,0,0,0,165.53,78.59Z"/></g><g class="cls-45"><path class="cls-47" d="M165.53,73.25c-3.51,2-3.53,5.31,0,7.33a13.92,13.92,0,0,0,12.66,0c3.51-2,3.53-5.31,0-7.33A13.92,13.92,0,0,0,165.53,73.25Z"/></g><path class="cls-47" d="M165.53,67.91c-3.51,2-3.53,5.31,0,7.33a13.92,13.92,0,0,0,12.66,0c3.51-2,3.53-5.31,0-7.33A13.92,13.92,0,0,0,165.53,67.91Z"/><path class="cls-47" d="M165.53,67.91c-3.51,2-3.53,5.31,0,7.33a13.92,13.92,0,0,0,12.66,0c3.51-2,3.53-5.31,0-7.33A13.92,13.92,0,0,0,165.53,67.91Z"/><path class="cls-47" d="M165.51,67.73c-3.51,2-3.52,5.31,0,7.33a13.92,13.92,0,0,0,12.66,0c3.51-2,3.52-5.31,0-7.33A13.94,13.94,0,0,0,165.51,67.73Z"/><polygon class="cls-48" points="1.96 154.21 0.13 153.14 0 107.79 1.83 108.86 1.96 154.21"/><path class="cls-49" d="M91.08,96.82s0,0-.06,0a4.66,4.66,0,0,0-.5-.25l-.14-.05-.21-.07-.26-.09c-.13,0-.29-.07-.44-.1l-.21,0-.09,0a8.38,8.38,0,0,0-.94-.11h-.45c-.26,0-.51,0-.79,0l-.15,0c-.3,0-.64.06-1,.1l-.62.06-.15,0-.37.07c-.45.08-.94.18-1.45.3l-.46.12-.34.08c-.36.1-.78.24-1.17.36l-.73.22c-.78.26-1.59.55-2.47.89l-2.57,1L71,101.12l-.27.1c-.57.23-1.13.45-1.67.65l-.7.27-1.08.42-.77.27c-.3.11-.61.23-.89.32l-.75.26-.8.26-.71.21c-.25.08-.5.16-.75.22l-.2.05a23.09,23.09,0,0,1-2.63.57l-.28,0c-.62.09-1.23.15-1.85.18h-.18a18.55,18.55,0,0,1-2,0l-.36,0a26.79,26.79,0,0,1-2.66-.33l-.71-.11c-.63-.12-1.24-.28-1.83-.45l-.43-.12c-.53-.16-1-.33-1.55-.51l-.1,0c-.59-.21-1.15-.43-1.71-.65l-1.49-.57-.31-.12c-.5-.18-1-.35-1.51-.5l-.18-.06-.21,0c-.42-.12-.86-.22-1.3-.3L40.9,101h-.1c-.31,0-.62-.08-.93-.11l-.36,0h0c-.22,0-.46,0-.69,0h-.65l-.62.06c-.24,0-.47,0-.71.07h-.07q-.6.1-1.23.27l-.31.06s0,0,0,0a19.45,19.45,0,0,0-2,.68l-.21.07c-.26.11-.53.24-.8.37s-.35.15-.54.25c-.57.28-1.15.58-1.76.93-1,.56-2,1.21-3.06,2-.63.44-1.22.82-1.79,1.15a18.54,18.54,0,0,1-1.95,1,12.75,12.75,0,0,1-1.65.55l-.3.06a11.54,11.54,0,0,1-1.2.2l-.27,0a7.5,7.5,0,0,1-1.26,0c-.11,0-.21,0-.32,0a8.52,8.52,0,0,1-.88-.16l-.45-.1a5.4,5.4,0,0,1-.57-.18c-.33-.11-.66-.22-1-.35l-.48-.2-1.48-.67c-.47-.23-1-.44-1.43-.65l-.23-.11a2.34,2.34,0,0,1-.24-.09l-1-.35c-.11,0-.22-.09-.33-.12l-.28-.07-.48-.11-.36-.08-.59-.07a2.23,2.23,0,0,0-.27,0l-.12,0c-.31,0-.63,0-1,0l-.22,0a1.63,1.63,0,0,0-.31,0l-.48,0c-.24,0-.5.11-.77.17a2.61,2.61,0,0,0-.27.06l-.11,0a11.16,11.16,0,0,0-1.56.54h0a18.19,18.19,0,0,0-2,1c-.38.23-.78.47-1.19.74l1.83,1.07c.41-.27.81-.52,1.2-.74a18.09,18.09,0,0,1,2-1,12.69,12.69,0,0,1,1.7-.58l.28-.06a10,10,0,0,1,1.24-.21l.31,0a9.4,9.4,0,0,1,1.3,0l.26,0a7.39,7.39,0,0,1,1,.15l.47.11.61.19a9.19,9.19,0,0,1,1,.36l.45.18,1.44.65c.48.23,1,.46,1.47.67l.27.13.22.08c.31.12.63.24,1,.34l.37.14.22,0a3.15,3.15,0,0,0,.44.11l.43.1.46.06.31,0,.18,0a7.18,7.18,0,0,0,.93,0h.15l.27,0c.18,0,.36,0,.54,0l.67-.14.3-.07.14,0a13.18,13.18,0,0,0,1.49-.51h0a15.88,15.88,0,0,0,2-1c.57-.34,1.17-.72,1.79-1.16,1.09-.76,2.1-1.41,3.06-2,.61-.35,1.2-.66,1.77-.94l.49-.22,1.07-.47a16.39,16.39,0,0,1,2-.67l.36-.09c.41-.1.81-.19,1.2-.25s.52-.06.78-.08.42-.06.62-.07.43,0,.65,0,.46,0,.68,0l.41,0c.31,0,.63.06.93.11l.36.07c.44.09.87.19,1.3.31l.39.11c.51.15,1,.32,1.5.5l.37.13,1.35.53c.59.23,1.19.46,1.81.68l0,0c.51.19,1,.36,1.59.53l.24.08.18,0c.59.17,1.2.32,1.84.44l.54.1.16,0c.94.16,1.82.27,2.66.33l.16,0a1.34,1.34,0,0,1,.2,0c.67,0,1.33,0,2,0h.14c.63,0,1.25-.1,1.88-.18a1.25,1.25,0,0,1,.19,0h.09c.85-.14,1.72-.33,2.63-.57l.11,0,.11,0c.21,0,.44-.12.66-.19l.79-.24c.22-.06.45-.14.67-.22l.89-.29.64-.24,1-.37.62-.23c.39-.15.78-.29,1.19-.46l.6-.23,1.36-.54.21-.08c2-.79,4.23-1.69,6.83-2.71.88-.35,1.7-.64,2.48-.89.25-.09.48-.15.72-.22.52-.16,1-.32,1.51-.45l.47-.11c.52-.13,1-.23,1.48-.31l.31-.06c.3,0,.56-.07.84-.1s.63-.08.92-.09.67,0,1,0H90a7.21,7.21,0,0,1,1.1.13l.19,0a6.39,6.39,0,0,1,.73.2l.19.06a5.68,5.68,0,0,1,.7.33Z"/><g class="cls-50"><path class="cls-51" d="M3,108.12c5.6-3.23,8.84-1.72,12-.21s6.35,3,11.78-.08c.57-.34,1.17-.72,1.79-1.16,1.09-.76,2.1-1.41,3.06-2,10.51-6.07,14.28-.61,21.91.82,8.33,1.58,12-.55,26.33-6.17s14.78.94,14.81,1.28L2,154.21l-.13-45.35C2.24,108.59,2.64,108.34,3,108.12Z"/></g><path class="cls-39" d="M16.83,74.82l.32-.18a1.38,1.38,0,0,0,.66-1.3v-5l.63-.36v4.93a2.5,2.5,0,0,1-1.21,2.33,3.24,3.24,0,0,1-.4.22Z"/><path class="cls-39" d="M19.7,72.5,19.49,74l-.59.34L20,67.1l.91-.53L22,72.5l-.63.37-.22-1.19Zm.08-.67,1.27-.73-.64-3.42Z"/><path class="cls-39" d="M22.76,65.5l.93,5.17.92-6.24.58-.33-1.06,7.17-.93.54-1.08-5.94Z"/><path class="cls-39" d="M26.12,68.8l-.22,1.45-.59.33L26.4,63.4l.92-.53,1.09,5.93-.64.36L27.55,68Zm.08-.68,1.26-.73L26.82,64Z"/><path class="cls-39" d="M31.36,62.11v.18l-.6.34v-.21c0-.59-.2-.83-.65-.56a1.39,1.39,0,0,0-.65,1.3c0,1.47,1.91.51,1.91,2.36a2.66,2.66,0,0,1-1.28,2.38c-.87.49-1.28.08-1.28-.91v-.37l.59-.35v.42c0,.59.21.81.67.55a1.42,1.42,0,0,0,.66-1.32c0-1.46-1.89-.51-1.89-2.35a2.58,2.58,0,0,1,1.25-2.37C31,60.7,31.36,61.12,31.36,62.11Z"/><path class="cls-39" d="M34.43,60.35v.59l-.6.35v-.63c0-.59-.21-.83-.67-.56a1.44,1.44,0,0,0-.66,1.33v3.46c0,.59.21.83.66.56a1.41,1.41,0,0,0,.67-1.33v-.85l.6-.35v.82a2.65,2.65,0,0,1-1.28,2.39c-.87.5-1.28.08-1.28-.92V61.82a2.63,2.63,0,0,1,1.28-2.38C34,58.93,34.43,59.36,34.43,60.35Z"/><path class="cls-39" d="M36.27,57.7c.89-.51,1.27-.21,1.27.77V59a2.28,2.28,0,0,1-.71,1.76c.52-.12.71.25.71,1v1a1.39,1.39,0,0,0,.12.72l-.64.37a1.44,1.44,0,0,1-.11-.74v-1c0-.74-.3-.8-.82-.5l-.45.26v2.8L35,65V58.43Zm-.16,3.18a1.39,1.39,0,0,0,.8-1.36V58.9c0-.6-.18-.8-.65-.52l-.62.35v2.43Z"/><path class="cls-39" d="M38.84,56.22v6.56l-.64.36V56.59Z"/><path class="cls-39" d="M40.73,55.13C41.62,54.61,42,55,42,56v.79a2.52,2.52,0,0,1-1.32,2.35l-.56.32V62l-.63.36V55.84Zm0,3.34a1.32,1.32,0,0,0,.7-1.28v-.87c0-.6-.19-.79-.65-.53l-.61.36V58.8Z"/><path class="cls-39" d="M43.32,60.19V54.3l-1,.6v-.66L45,52.67v.66l-1.05.61v5.89Z"/><polygon class="cls-52" points="48.29 59.33 11.89 80.34 11.89 68.82 48.29 47.8 48.29 59.33"/><path class="cls-53" d="M50.58,33.56l.31-.17a1.41,1.41,0,0,0,.67-1.3v-5l.62-.36v4.94A2.49,2.49,0,0,1,51,34l-.39.23Z"/><path class="cls-53" d="M53.45,31.25l-.22,1.44-.59.34,1.09-7.18.92-.53,1.08,5.93-.63.36-.22-1.19Zm.08-.68,1.26-.73-.64-3.42Z"/><path class="cls-53" d="M56.51,24.24l.92,5.17.92-6.23.58-.34L57.87,30l-.93.54-1.07-5.94Z"/><path class="cls-53" d="M59.86,27.54,59.64,29l-.58.34,1.08-7.19.92-.53,1.09,5.93-.64.37-.21-1.19Zm.08-.67,1.27-.73-.64-3.42Z"/><polygon class="cls-54" points="66.37 15.97 46.62 27.37 46.62 38.9 66.37 27.5 66.37 15.97"/><path class="cls-55" d="M23.92,45.51v.59l-.6.35v-.63c0-.59-.2-.83-.67-.56A1.44,1.44,0,0,0,22,46.59v3.47c0,.59.21.82.66.56a1.42,1.42,0,0,0,.67-1.33v-.86l.6-.34v.81a2.63,2.63,0,0,1-1.28,2.39c-.87.51-1.28.08-1.28-.91V47a2.65,2.65,0,0,1,1.28-2.39C23.51,44.1,23.92,44.52,23.92,45.51Z"/><path class="cls-55" d="M26,46.28V47.6l-.46.26V46.54l-1.11.64v-.52L25.53,46v-1.3l.46-.26v1.3l1.12-.65v.53Z"/><path class="cls-55" d="M29.17,44.44v1.32l-.45.26V44.7l-1.12.65v-.53l1.12-.64v-1.3l.45-.27v1.3l1.12-.64v.52Z"/><polygon class="cls-56" points="35.89 34.66 16.13 46.07 16.13 57.59 35.89 46.19 35.89 34.66"/><path class="cls-57" d="M94.89,65.1s-2.57-2.5-4.26-2.66-4.19.27-3.46,1.06,3.18,1.39,3.09,2.09-1.55,0-.94.64,1.93,1.16,5,.63A1.46,1.46,0,0,0,94.89,65.1Z"/><path class="cls-58" d="M116.53,60.14s2.69.32,1.34,2.94A28.16,28.16,0,0,1,110.39,70s-5.15,3.64-6.61,3.19-10.94-5.68-10.94-5.68a5.28,5.28,0,0,0,1.59-3.13s8.91,3.45,9.87,3.12S114.43,59.68,116.53,60.14Z"/><path class="cls-59" d="M103.78,73.16c-1.15-.35-8.38-4.28-10.94-5.68a2.4,2.4,0,0,0,.59-.69s9.76,3.68,10.72,3.35,10.12-7.79,12.22-7.33a2.54,2.54,0,0,1,1.29.58A30.2,30.2,0,0,1,110.39,70S105.24,73.61,103.78,73.16Z"/><path class="cls-60" d="M126.32,49.38c7.17-1.71,8.19,12.41,2.73,16.57-.94.72-3.86.06-4.07-1-.86-4.31,5.45-8.84,2.24-12.93a2.47,2.47,0,0,1-.61-.61C126.09,50.7,124.58,50,126.32,49.38Z"/><g class="cls-37"><path d="M134.58,129.49c6.37,3.69,6.4,9.66.07,13.34s-16.64,3.68-23,0-6.41-9.65-.08-13.33S128.2,125.81,134.58,129.49Z"/></g><path d="M115.78,127.57a7,7,0,0,1-1.11,3.12c-.91,1.09-5,3.56-4.77,4.69s3.23,1.26,5.1-.58,2.37-2.12,3.16-2.28a1.89,1.89,0,0,0,1.13-2.88A8.18,8.18,0,0,1,115.78,127.57Z"/><path class="cls-61" d="M114.77,81.41s-3.41,16.71-1.54,26c0,0,.86,7.31,1.27,9.32s.35,12.94.35,12.94,3.07,1.32,4.62-.12c0,0,2-11.25-.19-18.42,0,0,2.56-13.7,2.62-18.16a70.94,70.94,0,0,1,.62-8.3Z"/><path class="cls-62" d="M113.23,107.38s.86,7.31,1.27,9.32.35,12.94.35,12.94a8.38,8.38,0,0,0,1.22.37c.22-3.25.63-8.93.81-10.21.25-1.83-1.82-11.84-2-15.55s3.95-17.64,3.95-17.64l-1.14-4-2.94-1.22S111.36,98.12,113.23,107.38Z"/><path d="M125.12,131.74a6.92,6.92,0,0,1-1,3.15c-.88,1.11-5,3.69-4.64,4.81s3.25,1.18,5.08-.71,2.32-2.18,3.11-2.36a1.89,1.89,0,0,0,1.05-2.9A8.15,8.15,0,0,1,125.12,131.74Z"/><path class="cls-62" d="M128.67,86.9s3.29,4.72,1.7,14.35l-.7,11.5s2.18,3.68.61,14.86l-1.5,6.72s-1.86,1.37-3.92-1.42c0,0,.15-16.53-.63-19.08a108,108,0,0,1-4.17-17.14c-.38-2.74-4.61-7.27-4.39-9.64Z"/><path class="cls-61" d="M128.78,134.33l1.5-6.72c1.57-11.18-.61-14.86-.61-14.86l.7-11.5c1.59-9.63-1.7-14.35-1.7-14.35h-.38l-3.6,2.33s3.57,18.21,3.31,22.84,1,10,.87,12.91c-.11,1.85-.94,6.54-1.52,9.66A2.14,2.14,0,0,0,128.78,134.33Z"/><path class="cls-63" d="M130.87,66.54c.89,2.68-1.87,2-3.21,7.31s.81,10.2,1.52,13.05-1,3.53-1.85,3.62a21.93,21.93,0,0,1-3.54.15c2.34-5.09-1-14.58-1.12-19.69a8.22,8.22,0,0,1,4.75-7.54A10.7,10.7,0,0,1,130.87,66.54Z"/><path class="cls-64" d="M130.87,66.73S128,61.23,116,59.87c0,0-1.9-.79-1.72,5.35a6.8,6.8,0,0,1-1.51,3.21c-.63.8-2.28,3.88,1.34,7.56,0,0,1.4,5.48-.27,9-1.5,3.16,6.32,6.25,13,5.61a2.76,2.76,0,0,0,2.37-3.73c-.71-2.85-2.85-7.59-1.52-12.85S131.76,69.41,130.87,66.73Z"/><path class="cls-65" d="M116.93,57.32s1.92,2.64.72,5.23c-.32.71-1.22,3.67,3.43,2.79,0,0,4.92-2,3.61-3.57-.87-1-1.68-2.47.09-7.26Z"/><path class="cls-66" d="M124.69,61.77a.76.76,0,0,1,.2.5,8.57,8.57,0,0,1-7.17-2.77l6-4.56h0s.27.22.67.58C123.13,59.51,123.88,60.82,124.69,61.77Z"/><path class="cls-67" d="M118.35,48.7s-1.25.33-1.57,4c0,.4-.73.88-1,1.87s-.78,5,1.53,5.63A7.25,7.25,0,0,0,125,55.89C126.74,51.92,123.66,46.4,118.35,48.7Z"/><path class="cls-67" d="M122.89,56.42s.8-2,1.9-1.26c.35.23.71.68.08,1.67s-1.86,1.84-2.76,1.66Z"/><path class="cls-68" d="M126.32,49.38a4.32,4.32,0,0,1,2.38,0,4.33,4.33,0,0,1-.67,4.28,4.2,4.2,0,0,0-.81-1.68,2.47,2.47,0,0,1-.61-.61C126.09,50.7,124.58,50,126.32,49.38Z"/><path class="cls-60" d="M118.64,47c1.74-1.48,3.86-1.16,5.91-.5,1.78.58,3.5,2.46,3.56,4.21.08,2.42-.73,5.55-3.6,7-1.06.54.76-2.05-.65-2.18-.45,0-.59-.79-.91-.92-.24.12-2-.85-3.94-1.51-.14-.05-.32-1.22-.45-1.26s-.33,1-.5.93a7.92,7.92,0,0,1-1.71-.85C115.94,50.18,117.4,48.09,118.64,47Z"/><path class="cls-67" d="M123.49,54.79c-.65.59-.89,1.39-.54,1.78s1.18.22,1.83-.37.89-1.39.53-1.78S124.14,54.2,123.49,54.79Z"/><path class="cls-57" d="M111.79,80.7s-3.44-1-5-.4-3.59,2.16-2.59,2.53,5.42,1.57,7.86-.29A1.45,1.45,0,0,0,111.79,80.7Z"/><path class="cls-59" d="M128.72,66.34s2.54-1,2.55,2a28.21,28.21,0,0,1-3.48,9.56s-2.9,5.59-4.4,5.87-12.33,0-12.33,0a5.3,5.3,0,0,0,0-3.51s9.51-1,10.21-1.77S126.64,66.89,128.72,66.34Z"/><path class="cls-58" d="M123.39,83.76c-1.18.22-9.41.06-12.33,0a2.5,2.5,0,0,0,.21-.88s10.36-1.23,11.06-2,5.4-11.58,7.47-12.13a2.51,2.51,0,0,1,1.41-.08,30.41,30.41,0,0,1-3.42,9.19S124.89,83.48,123.39,83.76Z"/><path class="cls-69" d="M71.35,33.73l16.87,9.74,16.87,9.74a13.15,13.15,0,0,1,6,10.33V120c0,3.81-2.67,5.35-6,3.45l-16.87-9.74-16.87-9.74a13.18,13.18,0,0,1-6-10.33V37.17C65.39,33.37,68.06,31.83,71.35,33.73Z"/><path class="cls-70" d="M76.34,80v7.83L71.9,85.31V89.1l9.58,5.53v-1.5l5.94,3.43v.79l1.5-.13v3L82.7,96.63v5l13,7.51v-5l-6.1-3.52V94.7L95.4,98v-4.6L89.61,90.1V85.16l5.9-3.41c1.72,1,4,2.42,6.22,3.77l.36.22V71.67L97.44,69v-.79l-1.79.16,1.79,2.22v-.79l4,2.29V84.52c-.7-.44-2.35-1.46-4-2.44-.89-.53-1.6-1-2.19-1.3l-5.6-9.7V67.16L95.4,70.5V65.9l-5.79-3.34V59l7.3,4.22c1.56.9,2.83.17,2.83-1.63a6.28,6.28,0,0,0-2.83-4.91L81.5,47.82c-1.57-.9-2.83-.17-2.83,1.63a6.22,6.22,0,0,0,2.83,4.9l7.42,4.29v3.52L83,58.75v4.6l5.91,3.41v3.78L83,73.93l-6.7-3.87v6.19L71.9,73.69v3.79Zm.69.4L81.48,83v-3.8L77,76.65V71.26l6,3.47,5.88,10.18V89.7L83,86.29v4.6l5.91,3.41v2.54L87.42,95v.79l-5.94-3.43V90.84L77,88.27Z"/></g></svg>