<svg xmlns="http://www.w3.org/2000/svg" xmlns:xlink="http://www.w3.org/1999/xlink" viewBox="0 0 200 200"><defs><style>.cls-1,.cls-19{isolation:isolate;}.cls-2,.cls-38{opacity:0.2;}.cls-2,.cls-37,.cls-38,.cls-55{mix-blend-mode:multiply;}.cls-3{opacity:0.1;}.cls-4{opacity:0;}.cls-5{fill:#ffd400;}.cls-6{opacity:0.14;}.cls-7{opacity:0.29;}.cls-8{opacity:0.43;}.cls-9{opacity:0.57;}.cls-10{opacity:0.71;}.cls-11{opacity:0.86;}.cls-12{fill:#e56260;}.cls-13{opacity:0.7;}.cls-14{fill:#24d9e7;}.cls-15{opacity:0.8;}.cls-16{opacity:0.6;}.cls-17,.cls-19{opacity:0.5;}.cls-18{fill:#ff9e64;}.cls-20{fill:url(#linear-gradient);}.cls-21{fill:url(#linear-gradient-2);}.cls-22{fill:url(#linear-gradient-3);}.cls-23{fill:#c0c0f6;}.cls-24{fill:url(#linear-gradient-4);}.cls-25{fill:url(#linear-gradient-5);}.cls-26{fill:url(#linear-gradient-6);}.cls-27{fill:url(#linear-gradient-7);}.cls-28{fill:url(#linear-gradient-8);}.cls-29{fill:url(#linear-gradient-9);}.cls-30{fill:url(#linear-gradient-10);}.cls-31{fill:url(#linear-gradient-11);}.cls-32{fill:#ffc3be;}.cls-33{fill:url(#linear-gradient-12);}.cls-34{fill:#efb185;}.cls-35{fill:#5fb9e6;}.cls-36{fill:#171716;}.cls-37{fill:#123f5d;}.cls-37,.cls-55{opacity:0.3;}.cls-38{fill:#1a4b6c;}.cls-39{fill:#b4b9bc;}.cls-40{fill:#7d8183;}.cls-41{fill:#e3e5e5;}.cls-42{fill:#bdbbbb;}.cls-43{fill:#d2d0d0;}.cls-44{fill:#d5dfe6;}.cls-45{fill:#e9f0f4;}.cls-46{fill:#77d2ff;}.cls-47{fill:#301806;}.cls-48{fill:#e8a476;}.cls-49{fill:#db9669;}.cls-50{fill:#f1b287;}.cls-51{fill:#231202;}.cls-52{fill:#8ddfff;}.cls-53{fill:#2b3c4b;}.cls-54{fill:#314656;}.cls-55{fill:#ff6d6b;}.cls-56{fill:#131c24;}</style><linearGradient id="linear-gradient" x1="156.73" y1="119.56" x2="157.59" y2="131.94" gradientUnits="userSpaceOnUse"><stop offset="0" stop-color="#fac180"/><stop offset="0.44" stop-color="#e58797"/><stop offset="1" stop-color="#c936b8"/></linearGradient><linearGradient id="linear-gradient-2" x1="85.13" y1="112.75" x2="88.91" y2="139.58" gradientUnits="userSpaceOnUse"><stop offset="0" stop-color="#fadd8d"/><stop offset="0.39" stop-color="#f4a3a8"/><stop offset="1" stop-color="#ea3fd6"/></linearGradient><linearGradient id="linear-gradient-3" x1="15.17" y1="123.66" x2="16.03" y2="151.53" xlink:href="#linear-gradient"/><linearGradient id="linear-gradient-4" x1="8.14" y1="121.16" x2="160.25" y2="121.16" gradientUnits="userSpaceOnUse"><stop offset="0" stop-color="#fff2c9"/><stop offset="1" stop-color="#ffb7bb"/></linearGradient><linearGradient id="linear-gradient-5" x1="144.34" y1="134.23" x2="145.03" y2="151.09" xlink:href="#linear-gradient"/><linearGradient id="linear-gradient-6" x1="34.54" y1="138.82" x2="148.15" y2="138.82" xlink:href="#linear-gradient-4"/><linearGradient id="linear-gradient-7" x1="91.66" y1="133.28" x2="96.13" y2="155.29" xlink:href="#linear-gradient-2"/><linearGradient id="linear-gradient-8" x1="42.57" y1="148.02" x2="41.54" y2="168.66" xlink:href="#linear-gradient"/><linearGradient id="linear-gradient-9" x1="130.27" y1="151.39" x2="132.5" y2="170.48" xlink:href="#linear-gradient"/><linearGradient id="linear-gradient-10" x1="102.01" y1="155.97" x2="103.21" y2="174.89" xlink:href="#linear-gradient-2"/><linearGradient id="linear-gradient-11" x1="71.01" y1="163.64" x2="70.67" y2="183.25" xlink:href="#linear-gradient"/><linearGradient id="linear-gradient-12" x1="64.61" y1="158.08" x2="134.36" y2="158.08" xlink:href="#linear-gradient-4"/></defs><title>Artboard 41 copy 31</title><g class="cls-1"><g id="Layer_1" data-name="Layer 1"><path class="cls-2" d="M10.41,142.83c41-23.79,100.49-30.35,151.83-19.67l-7.06,11.45c-43.92-9.12-94.84-3.53-129.87,16.82-1,.57-1.89,1.16-2.83,1.73L7.09,144.85C8.18,144.16,9.27,143.5,10.41,142.83Z"/><path class="cls-2" d="M36.48,157.88c30.59-17.77,75.06-22.66,113.41-14.68l-7.24,11.73c-30.74-6.39-66.38-2.47-90.89,11.78-.69.39-1.33.8-2,1.2L34,159.4C34.83,158.89,35.62,158.38,36.48,157.88Z"/><path class="cls-2" d="M66.2,175c18.77-10.91,46.07-13.91,69.62-9l-5.9,9.58c-17.34-3.6-37.43-1.39-51.24,6.64-.39.22-.76.45-1.12.68l-12.88-7C65.18,175.66,65.67,175.35,66.2,175Z"/><g class="cls-3"><path d="M193,134.68c9.42,5.44,9.47,14.26.11,19.71s-24.57,5.43-34,0-9.47-14.26-.11-19.69S183.54,129.25,193,134.68Z"/></g><g class="cls-4"><path class="cls-5" d="M138.21,83.35l-3.85,2.31a.8.8,0,0,1-.79,0l-3.95-2.21a.79.79,0,0,1,0-1.37l3.85-2.32a.81.81,0,0,1,.8,0l3.95,2.2A.8.8,0,0,1,138.21,83.35Z"/></g><g class="cls-6"><path class="cls-5" d="M138.14,76.92l-3.85,2.32a.81.81,0,0,1-.8,0l-4-2.2a.79.79,0,0,1,0-1.37l3.85-2.32a.8.8,0,0,1,.79,0l4,2.21A.79.79,0,0,1,138.14,76.92Z"/></g><g class="cls-7"><path class="cls-5" d="M138.06,70.49l-3.85,2.32a.79.79,0,0,1-.8,0l-3.95-2.2a.79.79,0,0,1,0-1.37l3.85-2.32a.8.8,0,0,1,.79,0l4,2.2A.79.79,0,0,1,138.06,70.49Z"/></g><g class="cls-8"><path class="cls-5" d="M138,64.07l-3.86,2.32a.8.8,0,0,1-.79,0l-4-2.21a.79.79,0,0,1,0-1.37l3.86-2.31a.8.8,0,0,1,.79,0l4,2.21A.79.79,0,0,1,138,64.07Z"/></g><g class="cls-9"><path class="cls-5" d="M137.91,57.64,134.06,60a.79.79,0,0,1-.8,0l-3.95-2.2a.79.79,0,0,1,0-1.37l3.85-2.32a.77.77,0,0,1,.79,0l4,2.2A.79.79,0,0,1,137.91,57.64Z"/></g><g class="cls-10"><path class="cls-5" d="M137.83,51.22,134,53.53a.8.8,0,0,1-.79,0l-4-2.21a.79.79,0,0,1,0-1.37l3.85-2.31a.79.79,0,0,1,.8,0l3.95,2.21A.79.79,0,0,1,137.83,51.22Z"/></g><g class="cls-11"><path class="cls-5" d="M137.76,44.79l-3.86,2.32a.8.8,0,0,1-.79,0l-4-2.2a.79.79,0,0,1,0-1.37L133,41.23a.77.77,0,0,1,.79,0l3.95,2.2A.79.79,0,0,1,137.76,44.79Z"/></g><path class="cls-5" d="M137.68,38.36l-3.85,2.32a.79.79,0,0,1-.8,0l-3.95-2.2a.79.79,0,0,1,0-1.37l3.85-2.32a.8.8,0,0,1,.79,0l4,2.2A.79.79,0,0,1,137.68,38.36Z"/><path class="cls-5" d="M137.67,38.36l-3.85,2.32a.77.77,0,0,1-.79,0l-4-2.2a.79.79,0,0,1,0-1.37l3.85-2.32a.81.81,0,0,1,.8,0l4,2.2A.79.79,0,0,1,137.67,38.36Z"/><g class="cls-4"><path class="cls-12" d="M126.54,90.93l-3.85,2.32a.8.8,0,0,1-.79,0l-4-2.2a.79.79,0,0,1,0-1.37l3.85-2.32a.82.82,0,0,1,.8,0l4,2.21A.79.79,0,0,1,126.54,90.93Z"/></g><g class="cls-6"><path class="cls-12" d="M126.47,84.5l-3.85,2.32a.79.79,0,0,1-.8,0l-3.95-2.2a.79.79,0,0,1,0-1.37l3.85-2.32a.8.8,0,0,1,.79,0l4,2.2A.79.79,0,0,1,126.47,84.5Z"/></g><g class="cls-7"><path class="cls-12" d="M126.39,78.08l-3.85,2.31a.79.79,0,0,1-.8,0l-3.95-2.21a.79.79,0,0,1,0-1.37l3.85-2.31a.77.77,0,0,1,.79,0l4,2.21A.79.79,0,0,1,126.39,78.08Z"/></g><g class="cls-8"><path class="cls-12" d="M126.32,71.65,122.46,74a.8.8,0,0,1-.79,0l-4-2.2a.79.79,0,0,1,0-1.37l3.86-2.32a.77.77,0,0,1,.79,0l4,2.2A.79.79,0,0,1,126.32,71.65Z"/></g><g class="cls-9"><path class="cls-12" d="M126.24,65.23l-3.85,2.31a.82.82,0,0,1-.8,0l-4-2.21a.79.79,0,0,1,0-1.37l3.85-2.32a.8.8,0,0,1,.79,0l4,2.21A.79.79,0,0,1,126.24,65.23Z"/></g><g class="cls-10"><path class="cls-12" d="M126.16,58.8l-3.85,2.32a.8.8,0,0,1-.79,0l-4-2.2a.79.79,0,0,1,0-1.37l3.85-2.32a.79.79,0,0,1,.8,0l4,2.2A.79.79,0,0,1,126.16,58.8Z"/></g><g class="cls-11"><path class="cls-12" d="M126.09,52.37l-3.86,2.32a.77.77,0,0,1-.79,0l-4-2.2a.79.79,0,0,1,0-1.37l3.86-2.32a.8.8,0,0,1,.79,0l4,2.2A.79.79,0,0,1,126.09,52.37Z"/></g><path class="cls-12" d="M126,46l-3.85,2.32a.81.81,0,0,1-.8,0l-4-2.2a.8.8,0,0,1,0-1.38l3.85-2.31a.8.8,0,0,1,.79,0l4,2.21A.79.79,0,0,1,126,46Z"/><path class="cls-12" d="M126,46l-3.85,2.32a.8.8,0,0,1-.79,0l-4-2.2a.8.8,0,0,1,0-1.38l3.85-2.31a.82.82,0,0,1,.8,0l4,2.21A.79.79,0,0,1,126,46Z"/><g class="cls-13"><g class="cls-4"><path class="cls-14" d="M150.89,77.27,147,79.59a.8.8,0,0,1-.79,0L142.3,77.4a.79.79,0,0,1,0-1.37l3.86-2.32a.8.8,0,0,1,.79,0l4,2.2A.79.79,0,0,1,150.89,77.27Z"/></g><g class="cls-6"><path class="cls-14" d="M150.82,70.85,147,73.17a.81.81,0,0,1-.8,0L142.22,71a.78.78,0,0,1,0-1.36l3.85-2.32a.8.8,0,0,1,.79,0l4,2.21A.79.79,0,0,1,150.82,70.85Z"/></g><g class="cls-7"><path class="cls-14" d="M150.74,64.42l-3.85,2.32a.79.79,0,0,1-.8,0l-4-2.2a.79.79,0,0,1,0-1.37L146,60.86a.8.8,0,0,1,.79,0l4,2.2A.79.79,0,0,1,150.74,64.42Z"/></g><g class="cls-8"><path class="cls-14" d="M150.67,58l-3.86,2.31a.77.77,0,0,1-.79,0l-4-2.21a.79.79,0,0,1,0-1.37l3.86-2.31a.77.77,0,0,1,.79,0l3.95,2.21A.79.79,0,0,1,150.67,58Z"/></g><g class="cls-9"><path class="cls-14" d="M150.59,51.57l-3.85,2.32a.81.81,0,0,1-.8,0L142,51.7a.79.79,0,0,1,0-1.37L145.82,48a.77.77,0,0,1,.79,0l4,2.2A.79.79,0,0,1,150.59,51.57Z"/></g><g class="cls-10"><path class="cls-14" d="M150.51,45.15l-3.85,2.31a.8.8,0,0,1-.79,0l-4-2.21a.79.79,0,0,1,0-1.37l3.85-2.32a.81.81,0,0,1,.8,0l4,2.21A.79.79,0,0,1,150.51,45.15Z"/></g><g class="cls-11"><path class="cls-14" d="M150.44,38.72,146.58,41a.8.8,0,0,1-.79,0l-3.95-2.2a.79.79,0,0,1,0-1.37l3.85-2.32a.77.77,0,0,1,.79,0l3.95,2.2A.79.79,0,0,1,150.44,38.72Z"/></g><path class="cls-14" d="M150.36,32.29l-3.85,2.32a.79.79,0,0,1-.8,0l-4-2.2a.79.79,0,0,1,0-1.37l3.85-2.32a.8.8,0,0,1,.79,0l4,2.2A.79.79,0,0,1,150.36,32.29Z"/></g><g class="cls-15"><path class="cls-14" d="M150.35,32.29l-3.85,2.32a.77.77,0,0,1-.79,0l-4-2.2a.79.79,0,0,1,0-1.37l3.85-2.32a.81.81,0,0,1,.8,0l4,2.2A.79.79,0,0,1,150.35,32.29Z"/></g><g class="cls-16"><g class="cls-17"><polygon class="cls-18" points="90.04 86.41 90.05 90.53 99.53 85.06 99.52 80.94 90.04 86.41"/></g><polygon class="cls-18" points="80.6 105.39 80.61 109.53 99.57 98.58 99.56 94.44 80.6 105.39"/><polygon class="cls-18" points="73.97 116 73.98 120.12 99.59 105.33 99.57 101.22 73.97 116"/><polygon class="cls-18" points="69.91 111.56 69.92 115.7 78 111.03 77.99 106.9 69.91 111.56"/><polygon class="cls-18" points="80.54 85.11 80.56 89.25 99.51 78.3 99.5 74.17 80.54 85.11"/><polygon class="cls-18" points="68.69 105.5 68.7 109.62 99.55 91.81 99.54 87.69 68.69 105.5"/><polygon class="cls-18" points="69.85 91.28 69.86 95.42 77.94 90.76 77.93 86.61 69.85 91.28"/><polygon class="cls-18" points="59.39 104.11 59.4 108.22 87.05 92.26 87.04 88.14 59.39 104.11"/><polygon class="cls-18" points="69.83 84.53 69.84 88.65 99.49 71.53 99.48 67.41 69.83 84.53"/><polygon class="cls-18" points="57 98.7 57.02 102.83 66.17 97.55 66.16 93.41 57 98.7"/><polygon class="cls-18" points="62.51 82 62.52 86.11 89.99 70.25 89.98 66.13 62.51 82"/><polygon class="cls-18" points="52.57 94.5 52.58 98.61 66.16 90.78 66.14 86.66 52.57 94.5"/><polygon class="cls-18" points="47.8 83.7 47.82 87.83 66.12 77.27 66.1 73.14 47.8 83.7"/><polygon class="cls-18" points="52.49 67.47 52.51 71.58 66.08 63.74 66.07 59.63 52.49 67.47"/><polygon class="cls-18" points="46.14 77.89 46.16 82.03 66.09 70.52 66.09 66.38 46.14 77.89"/><polygon class="cls-18" points="47.75 63.42 47.76 67.56 66.06 56.99 66.05 52.86 47.75 63.42"/><g class="cls-19"><polygon class="cls-18" points="92.26 64.81 92.27 68.93 99.47 64.78 99.46 60.66 92.26 64.81"/><polygon class="cls-18" points="80.49 64.83 80.5 68.97 99.45 58.03 99.44 53.89 80.49 64.83"/><polygon class="cls-18" points="73.82 61.92 73.83 66.06 99.44 51.27 99.42 47.13 73.82 61.92"/></g><g class="cls-17"><polygon class="cls-18" points="80.45 51.32 80.46 55.44 99.41 44.5 99.41 40.38 80.45 51.32"/></g><g class="cls-17"><polygon class="cls-18" points="69.75 57.5 69.77 61.62 77.85 56.95 77.84 52.83 69.75 57.5"/></g><polygon class="cls-18" points="89.89 32.33 89.9 36.46 99.38 30.99 99.36 26.86 89.89 32.33"/><polygon class="cls-18" points="80.39 31.05 80.4 35.16 99.36 24.22 99.34 20.1 80.39 31.05"/><polygon class="cls-18" points="68.54 51.42 68.55 55.55 99.4 37.75 99.38 33.61 68.54 51.42"/><polygon class="cls-18" points="92.11 10.73 92.12 14.87 99.32 10.72 99.31 6.58 92.11 10.73"/><polygon class="cls-18" points="69.7 37.22 69.71 41.34 77.79 36.67 77.78 32.55 69.7 37.22"/><polygon class="cls-18" points="59.23 50.02 59.24 54.16 86.9 38.2 86.89 34.06 59.23 50.02"/><polygon class="cls-18" points="69.68 30.45 69.69 34.58 99.34 17.47 99.33 13.33 69.68 30.45"/><polygon class="cls-18" points="80.33 10.77 80.34 14.88 99.3 3.94 99.29 -0.18 80.33 10.77"/><polygon class="cls-18" points="56.85 44.64 56.86 48.75 66.02 43.47 66.01 39.35 56.85 44.64"/><polygon class="cls-18" points="62.35 27.91 62.36 32.05 89.84 16.18 89.83 12.05 62.35 27.91"/><polygon class="cls-18" points="52.42 40.41 52.43 44.55 66 36.72 65.99 32.58 52.42 40.41"/><polygon class="cls-18" points="47.65 29.64 47.66 33.75 65.96 23.19 65.95 19.07 47.65 29.64"/><g class="cls-17"><polygon class="cls-18" points="69.64 16.94 69.65 21.06 77.73 16.39 77.72 12.28 69.64 16.94"/></g><g class="cls-17"><polygon class="cls-18" points="20.09 59.08 20.1 63.21 34.96 54.63 34.95 50.5 20.09 59.08"/></g><g class="cls-17"><polygon class="cls-18" points="20.13 72.6 20.14 76.74 30.95 70.49 30.94 66.36 20.13 72.6"/></g><g class="cls-17"><polygon class="cls-18" points="20.11 65.85 20.12 69.97 47.72 54.03 47.71 49.92 20.11 65.85"/></g><g class="cls-17"><polygon class="cls-18" points="20.07 52.33 20.08 56.46 29.56 50.99 29.55 46.86 20.07 52.33"/></g><g class="cls-17"><polygon class="cls-18" points="20.05 45.57 20.06 49.69 39.01 38.75 39 34.63 20.05 45.57"/></g><g class="cls-19"><polygon class="cls-18" points="52.65 121.53 52.66 125.66 66.23 117.83 66.22 113.69 52.65 121.53"/><polygon class="cls-18" points="46.3 131.98 46.31 136.09 66.25 124.58 66.24 120.46 46.3 131.98"/><polygon class="cls-18" points="47.9 117.5 47.91 121.62 66.22 111.06 66.2 106.94 47.9 117.5"/></g><g class="cls-17"><polygon class="cls-18" points="20.26 119.91 20.27 124.05 47.87 108.12 47.86 103.98 20.26 119.91"/></g><g class="cls-17"><polygon class="cls-18" points="20.22 106.41 20.23 110.52 29.71 105.06 29.7 100.93 20.22 106.41"/></g><g class="cls-19"><polygon class="cls-18" points="20.2 99.64 20.21 103.77 39.17 92.83 39.16 88.69 20.2 99.64"/><polygon class="cls-18" points="20.18 92.88 20.2 97.02 39.15 86.08 39.14 81.94 20.18 92.88"/><polygon class="cls-18" points="20.16 86.13 20.18 90.24 27.61 85.96 27.59 81.84 20.16 86.13"/></g><polygon class="cls-18" points="20.14 79.36 20.16 83.49 44.39 69.5 44.38 65.37 20.14 79.36"/><g class="cls-17"><polygon class="cls-18" points="69.79 71 69.81 75.14 77.89 70.47 77.88 66.34 69.79 71"/></g><g class="cls-17"><polygon class="cls-18" points="20.24 113.16 20.25 117.28 35.11 108.7 35.1 104.58 20.24 113.16"/></g><polygon class="cls-18" points="20.28 126.69 20.29 130.8 31.11 124.56 31.1 120.44 20.28 126.69"/><g class="cls-19"><polygon class="cls-18" points="20.32 140.19 20.33 144.33 27.76 140.04 27.75 135.9 20.32 140.19"/><polygon class="cls-18" points="20.3 133.44 20.31 137.56 44.54 123.57 44.53 119.45 20.3 133.44"/></g></g><polygon class="cls-20" points="160.25 108.88 160.22 120.56 153.3 131.79 153.34 120.11 160.25 108.88"/><path class="cls-21" d="M39.25,141.61c.92-.4,1.87-.76,2.8-1.14,1.41-.58,2.83-1.16,4.28-1.71,1-.38,2.08-.72,3.13-1.09,1.43-.5,2.86-1,4.32-1.47l1.7-.51q2.69-.81,5.41-1.55l2-.52q3.49-.9,7.06-1.67l.51-.1c2.15-.45,4.32-.85,6.5-1.23,1.21-.21,2.44-.39,3.66-.58,1.45-.23,2.9-.45,4.36-.64,1.23-.16,2.47-.3,3.71-.44,1.56-.17,3.12-.34,4.69-.48l2.71-.23c1.79-.13,3.57-.24,5.37-.33.81,0,1.61-.09,2.42-.12,2.5-.1,5-.16,7.49-.16h1.32c2.12,0,4.24,0,6.36.12l2.19.08q3.12.14,6.23.36l1.39.1c2.46.2,4.92.45,7.36.73l1.95.25q2.84.36,5.66.8l2.14.33c2.47.42,4.94.86,7.36,1.37l0-11.68-.18,0h0c-2.38-.49-4.78-.92-7.19-1.33l-2.11-.33c-.91-.14-1.82-.3-2.74-.43s-2-.25-3-.38l-1.84-.24q-3.48-.4-7-.71l-.47,0-1.18-.08q-3.21-.24-6.43-.37l-2.11-.08-1.81-.08c-1.56,0-3.12,0-4.68-.05h-1.2q-3.32,0-6.61.12l-.93.05-2.34.12c-1.82.09-3.64.2-5.45.33l-2.68.23c-.7.06-1.4.1-2.09.17-.88.09-1.74.21-2.61.31-1.23.14-2.46.28-3.69.44-1.48.19-3,.42-4.43.64-1.2.19-2.4.37-3.59.58l-1.3.2q-2.69.49-5.32,1l-.39.08c-2.39.51-4.75,1.07-7.1,1.67l-1.91.51c-1.84.49-3.67,1-5.47,1.57l-1.66.5-.83.25c-1.19.38-2.35.82-3.52,1.23s-2.1.7-3.12,1.08c-1.44.54-2.83,1.12-4.24,1.7-.94.38-1.91.75-2.85,1.15-1.53.67-3,1.39-4.5,2.1-.76.36-1.54.7-2.29,1.07-2.21,1.12-4.37,2.28-6.48,3.5l-.74.45c-.69.41-1.35.83-2,1.25l0,11.68c.92-.57,1.82-1.14,2.77-1.7,2.1-1.22,4.27-2.38,6.49-3.49.71-.37,1.46-.69,2.19-1C36.17,143,37.68,142.29,39.25,141.61Z"/><polygon class="cls-22" points="23.24 138.3 23.2 149.98 8.11 141.82 8.14 130.14 23.24 138.3"/><path class="cls-23" d="M11.4,128.17c40.15-23.33,98.52-29.76,148.85-19.29l-6.91,11.23c-43.06-9-93-3.47-127.34,16.49-.95.55-1.85,1.13-2.76,1.7l-15.1-8.16C9.21,129.47,10.29,128.82,11.4,128.17Z"/><path class="cls-24" d="M11.4,128.17c40.15-23.33,98.52-29.76,148.85-19.29l-6.91,11.23c-43.06-9-93-3.47-127.34,16.49-.95.55-1.85,1.13-2.76,1.7l-15.1-8.16C9.21,129.47,10.29,128.82,11.4,128.17Z"/><polygon class="cls-25" points="148.15 128.53 148.12 140.21 141.02 151.71 141.06 140.03 148.15 128.53"/><path class="cls-23" d="M37,142.92c30-17.42,73.59-22.22,111.19-14.39L141.06,140c-30.14-6.27-65.09-2.43-89.12,11.54-.68.39-1.3.79-1.95,1.18l-15.45-8.34C35.34,143.91,36.12,143.41,37,142.92Z"/><path class="cls-26" d="M37,142.92c30-17.42,73.59-22.22,111.19-14.39L141.06,140c-30.14-6.27-65.09-2.43-89.12,11.54-.68.39-1.3.79-1.95,1.18l-15.45-8.34C35.34,143.91,36.12,143.41,37,142.92Z"/><path class="cls-27" d="M61.19,158.59c.67-.29,1.36-.56,2-.83,1-.4,1.93-.8,2.92-1.17.74-.27,1.49-.52,2.24-.78,1-.34,2-.69,3-1,.4-.13.8-.24,1.2-.36,1.25-.38,2.52-.74,3.79-1.09.46-.12.91-.25,1.37-.36,1.63-.42,3.29-.82,5-1.17l.24,0c1.54-.32,3.1-.61,4.67-.88.83-.15,1.67-.28,2.51-.4,1-.17,2.06-.32,3.1-.46.86-.11,1.72-.21,2.59-.3,1.08-.13,2.16-.24,3.25-.34l1.93-.16c1.25-.09,2.49-.17,3.74-.23.57,0,1.13-.07,1.7-.09,1.75-.06,3.49-.11,5.25-.11h.88c1.5,0,3,0,4.51.08l1.49.06c1.48.07,3,.15,4.44.26l.89.06c1.73.14,3.46.31,5.18.52l1.35.17c1.32.16,2.65.35,4,.56l1.51.23q2.59.44,5.15,1l0-11.68-.15,0c-1.66-.35-3.34-.65-5-.93l-1.44-.23-1.95-.31-2.09-.26-1.31-.16c-1.62-.19-3.25-.37-4.89-.5l-.3,0-.88-.06c-1.48-.11-3-.2-4.47-.26-.48,0-1-.05-1.46-.06l-1.28-.05c-1.08,0-2.16,0-3.24,0h-.88c-1.54,0-3.07,0-4.61.08l-.64,0-1.66.08q-1.92.1-3.81.24l-1.85.15-1.48.13c-.62.06-1.23.15-1.86.22q-1.27.13-2.55.3c-1,.14-2.07.29-3.1.45l-2.51.4c-.3.06-.61.1-.91.15-1.26.23-2.51.48-3.76.74l-.24,0c-1.67.35-3.33.75-5,1.17-.46.11-.9.24-1.35.36-1.3.34-2.57.71-3.84,1.1l-1.14.34-.57.17c-.86.28-1.69.59-2.53.89l-2.12.73c-1,.39-2.06.81-3.08,1.23-.62.26-1.26.5-1.88.77-1.11.48-2.18,1-3.26,1.51-.5.24-1,.46-1.5.71q-2.34,1.17-4.54,2.45c-.22.12-.43.25-.63.38l-1.32.8,0,11.69c.64-.4,1.27-.79,1.94-1.19q2.2-1.27,4.53-2.44c.55-.28,1.12-.52,1.67-.79C59.12,159.54,60.14,159,61.19,158.59Z"/><polygon class="cls-28" points="49.99 152.75 49.96 164.44 34.51 156.09 34.54 144.41 49.99 152.75"/><polygon class="cls-29" points="134.36 150.91 134.32 162.59 128.53 171.99 128.57 160.3 134.36 150.91"/><path class="cls-30" d="M83.53,175.87c.39-.17.79-.32,1.18-.48l1.61-.65c.43-.16.88-.3,1.32-.46s1-.35,1.51-.51c1.27-.41,2.58-.77,3.89-1.11l.95-.22c1.08-.26,2.16-.49,3.26-.69l1.17-.23,1.41-.22,1.73-.26,1.5-.17q.72-.09,1.44-.15c1.55-.15,3.1-.26,4.66-.31l.8,0c1.24,0,2.48,0,3.72,0l1,0c1.4.05,2.81.11,4.21.23l.53,0c1.23.11,2.45.25,3.67.41l1.11.16c1.36.2,2.71.43,4,.7l.25.05,0-11.69h-.08l-.11,0c-1.35-.28-2.73-.51-4.11-.72-.18,0-.35-.06-.53-.09l-.57-.06c-1.21-.16-2.43-.3-3.65-.41l-.45-.05H119c-1.39-.11-2.79-.18-4.19-.22l-.42,0h-.65c-1.22,0-2.44,0-3.67,0-.2,0-.4,0-.6,0h-.23c-1.56.06-3.1.17-4.64.31-.15,0-.3,0-.45,0l-1,.13-1.47.17-1.71.25-1.47.23-.48.08c-.21,0-.41.1-.62.13-1.11.21-2.21.45-3.3.71l-1,.22c-1.31.34-2.6.7-3.87,1.1l-.21.06c-.47.15-.92.32-1.38.48l-1.26.44c-.54.2-1.07.42-1.6.64l-1.19.48-1.72.8-1,.45c-.88.44-1.73.9-2.56,1.38l-.48.29-.62.38,0,11.69c.35-.23.72-.45,1.1-.68.83-.48,1.68-.93,2.55-1.37l1-.47C82.4,176.39,83,176.12,83.53,175.87Z"/><polygon class="cls-31" points="77.23 167.48 77.2 179.17 64.58 172.34 64.61 160.66 77.23 167.48"/><path class="cls-32" d="M66.09,159.74c18.41-10.69,45.18-13.64,68.27-8.83l-5.79,9.39c-17-3.53-36.69-1.36-50.24,6.51-.38.22-.74.45-1.1.67l-12.62-6.82C65.1,160.35,65.57,160.05,66.09,159.74Z"/><path class="cls-33" d="M66.09,159.74c18.41-10.69,45.18-13.64,68.27-8.83l-5.79,9.39c-17-3.53-36.69-1.36-50.24,6.51-.38.22-.74.45-1.1.67l-12.62-6.82C65.1,160.35,65.57,160.05,66.09,159.74Z"/><path class="cls-34" d="M172.19,90.25s3.07-.93,4.72,0,2.81,1.12,3.68,2.18.31,1.75-.77,1.84a12.15,12.15,0,0,1-4.79-1,4.26,4.26,0,0,0-2.58-.49A1.45,1.45,0,0,1,172.19,90.25Z"/><path class="cls-35" d="M152.54,68.56c1.51-.37,4.21.14,5.08,4.1s3.14,15,3.14,15,11.44,1.64,12.75,2a2.47,2.47,0,0,0-.9,3.28s-12.33,1.84-15.24-.7S146.34,70.08,152.54,68.56Z"/><path class="cls-36" d="M168.61,141.59c.08-2,.26-4,.5-6.09l-6-.19c.36,1.31.72,2.61,1,3.81.22,3.06-2.06,3.9-.6,7.08a3.29,3.29,0,0,0,1.43,1.27,3.62,3.62,0,0,1,2.17,2.23,4.65,4.65,0,0,0,1,1.56c1.77,1.59,5.88,1.44,6.76.07,1.27-1.94-4.42-6-6.16-9.5A1.78,1.78,0,0,1,168.61,141.59Z"/><path class="cls-36" d="M184.91,128c.4-.23.41-.64,1-1.13.39.73,1.54,1.48,1.92,2.18a2.72,2.72,0,0,0,.25.15c3.51,2.21,10.89,2.72,10.82,5.16,0,1.73-3.67,4.13-6.15,3.68a4.9,4.9,0,0,1-1.77-.84,3.83,3.83,0,0,0-3.19-.82,3.42,3.42,0,0,1-2-.36c-3-2-1.55-4-3.26-6.55C183.35,128.93,184.15,128.4,184.91,128Z"/><path class="cls-12" d="M169.11,118A19.89,19.89,0,0,0,167,106.85c-2.32-4.42-12-8.43-12.1-8.43s-8.39,3.75-7.76,5.16c.36.79,13,13.39,13.26,14a4,4,0,0,1,.31,2.77c-.93,4.5.1,17.68,1.78,21.51,1.24,2.81,5.84,2.3,6.68.76.13-.27,0-21.59-.06-24.63C169.11,118,169.21,121,169.11,118Z"/><path class="cls-37" d="M169.89,118.21V118C170,120.53,169.91,118.83,169.89,118.21Z"/><path class="cls-37" d="M169.89,118.21v0Z"/><path class="cls-37" d="M153.91,98.11c.09,0,10.77,4.32,13.09,8.74,2.94,5.58,1.59,9.72,1.59,9.72h0c.6.74.58,4.63.64,7.09-3-2.41-3.13-9.89-7.44-7.28-.78.24-.22,16.18,1.14,22.38a23,23,0,0,0,1.64,4.66,2.46,2.46,0,0,1-2.08-1.58c-.91-3.22-3.06-14-1.78-21.51a4.22,4.22,0,0,0-.31-2.77c-.25-.59-12.9-13.19-13.26-14C146.51,102.17,153.8,98.11,153.91,98.11Z"/><path class="cls-12" d="M149.81,115.05c8.27-.61,15.54-1.89,15.54-1.89,2.78,9.32,16.11,17.53,17.71,18.73.95-.12,3.37-2.68,4.12-3.82-2.54-4.16-14.36-20.47-18.2-23-2.41-1.61-23.34-2.17-23.35-3.2,0-.42-5-1-5.36-1C136.11,100.82,135.21,116.12,149.81,115.05Z"/><path class="cls-38" d="M140.27,100.84c.36,0,5.36.56,5.36,1s3.54.57,7.91.72a6.56,6.56,0,0,1-.89,1.25c-2.92,3.25-9.94.31-12.38,3.92-1.58,2.33,1.61,4.24,3.14,4.8,7.13,2.26,16.88,2.29,22.41-2.43,2.42,9.41,10.57,15.92,18.56,21.18a4.2,4.2,0,0,1-1.32.63c-1.6-1.2-14.93-9.41-17.71-18.73,0,0-7.27,1.28-15.54,1.89C135.21,116.12,136.11,100.82,140.27,100.84Z"/><g class="cls-1"><polygon class="cls-39" points="151.72 103.81 151.67 104.46 161.08 111.17 161.13 110.52 151.72 103.81"/><polygon class="cls-40" points="161.13 110.52 161.08 111.17 178.65 103.09 178.71 102.44 161.13 110.52"/><polygon class="cls-41" points="151.72 103.81 161.13 110.52 178.71 102.44 169.3 95.73 151.72 103.81"/></g><g class="cls-1"><polygon class="cls-42" points="163.96 99.37 163.26 98.72 160.32 110.48 161.02 111.13 163.96 99.37"/><polygon class="cls-43" points="182.33 90.93 181.63 90.28 163.26 98.72 163.96 99.37 182.33 90.93"/><polygon class="cls-44" points="163.96 99.37 161.02 111.13 179.39 102.69 182.33 90.93 163.96 99.37"/><polygon class="cls-45" points="163.96 99.37 163.96 99.37 179.39 102.69 182.33 90.93 163.96 99.37"/></g><path class="cls-46" d="M136.93,76s3.69-6,17.71-7.56c0,0,2.26-.87,1.84,6.35-.06,1,1,2.86,1.67,3.82s2.54,4.64-1.84,8.85c0,0-1.83,6.39,0,10.61,1.65,3.77-7.65,7.13-15.44,6.15-1-.12-3.08-.82-2.13-4.14s3.1-9.15,1.71-15.37S135.79,79.1,136.93,76Z"/><path class="cls-35" d="M136.93,76c-1.14,3.11,2.13,2.48,3.53,8.71s-.78,12-1.71,15.37,1.17,4,2.13,4.14a24.44,24.44,0,0,0,3.92.15c-2.56-6.08,1.27-16.88,1.62-22.88.37-6.36-5.33-9-5.33-9A12.43,12.43,0,0,0,136.93,76Z"/><path class="cls-47" d="M152.47,57.14s-1.12,7.2-1.75,14.07a2.29,2.29,0,0,0,2.76,2.34s5.46-8,1.52-16.23a7.77,7.77,0,0,0-11.48-2.73Z"/><path class="cls-48" d="M153.68,66.65s-2.58,2.84-1.52,6c.28.87,1,4.44-4.36,2.81,0,0-5.49-3-3.76-4.63,1.15-1.09,2.29-2.68.84-8.5Z"/><path class="cls-49" d="M144,70.86a.85.85,0,0,0-.3.55,10.1,10.1,0,0,0,8.74-2.3L146,63h0s-.34.21-.86.58C146.15,68.41,145.11,69.85,144,70.86Z"/><path class="cls-50" d="M153.12,56.39s1.43.55,1.34,4.83c0,.48.73,1.13.89,2.31s.27,6-2.51,6.39a8.52,8.52,0,0,1-8.42-6C142.91,59.08,147.21,53,153.12,56.39Z"/><path class="cls-51" d="M152.79,58.11s-12.42,4.12-3.68,20.23c0,0-6.42.42-9.11-5.19-1.29-2.69-.59-8,0-13.11,0,0,1.66-7.81,8.2-6.44C148.18,53.6,152.47,55.4,152.79,58.11Z"/><path class="cls-47" d="M152.79,58.11s2.17-.34,3.09,3.64c0,0,0-11.18-10.68-8.12C145.2,53.63,151.49,54.13,152.79,58.11Z"/><path class="cls-50" d="M146.83,64.83s-.68-2.39-2.07-1.71c-.43.22-.92.7-.3,1.93s1.93,2.4,3,2.3Z"/><path class="cls-34" d="M154.75,96.51s3.07.19,4.1,1.54,2.45,2.75,2.77,4,0,1.66-.92,1.38a17.28,17.28,0,0,1-4.78-3.26,3.71,3.71,0,0,0-2-1.29C153.42,98.67,153.13,97.1,154.75,96.51Z"/><path class="cls-49" d="M153.88,98.86a3.71,3.71,0,0,1,2,1.29,17.28,17.28,0,0,0,4.78,3.26,1,1,0,0,0,.37.07c-.74-.82-2-2.24-3.15-3.44a9.27,9.27,0,0,0-4.36-2.3C153.45,98.27,153.63,98.76,153.88,98.86Z"/><path class="cls-52" d="M138.55,74.71c1.45-.3,3.9.31,4.17,4.22s.93,14.86.93,14.86S154,95.85,155.2,96.27a2.14,2.14,0,0,0-1.25,2.8s-11.66,1.71-14-.9S132.61,76,138.55,74.71Z"/><g class="cls-3"><path d="M33.26,180.68c7.57,4.37,7.61,11.45.09,15.82s-19.73,4.37-27.3,0-7.6-11.45-.09-15.81S25.7,176.32,33.26,180.68Z"/></g><path d="M17.7,178.8a9.75,9.75,0,0,1-1.42,4.36c-1.22,1.53-6.86,5.09-6.42,6.64s4.5,1.63,7-1,3.2-3,4.29-3.27,2.62-1.64,1.45-4C22.62,181.53,19.14,180.6,17.7,178.8Z"/><path d="M25.43,183.48s-.45,3.15-1.9,4.77-8,5.19-7.65,6.94,4.91,2.14,7.91-.59,3.79-3.13,5-3.34,3-1.64,1.91-4.36C30.72,186.9,26.9,185.6,25.43,183.48Z"/><path class="cls-53" d="M41.27,138.4s-21.69,12.16-23,16c-1.89,5.49-1.54,9.23-.63,22.86l-.06,3.21s2.78,2.26,5.82.73c.94-.49,0-9.45,1.49-14.44,0,0,.47-5.93,0-7.51,0,0,17.51-6.08,21.6-9.83S41.27,138.4,41.27,138.4Z"/><path class="cls-54" d="M59.73,142.23S63.18,150,54,154.78c-9.75,5-20.07,11.11-20.07,11.11a51.84,51.84,0,0,1-.5,9.89c-1,5-2.55,11.6-2.55,11.6s-4.18,1.69-6.54-.61c0,0-.22-24.17,2.62-26.89s17-13.53,17-13.53l-2.73-7.95Z"/><path class="cls-53" d="M54,154.78c-9.75,5-20.07,11.11-20.07,11.11a51.84,51.84,0,0,1-.5,9.89c-1,5-1.77,11.36-1.77,11.36a12.92,12.92,0,0,1-2.54.53c1.45-6.49,2.09-20.94,2.75-23.59.82-3.29,11.1-6.82,18.41-10.68a14.64,14.64,0,0,0,7.65-11.54l1.8.37S63.18,150,54,154.78Z"/><path class="cls-54" d="M16.9,176.82c-.9-13.64-.52-16.93,1.37-22.42,1.31-3.84,23-16,23-16a27.83,27.83,0,0,1,2.54,2.3c-5.86,2.89-19.88,10.17-22.5,15.09-3,5.64-.75,21.34-1,25.85a14.1,14.1,0,0,1-3.17-.79Z"/><path class="cls-34" d="M26.26,130.76s-3.37-.16-4.62,1.25-2.93,2.83-3.37,4.19-.19,1.87.9,1.68a18.41,18.41,0,0,0,5.51-3.12A3.88,3.88,0,0,1,27,133.53C27.55,133.37,28,131.63,26.26,130.76Z"/><path class="cls-49" d="M27.43,133.89c-.53.16-1.24-.41-2.75.87a18.41,18.41,0,0,1-5.51,3.12,2.27,2.27,0,0,1-.42,0c.89-.86,2.4-2.31,3.73-3.53a9.67,9.67,0,0,1,5-2.09C27.55,132.91,27.71,133.8,27.43,133.89Z"/><path class="cls-49" d="M45.86,108c-1.57-.52-4.29-.12-4.93,4.29S38.65,129,38.65,129s-11.08,1.42-12.39,1.76c0,0,1.64.74.67,3,0,0,12.65,3.34,15.46.66S52.27,110.08,45.86,108Z"/><path class="cls-34" d="M26.26,130.76c1.31-.34,12.39-1.76,12.39-1.76s1.65-12.34,2.28-16.75,3.36-4.81,4.93-4.29a2.78,2.78,0,0,1,1.09.66l.08.18s-4,1.45-4.89,9.53,1.82,13.13-4.77,13.31c-3.93.1-7.76.65-10.26.72A5.49,5.49,0,0,0,26.26,130.76Z"/><path class="cls-55" d="M47.62,122.61s-5.9.73-8.33-1.63c0,0-.67-14.16,5.65-13.82C44.94,107.16,51.78,108,47.62,122.61Z"/><path class="cls-12" d="M62.56,115.43s-3.64-6.3-18.11-8.37c0,0-2.32-1-2.1,6.52,0,1.09-1.09,2.93-1.85,3.91s-2.76,4.72,1.65,9.21c0,0,1.7,6.67-.34,11-1.82,3.86,7.7,7.62,15.8,6.84,1-.1,3.21-.76,2.34-4.23s-2.93-9.56-1.3-16S63.64,118.68,62.56,115.43Z"/><path class="cls-38" d="M62.56,115.43c1.08,3.25-2.28,2.5-3.91,8.91s.43,12.48,1.3,16-1.34,4.13-2.34,4.23a25.12,25.12,0,0,1-4.07,0c2.84-6.22-.79-17.5-1-23.74-.18-6.6,5.8-9.18,5.8-9.18A13.05,13.05,0,0,1,62.56,115.43Z"/><g class="cls-1"><polygon class="cls-39" points="48.9 146.79 48.96 147.45 39.29 154.34 39.24 153.68 48.9 146.79"/><polygon class="cls-40" points="39.24 153.68 39.29 154.34 21.24 146.04 21.18 145.38 39.24 153.68"/><polygon class="cls-41" points="48.9 146.79 39.24 153.68 21.18 145.38 30.84 138.49 48.9 146.79"/></g><g class="cls-1"><polygon class="cls-42" points="36.33 142.23 37.05 141.56 40.06 153.64 39.35 154.31 36.33 142.23"/><polygon class="cls-43" points="17.46 133.56 18.18 132.89 37.05 141.56 36.33 142.23 17.46 133.56"/><polygon class="cls-44" points="36.33 142.23 39.35 154.31 20.47 145.63 17.46 133.56 36.33 142.23"/><polygon class="cls-45" points="36.33 142.23 36.33 142.23 20.47 145.63 17.46 133.56 36.33 142.23"/></g><path class="cls-34" d="M46.16,137.92s-3.1.71-3.92,2.27-2.05,3.23-2.14,4.54.23,1.7,1.17,1.26a18.05,18.05,0,0,0,4.33-4.15c1.09-1.5,1.41-1.38,1.85-1.66S47.92,138.25,46.16,137.92Z"/><path class="cls-49" d="M47.9,140.39c-.44.27-1.21,0-2.3,1.45A18.05,18.05,0,0,1,41.27,146l-.36.13c.61-1,1.66-2.63,2.61-4.05A9.66,9.66,0,0,1,47.59,139C47.8,139.49,48.14,140.24,47.9,140.39Z"/><path class="cls-49" d="M59,112.89c-1.53-.06-3.92,1-3.54,5S57,133.25,57,133.25s-9.76,4-10.88,4.67c0,0,1.65.24,1.27,2.48,0,0,12.2-.24,14.17-3.31S65.29,113.15,59,112.89Z"/><path class="cls-34" d="M46.16,137.92c1.12-.63,10.88-4.67,10.88-4.67s-1.2-11.29-1.58-15.34,2-5.08,3.54-5a2.68,2.68,0,0,1,1.13.31l.11.14S57,115.61,57.88,123s4.51,11.11-1.44,12.93c-3.54,1.08-6.9,2.53-9.16,3.22A4.88,4.88,0,0,0,46.16,137.92Z"/><path class="cls-12" d="M63.78,125.36s-5.2,2.13-7.91.66c0,0-3.69-12.31,2.13-13.6C58,112.42,64.37,111.42,63.78,125.36Z"/><path class="cls-56" d="M44.38,107.54c-.38.92-.89,1.73-.4,2.73a3.14,3.14,0,0,0,1.55,1.39,13,13,0,0,0,1.54.61,14.27,14.27,0,0,0,2.79.13h0c.06-.87,7.24-3.05,7.26-3.92,0-2-7.27-2.77-8.11-4.6-.76-1.64-2-3.09-2.3-4.88a8.83,8.83,0,0,1,.14-2.35c0-.48-.17-.71-.68-.68-1.19.09-1.89,1.89-2.16,2.85a5.88,5.88,0,0,0-.14,2.36c.27,1.73,1.32,3.43.87,5.11A5.76,5.76,0,0,1,44.38,107.54Z"/><path class="cls-48" d="M46.13,104.92s2.35,2.74,1.27,5.68c-.29.81-1,4.14,4,2.76,0,0,5.23-2.66,3.65-4.24-1.06-1-2.07-2.56-.56-8Z"/><path class="cls-49" d="M55.05,109.12a.91.91,0,0,1,.26.53,9.44,9.44,0,0,1-8.11-2.4l6.21-5.54h0l.79.57C53.13,106.78,54.07,108.15,55.05,109.12Z"/><path class="cls-50" d="M46.94,95.34s-1.35.47-1.38,4.48c0,.45-.72,1-.9,2.14s-.42,5.58,2.17,6.05a8,8,0,0,0,8.05-5.37C56.43,98.13,52.55,92.34,46.94,95.34Z"/><path class="cls-56" d="M50.27,99.09c-1.44-.46-3.41-.88-4.15-2.38a3.92,3.92,0,0,1-.31-.95c.73-1.65,1.46-1.64,4-2.74,1.73-.75,3.19-1.41,4.28.74.19.37.72.6.4.66-2.11,3.27,2.69,7-.62,8C53.76,100.78,51.66,99.53,50.27,99.09Z"/><path class="cls-56" d="M58,111.23a3.34,3.34,0,0,1-.27-2.35,11.85,11.85,0,0,1,.73-2.3,7.8,7.8,0,0,0,.79-3c.28-2.59,1.34-6.45-3.16-9.71-2.41-1.75-5.12.57-4.32,2.58a12,12,0,0,1,.67,4.14.6.6,0,0,1-.06.11,5.84,5.84,0,0,0-.66,4.11c.37,1.43,1.91,2.38,1.71,4a4.17,4.17,0,0,1-.78,1.71.6.6,0,0,1-.09.15,2.41,2.41,0,0,0,.54,2.63c1.2,1.22,2.34,2.58,3.66,1.6a27.91,27.91,0,0,0,2.8-2.28C59.54,112.09,58.12,111.76,58,111.23Z"/><path class="cls-50" d="M51.47,104.27s1-2.08,2.19-1.22c.37.27.73.79,0,1.83s-2.18,1.88-3.16,1.6Z"/></g></g></svg>