<svg xmlns="http://www.w3.org/2000/svg" xmlns:xlink="http://www.w3.org/1999/xlink" viewBox="0 0 200 200"><defs><style>.cls-1{opacity:0.7;}.cls-10,.cls-17,.cls-2{opacity:0.5;}.cls-3{fill:#04a8f5;}.cls-4{fill:#ff9e64;}.cls-17,.cls-5{isolation:isolate;}.cls-6{opacity:0.1;}.cls-7{fill:#95c4de;}.cls-8{fill:#a9d6ea;}.cls-10,.cls-9{fill:#def6ff;}.cls-11{fill:#c0c5d1;}.cls-12{fill:url(#linear-gradient);}.cls-13{fill:url(#linear-gradient-2);}.cls-14{fill:url(#linear-gradient-3);}.cls-15{opacity:0.6;}.cls-16{fill:#bd10e0;}.cls-18{opacity:0;}.cls-19{fill:#ffd400;}.cls-20{opacity:0.14;}.cls-21{opacity:0.29;}.cls-22{opacity:0.43;}.cls-23{opacity:0.57;}.cls-24{opacity:0.71;}.cls-25{opacity:0.86;}.cls-26{fill:#e56260;}.cls-27{fill:#24d9e7;}.cls-28{fill:#111114;}.cls-29{fill:#efb185;}.cls-30{fill:#e6a376;}.cls-31{fill:#0991cf;}.cls-32{fill:#131c24;}.cls-33{fill:#314656;}.cls-34{fill:#db9669;}</style><linearGradient id="linear-gradient" x1="4904.65" y1="16.89" x2="4855.12" y2="130.75" gradientTransform="matrix(-1, 0, 0, 1, 5009.24, 0)" gradientUnits="userSpaceOnUse"><stop offset="0" stop-color="#fff2c9"/><stop offset="1" stop-color="#ffb7bb"/></linearGradient><linearGradient id="linear-gradient-2" x1="68.4" y1="168.48" x2="66.49" y2="201.99" gradientUnits="userSpaceOnUse"><stop offset="0" stop-color="#fadd8d"/><stop offset="0.39" stop-color="#f4a3a8"/><stop offset="1" stop-color="#ea3fd6"/></linearGradient><linearGradient id="linear-gradient-3" x1="5145.28" y1="165.54" x2="5216.79" y2="165.54" gradientTransform="matrix(-1, 0, 0, 1, 5249.23, 0)" xlink:href="#linear-gradient"/></defs><title>Artboard 41 copy 32</title><g id="Layer_1" data-name="Layer 1"><g class="cls-1"><g class="cls-2"><path class="cls-3" d="M19.75,29.25a1.55,1.55,0,0,1,.69,1.09l1,4.23a1.93,1.93,0,0,0,.43,1,21.92,21.92,0,0,1,2.28,2.16.43.43,0,0,0,.26-.11l2.46-1.17a.46.46,0,0,1,.56,0,1.47,1.47,0,0,1,.42.41l2.67,3.87c.31.45.37,1,.13,1.21l-1.51,2.55a.83.83,0,0,0-.14.78,22.15,22.15,0,0,1,1.09,3.08,1.7,1.7,0,0,0,.23.17l.11,0,3.32,2.09a1.52,1.52,0,0,1,.79,1.14L35,55.86c0,.47-.22.72-.6.56l-3.17-.64a.46.46,0,0,0-.62.15,8.3,8.3,0,0,1-.74,2.19,1.94,1.94,0,0,0,.22.43l2.24,4.12c.31.44.37,1,.13,1.2l-2,1.91a.45.45,0,0,1-.56,0,1.17,1.17,0,0,1-.42-.41l-3-3.44a1.73,1.73,0,0,0-.5-.48.82.82,0,0,0-.24-.1,6.94,6.94,0,0,1-2.14,0,.89.89,0,0,0,0,.37l-.16,3.74c.06.48-.22.73-.6.56l-3.33-1.39-.09-.05a1.49,1.49,0,0,1-.69-1.09l-1-4.24a1.9,1.9,0,0,0-.43-1A23,23,0,0,1,15,56.15a.41.41,0,0,0-.26.11l-2.46,1.17a.45.45,0,0,1-.56,0,1.31,1.31,0,0,1-.42-.4L8.62,53.14c-.31-.44-.37-1-.13-1.2L10,49.39a.8.8,0,0,0,.13-.78,24,24,0,0,1-1.08-3.08,1.18,1.18,0,0,0-.24-.17l-.1-.06L5.38,43.22l-.1,0a1.6,1.6,0,0,1-.69-1.1L4.14,38c0-.47.22-.72.61-.56l3.16.63a.47.47,0,0,0,.63-.14,8.5,8.5,0,0,1,.74-2.2,1.92,1.92,0,0,0-.23-.42L6.81,31.18c-.3-.45-.37-1-.13-1.21l2-1.9a.46.46,0,0,1,.56,0,1.61,1.61,0,0,1,.42.41l3,3.45a1.61,1.61,0,0,0,.5.48.82.82,0,0,0,.24.1,6.87,6.87,0,0,1,2.13,0,.92.92,0,0,0,0-.38l.15-3.74c-.05-.47.22-.72.61-.56l3.32,1.4Z"/></g><g class="cls-2"><path class="cls-3" d="M21.82,19.86c0,.33-.15.51-.42.4l-2.24-.45a.33.33,0,0,0-.44.1,6.42,6.42,0,0,1-.52,1.55,2.1,2.1,0,0,0,.15.3l1.59,2.91c.21.31.26.7.09.85l-1.44,1.35a.32.32,0,0,1-.39,0,.79.79,0,0,1-.3-.28l-2.1-2.44a1.25,1.25,0,0,0-.35-.34l-.17-.07a4.75,4.75,0,0,1-1.51,0,.71.71,0,0,0,0,.26l-.11,2.64c0,.33-.15.51-.42.4l-2.36-1-.07,0a1.09,1.09,0,0,1-.48-.78l-.72-3a1.41,1.41,0,0,0-.31-.68,14.31,14.31,0,0,1-1.61-1.52.32.32,0,0,0-.19.07L5.75,21a.33.33,0,0,1-.4,0,.87.87,0,0,1-.3-.28L3.17,17.94c-.22-.31-.26-.7-.1-.85l1.07-1.8a.58.58,0,0,0,.1-.55,16.66,16.66,0,0,1-.77-2.18l-.16-.12-.08,0L.88,10.93l-.07,0a1.05,1.05,0,0,1-.49-.77L0,7.23c0-.33.16-.51.43-.39l2.24.45a.34.34,0,0,0,.44-.1,6.35,6.35,0,0,1,.52-1.56,2.1,2.1,0,0,0-.15-.3L1.89,2.42c-.22-.31-.26-.69-.09-.85L3.23.22a.33.33,0,0,1,.4,0,.91.91,0,0,1,.3.29L6,3a1,1,0,0,0,.35.34.77.77,0,0,0,.17.07,5.07,5.07,0,0,1,1.51,0,.72.72,0,0,0,0-.26L8.19.43c0-.33.15-.51.42-.4L11,1a1.12,1.12,0,0,1,.56.81l.72,3a1.37,1.37,0,0,0,.31.68A16.4,16.4,0,0,1,14.16,7,.24.24,0,0,0,14.34,7l1.74-.83a.33.33,0,0,1,.4,0,1.1,1.1,0,0,1,.3.28l1.88,2.74c.22.32.26.7.09.85l-1.06,1.81a.57.57,0,0,0-.1.55,16,16,0,0,1,.77,2.17.83.83,0,0,0,.16.12l.08,0L21,16.16l.07,0a1.14,1.14,0,0,1,.49.77Zm-10.93,1.3c3.69,2.12,6.66.4,6.66-3.82A14.58,14.58,0,0,0,10.94,5.93c-3.69-2.11-6.66-.4-6.66,3.81a14.6,14.6,0,0,0,6.61,11.42Z"/></g><g class="cls-2"><path class="cls-3" d="M37.38,32.18c0,.22-.1.33-.28.26l-1.49-.3a.22.22,0,0,0-.29.07,3.9,3.9,0,0,1-.35,1l.1.2,1.06,1.93c.14.22.17.47.06.57l-1.36,1a.2.2,0,0,1-.26,0,.54.54,0,0,1-.21-.19L33,35.12c-.09-.13-.06-.27-.14-.32a2.7,2.7,0,0,1-.8,0,.31.31,0,0,0,0,.17L32,36.65c0,.22-.11.34-.29.26l-1.56-.65-.05,0a.69.69,0,0,1-.33-.49l-.49-2a.89.89,0,0,0-.21-.45,10.22,10.22,0,0,1-1.07-1,.26.26,0,0,0-.12,0l-1.53.83a.23.23,0,0,1-.27,0,.7.7,0,0,1-.2-.19L24.6,31.17c-.14-.21-.17-.46-.06-.57l1.09-1.46a.41.41,0,0,0,.06-.37,11.37,11.37,0,0,1-.51-1.45l-.11-.08-.05,0-1.56-1a.74.74,0,0,1-.37-.54l-.21-1.92c0-.22.1-.34.28-.26l1.49.29a.21.21,0,0,0,.29-.06,4,4,0,0,1,.35-1,1,1,0,0,0-.11-.2l-1.67-2.57c-.14-.2-.17-.46-.06-.56l.95-.9a.23.23,0,0,1,.27,0,.59.59,0,0,1,.2.19l2,2.25a1,1,0,0,0,.23.23.34.34,0,0,0,.12,0,3.34,3.34,0,0,1,1,0,.35.35,0,0,0,0-.18l.08-1.78a.25.25,0,0,1,.34-.28l1.5.63a.74.74,0,0,1,.37.54L31,22.17a.92.92,0,0,0,.21.46,4.35,4.35,0,0,1,.65.64s1.06-.75,1.11-.78a.2.2,0,0,1,.26,0,.62.62,0,0,1,.21.19l1.83,2.38c.15.2.18.46.06.56l-.71,1.2a.43.43,0,0,0-.06.37,11.23,11.23,0,0,1,.51,1.44l.11.09.05,0,1.56,1a.73.73,0,0,1,.37.54ZM30.11,33c2.46,1.4,4.43.26,4.43-2.54a9.69,9.69,0,0,0-4.39-7.59c-2.46-1.41-4.43-.27-4.43,2.54A9.69,9.69,0,0,0,30.11,33Z"/></g></g><g class="cls-1"><polygon class="cls-4" points="156.44 147.44 150.81 150.71 149.53 149.97 153.99 147.38 152.37 147.04 153.15 146.34 155.34 146.81 156.44 147.44"/><path class="cls-4" d="M150.8,144.07c1.51.88.76,2-.78,2.89-1.74,1-3.63,1.31-5.08.47s-.81-2,.77-2.91A5.24,5.24,0,0,1,150.8,144.07Zm-4.83,2.8c.51.3,1.43.09,2.71-.66s1.64-1.26,1.1-1.57-1.43-.11-2.73.65-1.6,1.28-1.08,1.58Z"/><path class="cls-4" d="M146,141.28c1.52.87.77,2-.77,2.89-1.74,1-3.64,1.3-5.09.46s-.8-2,.78-2.9S144.5,140.44,146,141.28Zm-4.83,2.8c.51.29,1.44.08,2.71-.66s1.64-1.26,1.1-1.57-1.43-.12-2.73.65-1.6,1.28-1.08,1.58Z"/><polygon class="cls-4" points="170.95 155.82 165.32 159.09 164.04 158.35 168.49 155.76 166.89 155.42 167.66 154.72 169.85 155.18 170.95 155.82"/><path class="cls-4" d="M175,158c1.51.87.76,2-.78,2.89-1.74,1-3.64,1.3-5.09.46s-.8-2,.78-2.91S173.52,157.19,175,158Zm-4.84,2.8c.51.29,1.44.08,2.72-.66s1.63-1.26,1.09-1.57-1.42-.12-2.73.65-1.59,1.28-1.08,1.58Z"/><g class="cls-5"><path class="cls-4" d="M160.48,149.66c1.51.87.76,2-.79,2.89-1.73,1-3.64,1.3-5.08.46s-.8-2,.78-2.9A5.22,5.22,0,0,1,160.48,149.66Zm-4.84,2.8c.51.29,1.43.08,2.71-.66s1.64-1.26,1.1-1.57-1.42-.12-2.73.65-1.59,1.28-1.08,1.58Z"/><path class="cls-4" d="M165.31,152.45c1.52.88.76,2-.78,2.89-1.74,1-3.63,1.31-5.08.47s-.8-2,.77-2.91A5.24,5.24,0,0,1,165.31,152.45Zm-4.83,2.8c.51.3,1.43.08,2.71-.66s1.64-1.26,1.1-1.57-1.42-.12-2.73.65-1.59,1.28-1.08,1.58Z"/></g><path class="cls-4" d="M179.82,160.83c1.52.88.76,2-.77,2.89-1.75,1-3.65,1.3-5.09.46s-.8-2,.78-2.9A5.23,5.23,0,0,1,179.82,160.83Zm-4.83,2.8c.51.29,1.44.08,2.71-.66s1.64-1.26,1.1-1.57-1.43-.12-2.73.65-1.6,1.28-1.08,1.58Z"/><polygon class="cls-4" points="195.13 169.78 189.51 173.05 188.23 172.31 192.68 169.72 191.07 169.39 191.84 168.69 194.03 169.15 195.13 169.78"/><g class="cls-5"><path class="cls-4" d="M184.66,163.62c1.52.88.76,2-.78,2.9-1.74,1-3.64,1.29-5.08.46s-.8-2,.78-2.91A5.23,5.23,0,0,1,184.66,163.62Zm-4.83,2.8c.51.3,1.43.09,2.71-.66s1.63-1.26,1.1-1.57-1.42-.11-2.73.65-1.6,1.29-1.08,1.58Z"/><polygon class="cls-4" points="190.29 166.99 184.67 170.26 183.39 169.52 187.85 166.93 186.24 166.59 187.01 165.9 189.2 166.36 190.29 166.99"/></g><path class="cls-4" d="M199.17,172c1.52.88.76,2-.77,2.89-1.75,1-3.65,1.3-5.09.47s-.8-2,.78-2.91A5.23,5.23,0,0,1,199.17,172Zm-4.84,2.8c.52.3,1.44.09,2.72-.66s1.64-1.26,1.1-1.57-1.43-.12-2.73.65-1.59,1.28-1.09,1.58Z"/><polygon class="cls-4" points="146.04 153.48 140.42 156.75 139.14 156.01 143.59 153.42 141.98 153.08 142.75 152.38 144.94 152.84 146.04 153.48"/><polygon class="cls-4" points="150.88 156.27 145.26 159.54 143.98 158.8 148.43 156.21 146.82 155.87 147.59 155.18 149.78 155.63 150.88 156.27"/><polygon class="cls-4" points="155.72 159.06 150.09 162.33 148.81 161.59 153.27 159 151.66 158.67 152.43 157.97 154.62 158.43 155.72 159.06"/><path class="cls-4" d="M159.76,161.28c1.51.88.76,2-.78,2.9a5.14,5.14,0,0,1-5.09.46c-1.46-.85-.8-2,.78-2.91A5.27,5.27,0,0,1,159.76,161.28Zm-4.83,2.8c.51.3,1.43.09,2.71-.66s1.63-1.26,1.1-1.57-1.43-.12-2.74.65-1.59,1.28-1.07,1.58Z"/><path class="cls-4" d="M179.11,172.45c1.51.88.76,2-.78,2.89-1.74,1-3.64,1.3-5.08.47s-.81-2,.77-2.91A5.27,5.27,0,0,1,179.11,172.45Zm-4.84,2.8c.52.3,1.44.09,2.72-.66s1.63-1.26,1.1-1.56-1.43-.12-2.73.64-1.6,1.29-1.09,1.58Z"/><polygon class="cls-4" points="175.07 170.23 169.44 173.5 168.16 172.77 172.62 170.17 171 169.84 171.78 169.14 173.97 169.6 175.07 170.23"/><path class="cls-4" d="M169.43,166.87c1.52.87.77,2-.78,2.89-1.74,1-3.64,1.3-5.08.46s-.8-2,.77-2.9S168,166,169.43,166.87Zm-4.83,2.8c.51.29,1.43.08,2.71-.66s1.64-1.26,1.1-1.57-1.42-.12-2.73.65-1.59,1.28-1.08,1.58Z"/><path class="cls-4" d="M164.6,164.08c1.51.87.76,2-.79,2.89-1.73,1-3.64,1.3-5.08.46s-.8-2,.78-2.9A5.22,5.22,0,0,1,164.6,164.08Zm-4.84,2.8c.51.29,1.43.08,2.72-.67s1.63-1.26,1.09-1.56-1.42-.12-2.73.64-1.59,1.29-1.08,1.59Z"/><path class="cls-4" d="M188.78,178c1.52.88.77,2-.78,2.89-1.74,1-3.64,1.3-5.08.47s-.8-2,.78-2.91A5.23,5.23,0,0,1,188.78,178Zm-4.84,2.8c.52.3,1.44.08,2.72-.66s1.64-1.26,1.1-1.57-1.43-.12-2.73.65-1.6,1.28-1.09,1.58Z"/><path class="cls-4" d="M183.94,175.25c1.52.87.76,2-.77,2.89-1.74,1-3.64,1.3-5.09.46s-.8-2,.78-2.9S182.48,174.4,183.94,175.25ZM179.11,178c.52.3,1.44.09,2.71-.65s1.64-1.26,1.1-1.57-1.42-.12-2.73.65-1.59,1.28-1.08,1.57Z"/><path class="cls-4" d="M168.72,178.49c1.51.88.76,2-.78,2.89-1.74,1-3.65,1.3-5.09.47s-.8-2,.78-2.91A5.27,5.27,0,0,1,168.72,178.49Zm-4.84,2.81c.52.29,1.44.08,2.72-.67s1.63-1.26,1.1-1.57-1.43-.11-2.74.65-1.59,1.28-1.08,1.59Z"/><path class="cls-4" d="M178.39,184.08c1.52.88.76,2-.78,2.89-1.74,1-3.64,1.3-5.08.46s-.81-2,.77-2.9S176.93,183.23,178.39,184.08Zm-4.84,2.8c.52.29,1.44.08,2.72-.66s1.63-1.26,1.1-1.57-1.43-.12-2.73.65-1.6,1.28-1.09,1.58Z"/><path class="cls-4" d="M173.55,181.29c1.52.87.77,2-.78,2.89-1.73,1-3.64,1.3-5.08.46s-.8-2,.78-2.91S172.09,180.44,173.55,181.29Zm-4.83,2.79c.51.3,1.44.09,2.72-.65s1.63-1.27,1.1-1.58-1.43-.11-2.74.66-1.59,1.28-1.08,1.57Z"/><path class="cls-4" d="M163.88,175.7c1.51.88.76,2-.78,2.89-1.74,1-3.64,1.3-5.09.47s-.79-2,.78-2.91A5.24,5.24,0,0,1,163.88,175.7Zm-4.83,2.8c.51.3,1.43.09,2.71-.66s1.64-1.26,1.1-1.57-1.43-.11-2.74.65-1.59,1.28-1.07,1.58Z"/><polygon class="cls-4" points="159.84 173.48 154.22 176.75 152.93 176.01 157.39 173.42 155.78 173.08 156.55 172.39 158.74 172.85 159.84 173.48"/><polygon class="cls-4" points="155 170.69 149.38 173.96 148.09 173.22 152.55 170.63 150.94 170.29 151.71 169.59 153.9 170.05 155 170.69"/><polygon class="cls-4" points="150.17 167.89 144.54 171.16 143.26 170.42 147.71 167.84 146.1 167.5 146.87 166.8 149.07 167.26 150.17 167.89"/><path class="cls-4" d="M134.14,170.57c1.51.87.76,2-.78,2.89-1.74,1-3.64,1.3-5.09.46s-.8-2,.78-2.9A5.22,5.22,0,0,1,134.14,170.57Zm-4.84,2.8c.51.29,1.44.08,2.72-.66s1.63-1.26,1.1-1.57-1.43-.12-2.73.65-1.6,1.28-1.09,1.58Z"/><path class="cls-4" d="M129.3,167.77c1.52.88.76,2-.78,2.9-1.74,1-3.64,1.29-5.08.46s-.81-2,.77-2.91S127.84,166.93,129.3,167.77Zm-4.83,2.81c.51.29,1.43.08,2.71-.67s1.64-1.26,1.1-1.56-1.43-.12-2.73.64-1.6,1.29-1.08,1.59Z"/><path class="cls-4" d="M124.46,165c1.52.88.76,2-.78,2.89-1.74,1-3.64,1.3-5.08.47s-.8-2,.77-2.91A5.25,5.25,0,0,1,124.46,165Zm-4.83,2.8c.51.3,1.44.09,2.72-.66s1.63-1.26,1.09-1.57-1.42-.11-2.73.65-1.59,1.28-1.08,1.58Z"/><polygon class="cls-4" points="120.42 162.76 114.8 166.03 113.52 165.29 117.97 162.7 116.36 162.37 117.13 161.67 119.33 162.13 120.42 162.76"/><path class="cls-4" d="M143.81,176.16c1.52.87.76,2-.78,2.89-1.74,1-3.64,1.29-5.08.46s-.8-2,.78-2.91A5.2,5.2,0,0,1,143.81,176.16ZM139,179c.51.29,1.43.08,2.71-.67s1.64-1.26,1.1-1.57-1.42-.11-2.73.65-1.6,1.29-1.08,1.59Z"/><polygon class="cls-4" points="139.78 173.93 134.15 177.2 132.87 176.46 137.32 173.87 135.71 173.54 136.48 172.84 138.68 173.3 139.78 173.93"/><path class="cls-4" d="M148.65,179c1.52.87.76,2-.78,2.89-1.74,1-3.64,1.3-5.08.46s-.8-2,.77-2.9A5.22,5.22,0,0,1,148.65,179Zm-4.83,2.8c.51.29,1.43.08,2.71-.66s1.64-1.27,1.1-1.58-1.42-.11-2.73.65-1.6,1.29-1.08,1.59Z"/><path class="cls-4" d="M168,190.12c1.52.87.76,2-.78,2.89-1.74,1-3.64,1.3-5.09.47s-.79-2,.78-2.91S166.53,189.27,168,190.12Zm-4.84,2.79c.52.3,1.44.09,2.72-.65s1.63-1.26,1.1-1.57-1.43-.12-2.73.65-1.6,1.28-1.09,1.57Z"/><g class="cls-5"><path class="cls-4" d="M153.48,181.74c1.52.88.77,2-.77,2.89-1.74,1-3.64,1.3-5.09.46s-.8-2,.78-2.9S152,180.89,153.48,181.74Zm-4.83,2.8c.51.29,1.44.08,2.72-.66s1.63-1.26,1.1-1.57-1.43-.12-2.74.65-1.59,1.28-1.08,1.58Z"/><polygon class="cls-4" points="159.12 185.11 153.5 188.37 152.22 187.63 156.67 185.04 155.06 184.71 155.83 184.01 158.03 184.47 159.12 185.11"/><path class="cls-4" d="M163.16,187.32c1.52.88.76,2-.78,2.9-1.74,1-3.64,1.29-5.08.46s-.8-2,.78-2.91S161.7,186.48,163.16,187.32Zm-4.84,2.8c.52.3,1.45.09,2.72-.66s1.64-1.26,1.1-1.56-1.43-.12-2.73.65-1.6,1.28-1.09,1.57Z"/></g><path class="cls-4" d="M80.21,151.47c1.52.88.77,2-.77,2.9a5.14,5.14,0,0,1-5.09.46c-1.47-.85-.81-2,.78-2.91S78.75,150.62,80.21,151.47Zm-4.83,2.8c.51.29,1.43.08,2.71-.66s1.64-1.26,1.1-1.57-1.43-.12-2.73.65-1.6,1.28-1.08,1.58Z"/><polygon class="cls-4" points="95.52 160.42 89.89 163.69 88.61 162.95 93.07 160.36 91.46 160.03 92.23 159.33 94.42 159.79 95.52 160.42"/><path class="cls-4" d="M89.89,157.05c1.51.88.76,2-.78,2.9-1.74,1-3.64,1.3-5.09.46s-.8-2,.78-2.9A5.25,5.25,0,0,1,89.89,157.05Zm-4.84,2.81c.51.29,1.43.08,2.72-.67s1.63-1.25,1.1-1.56-1.43-.12-2.74.65-1.59,1.28-1.08,1.58Z"/><polygon class="cls-4" points="85.85 154.84 80.22 158.11 78.94 157.37 83.4 154.78 81.78 154.44 82.56 153.74 84.75 154.2 85.85 154.84"/><polygon class="cls-4" points="100.36 163.22 94.73 166.48 93.45 165.74 97.91 163.16 96.3 162.82 97.06 162.12 99.26 162.58 100.36 163.22"/><g class="cls-5"><path class="cls-4" d="M104.39,165.44c1.53.87.77,2-.76,2.89-1.74,1-3.65,1.3-5.1.46s-.8-2,.79-2.91S102.93,164.59,104.39,165.44Zm-4.83,2.8c.51.29,1.44.08,2.72-.67s1.63-1.26,1.09-1.56-1.42-.13-2.73.64-1.59,1.29-1.08,1.59Z"/><polygon class="cls-4" points="110.03 168.8 104.41 172.07 103.13 171.33 107.58 168.74 105.97 168.41 106.74 167.71 108.93 168.17 110.03 168.8"/></g><polygon class="cls-4" points="114.87 171.59 109.25 174.86 107.96 174.13 112.42 171.53 110.81 171.2 111.58 170.5 113.77 170.96 114.87 171.59"/><path class="cls-4" d="M118.91,173.81c1.51.88.76,2-.78,2.9a5.14,5.14,0,0,1-5.09.46c-1.46-.85-.79-2,.78-2.91S117.44,173,118.91,173.81Zm-4.83,2.8c.51.3,1.43.09,2.71-.66s1.64-1.26,1.1-1.57-1.43-.11-2.74.65-1.59,1.28-1.07,1.58Z"/><path class="cls-4" d="M133.42,182.19c1.52.88.76,2-.78,2.89-1.74,1-3.64,1.3-5.08.47s-.8-2,.77-2.91A5.25,5.25,0,0,1,133.42,182.19Zm-4.83,2.8c.51.3,1.44.09,2.71-.66s1.64-1.26,1.1-1.57-1.43-.12-2.73.65-1.6,1.28-1.08,1.58Z"/><polygon class="cls-4" points="129.38 179.97 123.76 183.24 122.47 182.5 126.93 179.91 125.32 179.58 126.09 178.88 128.28 179.34 129.38 179.97"/><polygon class="cls-4" points="124.54 177.18 118.92 180.45 117.64 179.71 122.09 177.12 120.48 176.78 121.25 176.08 123.44 176.55 124.54 177.18"/><polygon class="cls-4" points="139.06 185.56 133.43 188.82 132.15 188.09 136.61 185.5 134.99 185.16 135.77 184.47 137.96 184.92 139.06 185.56"/><polygon class="cls-4" points="143.9 188.35 138.27 191.62 136.99 190.88 141.44 188.29 139.83 187.96 140.61 187.26 142.8 187.72 143.9 188.35"/><path class="cls-4" d="M152.77,193.36c1.52.88.76,2-.78,2.89-1.74,1-3.64,1.3-5.08.47s-.8-2,.77-2.91S151.31,192.52,152.77,193.36Zm-4.84,2.8c.52.3,1.44.09,2.72-.66s1.64-1.26,1.1-1.57-1.42-.11-2.73.65-1.59,1.29-1.09,1.58Z"/><polygon class="cls-4" points="148.73 191.14 143.1 194.41 141.83 193.67 146.28 191.09 144.67 190.75 145.44 190.05 147.63 190.51 148.73 191.14"/><path class="cls-4" d="M157.61,196.16c1.52.87.76,2-.78,2.89-1.74,1-3.64,1.3-5.09.46s-.8-2,.78-2.9A5.22,5.22,0,0,1,157.61,196.16ZM152.77,199c.51.3,1.44.09,2.72-.65s1.63-1.26,1.1-1.57-1.43-.12-2.73.65-1.6,1.28-1.09,1.57Z"/></g><g class="cls-6"><polygon points="200 144.1 157.4 168.86 59.04 112.07 102.67 86.43 200 144.1"/></g><g class="cls-5"><polygon class="cls-7" points="160.6 140.11 160.59 144.82 137.62 158.17 137.65 153.45 160.6 140.11"/><polygon class="cls-8" points="137.65 153.45 137.62 158.17 83.22 126.76 83.23 122.04 137.65 153.45"/><polygon class="cls-9" points="160.6 140.11 137.65 153.45 83.23 122.04 106.19 108.69 160.6 140.11"/><polygon class="cls-10" points="160.6 140.11 83.23 122.04 83.23 122.04 106.19 108.69 160.6 140.11"/></g><g class="cls-5"><polygon class="cls-7" points="139.4 144.67 143.48 142.29 143.6 99.85 139.52 102.21 139.4 144.67"/><polygon class="cls-11" points="139.52 102.21 143.6 99.85 106.64 78.5 102.56 80.87 139.52 102.21"/><polygon class="cls-8" points="102.56 80.87 102.43 123.33 139.4 144.67 139.52 102.21 102.56 80.87"/></g><polygon class="cls-8" points="193.51 66.25 197.44 65.15 87.63 1.76 83.7 2.85 193.51 66.25"/><polygon class="cls-9" points="83.7 2.85 66.8 86.11 176.62 149.51 193.51 66.25 83.7 2.85"/><polygon class="cls-12" points="86.64 9.49 71.63 84.48 173.32 143.31 188.9 67.34 86.64 9.49"/><g class="cls-6"><path d="M42.93,161.79c-15.14,8.74-15.21,22.92-.18,31.65s39.51,8.75,54.65,0,15.22-22.92.18-31.66S58.07,153.05,42.93,161.79Z"/></g><g class="cls-6"><path d="M42.93,161.79c-15.14,8.74-15.21,22.92-.18,31.65s39.51,8.75,54.65,0,15.22-22.92.18-31.66S58.07,153.05,42.93,161.79Z"/></g><path class="cls-13" d="M43,157.32c-14,8.09-14.08,21.21-.16,29.29s36.56,8.09,50.56,0,14.09-21.21.17-29.29S57,149.23,43,157.32Z"/><path class="cls-14" d="M43,150.89c-14,8.09-14.08,21.2-.16,29.29s36.56,8.09,50.56,0,14.09-21.21.17-29.29S57,142.8,43,150.89Z"/><polygon class="cls-7" points="176.62 149.5 180.56 148.4 197.44 65.14 193.51 66.24 176.62 149.5"/><g class="cls-15"><g class="cls-2"><polygon class="cls-16" points="106.46 70.63 106.44 73.85 99.03 69.57 99.05 66.35 106.46 70.63"/></g><polygon class="cls-16" points="113.84 85.48 113.83 88.72 99 80.15 99.01 76.92 113.84 85.48"/><polygon class="cls-16" points="119.03 93.78 119.02 97 98.99 85.44 98.99 82.21 119.03 93.78"/><polygon class="cls-16" points="122.21 90.31 122.2 93.55 115.88 89.89 115.89 86.66 122.21 90.31"/><polygon class="cls-16" points="113.89 69.61 113.88 72.85 99.05 64.28 99.06 61.05 113.89 69.61"/><polygon class="cls-16" points="123.16 85.57 123.16 88.79 99.02 74.85 99.02 71.63 123.16 85.57"/><polygon class="cls-16" points="122.26 74.44 122.24 77.68 115.92 74.03 115.93 70.79 122.26 74.44"/><polygon class="cls-16" points="130.44 84.48 130.43 87.7 108.79 75.21 108.81 71.98 130.44 84.48"/><polygon class="cls-16" points="122.27 69.16 122.26 72.38 99.06 58.99 99.07 55.77 122.27 69.16"/><polygon class="cls-16" points="132.31 80.25 132.29 83.48 125.13 79.34 125.14 76.11 132.31 80.25"/><polygon class="cls-16" points="128 67.18 127.99 70.4 106.5 57.98 106.5 54.76 128 67.18"/><polygon class="cls-16" points="135.78 76.96 135.76 80.18 125.14 74.05 125.16 70.82 135.78 76.96"/><polygon class="cls-16" points="139.5 68.51 139.49 71.74 125.18 63.48 125.19 60.24 139.5 68.51"/><polygon class="cls-16" points="135.83 55.81 135.82 59.03 125.2 52.89 125.22 49.68 135.83 55.81"/><polygon class="cls-16" points="140.81 63.97 140.79 67.2 125.19 58.2 125.2 54.96 140.81 63.97"/><polygon class="cls-16" points="139.55 52.64 139.54 55.88 125.22 47.61 125.23 44.38 139.55 52.64"/><g class="cls-17"><polygon class="cls-16" points="104.72 53.73 104.71 56.95 99.08 53.7 99.09 50.48 104.72 53.73"/><polygon class="cls-16" points="113.93 53.75 113.92 56.98 99.09 48.42 99.1 45.18 113.93 53.75"/><polygon class="cls-16" points="119.15 51.47 119.14 54.7 99.11 43.14 99.12 39.9 119.15 51.47"/></g><g class="cls-2"><polygon class="cls-16" points="113.96 43.18 113.95 46.4 99.12 37.83 99.13 34.62 113.96 43.18"/></g><g class="cls-2"><polygon class="cls-16" points="122.33 48.01 122.32 51.23 116 47.58 116.01 44.36 122.33 48.01"/></g><polygon class="cls-16" points="106.58 28.31 106.57 31.55 99.15 27.27 99.16 24.03 106.58 28.31"/><polygon class="cls-16" points="114 27.31 114 30.53 99.17 21.97 99.18 18.75 114 27.31"/><polygon class="cls-16" points="123.28 43.25 123.28 46.49 99.14 32.55 99.15 29.32 123.28 43.25"/><polygon class="cls-16" points="104.84 11.42 104.83 14.65 99.2 11.4 99.21 8.17 104.84 11.42"/><polygon class="cls-16" points="122.37 32.14 122.37 35.36 116.04 31.71 116.05 28.49 122.37 32.14"/><polygon class="cls-16" points="130.56 42.16 130.55 45.4 108.92 32.91 108.92 29.67 130.56 42.16"/><polygon class="cls-16" points="122.39 26.84 122.38 30.08 99.18 16.69 99.19 13.45 122.39 26.84"/><polygon class="cls-16" points="114.05 11.45 114.04 14.67 99.21 6.1 99.22 2.88 114.05 11.45"/><polygon class="cls-16" points="132.43 37.95 132.42 41.17 125.25 37.03 125.26 33.81 132.43 37.95"/><polygon class="cls-16" points="128.12 24.86 128.11 28.1 106.61 15.68 106.62 12.45 128.12 24.86"/><polygon class="cls-16" points="135.89 34.64 135.88 37.88 125.27 31.75 125.27 28.51 135.89 34.64"/><polygon class="cls-16" points="139.62 26.21 139.62 29.43 125.3 21.16 125.31 17.94 139.62 26.21"/><g class="cls-2"><polygon class="cls-16" points="122.42 16.28 122.41 19.5 116.08 15.85 116.09 12.63 122.42 16.28"/></g><g class="cls-2"><polygon class="cls-16" points="161.19 49.24 161.18 52.48 149.55 45.77 149.56 42.53 161.19 49.24"/></g><g class="cls-2"><polygon class="cls-16" points="161.16 59.83 161.15 63.06 152.69 58.18 152.69 54.94 161.16 59.83"/></g><g class="cls-2"><polygon class="cls-16" points="161.17 54.54 161.16 57.76 139.57 45.3 139.58 42.08 161.17 54.54"/></g><g class="cls-2"><polygon class="cls-16" points="161.21 43.96 161.2 47.2 153.78 42.91 153.79 39.68 161.21 43.96"/></g><g class="cls-2"><polygon class="cls-16" points="161.22 38.68 161.21 41.9 146.38 33.34 146.39 30.12 161.22 38.68"/></g><g class="cls-17"><polygon class="cls-16" points="135.71 98.11 135.7 101.34 125.09 95.21 125.09 91.97 135.71 98.11"/><polygon class="cls-16" points="140.68 106.28 140.68 109.5 125.07 100.5 125.08 97.28 140.68 106.28"/><polygon class="cls-16" points="139.43 94.96 139.42 98.18 125.1 89.91 125.11 86.69 139.43 94.96"/></g><g class="cls-2"><polygon class="cls-16" points="161.06 96.84 161.04 100.08 139.45 87.61 139.46 84.38 161.06 96.84"/></g><g class="cls-2"><polygon class="cls-16" points="161.09 86.28 161.08 89.5 153.66 85.22 153.67 81.99 161.09 86.28"/></g><g class="cls-17"><polygon class="cls-16" points="161.1 80.98 161.09 84.22 146.26 75.66 146.27 72.42 161.1 80.98"/><polygon class="cls-16" points="161.11 75.69 161.11 78.93 146.28 70.37 146.29 67.13 161.11 75.69"/><polygon class="cls-16" points="161.13 70.41 161.12 73.63 155.31 70.28 155.31 67.06 161.13 70.41"/></g><polygon class="cls-16" points="161.15 65.11 161.13 68.35 142.18 57.4 142.19 54.16 161.15 65.11"/><g class="cls-2"><polygon class="cls-16" points="122.3 58.58 122.29 61.81 115.97 58.16 115.97 54.92 122.3 58.58"/></g><g class="cls-2"><polygon class="cls-16" points="161.07 91.56 161.06 94.78 149.43 88.07 149.44 84.85 161.07 91.56"/></g><polygon class="cls-16" points="161.04 102.14 161.03 105.36 152.57 100.48 152.58 97.26 161.04 102.14"/><g class="cls-17"><polygon class="cls-16" points="161 118.01 160.99 121.23 146.15 112.67 146.16 109.45 161 118.01"/><polygon class="cls-16" points="161.01 112.71 161 115.95 155.19 112.59 155.2 109.36 161.01 112.71"/><polygon class="cls-16" points="161.03 107.43 161.01 110.65 142.06 99.7 142.06 96.48 161.03 107.43"/></g></g><g class="cls-6"><polygon points="15.65 119.72 25.94 125.69 36.29 119.72 26 113.74 15.65 119.72"/></g><g class="cls-18"><polygon class="cls-19" points="15.65 119.32 25.94 125.3 36.29 119.32 26 113.35 15.65 119.32"/></g><g class="cls-20"><polygon class="cls-19" points="17.02 113.5 25.94 118.68 34.92 113.5 26 108.32 17.02 113.5"/></g><g class="cls-21"><polygon class="cls-19" points="18.39 107.68 25.95 112.07 33.55 107.68 25.99 103.29 18.39 107.68"/></g><g class="cls-22"><polygon class="cls-19" points="19.76 101.86 25.95 105.45 32.18 101.86 25.99 98.26 19.76 101.86"/></g><g class="cls-23"><polygon class="cls-19" points="21.13 96.03 25.95 98.84 30.81 96.03 25.99 93.23 21.13 96.03"/></g><g class="cls-24"><polygon class="cls-19" points="22.5 90.21 25.96 92.22 29.44 90.21 25.98 88.2 22.5 90.21"/></g><g class="cls-25"><polygon class="cls-19" points="23.87 84.39 25.96 85.61 28.07 84.39 25.98 83.17 23.87 84.39"/></g><polygon class="cls-19" points="25.24 78.57 25.97 78.99 26.7 78.57 25.97 78.14 25.24 78.57"/><g class="cls-6"><polygon points="36.59 106.15 48.42 113.02 60.33 106.15 48.5 99.27 36.59 106.15"/></g><g class="cls-18"><polygon class="cls-26" points="36.59 105.69 48.42 112.57 60.33 105.69 48.5 98.82 36.59 105.69"/></g><g class="cls-20"><polygon class="cls-26" points="38.17 99 48.43 104.96 58.75 99 48.49 93.03 38.17 99"/></g><g class="cls-21"><polygon class="cls-26" points="39.75 92.3 48.43 97.35 57.18 92.3 48.49 87.25 39.75 92.3"/></g><g class="cls-22"><polygon class="cls-26" points="41.32 85.6 48.44 89.74 55.6 85.6 48.48 81.46 41.32 85.6"/></g><g class="cls-23"><polygon class="cls-26" points="42.9 78.9 48.44 82.13 54.03 78.9 48.48 75.68 42.9 78.9"/></g><g class="cls-24"><polygon class="cls-26" points="44.47 72.2 48.45 74.52 52.45 72.2 48.47 69.89 44.47 72.2"/></g><g class="cls-25"><polygon class="cls-26" points="46.05 65.51 48.45 66.9 50.87 65.51 48.47 64.11 46.05 65.51"/></g><polygon class="cls-26" points="47.62 58.81 48.45 59.29 49.3 58.81 48.46 58.32 47.62 58.81"/><g class="cls-6"><polygon points="-0.32 129.77 8.69 135 17.75 129.77 8.74 124.54 -0.32 129.77"/></g><g class="cls-18"><polygon class="cls-27" points="0.56 130.27 8.69 135 16.88 130.27 8.74 125.55 0.56 130.27"/></g><g class="cls-20"><polygon class="cls-27" points="1.64 125.67 8.69 129.77 15.8 125.67 8.74 121.57 1.64 125.67"/></g><g class="cls-21"><polygon class="cls-27" points="2.72 121.06 8.7 124.54 14.71 121.06 8.74 117.59 2.72 121.06"/></g><g class="cls-22"><polygon class="cls-27" points="3.81 116.46 8.7 119.3 13.63 116.46 8.74 113.61 3.81 116.46"/></g><g class="cls-23"><polygon class="cls-27" points="4.89 111.85 8.7 114.07 12.54 111.85 8.73 109.64 4.89 111.85"/></g><g class="cls-24"><polygon class="cls-27" points="5.97 107.25 8.71 108.83 11.46 107.25 8.73 105.66 5.97 107.25"/></g><g class="cls-25"><polygon class="cls-27" points="7.06 102.64 8.71 103.6 10.38 102.64 8.73 101.68 7.06 102.64"/></g><polygon class="cls-27" points="8.14 98.04 8.71 98.37 9.29 98.04 8.72 97.7 8.14 98.04"/><path class="cls-28" d="M69.26,166.17s-1.71,2.74.66,3.39,1.67-.83,6.83.48,4.55-1.6,4.44-2.2-2.37-1.42-3.49-1.72-5.64-1.34-5.64-1.34l-2.76.51Z"/><path class="cls-28" d="M66.13,158.6s2,.29,1.49,1.43-2.74,2.87-3,3.6-2.12,2.94-2.76,3.05c-1.06.18-2.16.12-2-2.82S63.5,158.47,66.13,158.6Z"/><path class="cls-29" d="M57.64,108.46s-3.85,5.69-1.35,15.3c0,0,4.3,14.51,3.53,17.36s-3.39,9.7-1.66,15.56c0,0,1.7,5.41,1.73,6.92,0,2.4,2.42,2.92,2.84,1.2.84-3.5.43-10.38,1-13.1,1.82-8.89,2.77-13.52,2.19-19.57s.12-19.76.12-19.76S59.17,113.08,57.64,108.46Z"/><path class="cls-29" d="M61.93,111.91s-3.3,6,.08,15.37c0,0,5.64,14,5.13,16.95s-2.47,10-.2,15.65c0,0,2.19,5.23,2.36,6.73.27,2.38,2.68,2.68,2.93.93.52-3.57-.53-10.37-.23-13.13,1-9,1.5-13.73.36-19.7S70.65,115,70.65,115,63.89,116.38,61.93,111.91Z"/><path class="cls-29" d="M80.9,86a21.15,21.15,0,0,1,2-3.25c.53-.43,2.75-2.32,5.06-1.82,1.25.26.1,1.22-1.53,2.17a2.71,2.71,0,0,0-1.76,2,9.56,9.56,0,0,1-1.61,3C82.61,88.63,80.9,86,80.9,86Z"/><path class="cls-30" d="M83.22,87.93a11.19,11.19,0,0,1,2.07-2.56c1-.68.44-1.88,1.18-2.31,1.27-.74,2.25-1.53,2-1.93-.92.63-2.21-.2-4,2.11a18.1,18.1,0,0,0-2.08,4.33C82.91,88,83,88.17,83.22,87.93Z"/><path class="cls-29" d="M82.36,87.46s3.1-1.83,4-2.52,1.17-1.52.89-1.55-2.91,1.88-3.31.78C83.7,83.59,82.76,87.1,82.36,87.46Z"/><path class="cls-3" d="M57.22,91.82s-1.22,3.79,4,4.37,14.94.5,16.91-1.31,5.48-7.44,5.48-7.44S81,87.29,80.89,85.1l-6.69,6S58,89.15,57.22,91.82Z"/><path class="cls-31" d="M57.22,91.82c.79-2.67,17-.7,17-.7l6.69-6a2.19,2.19,0,0,0,.88,1.7A40.94,40.94,0,0,1,77.1,93c-2,1.83-11.74,1.9-16.91,1.32a5.4,5.4,0,0,1-3.07-1.15A3.33,3.33,0,0,1,57.22,91.82Z"/><path class="cls-31" d="M71.45,92.07S60.69,81.5,57,84.57c0,0-3.27,2.5-1.92,11.15s3.46,10.18,1.35,15.37c0,0,4.22,8.46,15,4.61,0,0-.19-7.87,1.54-10s4.42-6.92,2.11-9.61S71.45,92.07,71.45,92.07Z"/><path class="cls-29" d="M69.79,86.55v4.08s-3.31,1.79-6-.51V86A14.28,14.28,0,0,0,69.79,86.55Z"/><path class="cls-29" d="M70.81,73.38s2.24,3,2,5.87c-.28,3.14.18,3.78,0,5.17a3.22,3.22,0,0,1-.71,2.06c-1,.94-3,1.28-5.67.29-3.28-1.19-6.73-5.69-5.32-9.74S65.89,70.08,70.81,73.38Z"/><path class="cls-30" d="M61.21,81.4c1.3-3.64,4.56-8,4.53-8.24A10.19,10.19,0,0,1,68,71.62,7.36,7.36,0,0,1,71.69,73a19.52,19.52,0,0,1,.68,2.18C71.59,76,70,77,69.76,77.74A9.55,9.55,0,0,0,70,83.29c.52,1.17-1.58,2.87-1.13,3.91a.23.23,0,0,1,0,.14,9.6,9.6,0,0,1-2.53-.57A9.46,9.46,0,0,1,61.21,81.4Z"/><path class="cls-32" d="M69.28,71.62s5.14,1.31,3.84,4.52-5.64,2.57-5.26,4.63,2.45,5.56,1,6.43-5.78,4.58-5.14,9.58,3.21,9.94,0,10.19-6.91-.07-8.83-3.4-2.18-3.2-1.16-11.66,2.95-12.81,4.87-15.37S64.4,70.41,69.28,71.62Z"/><path class="cls-33" d="M56.47,111.09s-4.08,3.78-2.44,17.2c1.5,12.35.77,13.88.77,13.88s10,5.51,19.21,1.28c0,0,1-2.81,0-14s-2.56-13.79-2.56-13.79S63.12,119.34,56.47,111.09Z"/><path class="cls-29" d="M90.41,106s2.56-.37,3.33-1.57,1.86-2.49,2-3.55-.08-1.38-.87-1.08a14.21,14.21,0,0,0-3.78,3.07,3.09,3.09,0,0,1-1.62,1.22C89.14,104.28,89,105.61,90.41,106Z"/><path class="cls-34" d="M89.51,104.08a3.09,3.09,0,0,0,1.62-1.22,14.21,14.21,0,0,1,3.78-3.07,1,1,0,0,1,.3-.09c-.57.74-1.53,2-2.39,3.11a7.71,7.71,0,0,1-3.5,2.23A.87.87,0,0,1,89.51,104.08Z"/><path class="cls-3" d="M69.05,94.82c.94-.82,3-1.39,4.81,1.36s6.85,10.49,6.85,10.49,8.46-2.8,9.48-3a1.8,1.8,0,0,0,.25,2.57s-7.83,6.09-10.65,5.17S65.22,98.2,69.05,94.82Z"/></g></svg>