<?xml version="1.0" encoding="utf-8"?>
<!-- Generator: Adobe Illustrator 23.0.1, SVG Export Plug-In . SVG Version: 6.00 Build 0)  -->
<svg version="1.1" id="Warstwa_1" xmlns="http://www.w3.org/2000/svg" xmlns:xlink="http://www.w3.org/1999/xlink" x="0px" y="0px"
	 width="45px" height="40px" viewBox="0 0 45 40" style="enable-background:new 0 0 45 40;" xml:space="preserve">
<style type="text/css">
	.st0{clip-path:url(#SVGID_2_);enable-background:new    ;}
	.st1{clip-path:url(#SVGID_4_);}
	.st2{clip-path:url(#SVGID_6_);fill:#000EE6;}
	.st3{clip-path:url(#SVGID_8_);enable-background:new    ;}
	.st4{clip-path:url(#SVGID_10_);}
	.st5{clip-path:url(#SVGID_12_);fill:#000EE6;}
</style>
<g>
	<defs>
		<path id="SVGID_1_" d="M17.4,27.3c0.4,0,0.7-0.2,0.9-0.5L35.4,3.9c0.7-0.7,1.7-1.1,2.7-1.1c1,0,2,0.4,2.8,1.1c1.5,1.5,1.5,4,0,5.5
			c0,0-0.1,0.1-0.1,0.1L20.1,36.1c-0.7,0.7-1.7,1.1-2.7,1.1l-0.1,0.1h-0.1L17,37.3c-1,0-2-0.5-2.8-1.3L4.2,26.7C3.4,26,3,25,3,23.9
			s0.4-2,1.1-2.8C4.9,20.4,5.9,20,6.9,20c1,0,2,0.4,2.8,1.1c0,0,0,0,0.1,0.1l6.6,5.8c0.2,0.2,0.6,0.3,0.9,0.3
			C17.3,27.4,17.3,27.4,17.4,27.3z M33.4,2c0,0-0.1,0.1-0.1,0.1L17,24l-5.5-4.8c-1.2-1.2-2.9-1.9-4.6-1.9c-1.8,0-3.4,0.7-4.7,1.9
			c-1.2,1.2-1.9,2.8-1.9,4.6V24c0,1.7,0.7,3.3,2,4.6l10.1,9.3c1.2,1.2,2.9,1.9,4.7,1.9c0.1,0,0.1,0,0.2,0c1.8,0,3.6-0.6,4.9-1.9
			c0,0,0.1-0.1,0.1-0.1l20.6-26.5c2.5-2.6,2.5-6.7-0.1-9.3c-1.2-1.2-2.9-1.9-4.7-1.9C36.3,0.1,34.7,0.8,33.4,2z"/>
	</defs>
	<clipPath id="SVGID_2_">
		<use xlink:href="#SVGID_1_"  style="overflow:visible;"/>
	</clipPath>
	<g class="st0">
		<g>
			<defs>
				<rect id="SVGID_3_" x="-4.7" y="-4.9" width="55" height="50"/>
			</defs>
			<clipPath id="SVGID_4_">
				<use xlink:href="#SVGID_3_"  style="overflow:visible;"/>
			</clipPath>
			<g class="st1">
				<defs>
					<rect id="SVGID_5_" x="0.3" y="0.1" width="45" height="40"/>
				</defs>
				<clipPath id="SVGID_6_">
					<use xlink:href="#SVGID_5_"  style="overflow:visible;"/>
				</clipPath>
				<rect x="-4.7" y="-4.9" class="st2" width="54.3" height="49.8"/>
			</g>
		</g>
	</g>
</g>
<g>
	<defs>
		<path id="SVGID_7_" d="M12.1,30.8c-0.2,0.2-0.2,0.5,0,0.6l1.5,1.4c0.1,0.1,0.2,0.1,0.3,0.1c0.1,0,0.2,0,0.3-0.1
			c0.2-0.2,0.2-0.5,0-0.6l-1.5-1.4c-0.1-0.1-0.2-0.1-0.3-0.1C12.3,30.7,12.2,30.7,12.1,30.8z M8.9,27.9c-0.2,0.2-0.2,0.5,0,0.6
			l1.1,1c0.1,0.1,0.2,0.1,0.3,0.1c0.1,0,0.2,0,0.3-0.1c0.2-0.2,0.2-0.5,0-0.6l-1.1-1c-0.1-0.1-0.2-0.1-0.3-0.1
			C9.1,27.8,9,27.8,8.9,27.9z M5.5,22.4c-0.4,0.4-0.6,0.9-0.6,1.5c0,0.5,0.2,1,0.6,1.4L7,26.7c0.1,0.1,0.2,0.1,0.3,0.1
			c0.1,0,0.2,0,0.3-0.1c0.2-0.2,0.2-0.5,0-0.6l-1.5-1.4c-0.2-0.2-0.3-0.5-0.3-0.8c0-0.3,0.1-0.6,0.3-0.8c0.2-0.2,0.2-0.5,0-0.6
			c-0.1-0.1-0.2-0.1-0.3-0.1C5.7,22.3,5.6,22.3,5.5,22.4z M32.2,16.1L31.5,17v0l-3.3,4.3c-0.2,0.2-0.1,0.5,0.1,0.6
			c0.1,0.1,0.2,0.1,0.3,0.1c0.1,0,0.3-0.1,0.4-0.2l3.3-4.3l0.7-0.9c0.2-0.2,0.1-0.5-0.1-0.6c-0.1-0.1-0.2-0.1-0.3-0.1
			C32.4,15.9,32.3,15.9,32.2,16.1z M34.6,12.9l-0.7,0.9c-0.2,0.2-0.1,0.5,0.1,0.6c0.1,0.1,0.2,0.1,0.3,0.1c0.1,0,0.3-0.1,0.4-0.2
			l0.7-0.9c0.2-0.2,0.1-0.5-0.1-0.6c-0.1-0.1-0.2-0.1-0.3-0.1C34.8,12.8,34.7,12.8,34.6,12.9z M36.1,11l-0.4,0.6
			c-0.2,0.2-0.1,0.5,0.1,0.6c0.1,0.1,0.2,0.1,0.3,0.1c0.1,0,0.3-0.1,0.4-0.2l0.4-0.6c0.2-0.2,0.1-0.5-0.1-0.6
			c-0.1-0.1-0.2-0.1-0.3-0.1C36.4,10.8,36.2,10.9,36.1,11z M36.8,5c-0.2,0.2-0.2,0.4-0.1,0.6c0.2,0.2,0.4,0.2,0.6,0.1
			c0.4-0.4,1.1-0.3,1.5,0.1c0.5,0.5,0.5,1.2,0,1.6c-0.2,0.2-0.3,0.3-0.3,0.4l-1.2,1.6c-0.1,0.2-0.1,0.5,0.1,0.6
			c0.1,0.1,0.2,0.1,0.3,0.1c0.1,0,0.3-0.1,0.4-0.2l1.2-1.6c0-0.1,0.1-0.2,0.3-0.3c0.8-0.8,0.8-2.1,0-2.9c-0.4-0.4-0.9-0.6-1.5-0.6
			C37.6,4.6,37.2,4.7,36.8,5z"/>
	</defs>
	<clipPath id="SVGID_8_">
		<use xlink:href="#SVGID_7_"  style="overflow:visible;"/>
	</clipPath>
	<g class="st3">
		<g>
			<defs>
				<rect id="SVGID_9_" x="-0.7" y="-0.9" width="46" height="39"/>
			</defs>
			<clipPath id="SVGID_10_">
				<use xlink:href="#SVGID_9_"  style="overflow:visible;"/>
			</clipPath>
			<g class="st4">
				<defs>
					<rect id="SVGID_11_" x="4.3" y="4.1" width="37" height="29"/>
				</defs>
				<clipPath id="SVGID_12_">
					<use xlink:href="#SVGID_11_"  style="overflow:visible;"/>
				</clipPath>
				<rect x="-0.1" y="-0.4" class="st5" width="45.3" height="38.4"/>
			</g>
		</g>
	</g>
</g>
</svg>
