<svg class="c-icon__svg" data-name="Layer 1" xmlns="http://www.w3.org/2000/svg" viewBox="0 0 74 74"><defs><style>.cls-2{opacity:0.6;}.cls-3{opacity:0.7;}</style></defs><title>Artboard 90</title><path class="cls-1" d="M41.63,74H32.37a3.47,3.47,0,0,1-3.46-3.47V54.34a3.46,3.46,0,0,1,3.46-3.46h9.26a3.46,3.46,0,0,1,3.46,3.46V70.53A3.47,3.47,0,0,1,41.63,74ZM32.37,53.19a1.16,1.16,0,0,0-1.15,1.15V70.53a1.16,1.16,0,0,0,1.15,1.16h9.26a1.16,1.16,0,0,0,1.15-1.16V54.34a1.16,1.16,0,0,0-1.15-1.15Z"></path><rect class="cls-1" x="35.84" y="55.5" width="2.31" height="4.63"></rect><path class="cls-1" d="M38.16,52H35.84V48.56a4.63,4.63,0,0,1,4.63-4.62h5.78a2.32,2.32,0,0,0,0-4.63H27.75a4.63,4.63,0,1,1,0-9.25h5.78a2.3,2.3,0,0,0,2.31-2.31V20.81h2.32v6.94a4.63,4.63,0,0,1-4.63,4.62H27.75a2.32,2.32,0,0,0,0,4.63h18.5a4.63,4.63,0,1,1,0,9.25H40.47a2.31,2.31,0,0,0-2.31,2.31Z"></path><path class="cls-2" d="M73.35,17.46,37.5.11a1.17,1.17,0,0,0-1,0L.65,17.46a1.16,1.16,0,0,0,.06,2.11L4.62,21.2v16a4.63,4.63,0,1,0,2.32,0v-15l6.93,2.89V38.16c0,4.46,8.82,8.09,19.66,8.09V43.94c-10.43,0-17.34-3.48-17.34-5.78,0-1,1.39-2.14,3.72-3.12L19,32.91a14.21,14.21,0,0,0-2.83,1.54V24.28c0-2.41,7.92-5.78,20.81-5.78s20.81,3.37,20.81,5.78V34.36c-3.31-2.56-9.84-4.3-17.34-4.3v2.32c10.43,0,17.34,3.47,17.34,5.78,0,1-1.47,2.21-4,3.2l.87,2.15c4.46-1.8,5.4-3.9,5.4-5.35V25.05l13.16-5.48a1.16,1.16,0,0,0,.06-2.11ZM8.09,41.62a2.31,2.31,0,1,1-2.31-2.31A2.31,2.31,0,0,1,8.09,41.62ZM59.74,22.71C57.62,18.46,47,16.19,37,16.19s-20.62,2.27-22.74,6.52L4,18.42l33-16,33,16Z"></path><rect class="cls-3" x="47.41" y="65.91" width="2.31" height="2.31"></rect><rect class="cls-3" x="47.41" y="61.28" width="2.31" height="2.31"></rect><rect class="cls-3" x="47.41" y="56.66" width="2.31" height="2.31"></rect><rect class="cls-3" x="24.28" y="65.91" width="2.31" height="2.31"></rect><rect class="cls-3" x="24.28" y="61.28" width="2.31" height="2.31"></rect><rect class="cls-3" x="24.28" y="56.66" width="2.31" height="2.31"></rect></svg>
