<svg class="c-icon__svg" data-name="Layer 1" xmlns="http://www.w3.org/2000/svg" viewBox="0 0 74 74"><rect class="cls-1" x="18.5" y="67.06" width="4.63" height="2.31"></rect><rect class="cls-1" x="12.72" y="4.63" width="2.31" height="2.31"></rect><rect class="cls-1" x="17.34" y="4.63" width="11.56" height="2.31"></rect><path class="cls-1" d="M41.62,53.19V4.62A4.62,4.62,0,0,0,37,0H4.62A4.62,4.62,0,0,0,0,4.62V69.38A4.62,4.62,0,0,0,4.62,74H37a4.62,4.62,0,0,0,4.62-4.62V60.12H39.31v2.32h-37V11.56h37V53.19ZM39.31,64.75v4.63A2.31,2.31,0,0,1,37,71.69H4.62a2.32,2.32,0,0,1-2.31-2.31V64.75Zm-37-55.5V4.62A2.32,2.32,0,0,1,4.62,2.31H37a2.31,2.31,0,0,1,2.31,2.31V9.25Z"></path><path class="cls-2" d="M59,37a1.14,1.14,0,0,1-.64-.19c-.59-.4-14.39-9.72-14.39-20.62V9.25a5.78,5.78,0,0,1,5.78-5.78V5.78a3.48,3.48,0,0,0-3.47,3.47v6.94c0,8.43,10,16.3,12.72,18.24,2.66-1.94,12.72-9.82,12.72-18.24V9.25a3.48,3.48,0,0,0-3.47-3.47V3.47A5.78,5.78,0,0,1,74,9.25v6.94c0,10.9-13.8,20.22-14.39,20.62A1.14,1.14,0,0,1,59,37Z"></path><path class="cls-2" d="M53.19,9.25H50.88a2.32,2.32,0,0,1-2.32-2.31V2.31A2.32,2.32,0,0,1,50.88,0h2.31A2.32,2.32,0,0,1,55.5,2.31V6.94A2.32,2.32,0,0,1,53.19,9.25ZM50.88,2.31V6.94h2.31V2.31Z"></path><path class="cls-2" d="M67.06,9.25H64.75a2.31,2.31,0,0,1-2.31-2.31V2.31A2.31,2.31,0,0,1,64.75,0h2.31a2.32,2.32,0,0,1,2.32,2.31V6.94A2.32,2.32,0,0,1,67.06,9.25ZM64.75,2.31V6.94h2.31V2.31Z"></path><path class="cls-2" d="M59,27.75c-8.29,0-15-5.19-15-11.56h2.31c0,5.1,5.71,9.25,12.72,9.25s12.72-4.15,12.72-9.25H74C74,22.56,67.26,27.75,59,27.75Z"></path><path class="cls-2" d="M20.81,32.38a8.1,8.1,0,1,1,8.1-8.1A8.11,8.11,0,0,1,20.81,32.38Zm0-13.88a5.78,5.78,0,1,0,5.78,5.78A5.78,5.78,0,0,0,20.81,18.5Z"></path><circle class="cls-1" cx="20.81" cy="24.28" r="2.31"></circle><path class="cls-2" d="M55.5,70.53a4.62,4.62,0,0,1-4.62-4.62V46.25a2.32,2.32,0,0,0-4.63,0v6.94a4.62,4.62,0,0,1-4.63,4.62H11.56a4.63,4.63,0,0,1,0-9.25h18.5a2.31,2.31,0,1,0,0-4.62H24.28a4.63,4.63,0,0,1-4.62-4.63V34.69H22v4.62a2.31,2.31,0,0,0,2.31,2.31h5.78a4.63,4.63,0,0,1,0,9.26H11.56a2.31,2.31,0,0,0,0,4.62H41.62a2.32,2.32,0,0,0,2.32-2.31V46.25a4.63,4.63,0,1,1,9.25,0V65.91a2.31,2.31,0,0,0,4.62,0V35.84h2.31V65.91A4.62,4.62,0,0,1,55.5,70.53Z"></path></svg>
