<svg xmlns="http://www.w3.org/2000/svg" class="u-hidden" xmlns:xlink="http://www.w3.org/1999/xlink"><symbol id="industrial--svg" viewBox="0 0 74 74" xmlns="http://www.w3.org/2000/svg"><defs><style>.cls-2{opacity:0.6;}</style></defs><rect class="cls-1" y="69.38" width="74" height="2.31"></rect><polygon class="cls-1" points="41.63 70.53 39.31 70.53 39.31 60.13 6.94 60.13 6.94 70.53 4.63 70.53 4.63 57.81 41.63 57.81 41.63 70.53"></polygon><path class="cls-1" d="M23.12,55.5a9.25,9.25,0,1,1,9.26-9.25A9.25,9.25,0,0,1,23.12,55.5Zm0-16.19a6.94,6.94,0,1,0,6.94,6.94A6.94,6.94,0,0,0,23.12,39.31Z"></path><rect class="cls-1" x="30.06" y="46.25" width="2.31" height="12.72"></rect><rect class="cls-1" x="5.68" y="52.03" width="12.93" height="2.31" transform="translate(-40.86 40.26) rotate(-63.43)"></rect><g class="cls-2"><circle class="cls-1" cx="12.72" cy="15.03" r="2.31"></circle></g><g class="cls-2"><circle class="cls-1" cx="23.13" cy="46.25" r="2.31"></circle></g><rect class="cls-1" x="22.55" y="18.43" width="2.31" height="23.27" transform="translate(-10.94 13.77) rotate(-26.57)"></rect><rect class="cls-1" x="10.98" y="20.47" width="2.31" height="24.96" transform="translate(-7.3 3.71) rotate(-13.39)"></rect><polygon class="cls-1" points="58.15 36.66 52.71 31.22 56.66 27.27 56.66 19.66 58.97 19.66 58.97 28.23 55.98 31.22 59.79 35.03 58.15 36.66"></polygon><polygon class="cls-1" points="64.41 36.66 62.78 35.03 66.58 31.22 63.59 28.23 63.59 19.66 65.91 19.66 65.91 27.27 69.85 31.22 64.41 36.66"></polygon><polygon class="cls-1" points="49.72 20.81 18.5 20.81 18.5 18.5 47.41 18.5 47.41 11.56 17.34 11.56 17.34 9.25 49.72 9.25 49.72 20.81"></polygon><path class="cls-1" d="M61.28,22A6.94,6.94,0,1,1,68.22,15,7,7,0,0,1,61.28,22Zm0-11.56A4.63,4.63,0,1,0,65.91,15,4.62,4.62,0,0,0,61.28,10.41Z"></path><g class="cls-2"><circle class="cls-1" cx="61.28" cy="15.03" r="2.31"></circle></g><rect class="cls-1" x="48.56" y="11.56" width="6.94" height="2.31"></rect><rect class="cls-1" x="48.56" y="16.19" width="6.94" height="2.31"></rect><path class="cls-1" d="M12.72,23.12A8.09,8.09,0,1,1,20.81,15,8.11,8.11,0,0,1,12.72,23.12Zm0-13.87A5.78,5.78,0,1,0,18.5,15,5.78,5.78,0,0,0,12.72,9.25Z"></path><g class="cls-2"><path class="cls-1" d="M67.06,57.81H46.25V50.88H67.06ZM48.56,55.5H64.75V53.19H48.56Z"></path></g><g class="cls-2"><rect class="cls-1" x="64.75" y="60.13" width="2.31" height="2.31"></rect></g><g class="cls-2"><rect class="cls-1" x="46.25" y="64.75" width="2.31" height="2.31"></rect></g><g class="cls-2"><polygon class="cls-1" points="71.69 70.53 69.38 70.53 69.38 48.56 34.69 48.56 34.69 46.25 71.69 46.25 71.69 70.53"></polygon></g><g class="cls-2"><rect class="cls-1" x="34.69" y="50.88" width="9.25" height="2.31"></rect></g><g class="cls-2"><polygon class="cls-1" points="67.06 67.06 60.13 67.06 60.13 62.44 57.81 62.44 57.81 67.06 50.88 67.06 50.88 62.44 46.25 62.44 46.25 60.13 53.19 60.13 53.19 64.75 55.5 64.75 55.5 60.13 62.44 60.13 62.44 64.75 67.06 64.75 67.06 67.06"></polygon></g><g class="cls-2"><rect class="cls-1" x="57.81" y="24.28" width="6.94" height="2.31"></rect></g></symbol></svg>
<svg class="c-icon__nav-services">
				<use xmlns:xlink="http://www.w3.org/1999/xlink" xlink:href="#industrial--svg"></use>
			</svg>
