<?xml version="1.0" encoding="utf-8"?>
<!-- Generator: Adobe Illustrator 23.0.1, SVG Export Plug-In . SVG Version: 6.00 Build 0)  -->
<svg version="1.1" id="Warstwa_1" xmlns="http://www.w3.org/2000/svg" xmlns:xlink="http://www.w3.org/1999/xlink" x="0px" y="0px"
	 width="44px" height="45px" viewBox="0 0 44 45" style="enable-background:new 0 0 44 45;" xml:space="preserve">
<style type="text/css">
	.st0{fill-rule:evenodd;clip-rule:evenodd;fill:#000EE6;}
	.st1{clip-path:url(#SVGID_3_);enable-background:new    ;}
	.st2{clip-path:url(#SVGID_5_);}
	.st3{clip-path:url(#SVGID_7_);fill:#000EE6;}
	.st4{clip-path:url(#SVGID_9_);enable-background:new    ;}
	.st5{clip-path:url(#SVGID_11_);}
	.st6{clip-path:url(#SVGID_13_);fill:#000EE6;}
	.st7{clip-path:url(#SVGID_15_);enable-background:new    ;}
	.st8{clip-path:url(#SVGID_17_);}
	.st9{clip-path:url(#SVGID_19_);fill:#000EE6;}
	.st10{clip-path:url(#SVGID_21_);enable-background:new    ;}
	.st11{clip-path:url(#SVGID_23_);}
	.st12{clip-path:url(#SVGID_25_);fill:#000EE6;}
	.st13{clip-path:url(#SVGID_27_);enable-background:new    ;}
	.st14{clip-path:url(#SVGID_29_);}
	.st15{clip-path:url(#SVGID_31_);fill:#000EE6;}
	.st16{clip-path:url(#SVGID_33_);enable-background:new    ;}
	.st17{clip-path:url(#SVGID_35_);}
	.st18{clip-path:url(#SVGID_37_);fill:#000EE6;}
	.st19{clip-path:url(#SVGID_39_);enable-background:new    ;}
	.st20{clip-path:url(#SVGID_41_);}
	.st21{clip-path:url(#SVGID_43_);fill:#000EE6;}
	.st22{clip-path:url(#SVGID_45_);enable-background:new    ;}
	.st23{clip-path:url(#SVGID_47_);}
	.st24{clip-path:url(#SVGID_49_);fill:#000EE6;}
	.st25{clip-path:url(#SVGID_51_);enable-background:new    ;}
	.st26{clip-path:url(#SVGID_53_);}
	.st27{clip-path:url(#SVGID_55_);fill:#000EE6;}
	.st28{clip-path:url(#SVGID_57_);enable-background:new    ;}
	.st29{clip-path:url(#SVGID_59_);}
	.st30{clip-path:url(#SVGID_61_);fill:#000EE6;}
	.st31{clip-path:url(#SVGID_63_);enable-background:new    ;}
	.st32{clip-path:url(#SVGID_65_);}
	.st33{clip-path:url(#SVGID_67_);fill:#000EE6;}
	.st34{clip-path:url(#SVGID_69_);enable-background:new    ;}
	.st35{clip-path:url(#SVGID_71_);}
	.st36{clip-path:url(#SVGID_73_);fill:#000EE6;}
	.st37{clip-path:url(#SVGID_75_);enable-background:new    ;}
	.st38{clip-path:url(#SVGID_77_);}
	.st39{clip-path:url(#SVGID_79_);fill:#000EE6;}
	.st40{clip-path:url(#SVGID_81_);enable-background:new    ;}
	.st41{clip-path:url(#SVGID_83_);}
	.st42{clip-path:url(#SVGID_85_);fill:#000EE6;}
	.st43{clip-path:url(#SVGID_87_);enable-background:new    ;}
	.st44{clip-path:url(#SVGID_89_);}
	.st45{clip-path:url(#SVGID_91_);fill:#000EE6;}
	.st46{clip-path:url(#SVGID_93_);enable-background:new    ;}
	.st47{clip-path:url(#SVGID_95_);}
	.st48{clip-path:url(#SVGID_97_);fill:#000EE6;}
	.st49{clip-path:url(#SVGID_99_);enable-background:new    ;}
	.st50{clip-path:url(#SVGID_101_);}
	.st51{clip-path:url(#SVGID_103_);fill:#000EE6;}
	.st52{clip-path:url(#SVGID_105_);enable-background:new    ;}
	.st53{clip-path:url(#SVGID_107_);}
	.st54{clip-path:url(#SVGID_109_);fill:#000EE6;}
	.st55{clip-path:url(#SVGID_111_);enable-background:new    ;}
	.st56{clip-path:url(#SVGID_113_);}
	.st57{clip-path:url(#SVGID_115_);fill:#000EE6;}
	.st58{clip-path:url(#SVGID_117_);enable-background:new    ;}
	.st59{clip-path:url(#SVGID_119_);}
	.st60{clip-path:url(#SVGID_121_);fill:#000EE6;}
	.st61{clip-path:url(#SVGID_123_);enable-background:new    ;}
	.st62{clip-path:url(#SVGID_125_);}
	.st63{clip-path:url(#SVGID_127_);fill:#000EE6;}
	.st64{clip-path:url(#SVGID_129_);enable-background:new    ;}
	.st65{clip-path:url(#SVGID_131_);}
	.st66{clip-path:url(#SVGID_133_);fill:#000EE6;}
	.st67{clip-path:url(#SVGID_135_);enable-background:new    ;}
	.st68{clip-path:url(#SVGID_137_);}
	.st69{clip-path:url(#SVGID_139_);fill:#000EE6;}
	.st70{clip-path:url(#SVGID_141_);enable-background:new    ;}
	.st71{clip-path:url(#SVGID_143_);}
	.st72{clip-path:url(#SVGID_145_);fill:#000EE6;}
</style>
<g>
	<g>
		<path id="SVGID_1_" class="st0" d="M2.9,40.2V18.4h38.3v21.7c0,1.1-0.9,2-2,2H4.9C3.8,42.2,2.9,41.3,2.9,40.2z M35,11.7V8.3h4.1
			c1.1,0,2,0.9,2,2v6.8H2.9v-6.8c0-1.1,0.9-2,2-2h3.5v3.4c0,0.7,0.6,1.4,1.4,1.4c0.8,0,1.4-0.6,1.4-1.4V8.3h21.2v3.4
			c0,0.7,0.6,1.4,1.4,1.4C34.4,13,35,12.4,35,11.7z M33.6,0.1c-0.7,0-1.3,0.6-1.3,1.4v4.1H11.1V1.5c0-0.7-0.6-1.3-1.3-1.4H9.7
			C9,0.1,8.4,0.7,8.4,1.5v4.1H4.9c-2.6,0-4.7,2.1-4.7,4.7v29.9c0,2.6,2.1,4.7,4.7,4.7h34.4c2.6,0,4.7-2.1,4.7-4.7v-30
			c0-2.6-2.1-4.7-4.7-4.7H35v-4C35,0.7,34.4,0.1,33.6,0.1L33.6,0.1z"/>
	</g>
</g>
<g>
	<g>
		<defs>
			<path id="SVGID_2_" d="M37.6,37.2c0,1.5-0.5,1.6-1.2,1.6h-4.3c-0.4,0-0.7,0.3-0.7,0.7s0.3,0.7,0.7,0.7h4.3c1.6,0,2.5-0.9,2.6-2.6
				l0.1-0.1v-0.2c0-0.4-0.4-0.7-0.8-0.7C37.9,36.5,37.6,36.8,37.6,37.2z"/>
		</defs>
		<clipPath id="SVGID_3_">
			<use xlink:href="#SVGID_2_"  style="overflow:visible;"/>
		</clipPath>
		<g class="st1">
			<g>
				<g>
					<defs>
						<rect id="SVGID_4_" x="26.1" y="31" width="18" height="15"/>
					</defs>
					<clipPath id="SVGID_5_">
						<use xlink:href="#SVGID_4_"  style="overflow:visible;"/>
					</clipPath>
					<g class="st2">
						<g>
							<defs>
								<rect id="SVGID_6_" x="31.1" y="36" width="8" height="5"/>
							</defs>
							<clipPath id="SVGID_7_">
								<use xlink:href="#SVGID_6_"  style="overflow:visible;"/>
							</clipPath>
							<rect x="26.4" y="31.5" class="st3" width="17.7" height="13.6"/>
						</g>
					</g>
				</g>
			</g>
		</g>
	</g>
</g>
<g>
	<g>
		<defs>
			<path id="SVGID_8_" d="M37.8,33.8c-0.1,0.1-0.2,0.3-0.2,0.5s0.1,0.4,0.2,0.5c0.1,0.1,0.3,0.2,0.5,0.2s0.4-0.1,0.5-0.2
				c0.1-0.1,0.2-0.3,0.2-0.5s-0.1-0.4-0.2-0.5c-0.1-0.1-0.3-0.2-0.5-0.2S38,33.7,37.8,33.8z"/>
		</defs>
		<clipPath id="SVGID_9_">
			<use xlink:href="#SVGID_8_"  style="overflow:visible;"/>
		</clipPath>
		<g class="st4">
			<g>
				<g>
					<defs>
						<rect id="SVGID_10_" x="32.1" y="28" width="12" height="13"/>
					</defs>
					<clipPath id="SVGID_11_">
						<use xlink:href="#SVGID_10_"  style="overflow:visible;"/>
					</clipPath>
					<g class="st5">
						<g>
							<defs>
								<rect id="SVGID_12_" x="37.1" y="33" width="2" height="3"/>
							</defs>
							<clipPath id="SVGID_13_">
								<use xlink:href="#SVGID_12_"  style="overflow:visible;"/>
							</clipPath>
							<rect x="32.6" y="28.6" class="st6" width="11.4" height="11.3"/>
						</g>
					</g>
				</g>
			</g>
		</g>
	</g>
</g>
<g>
	<g>
		<defs>
			<path id="SVGID_14_" d="M9.6,23.2c-0.4,0-0.7,0.3-0.7,0.7c0,0.4,0.3,0.7,0.7,0.7h0.7c0.4,0,0.7-0.3,0.7-0.7
				c0-0.4-0.3-0.7-0.7-0.7H9.6z"/>
		</defs>
		<clipPath id="SVGID_15_">
			<use xlink:href="#SVGID_14_"  style="overflow:visible;"/>
		</clipPath>
		<g class="st7">
			<g>
				<g>
					<defs>
						<rect id="SVGID_16_" x="3.1" y="18" width="13" height="12"/>
					</defs>
					<clipPath id="SVGID_17_">
						<use xlink:href="#SVGID_16_"  style="overflow:visible;"/>
					</clipPath>
					<g class="st8">
						<g>
							<defs>
								<rect id="SVGID_18_" x="8.1" y="23" width="3" height="2"/>
							</defs>
							<clipPath id="SVGID_19_">
								<use xlink:href="#SVGID_18_"  style="overflow:visible;"/>
							</clipPath>
							<rect x="3.9" y="18.2" class="st9" width="12.1" height="11.4"/>
						</g>
					</g>
				</g>
			</g>
		</g>
	</g>
</g>
<g>
	<g>
		<defs>
			<path id="SVGID_20_" d="M14.3,23.2c-0.4,0-0.7,0.3-0.7,0.7c0,0.4,0.3,0.7,0.7,0.7H15c0.4,0,0.7-0.3,0.7-0.7
				c0-0.4-0.3-0.7-0.7-0.7H14.3z"/>
		</defs>
		<clipPath id="SVGID_21_">
			<use xlink:href="#SVGID_20_"  style="overflow:visible;"/>
		</clipPath>
		<g class="st10">
			<g>
				<g>
					<defs>
						<rect id="SVGID_22_" x="8.1" y="18" width="13" height="12"/>
					</defs>
					<clipPath id="SVGID_23_">
						<use xlink:href="#SVGID_22_"  style="overflow:visible;"/>
					</clipPath>
					<g class="st11">
						<g>
							<defs>
								<rect id="SVGID_24_" x="13.1" y="23" width="3" height="2"/>
							</defs>
							<clipPath id="SVGID_25_">
								<use xlink:href="#SVGID_24_"  style="overflow:visible;"/>
							</clipPath>
							<rect x="8.7" y="18.2" class="st12" width="12.1" height="11.4"/>
						</g>
					</g>
				</g>
			</g>
		</g>
	</g>
</g>
<g>
	<g>
		<defs>
			<path id="SVGID_26_" d="M19.1,23.2c-0.4,0-0.7,0.3-0.7,0.7c0,0.4,0.3,0.7,0.7,0.7h0.7c0.4,0,0.7-0.3,0.7-0.7
				c0-0.4-0.3-0.7-0.7-0.7H19.1z"/>
		</defs>
		<clipPath id="SVGID_27_">
			<use xlink:href="#SVGID_26_"  style="overflow:visible;"/>
		</clipPath>
		<g class="st13">
			<g>
				<g>
					<defs>
						<rect id="SVGID_28_" x="13.1" y="18" width="13" height="12"/>
					</defs>
					<clipPath id="SVGID_29_">
						<use xlink:href="#SVGID_28_"  style="overflow:visible;"/>
					</clipPath>
					<g class="st14">
						<g>
							<defs>
								<rect id="SVGID_30_" x="18.1" y="23" width="3" height="2"/>
							</defs>
							<clipPath id="SVGID_31_">
								<use xlink:href="#SVGID_30_"  style="overflow:visible;"/>
							</clipPath>
							<rect x="13.4" y="18.2" class="st15" width="12" height="11.4"/>
						</g>
					</g>
				</g>
			</g>
		</g>
	</g>
</g>
<g>
	<g>
		<defs>
			<path id="SVGID_32_" d="M23.2,23.2c-0.4,0-0.7,0.3-0.7,0.7c0,0.4,0.3,0.7,0.7,0.7h0.7c0.4,0,0.7-0.3,0.7-0.7
				c0-0.4-0.3-0.7-0.7-0.7H23.2z"/>
		</defs>
		<clipPath id="SVGID_33_">
			<use xlink:href="#SVGID_32_"  style="overflow:visible;"/>
		</clipPath>
		<g class="st16">
			<g>
				<g>
					<defs>
						<rect id="SVGID_34_" x="17.1" y="18" width="13" height="12"/>
					</defs>
					<clipPath id="SVGID_35_">
						<use xlink:href="#SVGID_34_"  style="overflow:visible;"/>
					</clipPath>
					<g class="st17">
						<g>
							<defs>
								<rect id="SVGID_36_" x="22.1" y="23" width="3" height="2"/>
							</defs>
							<clipPath id="SVGID_37_">
								<use xlink:href="#SVGID_36_"  style="overflow:visible;"/>
							</clipPath>
							<rect x="17.5" y="18.2" class="st18" width="12" height="11.4"/>
						</g>
					</g>
				</g>
			</g>
		</g>
	</g>
</g>
<g>
	<g>
		<defs>
			<path id="SVGID_38_" d="M28,23.2c-0.4,0-0.7,0.3-0.7,0.7c0,0.4,0.3,0.7,0.7,0.7h0.7c0.4,0,0.7-0.3,0.7-0.7c0-0.4-0.3-0.7-0.7-0.7
				H28z"/>
		</defs>
		<clipPath id="SVGID_39_">
			<use xlink:href="#SVGID_38_"  style="overflow:visible;"/>
		</clipPath>
		<g class="st19">
			<g>
				<g>
					<defs>
						<rect id="SVGID_40_" x="22.1" y="18" width="13" height="12"/>
					</defs>
					<clipPath id="SVGID_41_">
						<use xlink:href="#SVGID_40_"  style="overflow:visible;"/>
					</clipPath>
					<g class="st20">
						<g>
							<defs>
								<rect id="SVGID_42_" x="27.1" y="23" width="3" height="2"/>
							</defs>
							<clipPath id="SVGID_43_">
								<use xlink:href="#SVGID_42_"  style="overflow:visible;"/>
							</clipPath>
							<rect x="22.3" y="18.2" class="st21" width="12" height="11.4"/>
						</g>
					</g>
				</g>
			</g>
		</g>
	</g>
</g>
<g>
	<g>
		<defs>
			<path id="SVGID_44_" d="M32.8,23.2c-0.4,0-0.7,0.3-0.7,0.7c0,0.4,0.3,0.7,0.7,0.7h0.7c0.4,0,0.7-0.3,0.7-0.7
				c0-0.4-0.3-0.7-0.7-0.7H32.8z"/>
		</defs>
		<clipPath id="SVGID_45_">
			<use xlink:href="#SVGID_44_"  style="overflow:visible;"/>
		</clipPath>
		<g class="st22">
			<g>
				<g>
					<defs>
						<rect id="SVGID_46_" x="26.1" y="18" width="14" height="12"/>
					</defs>
					<clipPath id="SVGID_47_">
						<use xlink:href="#SVGID_46_"  style="overflow:visible;"/>
					</clipPath>
					<g class="st23">
						<g>
							<defs>
								<rect id="SVGID_48_" x="31.1" y="23" width="4" height="2"/>
							</defs>
							<clipPath id="SVGID_49_">
								<use xlink:href="#SVGID_48_"  style="overflow:visible;"/>
							</clipPath>
							<rect x="27.1" y="18.2" class="st24" width="12" height="11.4"/>
						</g>
					</g>
				</g>
			</g>
		</g>
	</g>
</g>
<g>
	<g>
		<defs>
			<path id="SVGID_50_" d="M9.6,27.2c-0.4,0-0.7,0.3-0.7,0.7c0,0.4,0.3,0.7,0.7,0.7h0.7c0.4,0,0.7-0.3,0.7-0.7
				c0-0.4-0.3-0.7-0.7-0.7H9.6z"/>
		</defs>
		<clipPath id="SVGID_51_">
			<use xlink:href="#SVGID_50_"  style="overflow:visible;"/>
		</clipPath>
		<g class="st25">
			<g>
				<g>
					<defs>
						<rect id="SVGID_52_" x="3.1" y="22" width="13" height="12"/>
					</defs>
					<clipPath id="SVGID_53_">
						<use xlink:href="#SVGID_52_"  style="overflow:visible;"/>
					</clipPath>
					<g class="st26">
						<g>
							<defs>
								<rect id="SVGID_54_" x="8.1" y="27" width="3" height="2"/>
							</defs>
							<clipPath id="SVGID_55_">
								<use xlink:href="#SVGID_54_"  style="overflow:visible;"/>
							</clipPath>
							<rect x="3.9" y="22.2" class="st27" width="12.1" height="11.4"/>
						</g>
					</g>
				</g>
			</g>
		</g>
	</g>
</g>
<g>
	<g>
		<defs>
			<path id="SVGID_56_" d="M14.3,27.2c-0.4,0-0.7,0.3-0.7,0.7c0,0.4,0.3,0.7,0.7,0.7H15c0.4,0,0.7-0.3,0.7-0.7
				c0-0.4-0.3-0.7-0.7-0.7H14.3z"/>
		</defs>
		<clipPath id="SVGID_57_">
			<use xlink:href="#SVGID_56_"  style="overflow:visible;"/>
		</clipPath>
		<g class="st28">
			<g>
				<g>
					<defs>
						<rect id="SVGID_58_" x="8.1" y="22" width="13" height="12"/>
					</defs>
					<clipPath id="SVGID_59_">
						<use xlink:href="#SVGID_58_"  style="overflow:visible;"/>
					</clipPath>
					<g class="st29">
						<g>
							<defs>
								<rect id="SVGID_60_" x="13.1" y="27" width="3" height="2"/>
							</defs>
							<clipPath id="SVGID_61_">
								<use xlink:href="#SVGID_60_"  style="overflow:visible;"/>
							</clipPath>
							<rect x="8.7" y="22.2" class="st30" width="12.1" height="11.4"/>
						</g>
					</g>
				</g>
			</g>
		</g>
	</g>
</g>
<g>
	<g>
		<defs>
			<path id="SVGID_62_" d="M19.1,27.2c-0.4,0-0.7,0.3-0.7,0.7c0,0.4,0.3,0.7,0.7,0.7h0.7c0.4,0,0.7-0.3,0.7-0.7
				c0-0.4-0.3-0.7-0.7-0.7H19.1z"/>
		</defs>
		<clipPath id="SVGID_63_">
			<use xlink:href="#SVGID_62_"  style="overflow:visible;"/>
		</clipPath>
		<g class="st31">
			<g>
				<g>
					<defs>
						<rect id="SVGID_64_" x="13.1" y="22" width="13" height="12"/>
					</defs>
					<clipPath id="SVGID_65_">
						<use xlink:href="#SVGID_64_"  style="overflow:visible;"/>
					</clipPath>
					<g class="st32">
						<g>
							<defs>
								<rect id="SVGID_66_" x="18.1" y="27" width="3" height="2"/>
							</defs>
							<clipPath id="SVGID_67_">
								<use xlink:href="#SVGID_66_"  style="overflow:visible;"/>
							</clipPath>
							<rect x="13.4" y="22.2" class="st33" width="12" height="11.4"/>
						</g>
					</g>
				</g>
			</g>
		</g>
	</g>
</g>
<g>
	<g>
		<defs>
			<path id="SVGID_68_" d="M23.2,27.2c-0.4,0-0.7,0.3-0.7,0.7c0,0.4,0.3,0.7,0.7,0.7h0.7c0.4,0,0.7-0.3,0.7-0.7
				c0-0.4-0.3-0.7-0.7-0.7H23.2z"/>
		</defs>
		<clipPath id="SVGID_69_">
			<use xlink:href="#SVGID_68_"  style="overflow:visible;"/>
		</clipPath>
		<g class="st34">
			<g>
				<g>
					<defs>
						<rect id="SVGID_70_" x="17.1" y="22" width="13" height="12"/>
					</defs>
					<clipPath id="SVGID_71_">
						<use xlink:href="#SVGID_70_"  style="overflow:visible;"/>
					</clipPath>
					<g class="st35">
						<g>
							<defs>
								<rect id="SVGID_72_" x="22.1" y="27" width="3" height="2"/>
							</defs>
							<clipPath id="SVGID_73_">
								<use xlink:href="#SVGID_72_"  style="overflow:visible;"/>
							</clipPath>
							<rect x="17.5" y="22.2" class="st36" width="12" height="11.4"/>
						</g>
					</g>
				</g>
			</g>
		</g>
	</g>
</g>
<g>
	<g>
		<defs>
			<path id="SVGID_74_" d="M28,27.2c-0.4,0-0.7,0.3-0.7,0.7c0,0.4,0.3,0.7,0.7,0.7h0.7c0.4,0,0.7-0.3,0.7-0.7c0-0.4-0.3-0.7-0.7-0.7
				H28z"/>
		</defs>
		<clipPath id="SVGID_75_">
			<use xlink:href="#SVGID_74_"  style="overflow:visible;"/>
		</clipPath>
		<g class="st37">
			<g>
				<g>
					<defs>
						<rect id="SVGID_76_" x="22.1" y="22" width="13" height="12"/>
					</defs>
					<clipPath id="SVGID_77_">
						<use xlink:href="#SVGID_76_"  style="overflow:visible;"/>
					</clipPath>
					<g class="st38">
						<g>
							<defs>
								<rect id="SVGID_78_" x="27.1" y="27" width="3" height="2"/>
							</defs>
							<clipPath id="SVGID_79_">
								<use xlink:href="#SVGID_78_"  style="overflow:visible;"/>
							</clipPath>
							<rect x="22.3" y="22.2" class="st39" width="12" height="11.4"/>
						</g>
					</g>
				</g>
			</g>
		</g>
	</g>
</g>
<g>
	<g>
		<defs>
			<path id="SVGID_80_" d="M32.8,27.2c-0.4,0-0.7,0.3-0.7,0.7c0,0.4,0.3,0.7,0.7,0.7h0.7c0.4,0,0.7-0.3,0.7-0.7
				c0-0.4-0.3-0.7-0.7-0.7H32.8z"/>
		</defs>
		<clipPath id="SVGID_81_">
			<use xlink:href="#SVGID_80_"  style="overflow:visible;"/>
		</clipPath>
		<g class="st40">
			<g>
				<g>
					<defs>
						<rect id="SVGID_82_" x="26.1" y="22" width="14" height="12"/>
					</defs>
					<clipPath id="SVGID_83_">
						<use xlink:href="#SVGID_82_"  style="overflow:visible;"/>
					</clipPath>
					<g class="st41">
						<g>
							<defs>
								<rect id="SVGID_84_" x="31.1" y="27" width="4" height="2"/>
							</defs>
							<clipPath id="SVGID_85_">
								<use xlink:href="#SVGID_84_"  style="overflow:visible;"/>
							</clipPath>
							<rect x="27.1" y="22.2" class="st42" width="12" height="11.4"/>
						</g>
					</g>
				</g>
			</g>
		</g>
	</g>
</g>
<g>
	<g>
		<defs>
			<path id="SVGID_86_" d="M9.6,35.4c-0.4,0-0.7,0.3-0.7,0.7s0.3,0.7,0.7,0.7h0.7c0.4,0,0.7-0.3,0.7-0.7s-0.3-0.7-0.7-0.7H9.6z"/>
		</defs>
		<clipPath id="SVGID_87_">
			<use xlink:href="#SVGID_86_"  style="overflow:visible;"/>
		</clipPath>
		<g class="st43">
			<g>
				<g>
					<defs>
						<rect id="SVGID_88_" x="3.1" y="30" width="13" height="12"/>
					</defs>
					<clipPath id="SVGID_89_">
						<use xlink:href="#SVGID_88_"  style="overflow:visible;"/>
					</clipPath>
					<g class="st44">
						<g>
							<defs>
								<rect id="SVGID_90_" x="8.1" y="35" width="3" height="2"/>
							</defs>
							<clipPath id="SVGID_91_">
								<use xlink:href="#SVGID_90_"  style="overflow:visible;"/>
							</clipPath>
							<rect x="3.9" y="30.4" class="st45" width="12.1" height="11.4"/>
						</g>
					</g>
				</g>
			</g>
		</g>
	</g>
</g>
<g>
	<g>
		<defs>
			<path id="SVGID_92_" d="M14.3,35.4c-0.4,0-0.7,0.3-0.7,0.7s0.3,0.7,0.7,0.7H15c0.4,0,0.7-0.3,0.7-0.7s-0.3-0.7-0.7-0.7H14.3z"/>
		</defs>
		<clipPath id="SVGID_93_">
			<use xlink:href="#SVGID_92_"  style="overflow:visible;"/>
		</clipPath>
		<g class="st46">
			<g>
				<g>
					<defs>
						<rect id="SVGID_94_" x="8.1" y="30" width="13" height="12"/>
					</defs>
					<clipPath id="SVGID_95_">
						<use xlink:href="#SVGID_94_"  style="overflow:visible;"/>
					</clipPath>
					<g class="st47">
						<g>
							<defs>
								<rect id="SVGID_96_" x="13.1" y="35" width="3" height="2"/>
							</defs>
							<clipPath id="SVGID_97_">
								<use xlink:href="#SVGID_96_"  style="overflow:visible;"/>
							</clipPath>
							<rect x="8.7" y="30.4" class="st48" width="12.1" height="11.4"/>
						</g>
					</g>
				</g>
			</g>
		</g>
	</g>
</g>
<g>
	<g>
		<defs>
			<path id="SVGID_98_" d="M19.1,35.4c-0.4,0-0.7,0.3-0.7,0.7s0.3,0.7,0.7,0.7h0.7c0.4,0,0.7-0.3,0.7-0.7s-0.3-0.7-0.7-0.7H19.1z"/>
		</defs>
		<clipPath id="SVGID_99_">
			<use xlink:href="#SVGID_98_"  style="overflow:visible;"/>
		</clipPath>
		<g class="st49">
			<g>
				<g>
					<defs>
						<rect id="SVGID_100_" x="13.1" y="30" width="13" height="12"/>
					</defs>
					<clipPath id="SVGID_101_">
						<use xlink:href="#SVGID_100_"  style="overflow:visible;"/>
					</clipPath>
					<g class="st50">
						<g>
							<defs>
								<rect id="SVGID_102_" x="18.1" y="35" width="3" height="2"/>
							</defs>
							<clipPath id="SVGID_103_">
								<use xlink:href="#SVGID_102_"  style="overflow:visible;"/>
							</clipPath>
							<rect x="13.4" y="30.4" class="st51" width="12" height="11.4"/>
						</g>
					</g>
				</g>
			</g>
		</g>
	</g>
</g>
<g>
	<g>
		<defs>
			<path id="SVGID_104_" d="M23.2,35.4c-0.4,0-0.7,0.3-0.7,0.7s0.3,0.7,0.7,0.7h0.7c0.4,0,0.7-0.3,0.7-0.7s-0.3-0.7-0.7-0.7H23.2z"
				/>
		</defs>
		<clipPath id="SVGID_105_">
			<use xlink:href="#SVGID_104_"  style="overflow:visible;"/>
		</clipPath>
		<g class="st52">
			<g>
				<g>
					<defs>
						<rect id="SVGID_106_" x="17.1" y="30" width="13" height="12"/>
					</defs>
					<clipPath id="SVGID_107_">
						<use xlink:href="#SVGID_106_"  style="overflow:visible;"/>
					</clipPath>
					<g class="st53">
						<g>
							<defs>
								<rect id="SVGID_108_" x="22.1" y="35" width="3" height="2"/>
							</defs>
							<clipPath id="SVGID_109_">
								<use xlink:href="#SVGID_108_"  style="overflow:visible;"/>
							</clipPath>
							<rect x="17.5" y="30.4" class="st54" width="12" height="11.4"/>
						</g>
					</g>
				</g>
			</g>
		</g>
	</g>
</g>
<g>
	<g>
		<defs>
			<path id="SVGID_110_" d="M9.6,31.3c-0.4,0-0.7,0.3-0.7,0.7s0.3,0.7,0.7,0.7h0.7c0.4,0,0.7-0.3,0.7-0.7c0-0.4-0.3-0.7-0.7-0.7H9.6
				z"/>
		</defs>
		<clipPath id="SVGID_111_">
			<use xlink:href="#SVGID_110_"  style="overflow:visible;"/>
		</clipPath>
		<g class="st55">
			<g>
				<g>
					<defs>
						<rect id="SVGID_112_" x="3.1" y="26" width="13" height="12"/>
					</defs>
					<clipPath id="SVGID_113_">
						<use xlink:href="#SVGID_112_"  style="overflow:visible;"/>
					</clipPath>
					<g class="st56">
						<g>
							<defs>
								<rect id="SVGID_114_" x="8.1" y="31" width="3" height="2"/>
							</defs>
							<clipPath id="SVGID_115_">
								<use xlink:href="#SVGID_114_"  style="overflow:visible;"/>
							</clipPath>
							<rect x="3.9" y="26.3" class="st57" width="12.1" height="11.4"/>
						</g>
					</g>
				</g>
			</g>
		</g>
	</g>
</g>
<g>
	<g>
		<defs>
			<path id="SVGID_116_" d="M14.3,31.3c-0.4,0-0.7,0.3-0.7,0.7s0.3,0.7,0.7,0.7H15c0.4,0,0.7-0.3,0.7-0.7c0-0.4-0.3-0.7-0.7-0.7
				H14.3z"/>
		</defs>
		<clipPath id="SVGID_117_">
			<use xlink:href="#SVGID_116_"  style="overflow:visible;"/>
		</clipPath>
		<g class="st58">
			<g>
				<g>
					<defs>
						<rect id="SVGID_118_" x="8.1" y="26" width="13" height="12"/>
					</defs>
					<clipPath id="SVGID_119_">
						<use xlink:href="#SVGID_118_"  style="overflow:visible;"/>
					</clipPath>
					<g class="st59">
						<g>
							<defs>
								<rect id="SVGID_120_" x="13.1" y="31" width="3" height="2"/>
							</defs>
							<clipPath id="SVGID_121_">
								<use xlink:href="#SVGID_120_"  style="overflow:visible;"/>
							</clipPath>
							<rect x="8.7" y="26.3" class="st60" width="12.1" height="11.4"/>
						</g>
					</g>
				</g>
			</g>
		</g>
	</g>
</g>
<g>
	<g>
		<defs>
			<path id="SVGID_122_" d="M19.1,31.3c-0.4,0-0.7,0.3-0.7,0.7s0.3,0.7,0.7,0.7h0.7c0.4,0,0.7-0.3,0.7-0.7c0-0.4-0.3-0.7-0.7-0.7
				H19.1z"/>
		</defs>
		<clipPath id="SVGID_123_">
			<use xlink:href="#SVGID_122_"  style="overflow:visible;"/>
		</clipPath>
		<g class="st61">
			<g>
				<g>
					<defs>
						<rect id="SVGID_124_" x="13.1" y="26" width="13" height="12"/>
					</defs>
					<clipPath id="SVGID_125_">
						<use xlink:href="#SVGID_124_"  style="overflow:visible;"/>
					</clipPath>
					<g class="st62">
						<g>
							<defs>
								<rect id="SVGID_126_" x="18.1" y="31" width="3" height="2"/>
							</defs>
							<clipPath id="SVGID_127_">
								<use xlink:href="#SVGID_126_"  style="overflow:visible;"/>
							</clipPath>
							<rect x="13.4" y="26.3" class="st63" width="12" height="11.4"/>
						</g>
					</g>
				</g>
			</g>
		</g>
	</g>
</g>
<g>
	<g>
		<defs>
			<path id="SVGID_128_" d="M23.2,31.3c-0.4,0-0.7,0.3-0.7,0.7s0.3,0.7,0.7,0.7h0.7c0.4,0,0.7-0.3,0.7-0.7c0-0.4-0.3-0.7-0.7-0.7
				H23.2z"/>
		</defs>
		<clipPath id="SVGID_129_">
			<use xlink:href="#SVGID_128_"  style="overflow:visible;"/>
		</clipPath>
		<g class="st64">
			<g>
				<g>
					<defs>
						<rect id="SVGID_130_" x="17.1" y="26" width="13" height="12"/>
					</defs>
					<clipPath id="SVGID_131_">
						<use xlink:href="#SVGID_130_"  style="overflow:visible;"/>
					</clipPath>
					<g class="st65">
						<g>
							<defs>
								<rect id="SVGID_132_" x="22.1" y="31" width="3" height="2"/>
							</defs>
							<clipPath id="SVGID_133_">
								<use xlink:href="#SVGID_132_"  style="overflow:visible;"/>
							</clipPath>
							<rect x="17.5" y="26.3" class="st66" width="12" height="11.4"/>
						</g>
					</g>
				</g>
			</g>
		</g>
	</g>
</g>
<g>
	<g>
		<defs>
			<path id="SVGID_134_" d="M28,31.3c-0.4,0-0.7,0.3-0.7,0.7s0.3,0.7,0.7,0.7h0.7c0.4,0,0.7-0.3,0.7-0.7c0-0.4-0.3-0.7-0.7-0.7H28z"
				/>
		</defs>
		<clipPath id="SVGID_135_">
			<use xlink:href="#SVGID_134_"  style="overflow:visible;"/>
		</clipPath>
		<g class="st67">
			<g>
				<g>
					<defs>
						<rect id="SVGID_136_" x="22.1" y="26" width="13" height="12"/>
					</defs>
					<clipPath id="SVGID_137_">
						<use xlink:href="#SVGID_136_"  style="overflow:visible;"/>
					</clipPath>
					<g class="st68">
						<g>
							<defs>
								<rect id="SVGID_138_" x="27.1" y="31" width="3" height="2"/>
							</defs>
							<clipPath id="SVGID_139_">
								<use xlink:href="#SVGID_138_"  style="overflow:visible;"/>
							</clipPath>
							<rect x="22.3" y="26.3" class="st69" width="12" height="11.4"/>
						</g>
					</g>
				</g>
			</g>
		</g>
	</g>
</g>
<g>
	<g>
		<defs>
			<path id="SVGID_140_" d="M32.8,31.3c-0.4,0-0.7,0.3-0.7,0.7s0.3,0.7,0.7,0.7h0.7c0.4,0,0.7-0.3,0.7-0.7c0-0.4-0.3-0.7-0.7-0.7
				H32.8z"/>
		</defs>
		<clipPath id="SVGID_141_">
			<use xlink:href="#SVGID_140_"  style="overflow:visible;"/>
		</clipPath>
		<g class="st70">
			<g>
				<g>
					<defs>
						<rect id="SVGID_142_" x="26.1" y="26" width="14" height="12"/>
					</defs>
					<clipPath id="SVGID_143_">
						<use xlink:href="#SVGID_142_"  style="overflow:visible;"/>
					</clipPath>
					<g class="st71">
						<g>
							<defs>
								<rect id="SVGID_144_" x="31.1" y="31" width="4" height="2"/>
							</defs>
							<clipPath id="SVGID_145_">
								<use xlink:href="#SVGID_144_"  style="overflow:visible;"/>
							</clipPath>
							<rect x="27.1" y="26.3" class="st72" width="12" height="11.4"/>
						</g>
					</g>
				</g>
			</g>
		</g>
	</g>
</g>
</svg>
