<?xml version="1.0" encoding="utf-8"?>
<!-- Generator: Adobe Illustrator 23.0.1, SVG Export Plug-In . SVG Version: 6.00 Build 0)  -->
<svg version="1.1" id="Warstwa_1" xmlns="http://www.w3.org/2000/svg" xmlns:xlink="http://www.w3.org/1999/xlink" x="0px" y="0px"
	 width="41px" height="52px" viewBox="0 0 41 52" style="enable-background:new 0 0 41 52;" xml:space="preserve">
<style type="text/css">
	.st0{fill:none;}
	.st1{fill:#000EE6;}
	.st2{fill:#FFFFFF;}
</style>
<g>
	<path class="st0" d="M9.9,44.1h4.2V5.8V5.7H9.9c-1.2,0-2.1,1-2.1,2.1v0.1V42C7.8,43.2,8.7,44.1,9.9,44.1z"/>
	<path class="st0" d="M7.2,46.1l-2.5,2.5C5.4,49,6.1,49.3,7,49.3h20.9c0.9,0,1.7-0.3,2.5-0.8l2.3-1.6H9.8
		C8.8,46.9,7.9,46.6,7.2,46.1z"/>
	<path class="st0" d="M5,42V11l-1.5,2.3C3,14,2.7,14.9,2.7,15.8v29.1c0,0.7,0.2,1.4,0.5,2l2.4-2.5C5.2,43.7,5,42.9,5,42z"/>
	<path class="st0" d="M35.6,5.8h-2.3v7c0,0.2-0.1,0.5-0.3,0.6c-0.1,0.1-0.3,0.1-0.4,0.1c-0.1,0-0.2-0.1-0.3-0.1l-3.9-1.9l-3.9,1.9
		c-0.2,0.1-0.5,0.1-0.7,0s-0.3-0.4-0.3-0.6v-7H23h-5.8h-1.7v38.3h1.4h18.7c1.2,0,2.1-1,2.1-2.1V7.9C37.7,6.7,36.7,5.8,35.6,5.8z
		 M34.6,31.6c0.2-0.1,0.3-0.2,0.5-0.2s0.4,0.1,0.5,0.2s0.2,0.3,0.2,0.5c0,0.2-0.1,0.4-0.2,0.5c-0.1,0.1-0.3,0.2-0.5,0.2
		s-0.4-0.1-0.5-0.2c-0.1-0.1-0.2-0.3-0.2-0.5S34.5,31.7,34.6,31.6z M36.3,37.9c0,2.9-1.8,4.8-3.8,4.8H21c-0.4,0-0.7-0.3-0.7-0.7
		s0.3-0.7,0.7-0.7h11.5c1.1,0,2.4-1.3,2.4-3.4v-2.2c0-0.4,0.4-0.7,0.7-0.7c0.4,0,0.7,0.3,0.7,0.7C36.3,35.7,36.3,37.9,36.3,37.9z"/>
	<path class="st1" d="M35.6,2.9h-2.3v-1V0.5h-1.4h-6.5h-0.5h-1.3h-0.1l0,0c-0.4,0-0.7,0.1-0.9,0.4l-2,2H9.9c-2.3,0-4.3,1.7-4.8,3.8
		l-3.5,5.4c-0.7,1.1-1.1,2.4-1.1,3.8V45c0,3.6,2.9,6.6,6.6,6.6h20.7c1.4,0,2.7-0.4,3.8-1.2l5.4-3.7c2-0.6,3.5-2.5,3.5-4.7V7.8
		C40.5,5.1,38.3,2.9,35.6,2.9z M24.9,5.8V2.9V2.3V1.9H25h6.9v1v2.9v5.9l-3.2-1.5c-0.1,0-0.2-0.1-0.3-0.1c-0.1,0-0.2,0-0.3,0.1
		l-3.2,1.5V5.8z M7.8,7.9L7.8,7.9c0-1.2,0.9-2.2,2.1-2.2h4.2v0.1v38.3H9.9c-1.2,0-2.1-0.9-2.1-2.1C7.8,42,7.8,7.9,7.8,7.9z
		 M2.7,44.9V15.8c0-0.9,0.3-1.8,0.8-2.5L5,11v31c0,0.9,0.2,1.7,0.6,2.4l-2.4,2.5C2.9,46.3,2.7,45.6,2.7,44.9z M30.4,48.5
		c-0.8,0.5-1.6,0.8-2.5,0.8H7c-0.9,0-1.6-0.3-2.3-0.7l2.5-2.5c0.8,0.5,1.7,0.8,2.6,0.8h22.9L30.4,48.5z M37.7,42
		c0,1.1-0.9,2.1-2.1,2.1H16.9h-1.4V5.8h1.7H23h0.5v7c0,0.2,0.1,0.5,0.3,0.6c0.2,0.1,0.5,0.1,0.7,0l3.9-1.9l3.9,1.9
		c0.1,0,0.2,0.1,0.3,0.1s0.3,0,0.4-0.1c0.2-0.1,0.3-0.4,0.3-0.6v-7h2.3c1.1,0,2.1,0.9,2.1,2.1C37.7,7.9,37.7,42,37.7,42z"/>
	<path class="st1" d="M35.6,35c-0.3,0-0.7,0.3-0.7,0.7v2.2c0,2.1-1.3,3.4-2.4,3.4H21c-0.4,0-0.7,0.3-0.7,0.7s0.3,0.7,0.7,0.7h11.5
		c2,0,3.8-1.9,3.8-4.8v-2.2C36.3,35.3,36,35,35.6,35z"/>
	<path class="st1" d="M35.1,32.8c0.2,0,0.4-0.1,0.5-0.2c0.1-0.1,0.2-0.3,0.2-0.5s-0.1-0.4-0.2-0.5c-0.1-0.1-0.3-0.2-0.5-0.2
		s-0.3,0.1-0.5,0.2c-0.1,0.1-0.2,0.3-0.2,0.5s0.1,0.4,0.2,0.5C34.7,32.7,34.9,32.8,35.1,32.8z"/>
	<path class="st2" d="M28.4,10.1c0.1,0,0.2,0.1,0.3,0.1l3.2,1.5V5.8V2.9v-1H25h-0.1v0.4v0.6v2.9v5.9l3.2-1.5
		C28.2,10.1,28.3,10.1,28.4,10.1z"/>
</g>
</svg>
