<svg class="c-icon__svg" data-name="Layer 1" xmlns="http://www.w3.org/2000/svg" viewBox="0 0 74 74"><defs><style>.cls-2{opacity:0.7;}</style></defs><title>Artboard 93</title><path class="cls-1" d="M67.52,35.94c-6.11-2.62-9.91.64-12,2.94V34.63c1.66-.17,4.76-.73,6.61-2.58,2.56-2.56,2.65-7.53,2.65-7.74l0-1.19-1.19,0c-.21,0-5.18.09-7.74,2.65-.12.12-.24.26-.35.39V23.12H53.19V34.71h0v4.17c-2.11-2.3-5.91-5.56-12-2.94-6.48,2.78-6.48,10.39-6.48,14.94a30.5,30.5,0,0,0,.59,6l2.26-.46A28.11,28.11,0,0,1,37,50.88c0-4.24,0-10.64,5.08-12.82,5.35-2.29,8.32,1.13,10.1,3.17.82.93,1.36,1.55,2.16,1.55s1.35-.62,2.17-1.55c1.78-2,4.75-5.46,10.1-3.17,5.08,2.18,5.08,8.58,5.08,12.82,0,9.54-4.33,15.78-8.62,17.74a7.13,7.13,0,0,1-8-1.27l-.75-.66-.76.65a7.05,7.05,0,0,1-5,2v2.31a9,9,0,0,0,5.79-2,9.34,9.34,0,0,0,9.68,1C70,68,74,60,74,50.88,74,46.33,74,38.72,67.52,35.94Zm-10-8.52c1.17-1.16,3.34-1.68,4.86-1.87-.19,1.52-.7,3.69-1.87,4.87s-3.35,1.68-4.87,1.87C55.81,30.77,56.32,28.59,57.49,27.42Z"></path><rect class="cls-1" y="69.38" width="74" height="2.31"></rect><path class="cls-1" d="M31.22,71.69C13.13,71.69,0,59,0,41.62c0-6.18,2.41-14.45,5-17a1.15,1.15,0,0,1,.82-.34H8.09a1.17,1.17,0,0,1,.52.12c.3.15,3,1.63,3,6.82,0,17,10,28.9,24.28,28.9,5.51,0,14.54-3.36,14.63-3.39a1.13,1.13,0,0,1,1.22.27l1.16,1.15a1.15,1.15,0,0,1,.3,1.1C52,64.06,44.93,71.69,31.22,71.69ZM6.3,26.59c-1.87,2.36-4,9.37-4,15C2.31,58,14.2,69.38,31.22,69.38c11.21,0,18-5.7,19.5-10.08l-.14-.15c-2.31.82-9.69,3.29-14.74,3.29C20.19,62.44,9.25,49.6,9.25,31.22c0-3-1.07-4.25-1.51-4.63Z"></path><path class="cls-1" d="M9.25,26.59H6.94v-1l0,.11-2.26-.45L5.8,19.43a1.17,1.17,0,0,1,1.14-.93H8.09a1.16,1.16,0,0,1,1.16,1.16Z"></path><rect class="cls-2" x="55.5" y="47.41" width="2.31" height="2.31"></rect><rect class="cls-2" x="57.81" y="52.03" width="2.31" height="2.31"></rect><rect class="cls-2" x="53.19" y="52.03" width="2.31" height="2.31"></rect><rect class="cls-2" x="55.5" y="56.66" width="2.31" height="2.31"></rect><rect class="cls-2" x="48.56" y="52.03" width="2.31" height="2.31"></rect><rect class="cls-2" x="50.88" y="47.41" width="2.31" height="2.31"></rect><polygon class="cls-2" points="20.81 48.56 18.5 48.56 18.5 2.31 69.38 2.31 69.38 32.38 67.06 32.38 67.06 4.63 20.81 4.63 20.81 48.56"></polygon><rect class="cls-2" x="39.31" y="10.41" width="23.13" height="2.31"></rect><rect class="cls-2" x="39.31" y="15.03" width="13.69" height="2.31"></rect><path class="cls-1" d="M34.69,16.19V9.25H33.53a5.76,5.76,0,0,0-3.47,1.17V6.94H27.75V15a5.75,5.75,0,0,0-3.47-1.16H23.12v6.93a4.64,4.64,0,0,0,4.63,4.63v3.48a5.76,5.76,0,0,0-3.47-1.17H23.12v6.94a4.63,4.63,0,0,0,4.63,4.62v4.63h2.31V34.69a4.64,4.64,0,0,0,4.63-4.63V23.12H33.53a5.76,5.76,0,0,0-3.47,1.17V20.81A4.63,4.63,0,0,0,34.69,16.19Zm-2.31-4.43v4.43a2.32,2.32,0,0,1-2.32,2.31V15A3.48,3.48,0,0,1,32.38,11.76Zm-6.94,9V16.39a3.47,3.47,0,0,1,2.31,3.27v3.46A2.3,2.3,0,0,1,25.44,20.81Zm0,13.88V30.26a3.48,3.48,0,0,1,2.31,3.27V37A2.31,2.31,0,0,1,25.44,34.69Zm6.94-9v4.42a2.32,2.32,0,0,1-2.32,2.32V28.91A3.47,3.47,0,0,1,32.38,25.64Z"></path></svg>
