<?xml version="1.0" encoding="utf-8"?>
<!-- Generator: Adobe Illustrator 23.0.1, SVG Export Plug-In . SVG Version: 6.00 Build 0)  -->
<svg version="1.1" id="Warstwa_1" xmlns="http://www.w3.org/2000/svg" xmlns:xlink="http://www.w3.org/1999/xlink" x="0px" y="0px"
	 width="47px" height="42px" viewBox="0 0 47 42" style="enable-background:new 0 0 47 42;" xml:space="preserve">
<style type="text/css">
	.st0{clip-path:url(#SVGID_2_);enable-background:new    ;}
	.st1{clip-path:url(#SVGID_4_);}
	.st2{clip-path:url(#SVGID_6_);fill:#000EE6;}
	.st3{clip-path:url(#SVGID_8_);enable-background:new    ;}
	.st4{clip-path:url(#SVGID_10_);}
	.st5{clip-path:url(#SVGID_12_);fill:#000EE6;}
	.st6{clip-path:url(#SVGID_14_);enable-background:new    ;}
	.st7{clip-path:url(#SVGID_16_);}
	.st8{clip-path:url(#SVGID_18_);fill:#000EE6;}
</style>
<g>
	<g>
		<defs>
			<path id="SVGID_1_" d="M2.9,37V5c0-1.2,0.6-2.2,1.8-2.2h12.4L18.6,9c0.2,0.6,0.8,1.1,1.4,1.1h21.4c1.2,0,2.6,1,2.6,2.2V37
				c0,1.2-1.4,2.1-2.6,2.1H4.7C3.5,39.1,2.9,38.2,2.9,37z M4.7,0C1.9,0,0,2.3,0,5.1v32c0,2.8,1.9,5,4.7,5h36.8c2.8,0,5.5-2.2,5.5-5
				V12.3c0-2.8-2.7-5.1-5.5-5.1H21.2l-1.5-6.1C19.5,0.5,19,0,18.3,0H4.7z"/>
		</defs>
		<clipPath id="SVGID_2_">
			<use xlink:href="#SVGID_1_"  style="overflow:visible;"/>
		</clipPath>
		<g class="st0">
			<g>
				<g>
					<defs>
						<rect id="SVGID_3_" x="-5" y="-5" width="58" height="52"/>
					</defs>
					<clipPath id="SVGID_4_">
						<use xlink:href="#SVGID_3_"  style="overflow:visible;"/>
					</clipPath>
					<g class="st1">
						<g>
							<defs>
								<rect id="SVGID_5_" y="0" width="47" height="42"/>
							</defs>
							<clipPath id="SVGID_6_">
								<use xlink:href="#SVGID_5_"  style="overflow:visible;"/>
							</clipPath>
							<rect x="-5" y="-5" class="st2" width="57" height="52"/>
						</g>
					</g>
				</g>
			</g>
		</g>
	</g>
</g>
<g>
	<g>
		<defs>
			<path id="SVGID_7_" d="M39.2,31.7v2.5c0,1.5-0.9,1.6-1.6,1.6h-7.2c-0.4,0-0.7,0.3-0.7,0.7s0.3,0.7,0.7,0.7h7.2c1.7,0,3-1,3-3
				v-2.5c0-0.4-0.3-0.7-0.7-0.7S39.2,31.3,39.2,31.7z"/>
		</defs>
		<clipPath id="SVGID_8_">
			<use xlink:href="#SVGID_7_"  style="overflow:visible;"/>
		</clipPath>
		<g class="st3">
			<g>
				<g>
					<defs>
						<rect id="SVGID_9_" x="24" y="26" width="22" height="17"/>
					</defs>
					<clipPath id="SVGID_10_">
						<use xlink:href="#SVGID_9_"  style="overflow:visible;"/>
					</clipPath>
					<g class="st4">
						<g>
							<defs>
								<rect id="SVGID_11_" x="29" y="31" width="12" height="7"/>
							</defs>
							<clipPath id="SVGID_12_">
								<use xlink:href="#SVGID_11_"  style="overflow:visible;"/>
							</clipPath>
							<rect x="24.7" y="26" class="st5" width="20.8" height="16.2"/>
						</g>
					</g>
				</g>
			</g>
		</g>
	</g>
</g>
<g>
	<g>
		<defs>
			<path id="SVGID_13_" d="M39,28c-0.1,0.1-0.2,0.3-0.2,0.5s0.1,0.4,0.2,0.5c0.1,0.1,0.3,0.2,0.5,0.2s0.4-0.1,0.5-0.2
				s0.2-0.3,0.2-0.5S40.1,28.1,40,28c-0.1-0.1-0.3-0.2-0.5-0.2C39.4,27.8,39.2,27.9,39,28z"/>
		</defs>
		<clipPath id="SVGID_14_">
			<use xlink:href="#SVGID_13_"  style="overflow:visible;"/>
		</clipPath>
		<g class="st6">
			<g>
				<g>
					<defs>
						<rect id="SVGID_15_" x="33" y="22" width="13" height="13"/>
					</defs>
					<clipPath id="SVGID_16_">
						<use xlink:href="#SVGID_15_"  style="overflow:visible;"/>
					</clipPath>
					<g class="st7">
						<g>
							<defs>
								<rect id="SVGID_17_" x="38" y="27" width="3" height="3"/>
							</defs>
							<clipPath id="SVGID_18_">
								<use xlink:href="#SVGID_17_"  style="overflow:visible;"/>
							</clipPath>
							<rect x="33.8" y="22.8" class="st8" width="11.4" height="11.4"/>
						</g>
					</g>
				</g>
			</g>
		</g>
	</g>
</g>
</svg>
