<?xml version="1.0" encoding="utf-8"?>
<!-- Generator: Adobe Illustrator 23.0.1, SVG Export Plug-In . SVG Version: 6.00 Build 0)  -->
<svg version="1.1" id="Warstwa_1" xmlns="http://www.w3.org/2000/svg" xmlns:xlink="http://www.w3.org/1999/xlink" x="0px" y="0px"
	 width="45px" height="41px" viewBox="0 0 45 41" style="enable-background:new 0 0 45 41;" xml:space="preserve">
<style type="text/css">
	.st0{clip-path:url(#SVGID_2_);fill:#000EE6;}
	.st1{clip-path:url(#SVGID_4_);fill:#000EE6;}
	.st2{clip-path:url(#SVGID_6_);enable-background:new    ;}
	.st3{clip-path:url(#SVGID_8_);}
	.st4{clip-path:url(#SVGID_10_);fill:#000EE6;}
	.st5{clip-path:url(#SVGID_12_);enable-background:new    ;}
	.st6{clip-path:url(#SVGID_14_);}
	.st7{clip-path:url(#SVGID_16_);fill:#000EE6;}
	.st8{clip-path:url(#SVGID_18_);enable-background:new    ;}
	.st9{clip-path:url(#SVGID_20_);}
	.st10{clip-path:url(#SVGID_22_);fill:#000EE6;}
	.st11{clip-path:url(#SVGID_24_);enable-background:new    ;}
	.st12{clip-path:url(#SVGID_26_);}
	.st13{clip-path:url(#SVGID_28_);fill:#000EE6;}
	.st14{clip-path:url(#SVGID_30_);enable-background:new    ;}
	.st15{clip-path:url(#SVGID_32_);}
	.st16{clip-path:url(#SVGID_34_);fill:#000EE6;}
	.st17{clip-path:url(#SVGID_36_);enable-background:new    ;}
	.st18{clip-path:url(#SVGID_38_);}
	.st19{clip-path:url(#SVGID_40_);fill:#000EE6;}
	.st20{clip-path:url(#SVGID_42_);enable-background:new    ;}
	.st21{clip-path:url(#SVGID_44_);}
	.st22{clip-path:url(#SVGID_46_);fill:#000EE6;}
	.st23{clip-path:url(#SVGID_48_);enable-background:new    ;}
	.st24{clip-path:url(#SVGID_50_);}
	.st25{clip-path:url(#SVGID_52_);fill:#000EE6;}
	.st26{clip-path:url(#SVGID_54_);enable-background:new    ;}
	.st27{clip-path:url(#SVGID_56_);}
	.st28{clip-path:url(#SVGID_58_);fill:#000EE6;}
	.st29{clip-path:url(#SVGID_60_);enable-background:new    ;}
	.st30{clip-path:url(#SVGID_62_);}
	.st31{clip-path:url(#SVGID_64_);fill:#000EE6;}
	.st32{clip-path:url(#SVGID_66_);enable-background:new    ;}
	.st33{clip-path:url(#SVGID_68_);}
	.st34{clip-path:url(#SVGID_70_);fill:#000EE6;}
	.st35{clip-path:url(#SVGID_72_);enable-background:new    ;}
	.st36{clip-path:url(#SVGID_74_);}
	.st37{clip-path:url(#SVGID_76_);fill:#000EE6;}
	.st38{clip-path:url(#SVGID_78_);enable-background:new    ;}
	.st39{clip-path:url(#SVGID_80_);}
	.st40{clip-path:url(#SVGID_82_);fill:#000EE6;}
	.st41{clip-path:url(#SVGID_84_);enable-background:new    ;}
	.st42{clip-path:url(#SVGID_86_);}
	.st43{clip-path:url(#SVGID_88_);fill:#000EE6;}
</style>
<g>
	<g>
		<defs>
			<rect id="SVGID_1_" x="33" y="15.5" width="1" height="11"/>
		</defs>
		<clipPath id="SVGID_2_">
			<use xlink:href="#SVGID_1_"  style="overflow:visible;"/>
		</clipPath>
		<rect x="28" y="10.5" class="st0" width="11" height="21"/>
	</g>
	<g>
		<defs>
			<rect id="SVGID_3_" x="35" y="15.5" width="1" height="11"/>
		</defs>
		<clipPath id="SVGID_4_">
			<use xlink:href="#SVGID_3_"  style="overflow:visible;"/>
		</clipPath>
		<rect x="30" y="10.5" class="st1" width="11" height="21"/>
	</g>
	<g>
		<defs>
			<path id="SVGID_5_" d="M16.8,35.7c-0.3,0-0.6,0.3-0.6,0.6c0,0.3,0.3,0.6,0.6,0.6h14.4c0.3,0,0.6-0.3,0.6-0.6
				c0-0.4-0.3-0.6-0.6-0.6H16.8z"/>
		</defs>
		<clipPath id="SVGID_6_">
			<use xlink:href="#SVGID_5_"  style="overflow:visible;"/>
		</clipPath>
		<g class="st2">
			<g>
				<defs>
					<rect id="SVGID_7_" x="11" y="30.5" width="26" height="12"/>
				</defs>
				<clipPath id="SVGID_8_">
					<use xlink:href="#SVGID_7_"  style="overflow:visible;"/>
				</clipPath>
				<g class="st3">
					<defs>
						<rect id="SVGID_9_" x="16" y="35.5" width="16" height="2"/>
					</defs>
					<clipPath id="SVGID_10_">
						<use xlink:href="#SVGID_9_"  style="overflow:visible;"/>
					</clipPath>
					<rect x="11.1" y="30.7" class="st4" width="25.7" height="11.3"/>
				</g>
			</g>
		</g>
	</g>
	<g>
		<defs>
			<path id="SVGID_11_" d="M16.6,36.3c0-0.1,0.1-0.2,0.2-0.2h14.4c0.1,0,0.2,0.1,0.2,0.2c0,0.1-0.1,0.2-0.2,0.2H16.8
				C16.7,36.5,16.6,36.4,16.6,36.3z M16.8,35.2c-0.6,0-1.1,0.5-1.1,1.1c0,0.6,0.5,1.1,1.1,1.1h14.4c0.6,0,1.1-0.5,1.1-1.1
				c0-0.6-0.5-1.1-1.1-1.1H16.8z"/>
		</defs>
		<clipPath id="SVGID_12_">
			<use xlink:href="#SVGID_11_"  style="overflow:visible;"/>
		</clipPath>
		<g class="st5">
			<g>
				<defs>
					<rect id="SVGID_13_" x="10" y="29.5" width="28" height="13"/>
				</defs>
				<clipPath id="SVGID_14_">
					<use xlink:href="#SVGID_13_"  style="overflow:visible;"/>
				</clipPath>
				<g class="st6">
					<defs>
						<rect id="SVGID_15_" x="15" y="34.5" width="18" height="3"/>
					</defs>
					<clipPath id="SVGID_16_">
						<use xlink:href="#SVGID_15_"  style="overflow:visible;"/>
					</clipPath>
					<rect x="10.7" y="30.2" class="st7" width="26.6" height="12.2"/>
				</g>
			</g>
		</g>
	</g>
	<g>
		<defs>
			<path id="SVGID_17_" d="M10.5,36.3c0-1.6,1.3-2.8,2.8-2.8c1.5,0,2.8,1.3,2.8,2.8c0,1.6-1.3,2.8-2.8,2.8
				C11.8,39.1,10.5,37.9,10.5,36.3z M9.3,36.3c0,2.3,1.8,4.1,4.1,4.1c2.2,0,4.1-1.8,4.1-4.1s-1.8-4.1-4.1-4.1
				C11.1,32.2,9.3,34.1,9.3,36.3z"/>
		</defs>
		<clipPath id="SVGID_18_">
			<use xlink:href="#SVGID_17_"  style="overflow:visible;"/>
		</clipPath>
		<g class="st8">
			<g>
				<defs>
					<rect id="SVGID_19_" x="4" y="26.5" width="19" height="19"/>
				</defs>
				<clipPath id="SVGID_20_">
					<use xlink:href="#SVGID_19_"  style="overflow:visible;"/>
				</clipPath>
				<g class="st9">
					<defs>
						<rect id="SVGID_21_" x="9" y="31.5" width="9" height="9"/>
					</defs>
					<clipPath id="SVGID_22_">
						<use xlink:href="#SVGID_21_"  style="overflow:visible;"/>
					</clipPath>
					<rect x="4.3" y="27.2" class="st10" width="18.1" height="18.2"/>
				</g>
			</g>
		</g>
	</g>
	<g>
		<defs>
			<path id="SVGID_23_" d="M11,36.3c0-1.3,1.1-2.4,2.4-2.4c1.3,0,2.4,1.1,2.4,2.4c0,1.3-1.1,2.4-2.4,2.4C12,38.7,11,37.6,11,36.3z
				 M10.1,36.3c0,1.8,1.5,3.3,3.2,3.3c1.8,0,3.2-1.5,3.2-3.3s-1.5-3.3-3.2-3.3C11.5,33.1,10.1,34.5,10.1,36.3z M9.7,36.3
				c0-2,1.6-3.6,3.6-3.6c2,0,3.6,1.6,3.6,3.6c0,2-1.6,3.6-3.6,3.6C11.3,40,9.7,38.3,9.7,36.3z M8.8,36.3c0,2.5,2,4.5,4.5,4.5
				c2.5,0,4.5-2,4.5-4.5c0-2.5-2-4.5-4.5-4.5C10.8,31.8,8.8,33.8,8.8,36.3z"/>
		</defs>
		<clipPath id="SVGID_24_">
			<use xlink:href="#SVGID_23_"  style="overflow:visible;"/>
		</clipPath>
		<g class="st11">
			<g>
				<defs>
					<rect id="SVGID_25_" x="3" y="26.5" width="20" height="20"/>
				</defs>
				<clipPath id="SVGID_26_">
					<use xlink:href="#SVGID_25_"  style="overflow:visible;"/>
				</clipPath>
				<g class="st12">
					<defs>
						<rect id="SVGID_27_" x="8" y="31.5" width="10" height="10"/>
					</defs>
					<clipPath id="SVGID_28_">
						<use xlink:href="#SVGID_27_"  style="overflow:visible;"/>
					</clipPath>
					<rect x="3.8" y="26.8" class="st13" width="19" height="19.1"/>
				</g>
			</g>
		</g>
	</g>
	<g>
		<defs>
			<path id="SVGID_29_" d="M31.8,36.3c0-1.6,1.3-2.8,2.8-2.8c1.5,0,2.8,1.3,2.8,2.8c0,1.6-1.3,2.8-2.8,2.8
				C33,39.1,31.8,37.9,31.8,36.3z M30.5,36.3c0,2.3,1.8,4.1,4.1,4.1c2.2,0,4.1-1.8,4.1-4.1s-1.8-4.1-4.1-4.1
				C32.3,32.2,30.5,34.1,30.5,36.3z"/>
		</defs>
		<clipPath id="SVGID_30_">
			<use xlink:href="#SVGID_29_"  style="overflow:visible;"/>
		</clipPath>
		<g class="st14">
			<g>
				<defs>
					<rect id="SVGID_31_" x="25" y="26.5" width="19" height="19"/>
				</defs>
				<clipPath id="SVGID_32_">
					<use xlink:href="#SVGID_31_"  style="overflow:visible;"/>
				</clipPath>
				<g class="st15">
					<defs>
						<rect id="SVGID_33_" x="30" y="31.5" width="9" height="9"/>
					</defs>
					<clipPath id="SVGID_34_">
						<use xlink:href="#SVGID_33_"  style="overflow:visible;"/>
					</clipPath>
					<rect x="25.5" y="27.2" class="st16" width="18.1" height="18.2"/>
				</g>
			</g>
		</g>
	</g>
	<g>
		<defs>
			<path id="SVGID_35_" d="M32.2,36.3c0-1.3,1.1-2.4,2.4-2.4c1.3,0,2.4,1.1,2.4,2.4c0,1.3-1.1,2.4-2.4,2.4
				C33.3,38.7,32.2,37.6,32.2,36.3z M31.3,36.3c0,1.8,1.5,3.3,3.2,3.3c1.8,0,3.2-1.5,3.2-3.3s-1.5-3.3-3.2-3.3
				C32.8,33.1,31.3,34.5,31.3,36.3z M31,36.3c0-2,1.6-3.6,3.6-3.6c2,0,3.6,1.6,3.6,3.6c0,2-1.6,3.6-3.6,3.6C32.6,40,31,38.3,31,36.3
				z M30.1,36.3c0,2.5,2,4.5,4.5,4.5c2.5,0,4.5-2,4.5-4.5c0-2.5-2-4.5-4.5-4.5C32.1,31.8,30.1,33.8,30.1,36.3z"/>
		</defs>
		<clipPath id="SVGID_36_">
			<use xlink:href="#SVGID_35_"  style="overflow:visible;"/>
		</clipPath>
		<g class="st17">
			<g>
				<defs>
					<rect id="SVGID_37_" x="25" y="26.5" width="20" height="20"/>
				</defs>
				<clipPath id="SVGID_38_">
					<use xlink:href="#SVGID_37_"  style="overflow:visible;"/>
				</clipPath>
				<g class="st18">
					<defs>
						<rect id="SVGID_39_" x="30" y="31.5" width="10" height="10"/>
					</defs>
					<clipPath id="SVGID_40_">
						<use xlink:href="#SVGID_39_"  style="overflow:visible;"/>
					</clipPath>
					<rect x="25.1" y="26.8" class="st19" width="19" height="19.1"/>
				</g>
			</g>
		</g>
	</g>
	<g>
		<defs>
			<path id="SVGID_41_" d="M16.8,35.7c-0.3,0-0.6,0.3-0.6,0.6c0,0.3,0.3,0.6,0.6,0.6h14.4c0.3,0,0.6-0.3,0.6-0.6
				c0-0.4-0.3-0.6-0.6-0.6H16.8z"/>
		</defs>
		<clipPath id="SVGID_42_">
			<use xlink:href="#SVGID_41_"  style="overflow:visible;"/>
		</clipPath>
		<g class="st20">
			<g>
				<defs>
					<rect id="SVGID_43_" x="11" y="30.5" width="26" height="12"/>
				</defs>
				<clipPath id="SVGID_44_">
					<use xlink:href="#SVGID_43_"  style="overflow:visible;"/>
				</clipPath>
				<g class="st21">
					<defs>
						<rect id="SVGID_45_" x="16" y="35.5" width="16" height="2"/>
					</defs>
					<clipPath id="SVGID_46_">
						<use xlink:href="#SVGID_45_"  style="overflow:visible;"/>
					</clipPath>
					<rect x="11.1" y="30.7" class="st22" width="25.7" height="11.3"/>
				</g>
			</g>
		</g>
	</g>
	<g>
		<defs>
			<path id="SVGID_47_" d="M16.6,36.3c0-0.1,0.1-0.2,0.2-0.2h14.4c0.1,0,0.2,0.1,0.2,0.2c0,0.1-0.1,0.2-0.2,0.2H16.8
				C16.7,36.5,16.6,36.4,16.6,36.3z M16.8,35.2c-0.6,0-1.1,0.5-1.1,1.1c0,0.6,0.5,1.1,1.1,1.1h14.4c0.6,0,1.1-0.5,1.1-1.1
				c0-0.6-0.5-1.1-1.1-1.1H16.8z"/>
		</defs>
		<clipPath id="SVGID_48_">
			<use xlink:href="#SVGID_47_"  style="overflow:visible;"/>
		</clipPath>
		<g class="st23">
			<g>
				<defs>
					<rect id="SVGID_49_" x="10" y="29.5" width="28" height="13"/>
				</defs>
				<clipPath id="SVGID_50_">
					<use xlink:href="#SVGID_49_"  style="overflow:visible;"/>
				</clipPath>
				<g class="st24">
					<defs>
						<rect id="SVGID_51_" x="15" y="34.5" width="18" height="3"/>
					</defs>
					<clipPath id="SVGID_52_">
						<use xlink:href="#SVGID_51_"  style="overflow:visible;"/>
					</clipPath>
					<rect x="10.7" y="30.2" class="st25" width="26.6" height="12.2"/>
				</g>
			</g>
		</g>
	</g>
	<g>
		<defs>
			<path id="SVGID_53_" d="M12.3,19.2c-1,0-2,0.5-2.5,1.4L6.4,26l-4.1,1.2c-1.2,0.4-2,1.6-1.8,2.9L1.1,34c0.3,1.7,1.7,3,3.4,3h5.3
				c0.3,0,0.6-0.3,0.6-0.6c0-0.4-0.3-0.6-0.6-0.6H4.6c-1.1,0-2-0.8-2.2-1.9l-0.6-3.9c-0.1-0.7,0.3-1.3,0.9-1.5L7,27.1
				c0.1,0,0.3-0.1,0.3-0.3l3.5-5.6c0.3-0.5,0.9-0.8,1.4-0.8h11.9c0.7,0,1.3,0.2,1.8,0.7l7.6,6.4c0.1,0.1,0.2,0.1,0.3,0.1l8.4,1
				c0.3,0,0.6,0.2,0.8,0.4c0.2,0.2,0.3,0.5,0.2,0.9l-0.7,4.3c-0.1,0.8-0.8,1.3-1.6,1.3h-3c-0.3,0-0.6,0.3-0.6,0.6
				c0,0.3,0.3,0.6,0.6,0.6h3c1.4,0,2.6-1,2.8-2.4l0.7-4.3c0.1-0.6-0.1-1.3-0.5-1.8c-0.4-0.5-1-0.9-1.6-0.9l-8.2-1l-7.4-6.3
				c-0.7-0.6-1.6-1-2.6-1H12.3z"/>
		</defs>
		<clipPath id="SVGID_54_">
			<use xlink:href="#SVGID_53_"  style="overflow:visible;"/>
		</clipPath>
		<g class="st26">
			<g>
				<defs>
					<rect id="SVGID_55_" x="-5" y="13.5" width="55" height="29"/>
				</defs>
				<clipPath id="SVGID_56_">
					<use xlink:href="#SVGID_55_"  style="overflow:visible;"/>
				</clipPath>
				<g class="st27">
					<defs>
						<rect id="SVGID_57_" x="0" y="18.5" width="45" height="19"/>
					</defs>
					<clipPath id="SVGID_58_">
						<use xlink:href="#SVGID_57_"  style="overflow:visible;"/>
					</clipPath>
					<rect x="-4.5" y="14.2" class="st28" width="54" height="27.8"/>
				</g>
			</g>
		</g>
	</g>
	<g>
		<defs>
			<path id="SVGID_59_" d="M1.6,33.9L1,30c-0.2-1.1,0.5-2.1,1.5-2.4l4.2-1.3l3.5-5.5c0.5-0.7,1.3-1.2,2.1-1.2h11.9
				c0.8,0,1.7,0.3,2.3,0.8l7.5,6.4l8.3,1c0.5,0.1,1,0.3,1.3,0.8c0.3,0.4,0.4,0.9,0.4,1.5l-0.7,4.3c-0.2,1.2-1.2,2-2.4,2h-3
				c-0.1,0-0.2-0.1-0.2-0.2c0-0.1,0.1-0.2,0.2-0.2h3c1,0,1.8-0.7,2-1.7l0.7-4.3c0.1-0.4,0-0.8-0.3-1.2c-0.3-0.3-0.6-0.6-1.1-0.6
				l-8.4-1c0,0-0.1,0-0.1,0l-7.6-6.4C25.7,20.3,25,20,24.2,20H12.3c-0.7,0-1.4,0.4-1.8,1L7,26.6c0,0-0.1,0.1-0.1,0.1L2.6,28
				c-0.8,0.3-1.4,1.1-1.2,2l0.6,3.9c0.2,1.3,1.3,2.3,2.6,2.3h5.3c0.1,0,0.2,0.1,0.2,0.2c0,0.1-0.1,0.2-0.2,0.2H4.6
				C3.1,36.5,1.8,35.4,1.6,33.9z M12.3,18.8c-1.2,0-2.2,0.6-2.9,1.6l-3.3,5.3l-3.9,1.2c-1.4,0.4-2.4,1.9-2.1,3.4l0.6,3.9
				C1,36,2.6,37.4,4.6,37.4h5.3c0.6,0,1.1-0.5,1.1-1.1c0-0.6-0.5-1.1-1.1-1.1H4.6c-0.9,0-1.6-0.6-1.8-1.5l-0.6-3.9
				c-0.1-0.4,0.2-0.9,0.6-1l4.3-1.3c0.3-0.1,0.5-0.2,0.6-0.5l3.5-5.6c0.2-0.4,0.6-0.6,1.1-0.6h11.9c0.6,0,1.1,0.2,1.5,0.6l7.6,6.4
				c0.2,0.1,0.4,0.2,0.6,0.2l8.4,1c0.2,0,0.3,0.1,0.5,0.3c0.1,0.1,0.2,0.3,0.1,0.5l-0.7,4.3c-0.1,0.6-0.6,1-1.1,1h-3
				c-0.6,0-1.1,0.5-1.1,1.1c0,0.6,0.5,1.1,1.1,1.1h3c1.6,0,3-1.2,3.2-2.8l0.7-4.3c0.1-0.8-0.1-1.5-0.5-2.1c-0.5-0.6-1.1-1-1.9-1.1
				l-8.1-1l-7.3-6.2c-0.8-0.7-1.8-1.1-2.9-1.1H12.3z"/>
		</defs>
		<clipPath id="SVGID_60_">
			<use xlink:href="#SVGID_59_"  style="overflow:visible;"/>
		</clipPath>
		<g class="st29">
			<g>
				<defs>
					<rect id="SVGID_61_" x="-5" y="13.5" width="55" height="29"/>
				</defs>
				<clipPath id="SVGID_62_">
					<use xlink:href="#SVGID_61_"  style="overflow:visible;"/>
				</clipPath>
				<g class="st30">
					<defs>
						<rect id="SVGID_63_" x="0" y="18.5" width="45" height="19"/>
					</defs>
					<clipPath id="SVGID_64_">
						<use xlink:href="#SVGID_63_"  style="overflow:visible;"/>
					</clipPath>
					<rect x="-4.9" y="13.8" class="st31" width="54.9" height="28.6"/>
				</g>
			</g>
		</g>
	</g>
	<g>
		<defs>
			<path id="SVGID_65_" d="M12.7,26.9c-0.3,0-0.6,0.3-0.6,0.6c0,0.3,0.3,0.6,0.6,0.6h14.4c0.3,0,0.6-0.3,0.6-0.6
				c0-0.4-0.3-0.6-0.6-0.6H12.7z"/>
		</defs>
		<clipPath id="SVGID_66_">
			<use xlink:href="#SVGID_65_"  style="overflow:visible;"/>
		</clipPath>
		<g class="st32">
			<g>
				<defs>
					<rect id="SVGID_67_" x="7" y="21.5" width="26" height="12"/>
				</defs>
				<clipPath id="SVGID_68_">
					<use xlink:href="#SVGID_67_"  style="overflow:visible;"/>
				</clipPath>
				<g class="st33">
					<defs>
						<rect id="SVGID_69_" x="12" y="26.5" width="16" height="2"/>
					</defs>
					<clipPath id="SVGID_70_">
						<use xlink:href="#SVGID_69_"  style="overflow:visible;"/>
					</clipPath>
					<rect x="7.1" y="21.9" class="st34" width="25.7" height="11.3"/>
				</g>
			</g>
		</g>
	</g>
	<g>
		<defs>
			<path id="SVGID_71_" d="M33.9,5.9h1.2c0.7,0,1.2,0.4,1.2,1.3v0.1c0,0.9-0.4,1.3-1.2,1.3h-1.2V5.9z M33,4.7
				c-0.3,0-0.5,0.2-0.5,0.4v7.2c0,0.3,0.4,0.5,0.7,0.5c0.4,0,0.7-0.2,0.7-0.5V9.7h1.2c1.5,0,2.6-0.7,2.6-2.5V7.2
				c0-1.8-1.1-2.5-2.5-2.5H33z"/>
		</defs>
		<clipPath id="SVGID_72_">
			<use xlink:href="#SVGID_71_"  style="overflow:visible;"/>
		</clipPath>
		<g class="st35">
			<g>
				<defs>
					<rect id="SVGID_73_" x="27" y="-0.5" width="16" height="19"/>
				</defs>
				<clipPath id="SVGID_74_">
					<use xlink:href="#SVGID_73_"  style="overflow:visible;"/>
				</clipPath>
				<g class="st36">
					<defs>
						<rect id="SVGID_75_" x="32" y="4.5" width="6" height="9"/>
					</defs>
					<clipPath id="SVGID_76_">
						<use xlink:href="#SVGID_75_"  style="overflow:visible;"/>
					</clipPath>
					<rect x="27.5" y="-0.3" class="st37" width="15.2" height="18.1"/>
				</g>
			</g>
		</g>
	</g>
	<g>
		<defs>
			<path id="SVGID_77_" d="M28.5,0.9c-0.9,0-1.6,0.7-1.6,1.6v5.8c0,0.4,0.3,0.6,0.6,0.6c0.4,0,0.6-0.3,0.6-0.6V2.6
				c0-0.2,0.1-0.3,0.3-0.3H41c0.2,0,0.3,0.1,0.3,0.3v12.7c0,0.2-0.1,0.3-0.3,0.3H28.5c-0.2,0-0.3-0.1-0.3-0.3v-1.7
				c0-0.4-0.3-0.7-0.6-0.7c-0.4,0-0.6,0.3-0.6,0.7v1.7c0,0.9,0.7,1.6,1.6,1.6h4.9h3.4H41c0.9,0,1.6-0.7,1.6-1.6V2.6
				c0-0.9-0.7-1.6-1.6-1.6H28.5z"/>
		</defs>
		<clipPath id="SVGID_78_">
			<use xlink:href="#SVGID_77_"  style="overflow:visible;"/>
		</clipPath>
		<g class="st38">
			<g>
				<defs>
					<rect id="SVGID_79_" x="21" y="-4.5" width="27" height="27"/>
				</defs>
				<clipPath id="SVGID_80_">
					<use xlink:href="#SVGID_79_"  style="overflow:visible;"/>
				</clipPath>
				<g class="st39">
					<defs>
						<rect id="SVGID_81_" x="26" y="0.5" width="17" height="17"/>
					</defs>
					<clipPath id="SVGID_82_">
						<use xlink:href="#SVGID_81_"  style="overflow:visible;"/>
					</clipPath>
					<rect x="21.9" y="-4.1" class="st40" width="25.8" height="25.9"/>
				</g>
			</g>
		</g>
	</g>
	<g>
		<defs>
			<path id="SVGID_83_" d="M27.3,8.4V2.6c0-0.6,0.5-1.2,1.2-1.2H41c0.6,0,1.2,0.5,1.2,1.2v12.7c0,0.6-0.5,1.2-1.2,1.2H28.5
				c-0.6,0-1.2-0.5-1.2-1.2v-1.7c0-0.1,0.1-0.2,0.2-0.2c0.1,0,0.2,0.1,0.2,0.2v1.7c0,0.4,0.3,0.8,0.8,0.8H41c0.4,0,0.8-0.3,0.8-0.8
				V2.6c0-0.4-0.3-0.8-0.8-0.8H28.5c-0.4,0-0.8,0.3-0.8,0.8v5.8c0,0.1-0.1,0.2-0.2,0.2C27.4,8.5,27.3,8.5,27.3,8.4z M28.5,0.5
				c-1.1,0-2.1,0.9-2.1,2.1v5.8c0,0.6,0.5,1.1,1.1,1.1c0.6,0,1.1-0.5,1.1-1.1V2.7h12.3v12.4H28.6v-1.6c0-0.6-0.5-1.1-1.1-1.1
				c-0.6,0-1.1,0.5-1.1,1.1v1.7c0,1.1,0.9,2.1,2.1,2.1H41c1.1,0,2.1-0.9,2.1-2.1V2.6c0-1.1-0.9-2.1-2.1-2.1H28.5z"/>
		</defs>
		<clipPath id="SVGID_84_">
			<use xlink:href="#SVGID_83_"  style="overflow:visible;"/>
		</clipPath>
		<g class="st41">
			<g>
				<defs>
					<rect id="SVGID_85_" x="21" y="-4.5" width="28" height="27"/>
				</defs>
				<clipPath id="SVGID_86_">
					<use xlink:href="#SVGID_85_"  style="overflow:visible;"/>
				</clipPath>
				<g class="st42">
					<defs>
						<rect id="SVGID_87_" x="26" y="0.5" width="18" height="17"/>
					</defs>
					<clipPath id="SVGID_88_">
						<use xlink:href="#SVGID_87_"  style="overflow:visible;"/>
					</clipPath>
					<rect x="21.4" y="-4.5" class="st43" width="26.7" height="26.8"/>
				</g>
			</g>
		</g>
	</g>
</g>
</svg>
