<?xml version="1.0" encoding="utf-8"?>
<!-- Generator: Adobe Illustrator 23.0.1, SVG Export Plug-In . SVG Version: 6.00 Build 0)  -->
<svg version="1.1" id="Warstwa_1" xmlns="http://www.w3.org/2000/svg" xmlns:xlink="http://www.w3.org/1999/xlink" x="0px" y="0px"
	 width="46px" height="46px" viewBox="0 0 46 46" style="enable-background:new 0 0 46 46;" xml:space="preserve">
<style type="text/css">
	.st0{clip-path:url(#SVGID_2_);enable-background:new    ;}
	.st1{clip-path:url(#SVGID_4_);}
	.st2{clip-path:url(#SVGID_6_);fill:#000EE6;}
	.st3{clip-path:url(#SVGID_8_);enable-background:new    ;}
	.st4{clip-path:url(#SVGID_10_);}
	.st5{clip-path:url(#SVGID_12_);fill:#000EE6;}
	.st6{clip-path:url(#SVGID_14_);enable-background:new    ;}
	.st7{clip-path:url(#SVGID_16_);}
	.st8{clip-path:url(#SVGID_18_);fill:#000EE6;}
	.st9{clip-path:url(#SVGID_20_);enable-background:new    ;}
	.st10{clip-path:url(#SVGID_22_);}
	.st11{clip-path:url(#SVGID_24_);fill:#000EE6;}
	.st12{clip-path:url(#SVGID_26_);enable-background:new    ;}
	.st13{clip-path:url(#SVGID_28_);}
	.st14{clip-path:url(#SVGID_30_);fill:#000EE6;}
	.st15{clip-path:url(#SVGID_32_);enable-background:new    ;}
	.st16{clip-path:url(#SVGID_34_);}
	.st17{clip-path:url(#SVGID_36_);fill:#000EE6;}
	.st18{clip-path:url(#SVGID_38_);enable-background:new    ;}
	.st19{clip-path:url(#SVGID_40_);}
	.st20{clip-path:url(#SVGID_42_);fill:#000EE6;}
	.st21{clip-path:url(#SVGID_44_);enable-background:new    ;}
	.st22{clip-path:url(#SVGID_46_);}
	.st23{clip-path:url(#SVGID_48_);fill:#000EE6;}
	.st24{clip-path:url(#SVGID_50_);enable-background:new    ;}
	.st25{clip-path:url(#SVGID_52_);}
	.st26{clip-path:url(#SVGID_54_);fill:#000EE6;}
	.st27{clip-path:url(#SVGID_56_);enable-background:new    ;}
	.st28{clip-path:url(#SVGID_58_);}
	.st29{clip-path:url(#SVGID_60_);fill:#000EE6;}
	.st30{clip-path:url(#SVGID_62_);enable-background:new    ;}
	.st31{clip-path:url(#SVGID_64_);}
	.st32{clip-path:url(#SVGID_66_);fill:#000EE6;}
</style>
<g>
	<defs>
		<path id="SVGID_1_" d="M12,23.5C12,17.1,17.1,12,23.5,12c6.4,0,11.6,5.2,11.6,11.6c0,6.4-5.2,11.6-11.6,11.6
			C17.1,35.1,12,29.9,12,23.5z M9.3,23.5c0,7.9,6.4,14.2,14.2,14.2c7.9,0,14.2-6.4,14.2-14.2c0-7.9-6.4-14.2-14.2-14.2
			C15.7,9.3,9.3,15.7,9.3,23.5z"/>
	</defs>
	<clipPath id="SVGID_2_">
		<use xlink:href="#SVGID_1_"  style="overflow:visible;"/>
	</clipPath>
	<g class="st0">
		<g>
			<defs>
				<rect id="SVGID_3_" x="4.2" y="4.2" width="39" height="39"/>
			</defs>
			<clipPath id="SVGID_4_">
				<use xlink:href="#SVGID_3_"  style="overflow:visible;"/>
			</clipPath>
			<g class="st1">
				<defs>
					<rect id="SVGID_5_" x="9.2" y="9.2" width="29" height="29"/>
				</defs>
				<clipPath id="SVGID_6_">
					<use xlink:href="#SVGID_5_"  style="overflow:visible;"/>
				</clipPath>
				<rect x="4.3" y="4.3" class="st2" width="38.5" height="38.5"/>
			</g>
		</g>
	</g>
</g>
<g>
	<defs>
		<path id="SVGID_7_" d="M14.8,17.6c-0.2,0.3-0.1,0.7,0.2,0.9c0.1,0.1,0.2,0.1,0.3,0.1c0.2,0,0.5-0.1,0.6-0.3
			c1.2-1.9,3.3-3.1,5.5-3.1c0.4,0,0.7-0.3,0.7-0.7c0-0.4-0.3-0.7-0.7-0.7C18.7,13.8,16.2,15.2,14.8,17.6z"/>
	</defs>
	<clipPath id="SVGID_8_">
		<use xlink:href="#SVGID_7_"  style="overflow:visible;"/>
	</clipPath>
	<g class="st3">
		<g>
			<defs>
				<rect id="SVGID_9_" x="9.2" y="8.2" width="18" height="16"/>
			</defs>
			<clipPath id="SVGID_10_">
				<use xlink:href="#SVGID_9_"  style="overflow:visible;"/>
			</clipPath>
			<g class="st4">
				<defs>
					<rect id="SVGID_11_" x="14.2" y="13.2" width="8" height="6"/>
				</defs>
				<clipPath id="SVGID_12_">
					<use xlink:href="#SVGID_11_"  style="overflow:visible;"/>
				</clipPath>
				<rect x="9.7" y="8.8" class="st5" width="17.5" height="14.8"/>
			</g>
		</g>
	</g>
</g>
<g>
	<defs>
		<path id="SVGID_13_" d="M14,19.7c-0.1,0.6-0.2,0.9-0.2,1.5c0,0.4,0.3,0.7,0.7,0.7c0.4,0,0.7-0.3,0.7-0.7c0-0.5,0.1-0.7,0.2-1.2
			c0.1-0.4-0.1-0.7-0.5-0.8c0,0-0.1,0-0.1,0C14.3,19.2,14,19.4,14,19.7z"/>
	</defs>
	<clipPath id="SVGID_14_">
		<use xlink:href="#SVGID_13_"  style="overflow:visible;"/>
	</clipPath>
	<g class="st6">
		<g>
			<defs>
				<rect id="SVGID_15_" x="8.2" y="13.2" width="13" height="14"/>
			</defs>
			<clipPath id="SVGID_16_">
				<use xlink:href="#SVGID_15_"  style="overflow:visible;"/>
			</clipPath>
			<g class="st7">
				<defs>
					<rect id="SVGID_17_" x="13.2" y="18.2" width="3" height="4"/>
				</defs>
				<clipPath id="SVGID_18_">
					<use xlink:href="#SVGID_17_"  style="overflow:visible;"/>
				</clipPath>
				<rect x="8.8" y="14.2" class="st8" width="11.5" height="12.7"/>
			</g>
		</g>
	</g>
</g>
<g>
	<defs>
		<path id="SVGID_19_" d="M22.8,40.4v4c0,0.7,0.6,1.3,1.3,1.3s1.3-0.6,1.3-1.3v-4c0-0.7-0.6-1.3-1.3-1.3S22.8,39.6,22.8,40.4z"/>
	</defs>
	<clipPath id="SVGID_20_">
		<use xlink:href="#SVGID_19_"  style="overflow:visible;"/>
	</clipPath>
	<g class="st9">
		<g>
			<defs>
				<rect id="SVGID_21_" x="17.2" y="33.2" width="14" height="18"/>
			</defs>
			<clipPath id="SVGID_22_">
				<use xlink:href="#SVGID_21_"  style="overflow:visible;"/>
			</clipPath>
			<g class="st10">
				<defs>
					<rect id="SVGID_23_" x="22.2" y="38.2" width="4" height="8"/>
				</defs>
				<clipPath id="SVGID_24_">
					<use xlink:href="#SVGID_23_"  style="overflow:visible;"/>
				</clipPath>
				<rect x="17.8" y="34" class="st11" width="12.7" height="16.7"/>
			</g>
		</g>
	</g>
</g>
<g>
	<defs>
		<path id="SVGID_25_" d="M23.6,0.2c-0.7,0-1.3,0.6-1.3,1.3v4.1C22.4,6.4,23,7,23.7,7c0.7,0,1.3-0.6,1.3-1.3V1.5
			c0-0.7-0.6-1.3-1.3-1.3H23.6z"/>
	</defs>
	<clipPath id="SVGID_26_">
		<use xlink:href="#SVGID_25_"  style="overflow:visible;"/>
	</clipPath>
	<g class="st12">
		<g>
			<defs>
				<rect id="SVGID_27_" x="17.2" y="-4.8" width="13" height="17"/>
			</defs>
			<clipPath id="SVGID_28_">
				<use xlink:href="#SVGID_27_"  style="overflow:visible;"/>
			</clipPath>
			<g class="st13">
				<defs>
					<rect id="SVGID_29_" x="22.2" y="0.2" width="3" height="7"/>
				</defs>
				<clipPath id="SVGID_30_">
					<use xlink:href="#SVGID_29_"  style="overflow:visible;"/>
				</clipPath>
				<rect x="17.4" y="-4.8" class="st14" width="12.7" height="16.7"/>
			</g>
		</g>
	</g>
</g>
<g>
	<defs>
		<path id="SVGID_31_" d="M9.8,34L7,36.9c-0.5,0.5-0.5,1.4,0,1.9c0.3,0.3,0.6,0.4,1,0.4c0.3,0,0.7-0.1,1-0.4l2.9-2.9
			c0.5-0.5,0.5-1.4,0-1.9c-0.3-0.3-0.6-0.4-1-0.4C10.4,33.6,10.1,33.7,9.8,34z"/>
	</defs>
	<clipPath id="SVGID_32_">
		<use xlink:href="#SVGID_31_"  style="overflow:visible;"/>
	</clipPath>
	<g class="st15">
		<g>
			<defs>
				<rect id="SVGID_33_" x="1.2" y="28.2" width="16" height="16"/>
			</defs>
			<clipPath id="SVGID_34_">
				<use xlink:href="#SVGID_33_"  style="overflow:visible;"/>
			</clipPath>
			<g class="st16">
				<defs>
					<rect id="SVGID_35_" x="6.2" y="33.2" width="6" height="6"/>
				</defs>
				<clipPath id="SVGID_36_">
					<use xlink:href="#SVGID_35_"  style="overflow:visible;"/>
				</clipPath>
				<rect x="1.6" y="28.6" class="st17" width="15.5" height="15.5"/>
			</g>
		</g>
	</g>
</g>
<g>
	<defs>
		<path id="SVGID_37_" d="M36.9,6.9L34,9.8c-0.5,0.5-0.5,1.4,0,1.9c0.3,0.3,0.6,0.4,1,0.4c0.3,0,0.7-0.1,1-0.4l2.9-2.9
			c0.5-0.5,0.5-1.4,0-1.9c-0.3-0.3-0.6-0.4-1-0.4C37.5,6.6,37.1,6.7,36.9,6.9z"/>
	</defs>
	<clipPath id="SVGID_38_">
		<use xlink:href="#SVGID_37_"  style="overflow:visible;"/>
	</clipPath>
	<g class="st18">
		<g>
			<defs>
				<rect id="SVGID_39_" x="28.2" y="1.2" width="16" height="16"/>
			</defs>
			<clipPath id="SVGID_40_">
				<use xlink:href="#SVGID_39_"  style="overflow:visible;"/>
			</clipPath>
			<g class="st19">
				<defs>
					<rect id="SVGID_41_" x="33.2" y="6.2" width="7" height="6"/>
				</defs>
				<clipPath id="SVGID_42_">
					<use xlink:href="#SVGID_41_"  style="overflow:visible;"/>
				</clipPath>
				<rect x="28.6" y="1.6" class="st20" width="15.5" height="15.5"/>
			</g>
		</g>
	</g>
</g>
<g>
	<defs>
		<path id="SVGID_43_" d="M7,6.9C6.4,7.5,6.4,8.3,7,8.9l2.9,2.9c0.3,0.3,0.6,0.4,1,0.4c0.3,0,0.7-0.1,1-0.4c0.5-0.5,0.5-1.4,0-1.9
			L8.9,6.9c-0.3-0.3-0.6-0.4-1-0.4C7.6,6.6,7.2,6.7,7,6.9z"/>
	</defs>
	<clipPath id="SVGID_44_">
		<use xlink:href="#SVGID_43_"  style="overflow:visible;"/>
	</clipPath>
	<g class="st21">
		<g>
			<defs>
				<rect id="SVGID_45_" x="1.2" y="1.2" width="16" height="16"/>
			</defs>
			<clipPath id="SVGID_46_">
				<use xlink:href="#SVGID_45_"  style="overflow:visible;"/>
			</clipPath>
			<g class="st22">
				<defs>
					<rect id="SVGID_47_" x="6.2" y="6.2" width="6" height="6"/>
				</defs>
				<clipPath id="SVGID_48_">
					<use xlink:href="#SVGID_47_"  style="overflow:visible;"/>
				</clipPath>
				<rect x="1.6" y="1.6" class="st23" width="15.5" height="15.5"/>
			</g>
		</g>
	</g>
</g>
<g>
	<defs>
		<path id="SVGID_49_" d="M34,34c-0.5,0.5-0.5,1.4,0,1.9l2.9,2.9c0.3,0.3,0.6,0.4,1,0.4c0.3,0,0.7-0.1,1-0.4c0.5-0.5,0.5-1.4,0-1.9
			L35.9,34c-0.3-0.3-0.6-0.4-1-0.4C34.6,33.6,34.3,33.7,34,34z"/>
	</defs>
	<clipPath id="SVGID_50_">
		<use xlink:href="#SVGID_49_"  style="overflow:visible;"/>
	</clipPath>
	<g class="st24">
		<g>
			<defs>
				<rect id="SVGID_51_" x="28.2" y="28.2" width="16" height="16"/>
			</defs>
			<clipPath id="SVGID_52_">
				<use xlink:href="#SVGID_51_"  style="overflow:visible;"/>
			</clipPath>
			<g class="st25">
				<defs>
					<rect id="SVGID_53_" x="33.2" y="33.2" width="7" height="6"/>
				</defs>
				<clipPath id="SVGID_54_">
					<use xlink:href="#SVGID_53_"  style="overflow:visible;"/>
				</clipPath>
				<rect x="28.6" y="28.6" class="st26" width="15.5" height="15.5"/>
			</g>
		</g>
	</g>
</g>
<g>
	<defs>
		<path id="SVGID_55_" d="M1.6,21.8c-0.7,0-1.3,0.6-1.3,1.3c0,0.7,0.6,1.3,1.3,1.3h4c0.7,0,1.3-0.6,1.3-1.3v-0.1
			c0-0.7-0.6-1.3-1.3-1.3H1.6z"/>
	</defs>
	<clipPath id="SVGID_56_">
		<use xlink:href="#SVGID_55_"  style="overflow:visible;"/>
	</clipPath>
	<g class="st27">
		<g>
			<defs>
				<rect id="SVGID_57_" x="-5.8" y="16.2" width="18" height="14"/>
			</defs>
			<clipPath id="SVGID_58_">
				<use xlink:href="#SVGID_57_"  style="overflow:visible;"/>
			</clipPath>
			<g class="st28">
				<defs>
					<rect id="SVGID_59_" x="0.2" y="21.2" width="7" height="4"/>
				</defs>
				<clipPath id="SVGID_60_">
					<use xlink:href="#SVGID_59_"  style="overflow:visible;"/>
				</clipPath>
				<rect x="-4.8" y="16.8" class="st29" width="16.7" height="12.7"/>
			</g>
		</g>
	</g>
</g>
<g>
	<defs>
		<path id="SVGID_61_" d="M40.4,21.9c-0.7,0-1.3,0.6-1.3,1.3s0.6,1.3,1.3,1.3h4c0.7,0,1.3-0.6,1.3-1.3s-0.6-1.3-1.3-1.3H40.4z"/>
	</defs>
	<clipPath id="SVGID_62_">
		<use xlink:href="#SVGID_61_"  style="overflow:visible;"/>
	</clipPath>
	<g class="st30">
		<g>
			<defs>
				<rect id="SVGID_63_" x="33.2" y="16.2" width="18" height="14"/>
			</defs>
			<clipPath id="SVGID_64_">
				<use xlink:href="#SVGID_63_"  style="overflow:visible;"/>
			</clipPath>
			<g class="st31">
				<defs>
					<rect id="SVGID_65_" x="38.2" y="21.2" width="8" height="4"/>
				</defs>
				<clipPath id="SVGID_66_">
					<use xlink:href="#SVGID_65_"  style="overflow:visible;"/>
				</clipPath>
				<rect x="34" y="16.9" class="st32" width="16.7" height="12.7"/>
			</g>
		</g>
	</g>
</g>
</svg>
