<?xml version="1.0" encoding="utf-8"?>
<!-- Generator: Adobe Illustrator 23.0.1, SVG Export Plug-In . SVG Version: 6.00 Build 0)  -->
<svg version="1.1" id="Warstwa_1" xmlns="http://www.w3.org/2000/svg" xmlns:xlink="http://www.w3.org/1999/xlink" x="0px" y="0px"
	 width="45px" height="53px" viewBox="0 0 45 53" style="enable-background:new 0 0 45 53;" xml:space="preserve">
<style type="text/css">
	.st0{clip-path:url(#SVGID_2_);enable-background:new    ;}
	.st1{clip-path:url(#SVGID_4_);}
	.st2{clip-path:url(#SVGID_6_);fill:#000EE6;}
	.st3{clip-path:url(#SVGID_8_);enable-background:new    ;}
	.st4{clip-path:url(#SVGID_10_);}
	.st5{clip-path:url(#SVGID_12_);fill:#000EE6;}
	.st6{clip-path:url(#SVGID_14_);enable-background:new    ;}
	.st7{clip-path:url(#SVGID_16_);}
	.st8{clip-path:url(#SVGID_18_);fill:#000EE6;}
	.st9{clip-path:url(#SVGID_20_);enable-background:new    ;}
	.st10{clip-path:url(#SVGID_22_);}
	.st11{clip-path:url(#SVGID_24_);fill:#000EE6;}
	.st12{clip-path:url(#SVGID_26_);enable-background:new    ;}
	.st13{clip-path:url(#SVGID_28_);}
	.st14{clip-path:url(#SVGID_30_);fill:#000EE6;}
</style>
<g>
	<defs>
		<path id="SVGID_1_" d="M13.1,9c-0.5,0.3-0.6,0.9-0.3,1.4c0.3,0.5,0.9,0.6,1.4,0.3c2.6-1.6,5.6-2.4,8.7-2.4c3.2,0,6.3,0.9,9,2.6
			C32,11,32.1,11,32.3,11c0.3,0,0.7-0.2,0.9-0.5c0.3-0.5,0.2-1.1-0.3-1.4c-3-1.9-6.5-2.9-10.1-2.9C19.4,6.3,16,7.2,13.1,9z"/>
	</defs>
	<clipPath id="SVGID_2_">
		<use xlink:href="#SVGID_1_"  style="overflow:visible;"/>
	</clipPath>
	<g class="st0">
		<g>
			<defs>
				<rect id="SVGID_3_" x="7" y="1" width="32" height="16"/>
			</defs>
			<clipPath id="SVGID_4_">
				<use xlink:href="#SVGID_3_"  style="overflow:visible;"/>
			</clipPath>
			<g class="st1">
				<defs>
					<rect id="SVGID_5_" x="12" y="6" width="22" height="6"/>
				</defs>
				<clipPath id="SVGID_6_">
					<use xlink:href="#SVGID_5_"  style="overflow:visible;"/>
				</clipPath>
				<rect x="7.6" y="1.3" class="st2" width="30.7" height="14.7"/>
			</g>
		</g>
	</g>
</g>
<g>
	<defs>
		<path id="SVGID_7_" d="M22.2,0c-4.5,0-8.8,1.3-12.6,3.5C9.1,3.8,9,4.4,9.3,4.9c0.3,0.5,0.9,0.6,1.4,0.3C14.2,3.1,18.3,2,22.4,2
			c4.2,0,8.4,1.2,12,3.3c0.2,0.1,0.3,0.1,0.5,0.1h0.1c0.3,0,0.6-0.2,0.8-0.5c0.1-0.2,0.1-0.3,0.1-0.5V4.5c0-0.3-0.2-0.6-0.5-0.8
			C31.6,1.3,27.1,0,22.6,0H22.2z"/>
	</defs>
	<clipPath id="SVGID_8_">
		<use xlink:href="#SVGID_7_"  style="overflow:visible;"/>
	</clipPath>
	<g class="st3">
		<g>
			<defs>
				<rect id="SVGID_9_" x="4" y="-5" width="37" height="16"/>
			</defs>
			<clipPath id="SVGID_10_">
				<use xlink:href="#SVGID_9_"  style="overflow:visible;"/>
			</clipPath>
			<g class="st4">
				<defs>
					<rect id="SVGID_11_" x="8" y="0" width="28" height="6"/>
				</defs>
				<clipPath id="SVGID_12_">
					<use xlink:href="#SVGID_11_"  style="overflow:visible;"/>
				</clipPath>
				<rect x="4.1" y="-5" class="st5" width="36.8" height="15.5"/>
			</g>
		</g>
	</g>
</g>
<g>
	<defs>
		<path id="SVGID_13_" d="M18.2,39.5c0-1.3-0.2-1.3,1.2-1.3h6.2c1.4,0,1.7,0,1.7,1.3v10.9h-9V39.5z M8,46.3V26.5l14.5-10.9
			l15.1,11.3c0,0.1-0.1,0.3-0.1,0.4v19c0,3.7-0.6,4.1-4.1,4.1h-4.9V39.5c0-2.2-1.1-2.6-2.9-2.6h-6.2c-1.9,0-2.5,0.4-2.5,2.6v10.9
			h-5.4C8.1,50.4,8,50,8,46.3z M22.5,12.7C22.5,12.7,22.5,12.7,22.5,12.7c-0.1,0-0.2,0-0.2,0c-0.1,0-0.2,0-0.2,0.1
			c-0.1,0-0.2,0.1-0.2,0.1c0,0,0,0-0.1,0L0.5,28.9c-0.6,0.4-0.7,1.2-0.3,1.8c0.3,0.3,0.6,0.5,1,0.5c0.3,0,0.5-0.1,0.8-0.3l3.3-2.5
			v17.9c0,5,1.3,6.6,6,6.6h22.2c4.7,0,6.5-1.7,6.5-6.6V28.8l2.8,2.1c0.2,0.2,0.5,0.3,0.8,0.3c0.4,0,0.8-0.2,1-0.5
			c0.2-0.2,0.2-0.5,0.3-0.7v-0.1c0-0.4-0.2-0.7-0.5-1L23.3,12.9c0,0,0,0-0.1,0c-0.1-0.1-0.2-0.1-0.2-0.1c-0.1,0-0.1-0.1-0.2-0.1
			C22.7,12.7,22.6,12.7,22.5,12.7L22.5,12.7z"/>
	</defs>
	<clipPath id="SVGID_14_">
		<use xlink:href="#SVGID_13_"  style="overflow:visible;"/>
	</clipPath>
	<g class="st6">
		<g>
			<defs>
				<rect id="SVGID_15_" x="-6" y="7" width="56" height="51"/>
			</defs>
			<clipPath id="SVGID_16_">
				<use xlink:href="#SVGID_15_"  style="overflow:visible;"/>
			</clipPath>
			<g class="st7">
				<defs>
					<rect id="SVGID_17_" x="0" y="12" width="45" height="41"/>
				</defs>
				<clipPath id="SVGID_18_">
					<use xlink:href="#SVGID_17_"  style="overflow:visible;"/>
				</clipPath>
				<rect x="-5" y="7.7" class="st8" width="55" height="50.3"/>
			</g>
		</g>
	</g>
</g>
<g>
	<defs>
		<path id="SVGID_19_" d="M19.3,21.7l-8.4,6.5c-0.2,0.1-0.1,0.3-0.1,0.5v7.3c0,0.4,0.3,0.6,0.6,0.6c0.4,0,0.6-0.3,0.6-0.6v-7
			l8.1-6.3c0.3-0.2,0.2-0.6,0-0.9c-0.1-0.2-0.3-0.3-0.5-0.3C19.6,21.6,19.4,21.6,19.3,21.7z"/>
	</defs>
	<clipPath id="SVGID_20_">
		<use xlink:href="#SVGID_19_"  style="overflow:visible;"/>
	</clipPath>
	<g class="st9">
		<g>
			<defs>
				<rect id="SVGID_21_" x="5" y="16" width="21" height="26"/>
			</defs>
			<clipPath id="SVGID_22_">
				<use xlink:href="#SVGID_21_"  style="overflow:visible;"/>
			</clipPath>
			<g class="st10">
				<defs>
					<rect id="SVGID_23_" x="10" y="21" width="11" height="16"/>
				</defs>
				<clipPath id="SVGID_24_">
					<use xlink:href="#SVGID_23_"  style="overflow:visible;"/>
				</clipPath>
				<rect x="5.8" y="16.6" class="st11" width="19.6" height="25"/>
			</g>
		</g>
	</g>
</g>
<g>
	<defs>
		<path id="SVGID_25_" d="M10.8,38.4V39c0,0.4,0.3,0.6,0.6,0.6c0.4,0,0.6-0.3,0.6-0.6v-0.6c0-0.4-0.3-0.6-0.6-0.6
			C11.1,37.7,10.8,38,10.8,38.4z"/>
	</defs>
	<clipPath id="SVGID_26_">
		<use xlink:href="#SVGID_25_"  style="overflow:visible;"/>
	</clipPath>
	<g class="st12">
		<g>
			<defs>
				<rect id="SVGID_27_" x="5" y="32" width="13" height="13"/>
			</defs>
			<clipPath id="SVGID_28_">
				<use xlink:href="#SVGID_27_"  style="overflow:visible;"/>
			</clipPath>
			<g class="st13">
				<defs>
					<rect id="SVGID_29_" x="10" y="37" width="3" height="3"/>
				</defs>
				<clipPath id="SVGID_30_">
					<use xlink:href="#SVGID_29_"  style="overflow:visible;"/>
				</clipPath>
				<rect x="5.8" y="32.7" class="st14" width="11.3" height="11.9"/>
			</g>
		</g>
	</g>
</g>
</svg>
