<?xml version="1.0" encoding="UTF-8"?>
<svg width="46px" height="42px" viewBox="0 0 46 42" version="1.1" xmlns="http://www.w3.org/2000/svg" xmlns:xlink="http://www.w3.org/1999/xlink">
    <!-- Generator: Sketch 52.6 (67491) - http://www.bohemiancoding.com/sketch -->
    <title>medicover copy</title>
    <desc>Created with Sketch.</desc>
    <defs>
        <polygon id="path-1" points="0 0.451547124 45.7662762 0.451547124 45.7662762 40.979085 0 40.979085"></polygon>
    </defs>
    <g id="ASSETY" stroke="none" stroke-width="1" fill="none" fill-rule="evenodd">
        <g id="medicover-copy">
            <g id="Group-10">
                <g id="Group-3" transform="translate(0.000000, 0.254989)">
                    <mask id="mask-2" fill="white">
                        <use xlink:href="#path-1"></use>
                    </mask>
                    <g id="Clip-2"></g>
                    <path d="M12.8127524,3.27769092 C10.2586571,3.27769092 7.85789524,4.23999288 6.0522127,5.98725627 L5.72072063,6.30873013 C3.9150381,8.05599353 2.9205619,10.3698988 2.9205619,12.8244046 C2.9205619,15.278204 3.9150381,17.5928158 5.72072063,19.3400792 C5.75284762,19.3704602 5.78278413,19.4029608 5.81199048,19.4368746 C10.5594825,24.9711707 19.9186571,35.8066059 21.362181,37.2034275 C22.0134825,37.832951 22.5406571,38.1523053 22.9298317,38.1530118 C23.4153873,38.1530118 24.0520857,37.6365341 24.499673,37.2034275 C26.1688159,35.5875798 35.3359587,24.8786144 39.9491016,19.4425269 C39.9797683,19.4064935 40.0118952,19.3725798 40.0454825,19.3400792 C41.8511651,17.5928158 42.8456413,15.278204 42.8456413,12.8244046 C42.8456413,10.3698988 41.8511651,8.05599353 40.0454825,6.30873013 L39.7139905,5.98725627 C37.9083079,4.23999288 35.507546,3.27769092 32.9534508,3.27769092 C30.4402444,3.27769092 28.0738,4.21031837 26.2783397,5.90600464 C25.9198317,6.37019876 24.8508794,7.49076477 22.8831016,7.49076477 C20.9963714,7.49076477 19.8500222,6.32639353 19.5156095,5.93214647 C17.7164984,4.21950333 15.3391016,3.27769092 12.8127524,3.27769092 M22.9298317,40.9791556 C21.3191016,40.9784491 20.0851333,39.9638635 19.2972921,39.2015112 C17.4324667,37.3970184 4.59627619,22.4438916 3.60691111,21.2908249 C1.27989524,19.0150726 -7.3015873e-05,16.0108818 -7.3015873e-05,12.8244046 C-7.3015873e-05,9.61461183 1.29814921,6.59063797 3.65583175,4.30993993 L3.98732381,3.98917261 C6.34427619,1.70776804 9.47884762,0.451547124 12.8127524,0.451547124 C16.145927,0.451547124 19.2804984,1.70776804 21.638181,3.98917261 C21.6922127,4.04216281 21.7418635,4.09797915 21.7871333,4.15803471 C21.7885937,4.15874124 22.2098952,4.66462098 22.8831016,4.66462098 C23.5884349,4.66462098 23.9045937,4.26189549 23.938181,4.21597065 C23.998054,4.1205883 24.0462444,4.06830464 24.1280222,3.98917261 C26.4857048,1.70776804 29.6202762,0.451547124 32.9534508,0.451547124 C36.2873556,0.451547124 39.421927,1.70776804 41.7788794,3.98917261 L42.1103714,4.30993993 C44.468054,6.59063797 45.7662762,9.61461183 45.7662762,12.8244046 C45.7662762,16.0101752 44.4870381,19.012953 42.1622127,21.2879988 C41.1750381,22.4509569 28.7097683,37.1257086 26.5645619,39.2015112 C25.7759905,39.96457 24.5412921,40.9791556 22.9298317,40.9791556" id="Fill-1" fill="#000EE6" mask="url(#mask-2)"></path>
                </g>
                <path d="M6.35822222,12.2612248 C6.29396825,12.2612248 6.22825397,12.2527464 6.16326984,12.2357895 C5.7748254,12.1319288 5.54701587,11.743334 5.65361905,11.3667503 C5.99825397,10.1536281 6.67219048,9.03659477 7.60022222,8.13858758 L7.80539683,7.94005098 C9.66657143,6.13838431 12.3112063,5.40923922 14.8769841,5.98789216 C15.2698095,6.07691569 15.5144127,6.45632549 15.4224127,6.83644183 C15.3311429,7.21655817 14.936127,7.45183464 14.5462222,7.36422418 C12.4718413,6.89720392 10.3390476,7.48574837 8.83784127,8.93909281 L8.63266667,9.13762941 C7.88279365,9.86324183 7.33955556,10.7633686 7.06136508,11.7419209 C6.97228571,12.0549163 6.67803175,12.2612248 6.35822222,12.2612248" id="Fill-4" fill="#000EE6"></path>
                <path d="M17.9851968,9.14603719 C17.7982762,9.14603719 17.6113556,9.07679667 17.4689746,8.93902216 C17.2243714,8.70233261 16.9578635,8.48471954 16.6760222,8.29183523 C16.3467206,8.06574373 16.2693238,7.62486529 16.5029746,7.30621758 C16.7351651,6.98756987 17.1907841,6.91267706 17.5200857,7.13876856 C17.8691016,7.37757771 18.1991333,7.64676791 18.501419,7.93998033 C18.7869111,8.21623588 18.7869111,8.6627666 18.501419,8.93902216 C18.3590381,9.07679667 18.1721175,9.14603719 17.9851968,9.14603719" id="Fill-6" fill="#000EE6"></path>
                <path d="M15.2063026,18.7139706 C14.4257692,18.7139706 13.7904327,19.3287521 13.7904327,20.0840329 C13.7904327,20.8393137 14.4257692,21.453319 15.2063026,21.453319 L20.8601557,21.453319 C21.2075051,21.453319 21.6174254,21.725779 21.6174254,22.0626668 L21.6174254,27.6935065 C21.6174254,28.4495635 22.252762,29.0635688 23.0332953,29.0635688 C23.8130265,29.0635688 24.448363,28.4495635 24.448363,27.6935065 L24.448363,22.0626668 C24.448363,21.725779 24.6023839,21.453319 24.9497333,21.453319 L30.6204325,21.453319 C31.4001636,21.453319 32.0355001,20.8393137 32.0355001,20.0840329 C32.0355001,19.3287521 31.4001636,18.7139706 30.6204325,18.7139706 L24.9497333,18.7139706 C24.6023839,18.7139706 24.448363,18.4415107 24.448363,18.1053991 L24.448363,12.7788452 C24.448363,12.0227882 23.8130265,11.4087829 23.0332953,11.4087829 C22.252762,11.4087829 21.6174254,12.0227882 21.6174254,12.7788452 L21.6174254,18.1053991 C21.6174254,18.4415107 21.2075051,18.7139706 20.8601557,18.7139706 L15.2063026,18.7139706 Z M23.0332953,30.2807119 C21.5588654,30.2807119 20.3595875,29.1202342 20.3595875,27.6935065 L20.3595875,22.6712384 L15.2063026,22.6712384 C13.7318726,22.6712384 12.5325948,21.5107607 12.5325948,20.0840329 C12.5325948,18.6573052 13.7318726,17.4968275 15.2063026,17.4968275 L20.3595875,17.4968275 L20.3595875,12.7788452 C20.3595875,11.3521174 21.5588654,10.1916397 23.0332953,10.1916397 C24.5077252,10.1916397 25.7070031,11.3521174 25.7070031,12.7788452 L25.7070031,17.4968275 L30.6204325,17.4968275 C32.0948624,17.4968275 33.2941403,18.6573052 33.2941403,20.0840329 C33.2941403,21.5107607 32.0948624,22.6712384 30.6204325,22.6712384 L25.7070031,22.6712384 L25.7070031,27.6935065 C25.7070031,29.1202342 24.5077252,30.2807119 23.0332953,30.2807119 Z" id="Fill-8" fill="#000EE6"></path>
            </g>
        </g>
    </g>
</svg>