<svg class="c-icon__svg" data-name="Layer 1" xmlns="http://www.w3.org/2000/svg" viewBox="0 0 74 74"><defs><style>.cls-2,.cls-3{opacity:0.7;}</style></defs><title>Artboard 95</title><polygon class="cls-1" points="53.19 71.69 4.63 71.69 4.63 20.81 6.94 20.81 6.94 69.38 50.88 69.38 50.88 60.13 53.19 60.13 53.19 71.69"></polygon><rect class="cls-1" x="50.88" y="20.81" width="2.31" height="9.25"></rect><path class="cls-1" d="M56.66,24.28a1.17,1.17,0,0,1-.52-.12L28.91,10.54,1.67,24.16a1.16,1.16,0,0,1-1.67-1V17.34a1.17,1.17,0,0,1,.64-1L28.39,2.43a1.17,1.17,0,0,1,1,0L57.17,16.31a1.15,1.15,0,0,1,.64,1v5.79a1.15,1.15,0,0,1-1.15,1.15ZM28.91,8.09a1,1,0,0,1,.51.13l26.08,13V18.06L28.91,4.76,2.31,18.06v3.19l26.08-13A1.06,1.06,0,0,1,28.91,8.09Z"></path><g class="cls-2"><path class="cls-1" d="M28.91,33.53a6.94,6.94,0,1,1,6.93-6.94A6.94,6.94,0,0,1,28.91,33.53Zm0-11.56a4.63,4.63,0,1,0,4.62,4.62A4.63,4.63,0,0,0,28.91,22Z"></path></g><path class="cls-1" d="M42.78,46.25H15V39.31H42.78ZM17.34,43.94H40.47V41.63H17.34Z"></path><rect class="cls-1" x="17.34" y="45.09" width="2.31" height="24.28"></rect><rect class="cls-1" x="38.16" y="45.09" width="2.31" height="24.28"></rect><polygon class="cls-1" points="11.56 12.72 9.25 12.72 9.25 2.31 16.19 2.31 16.19 10.41 13.88 10.41 13.88 4.63 11.56 4.63 11.56 12.72"></polygon><rect class="cls-1" y="69.38" width="5.78" height="2.31"></rect><rect class="cls-1" x="52.03" y="69.38" width="21.97" height="2.31"></rect><g class="cls-2"><rect class="cls-1" x="33.53" y="56.66" width="2.31" height="2.31"></rect></g><path class="cls-3" d="M74,45.09A13.88,13.88,0,1,0,59,58.91V70.53h2.31V58.91A13.89,13.89,0,0,0,74,45.09ZM61.28,56.6V53.67l6.6-6.6-1.63-1.64-5,5V40.47H59v5.3l-5-5-1.63,1.63L59,49V56.6a11.57,11.57,0,1,1,2.31,0Z"></path></svg>
