<?xml version="1.0" encoding="utf-8"?>
<!-- Generator: Adobe Illustrator 23.0.1, SVG Export Plug-In . SVG Version: 6.00 Build 0)  -->
<svg version="1.1" id="Warstwa_1" xmlns="http://www.w3.org/2000/svg" xmlns:xlink="http://www.w3.org/1999/xlink" x="0px" y="0px"
	 width="45px" height="44px" viewBox="0 0 45 44" style="enable-background:new 0 0 45 44;" xml:space="preserve">
<style type="text/css">
	.st0{clip-path:url(#SVGID_2_);enable-background:new    ;}
	.st1{clip-path:url(#SVGID_4_);}
	.st2{clip-path:url(#SVGID_6_);fill:#000EE6;}
	.st3{clip-path:url(#SVGID_8_);enable-background:new    ;}
	.st4{clip-path:url(#SVGID_10_);}
	.st5{clip-path:url(#SVGID_12_);fill:#000EE6;}
	.st6{clip-path:url(#SVGID_14_);enable-background:new    ;}
	.st7{clip-path:url(#SVGID_16_);}
	.st8{clip-path:url(#SVGID_18_);fill:#000EE6;}
	.st9{clip-path:url(#SVGID_20_);enable-background:new    ;}
	.st10{clip-path:url(#SVGID_22_);}
	.st11{clip-path:url(#SVGID_24_);fill:#000EE6;}
	.st12{clip-path:url(#SVGID_26_);enable-background:new    ;}
	.st13{clip-path:url(#SVGID_28_);}
	.st14{clip-path:url(#SVGID_30_);fill:#000EE6;}
	.st15{clip-path:url(#SVGID_32_);enable-background:new    ;}
	.st16{clip-path:url(#SVGID_34_);}
	.st17{clip-path:url(#SVGID_36_);fill:#000EE6;}
	.st18{clip-path:url(#SVGID_38_);enable-background:new    ;}
	.st19{clip-path:url(#SVGID_40_);}
	.st20{clip-path:url(#SVGID_42_);fill:#000EE6;}
	.st21{clip-path:url(#SVGID_44_);enable-background:new    ;}
	.st22{clip-path:url(#SVGID_46_);}
	.st23{clip-path:url(#SVGID_48_);fill:#000EE6;}
	.st24{clip-path:url(#SVGID_50_);enable-background:new    ;}
	.st25{clip-path:url(#SVGID_52_);}
	.st26{clip-path:url(#SVGID_54_);fill:#000EE6;}
	.st27{clip-path:url(#SVGID_56_);enable-background:new    ;}
	.st28{clip-path:url(#SVGID_58_);}
	.st29{clip-path:url(#SVGID_60_);fill:#000EE6;}
	.st30{clip-path:url(#SVGID_62_);enable-background:new    ;}
	.st31{clip-path:url(#SVGID_64_);}
	.st32{clip-path:url(#SVGID_66_);fill:#000EE6;}
	.st33{clip-path:url(#SVGID_68_);enable-background:new    ;}
	.st34{clip-path:url(#SVGID_70_);}
	.st35{clip-path:url(#SVGID_72_);fill:#000EE6;}
	.st36{clip-path:url(#SVGID_74_);enable-background:new    ;}
	.st37{clip-path:url(#SVGID_76_);}
	.st38{clip-path:url(#SVGID_78_);fill:#000EE6;}
</style>
<g>
	<g>
		<g>
			<defs>
				<path id="SVGID_1_" d="M35.2,13.4c0-0.6,0.5-1.1,1.1-1.1s1.1,0.5,1.1,1.1s-0.5,1.1-1.1,1.1C35.7,14.4,35.2,14,35.2,13.4z
					 M37.5,2.5h2.3l1.3,1.2l-1.3,1.2h-2.3V2.5z M39.8,0.1h-2.3h-2.4v2.4v2.3v2.4l0,0v3c-1.3,0.5-2.3,1.7-2.3,3.2
					c0,1.9,1.6,3.4,3.5,3.4s3.5-1.5,3.5-3.4c0-1.5-1-2.7-2.3-3.2v-3h2.3h0.9l0.7-0.6l1.3-1.2l1.9-1.7L42.7,2l-1.3-1.2l-0.7-0.6h-0.9
					V0.1z"/>
			</defs>
			<clipPath id="SVGID_2_">
				<use xlink:href="#SVGID_1_"  style="overflow:visible;"/>
			</clipPath>
			<g class="st0">
				<g>
					<g>
						<defs>
							<rect id="SVGID_3_" x="27.4" y="-4.9" width="23" height="27"/>
						</defs>
						<clipPath id="SVGID_4_">
							<use xlink:href="#SVGID_3_"  style="overflow:visible;"/>
						</clipPath>
						<g class="st1">
							<g>
								<defs>
									<rect id="SVGID_5_" x="32.4" y="0.1" width="13" height="17"/>
								</defs>
								<clipPath id="SVGID_6_">
									<use xlink:href="#SVGID_5_"  style="overflow:visible;"/>
								</clipPath>
								<rect x="27.8" y="-4.9" class="st2" width="21.7" height="26.7"/>
							</g>
						</g>
					</g>
				</g>
			</g>
		</g>
	</g>
	<g>
		<g>
			<defs>
				<path id="SVGID_7_" d="M19.8,29.2c-1.6,0.6-3,1.1-4.3,1.4c-0.6,0.1-1,0.8-0.9,1.4c0.1,0.5,0.6,0.9,1.1,0.9c0.1,0,0.2,0,0.3,0
					c1.4-0.3,2.9-0.8,4.6-1.5c0.6-0.2,0.9-0.9,0.7-1.5c-0.2-0.5-0.6-0.7-1.1-0.7C20.1,29.1,19.9,29.2,19.8,29.2z"/>
			</defs>
			<clipPath id="SVGID_8_">
				<use xlink:href="#SVGID_7_"  style="overflow:visible;"/>
			</clipPath>
			<g class="st3">
				<g>
					<g>
						<defs>
							<rect id="SVGID_9_" x="9.4" y="24.1" width="17" height="14"/>
						</defs>
						<clipPath id="SVGID_10_">
							<use xlink:href="#SVGID_9_"  style="overflow:visible;"/>
						</clipPath>
						<g class="st4">
							<g>
								<defs>
									<rect id="SVGID_11_" x="14.4" y="29.1" width="8" height="4"/>
								</defs>
								<clipPath id="SVGID_12_">
									<use xlink:href="#SVGID_11_"  style="overflow:visible;"/>
								</clipPath>
								<rect x="9.6" y="24.1" class="st5" width="16.8" height="13.8"/>
							</g>
						</g>
					</g>
				</g>
			</g>
		</g>
	</g>
	<g>
		<g>
			<defs>
				<path id="SVGID_13_" d="M5.7,30c-0.4,0.5-0.2,1.3,0.3,1.6c1.5,1,3.2,1.6,4.9,1.7H11c0.6,0,1.1-0.5,1.2-1.1
					c0.1-0.6-0.4-1.2-1.1-1.3c-1.4-0.1-2.7-0.6-3.9-1.4c-0.2-0.1-0.4-0.2-0.7-0.2C6.3,29.5,5.9,29.7,5.7,30z"/>
			</defs>
			<clipPath id="SVGID_14_">
				<use xlink:href="#SVGID_13_"  style="overflow:visible;"/>
			</clipPath>
			<g class="st6">
				<g>
					<g>
						<defs>
							<rect id="SVGID_15_" x="0.4" y="24.1" width="17" height="15"/>
						</defs>
						<clipPath id="SVGID_16_">
							<use xlink:href="#SVGID_15_"  style="overflow:visible;"/>
						</clipPath>
						<g class="st7">
							<g>
								<defs>
									<rect id="SVGID_17_" x="4.4" y="29.1" width="8" height="5"/>
								</defs>
								<clipPath id="SVGID_18_">
									<use xlink:href="#SVGID_17_"  style="overflow:visible;"/>
								</clipPath>
								<rect x="0.5" y="24.5" class="st8" width="16.7" height="13.9"/>
							</g>
						</g>
					</g>
				</g>
			</g>
		</g>
	</g>
	<g>
		<g>
			<defs>
				<path id="SVGID_19_" d="M10.9,7.9c-1.7,0.5-3.2,1.2-4.6,2C5.8,10.3,5.6,11,6,11.5C6.2,11.9,6.6,12,7,12c0.2,0,0.4-0.1,0.6-0.2
					c1.2-0.7,2.5-1.3,4-1.8c0.6-0.2,1-0.8,0.8-1.5c-0.2-0.5-0.6-0.8-1.1-0.8C11.1,7.8,11,7.8,10.9,7.9z"/>
			</defs>
			<clipPath id="SVGID_20_">
				<use xlink:href="#SVGID_19_"  style="overflow:visible;"/>
			</clipPath>
			<g class="st9">
				<g>
					<g>
						<defs>
							<rect id="SVGID_21_" x="0.4" y="2.1" width="18" height="16"/>
						</defs>
						<clipPath id="SVGID_22_">
							<use xlink:href="#SVGID_21_"  style="overflow:visible;"/>
						</clipPath>
						<g class="st10">
							<g>
								<defs>
									<rect id="SVGID_23_" x="5.4" y="7.1" width="8" height="6"/>
								</defs>
								<clipPath id="SVGID_24_">
									<use xlink:href="#SVGID_23_"  style="overflow:visible;"/>
								</clipPath>
								<rect x="0.8" y="2.8" class="st11" width="16.6" height="14.3"/>
							</g>
						</g>
					</g>
				</g>
			</g>
		</g>
	</g>
	<g>
		<g>
			<defs>
				<path id="SVGID_25_" d="M37.6,32.2c-0.2,1.1-0.9,2.3-2,3.3c-0.5,0.4-0.5,1.2-0.1,1.7c0.2,0.3,0.6,0.4,0.9,0.4
					c0.3,0,0.6-0.1,0.8-0.3c1.5-1.4,2.5-3,2.8-4.6c0.1-0.6-0.3-1.3-0.9-1.4c-0.1,0-0.2,0-0.2,0C38.2,31.3,37.7,31.6,37.6,32.2z"/>
			</defs>
			<clipPath id="SVGID_26_">
				<use xlink:href="#SVGID_25_"  style="overflow:visible;"/>
			</clipPath>
			<g class="st12">
				<g>
					<g>
						<defs>
							<rect id="SVGID_27_" x="29.4" y="26.1" width="16" height="17"/>
						</defs>
						<clipPath id="SVGID_28_">
							<use xlink:href="#SVGID_27_"  style="overflow:visible;"/>
						</clipPath>
						<g class="st13">
							<g>
								<defs>
									<rect id="SVGID_29_" x="34.4" y="31.1" width="6" height="7"/>
								</defs>
								<clipPath id="SVGID_30_">
									<use xlink:href="#SVGID_29_"  style="overflow:visible;"/>
								</clipPath>
								<rect x="30.2" y="26.3" class="st14" width="14.8" height="16.3"/>
							</g>
						</g>
					</g>
				</g>
			</g>
		</g>
	</g>
	<g>
		<g>
			<defs>
				<path id="SVGID_31_" d="M28.5,25.5c-1.4,0.5-2.9,1.1-4.5,1.8c-0.6,0.3-0.9,1-0.6,1.6c0.2,0.4,0.6,0.7,1.1,0.7
					c0.2,0,0.3,0,0.5-0.1c1.5-0.7,2.9-1.3,4.3-1.8c0.6-0.2,0.9-0.9,0.7-1.5c-0.2-0.5-0.6-0.8-1.1-0.8C28.8,25.5,28.7,25.5,28.5,25.5
					z"/>
			</defs>
			<clipPath id="SVGID_32_">
				<use xlink:href="#SVGID_31_"  style="overflow:visible;"/>
			</clipPath>
			<g class="st15">
				<g>
					<g>
						<defs>
							<rect id="SVGID_33_" x="17.4" y="20.1" width="18" height="15"/>
						</defs>
						<clipPath id="SVGID_34_">
							<use xlink:href="#SVGID_33_"  style="overflow:visible;"/>
						</clipPath>
						<g class="st16">
							<g>
								<defs>
									<rect id="SVGID_35_" x="22.4" y="25.1" width="8" height="5"/>
								</defs>
								<clipPath id="SVGID_36_">
									<use xlink:href="#SVGID_35_"  style="overflow:visible;"/>
								</clipPath>
								<rect x="18.4" y="20.5" class="st17" width="16.7" height="14.1"/>
							</g>
						</g>
					</g>
				</g>
			</g>
		</g>
	</g>
	<g>
		<g>
			<defs>
				<path id="SVGID_37_" d="M31.9,37.7c-1.3,0.5-2.8,0.9-4.3,1c-0.6,0.1-1.1,0.6-1,1.3c0.1,0.6,0.6,1.1,1.2,1.1h0.1
					c1.7-0.2,3.4-0.6,4.9-1.2c0.6-0.2,0.9-0.9,0.7-1.5c-0.2-0.5-0.6-0.7-1.1-0.7C32.2,37.6,32.1,37.7,31.9,37.7z"/>
			</defs>
			<clipPath id="SVGID_38_">
				<use xlink:href="#SVGID_37_"  style="overflow:visible;"/>
			</clipPath>
			<g class="st18">
				<g>
					<g>
						<defs>
							<rect id="SVGID_39_" x="21.4" y="32.1" width="18" height="15"/>
						</defs>
						<clipPath id="SVGID_40_">
							<use xlink:href="#SVGID_39_"  style="overflow:visible;"/>
						</clipPath>
						<g class="st19">
							<g>
								<defs>
									<rect id="SVGID_41_" x="26.4" y="37.1" width="8" height="5"/>
								</defs>
								<clipPath id="SVGID_42_">
									<use xlink:href="#SVGID_41_"  style="overflow:visible;"/>
								</clipPath>
								<rect x="21.6" y="32.6" class="st20" width="16.9" height="13.5"/>
							</g>
						</g>
					</g>
				</g>
			</g>
		</g>
	</g>
	<g>
		<g>
			<defs>
				<path id="SVGID_43_" d="M24.1,8.9c-0.2,0.6,0.2,1.3,0.8,1.4c1.4,0.4,2.9,0.8,4.3,1.4c0.1,0.1,0.3,0.1,0.4,0.1
					c0.5,0,0.9-0.3,1.1-0.7c0.2-0.6-0.1-1.3-0.7-1.5c-1.5-0.6-3.1-1.1-4.6-1.5c-0.1,0-0.2,0-0.3,0C24.7,8,24.2,8.4,24.1,8.9z"/>
			</defs>
			<clipPath id="SVGID_44_">
				<use xlink:href="#SVGID_43_"  style="overflow:visible;"/>
			</clipPath>
			<g class="st21">
				<g>
					<g>
						<defs>
							<rect id="SVGID_45_" x="18.4" y="2.1" width="18" height="15"/>
						</defs>
						<clipPath id="SVGID_46_">
							<use xlink:href="#SVGID_45_"  style="overflow:visible;"/>
						</clipPath>
						<g class="st22">
							<g>
								<defs>
									<rect id="SVGID_47_" x="23.4" y="7.1" width="8" height="5"/>
								</defs>
								<clipPath id="SVGID_48_">
									<use xlink:href="#SVGID_47_"  style="overflow:visible;"/>
								</clipPath>
								<rect x="19" y="3" class="st23" width="16.8" height="13.8"/>
							</g>
						</g>
					</g>
				</g>
			</g>
		</g>
	</g>
	<g>
		<g>
			<defs>
				<path id="SVGID_49_" d="M32.4,25.8c-0.1,0.6,0.4,1.2,1.1,1.3c1,0.1,1.9,0.5,2.7,1.2c0.2,0.2,0.4,0.4,0.5,0.6
					c0.2,0.3,0.6,0.4,0.9,0.4c0.3,0,0.5-0.1,0.8-0.3c0.5-0.4,0.6-1.2,0.2-1.7c-0.2-0.3-0.5-0.5-0.7-0.8c-1.2-1.1-2.5-1.7-4.1-1.8
					h-0.1C32.9,24.7,32.4,25.2,32.4,25.8z"/>
			</defs>
			<clipPath id="SVGID_50_">
				<use xlink:href="#SVGID_49_"  style="overflow:visible;"/>
			</clipPath>
			<g class="st24">
				<g>
					<g>
						<defs>
							<rect id="SVGID_51_" x="26.4" y="19.1" width="18" height="16"/>
						</defs>
						<clipPath id="SVGID_52_">
							<use xlink:href="#SVGID_51_"  style="overflow:visible;"/>
						</clipPath>
						<g class="st25">
							<g>
								<defs>
									<rect id="SVGID_53_" x="31.4" y="24.1" width="8" height="6"/>
								</defs>
								<clipPath id="SVGID_54_">
									<use xlink:href="#SVGID_53_"  style="overflow:visible;"/>
								</clipPath>
								<rect x="27.3" y="19.7" class="st26" width="16.4" height="14.5"/>
							</g>
						</g>
					</g>
				</g>
			</g>
		</g>
	</g>
	<g>
		<g>
			<defs>
				<path id="SVGID_55_" d="M15.8,7c-0.7,0-1.1,0.6-1.1,1.2s0.6,1.1,1.3,1.1c1.4-0.1,3-0.1,4.5,0.1h0.1c0.6,0,1.1-0.4,1.2-1
					s-0.4-1.2-1-1.3c-1.2,0-2.2-0.1-3.3-0.1C16.9,7,16.4,7,15.8,7z"/>
			</defs>
			<clipPath id="SVGID_56_">
				<use xlink:href="#SVGID_55_"  style="overflow:visible;"/>
			</clipPath>
			<g class="st27">
				<g>
					<g>
						<defs>
							<rect id="SVGID_57_" x="9.4" y="1.1" width="18" height="14"/>
						</defs>
						<clipPath id="SVGID_58_">
							<use xlink:href="#SVGID_57_"  style="overflow:visible;"/>
						</clipPath>
						<g class="st28">
							<g>
								<defs>
									<rect id="SVGID_59_" x="14.4" y="6.1" width="8" height="4"/>
								</defs>
								<clipPath id="SVGID_60_">
									<use xlink:href="#SVGID_59_"  style="overflow:visible;"/>
								</clipPath>
								<rect x="9.7" y="2" class="st29" width="17.1" height="12.5"/>
							</g>
						</g>
					</g>
				</g>
			</g>
		</g>
	</g>
	<g>
		<g>
			<defs>
				<path id="SVGID_61_" d="M2.5,13.3c-1.1,1.4-1.8,3-2.1,4.8c-0.1,0.6,0.3,1.3,1,1.4c0.1,0,0.1,0,0.2,0c0.6,0,1.1-0.4,1.2-1
					c0.3-1.4,0.8-2.7,1.6-3.7c0.4-0.5,0.3-1.3-0.2-1.7c-0.2-0.2-0.5-0.3-0.7-0.3C3.1,12.9,2.8,13,2.5,13.3z"/>
			</defs>
			<clipPath id="SVGID_62_">
				<use xlink:href="#SVGID_61_"  style="overflow:visible;"/>
			</clipPath>
			<g class="st30">
				<g>
					<g>
						<defs>
							<rect id="SVGID_63_" x="-4.6" y="7.1" width="15" height="18"/>
						</defs>
						<clipPath id="SVGID_64_">
							<use xlink:href="#SVGID_63_"  style="overflow:visible;"/>
						</clipPath>
						<g class="st31">
							<g>
								<defs>
									<rect id="SVGID_65_" x="0.4" y="12.1" width="5" height="8"/>
								</defs>
								<clipPath id="SVGID_66_">
									<use xlink:href="#SVGID_65_"  style="overflow:visible;"/>
								</clipPath>
								<rect x="-4.6" y="7.9" class="st32" width="14.2" height="16.6"/>
							</g>
						</g>
					</g>
				</g>
			</g>
		</g>
	</g>
	<g>
		<g>
			<defs>
				<path id="SVGID_67_" d="M1.5,21.8c-0.6,0.1-1,0.8-0.9,1.4c0.4,1.7,1,3.3,1.9,4.7c0.2,0.4,0.6,0.5,1,0.5c0.2,0,0.4-0.1,0.6-0.2
					c0.5-0.3,0.7-1.1,0.4-1.6c-0.7-1.2-1.3-2.6-1.6-4c-0.1-0.6-0.6-0.9-1.2-0.9C1.6,21.8,1.5,21.8,1.5,21.8z"/>
			</defs>
			<clipPath id="SVGID_68_">
				<use xlink:href="#SVGID_67_"  style="overflow:visible;"/>
			</clipPath>
			<g class="st33">
				<g>
					<g>
						<defs>
							<rect id="SVGID_69_" x="-4.6" y="16.1" width="15" height="18"/>
						</defs>
						<clipPath id="SVGID_70_">
							<use xlink:href="#SVGID_69_"  style="overflow:visible;"/>
						</clipPath>
						<g class="st34">
							<g>
								<defs>
									<rect id="SVGID_71_" x="0.4" y="21.1" width="5" height="8"/>
								</defs>
								<clipPath id="SVGID_72_">
									<use xlink:href="#SVGID_71_"  style="overflow:visible;"/>
								</clipPath>
								<rect x="-4.5" y="16.8" class="st35" width="14.1" height="16.7"/>
							</g>
						</g>
					</g>
				</g>
			</g>
		</g>
	</g>
	<g>
		<g>
			<defs>
				<path id="SVGID_73_" d="M20.3,40.4c0-0.6,0.5-1.1,1.1-1.1s1.1,0.5,1.1,1.1s-0.5,1.1-1.1,1.1S20.3,41,20.3,40.4z M17.9,40.4
					c0,1.9,1.5,3.4,3.5,3.4c1.9,0,3.4-1.5,3.4-3.4s-1.5-3.5-3.4-3.5C19.5,37,17.9,38.5,17.9,40.4z"/>
			</defs>
			<clipPath id="SVGID_74_">
				<use xlink:href="#SVGID_73_"  style="overflow:visible;"/>
			</clipPath>
			<g class="st36">
				<g>
					<g>
						<defs>
							<rect id="SVGID_75_" x="12.4" y="31.1" width="18" height="18"/>
						</defs>
						<clipPath id="SVGID_76_">
							<use xlink:href="#SVGID_75_"  style="overflow:visible;"/>
						</clipPath>
						<g class="st37">
							<g>
								<defs>
									<rect id="SVGID_77_" x="17.4" y="36.1" width="8" height="8"/>
								</defs>
								<clipPath id="SVGID_78_">
									<use xlink:href="#SVGID_77_"  style="overflow:visible;"/>
								</clipPath>
								<rect x="12.9" y="32" class="st38" width="16.9" height="16.9"/>
							</g>
						</g>
					</g>
				</g>
			</g>
		</g>
	</g>
</g>
</svg>
