<svg xmlns="http://www.w3.org/2000/svg" xmlns:xlink="http://www.w3.org/1999/xlink" x="0px" y="0px" viewBox="0 0 120 120" style="enable-background:new 0 0 120 120;" xml:space="preserve" class="injected-svg js-svg-injector" data-parent="#icon10">
<style type="text/css">
	.icon-10-1{fill:none;stroke:#BDC5D1;}
	.icon-10-2{fill:#BDC5D1;}
	.icon-10-3{fill:#377DFF;}
	.icon-10-4{fill:none;stroke:#377DFF;}
	.icon-10-5{fill:none;stroke:#FFFFFF;}
</style>
<path class="icon-10-1 fill-none stroke-gray-400" stroke-width="3" stroke-linecap="round" stroke-linejoin="round" stroke-miterlimit="10" d="M118.3,45v67.4c0,3.2-2.7,5.9-5.9,5.9H7.6c-3.2,0-5.9-2.7-5.9-5.9V7.6c0-3.2,2.7-5.9,5.9-5.9h104.9  c3.2,0,5.9,2.7,5.9,5.9v19.3"></path>
<rect x="23.1" y="22" class="icon-10-2 fill-gray-400" opacity=".5" width="86.6" height="20"></rect>
<rect x="15.8" y="16.9" class="icon-10-3 fill-primary" width="88" height="20"></rect>
<rect x="65" y="87.1" class="icon-10-1 fill-none stroke-gray-400" stroke-width="3" stroke-linecap="round" stroke-linejoin="round" stroke-miterlimit="10" width="15.2" height="10.5"></rect>
<rect x="40.8" y="87.1" class="icon-10-1 fill-none stroke-gray-400" stroke-width="3" stroke-linecap="round" stroke-linejoin="round" stroke-miterlimit="10" width="15.2" height="10.5"></rect>
<rect x="16.5" y="87.1" class="icon-10-1 fill-none stroke-gray-400" stroke-width="3" stroke-linecap="round" stroke-linejoin="round" stroke-miterlimit="10" width="15.2" height="10.5"></rect>
<rect x="65" y="69.4" class="icon-10-1 fill-none stroke-gray-400" stroke-width="3" stroke-linecap="round" stroke-linejoin="round" stroke-miterlimit="10" width="15.2" height="10.5"></rect>
<rect x="40.8" y="69.4" class="icon-10-1 fill-none stroke-gray-400" stroke-width="3" stroke-linecap="round" stroke-linejoin="round" stroke-miterlimit="10" width="15.2" height="10.5"></rect>
<rect x="16.5" y="69.4" class="icon-10-1 fill-none stroke-gray-400" stroke-width="3" stroke-linecap="round" stroke-linejoin="round" stroke-miterlimit="10" width="15.2" height="10.5"></rect>
<rect x="88.6" y="69.4" class="icon-10-4 fill-none stroke-primary" stroke-width="3" stroke-linecap="round" stroke-linejoin="round" stroke-miterlimit="10" width="15.2" height="28.2"></rect>
<rect x="88.6" y="51.7" class="icon-10-1 fill-none stroke-gray-400" stroke-width="3" stroke-linecap="round" stroke-linejoin="round" stroke-miterlimit="10" width="15.2" height="10.5"></rect>
<rect x="65" y="51.7" class="icon-10-1 fill-none stroke-gray-400" stroke-width="3" stroke-linecap="round" stroke-linejoin="round" stroke-miterlimit="10" width="15.2" height="10.5"></rect>
<rect x="40.8" y="51.7" class="icon-10-1 fill-none stroke-gray-400" stroke-width="3" stroke-linecap="round" stroke-linejoin="round" stroke-miterlimit="10" width="15.2" height="10.5"></rect>
<rect x="16.5" y="51.7" class="icon-10-1 fill-none stroke-gray-400" stroke-width="3" stroke-linecap="round" stroke-linejoin="round" stroke-miterlimit="10" width="15.2" height="10.5"></rect>
<line class="icon-10-4 fill-none stroke-primary" stroke-width="3" stroke-linecap="round" stroke-linejoin="round" stroke-miterlimit="10" x1="93" y1="85.8" x2="99.4" y2="85.8"></line>
<line class="icon-10-4 fill-none stroke-primary" stroke-width="3" stroke-linecap="round" stroke-linejoin="round" stroke-miterlimit="10" x1="93" y1="81.3" x2="99.4" y2="81.3"></line>
<line class="icon-10-5 fill-none stroke-white" stroke-width="3" stroke-linecap="round" stroke-linejoin="round" stroke-miterlimit="10" x1="91.4" y1="32.7" x2="93.5" y2="32.7"></line>
<line class="icon-10-5 fill-none stroke-white" stroke-width="3" stroke-linecap="round" stroke-linejoin="round" stroke-miterlimit="10" x1="91.4" y1="20.9" x2="93.5" y2="20.9"></line>
<line class="icon-10-5 fill-none stroke-white" stroke-width="3" stroke-linecap="round" stroke-linejoin="round" stroke-miterlimit="10" x1="89.4" y1="30" x2="89.4" y2="23.3"></line>
<line class="icon-10-5 fill-none stroke-white" stroke-width="3" stroke-linecap="round" stroke-linejoin="round" stroke-miterlimit="10" x1="96" y1="30" x2="96" y2="23.3"></line>
<line class="icon-10-5 fill-none stroke-white" stroke-width="3" stroke-linecap="round" stroke-linejoin="round" stroke-miterlimit="10" x1="40.2" y1="23.3" x2="33" y2="30.6"></line>
<line class="icon-10-5 fill-none stroke-white" stroke-width="3" stroke-linecap="round" stroke-linejoin="round" stroke-miterlimit="10" x1="31.4" y1="23.3" x2="24.1" y2="30.6"></line>
</svg>
