<?xml version="1.0" encoding="utf-8"?>
<!-- Generator: Adobe Illustrator 23.0.1, SVG Export Plug-In . SVG Version: 6.00 Build 0)  -->
<svg version="1.1" id="Warstwa_1" xmlns="http://www.w3.org/2000/svg" xmlns:xlink="http://www.w3.org/1999/xlink" x="0px" y="0px"
	 width="45px" height="41px" viewBox="0 0 45 41" style="enable-background:new 0 0 45 41;" xml:space="preserve">
<style type="text/css">
	.st0{clip-path:url(#SVGID_2_);enable-background:new    ;}
	.st1{clip-path:url(#SVGID_4_);}
	.st2{clip-path:url(#SVGID_6_);fill:#000EE6;}
	.st3{clip-path:url(#SVGID_8_);enable-background:new    ;}
	.st4{clip-path:url(#SVGID_10_);}
	.st5{clip-path:url(#SVGID_12_);fill:#000EE6;}
	.st6{clip-path:url(#SVGID_14_);enable-background:new    ;}
	.st7{clip-path:url(#SVGID_16_);}
	.st8{clip-path:url(#SVGID_18_);fill:#000EE6;}
	.st9{clip-path:url(#SVGID_20_);enable-background:new    ;}
	.st10{clip-path:url(#SVGID_22_);}
	.st11{clip-path:url(#SVGID_24_);fill:#000EE6;}
	.st12{clip-path:url(#SVGID_26_);enable-background:new    ;}
	.st13{clip-path:url(#SVGID_28_);}
	.st14{clip-path:url(#SVGID_30_);fill:#000EE6;}
</style>
<g>
	<g>
		<g>
			<defs>
				<path id="SVGID_1_" d="M2.9,36.2V21.4c0-1.1,0.9-2,2-2H11c1.1,0,2,0.9,2,2v14.9c0,1.1-0.9,2-2,2H4.9C3.8,38.2,2.9,37.3,2.9,36.2
					z M4.9,17.1c-2.4,0-4.3,1.9-4.3,4.3v14.9c0,2.4,1.9,4.3,4.3,4.3H11c2.4,0,4.3-1.9,4.3-4.3V21.4c0-2.4-1.9-4.3-4.3-4.3
					C11,17.1,4.9,17.1,4.9,17.1z"/>
			</defs>
			<clipPath id="SVGID_2_">
				<use xlink:href="#SVGID_1_"  style="overflow:visible;"/>
			</clipPath>
			<g class="st0">
				<g>
					<g>
						<defs>
							<rect id="SVGID_3_" x="-4.9" y="12" width="26" height="34"/>
						</defs>
						<clipPath id="SVGID_4_">
							<use xlink:href="#SVGID_3_"  style="overflow:visible;"/>
						</clipPath>
						<g class="st1">
							<g>
								<defs>
									<rect id="SVGID_5_" x="0.1" y="17" width="16" height="24"/>
								</defs>
								<clipPath id="SVGID_6_">
									<use xlink:href="#SVGID_5_"  style="overflow:visible;"/>
								</clipPath>
								<rect x="-4.4" y="12.1" class="st2" width="24.7" height="33.4"/>
							</g>
						</g>
					</g>
				</g>
			</g>
		</g>
	</g>
	<g>
		<g>
			<defs>
				<path id="SVGID_7_" d="M7.5,33.5c-0.6,0-1.2,0.5-1.2,1.2V35c0,0.6,0.5,1.2,1.2,1.2h0.3C8.4,36.2,9,35.7,9,35v-0.3
					c0-0.6-0.5-1.2-1.2-1.2H7.5z"/>
			</defs>
			<clipPath id="SVGID_8_">
				<use xlink:href="#SVGID_7_"  style="overflow:visible;"/>
			</clipPath>
			<g class="st3">
				<g>
					<g>
						<defs>
							<rect id="SVGID_9_" x="1.1" y="28" width="13" height="14"/>
						</defs>
						<clipPath id="SVGID_10_">
							<use xlink:href="#SVGID_9_"  style="overflow:visible;"/>
						</clipPath>
						<g class="st4">
							<g>
								<defs>
									<rect id="SVGID_11_" x="6.1" y="33" width="3" height="4"/>
								</defs>
								<clipPath id="SVGID_12_">
									<use xlink:href="#SVGID_11_"  style="overflow:visible;"/>
								</clipPath>
								<rect x="1.3" y="28.5" class="st5" width="12.7" height="12.7"/>
							</g>
						</g>
					</g>
				</g>
			</g>
		</g>
	</g>
	<g>
		<g>
			<defs>
				<path id="SVGID_13_" d="M20.3,35V18.5l0.1-0.4c0-0.1,0-0.1,0-0.2c0.3-0.9,1.8-3.2,2.9-5.1c1.3-2.1,2.6-4,3.1-5.2
					c0.7-1.7,0.8-3.6,0.8-4.8c0.1,0,0.2,0,0.4,0c0.3,0,0.6,0.1,0.8,0.2c1.3,0.9,2.6,2,2.4,4.7c-0.1,0.8-0.5,1.8-1,2.8
					c-0.4,0.8-0.7,1.7-1,2.5c-0.1,0.5-0.1,1-0.1,1.5c0,0.4,0,0.7,0,1.1c0,0.4,0.1,0.7,0.3,1c0.2,0.3,0.6,0.5,0.9,0.5h0.4
					c1.8,0.2,3.6,0.3,5.4,0.3c0.8,0,1.5,0,2.1,0c0.4,0,0.7,0,0.9,0s0.4,0,0.5,0h0.1c0.1,0,0.2,0,0.4,0c0.7,0.1,1.4,0.5,1.9,1.1
					s0.7,1.3,0.6,2.1c-0.1,0.8-0.5,1.5-1.2,1.9c-0.9,0.6-1.2,2.2-0.6,3.1c0.3,0.4,0.4,1,0.3,1.5c-0.1,0.6-0.4,1.1-0.9,1.5
					c-0.9,0.7-0.9,2.3-0.6,3c0.1,0.3,0.2,0.6,0.1,0.9c-0.1,0.5-0.4,0.9-0.8,1.2c-0.4,0.2-0.7,0.7-0.9,1.2c-0.2,0.6-0.1,1.2,0.2,1.7
					c0.1,0.2,0.1,0.4,0.1,0.6c0,0.4-0.4,0.6-0.7,0.7c-0.1,0-0.2,0.1-0.3,0.1c-0.4,0.2-1.5,0.2-1.9,0.2s-0.9,0-1.4,0
					c-0.7,0-1.5,0-2.3,0c-1.1,0-2.1,0-3.1,0.1c-0.8,0-1.6,0.1-2.3,0.1C22.5,38.2,21,37.8,20.3,35z M26.8,0.5l-1.9,0.4v1.9
					c0,0.9-0.1,2.6-0.6,3.9c-0.4,1-1.6,3-2.9,4.8c-1.7,2.7-2.9,4.5-3.2,5.7c0,0.2-0.1,0.4-0.1,0.6v0.1L18,18.2v0.3V35v0.3l0.1,0.3
					c1.1,4.7,4.4,5.1,7.7,5.1c0.8,0,1.5,0,2.3-0.1h0.1h0.1c0.9,0,1.9-0.1,2.9-0.1c0.9,0,1.6,0,2.3,0c0.6,0,1,0,1.5,0
					c1.5,0,2.3-0.1,3-0.5c1.2-0.4,2-1.4,2.2-2.6c0.1-0.7,0-1.3-0.3-1.9c0.9-0.6,1.5-1.6,1.7-2.7c0.1-0.7,0-1.4-0.3-2.1
					c0-0.1,0-0.2,0-0.3c0.9-0.7,1.5-1.8,1.6-2.9c0.1-1-0.1-2.1-0.6-2.9v-0.1c1.1-0.8,1.9-2.1,2.1-3.5c0.2-1.4-0.2-2.7-1-3.8
					c-0.8-1.1-2-1.8-3.4-2c-0.3,0-0.5,0-0.7,0l0,0c-0.2,0-0.3,0-0.6,0s-0.6,0-0.9,0h-0.1c-0.5,0-1.2,0-1.9,0c-1.4,0-3-0.1-4.6-0.3
					c0-0.1,0-0.2,0-0.3c0-0.4,0-0.8,0.1-0.9c0.2-0.7,0.5-1.5,0.8-2.2c0.5-1.1,1-2.3,1.1-3.5c0.4-4.3-2.2-6.1-3.4-6.9
					c-0.6-0.4-1.4-0.6-2.1-0.6C27.3,0.4,27.1,0.5,26.8,0.5z"/>
			</defs>
			<clipPath id="SVGID_14_">
				<use xlink:href="#SVGID_13_"  style="overflow:visible;"/>
			</clipPath>
			<g class="st6">
				<g>
					<g>
						<defs>
							<rect id="SVGID_15_" x="12.1" y="-5" width="38" height="51"/>
						</defs>
						<clipPath id="SVGID_16_">
							<use xlink:href="#SVGID_15_"  style="overflow:visible;"/>
						</clipPath>
						<g class="st7">
							<g>
								<defs>
									<rect id="SVGID_17_" x="17.1" y="0" width="28" height="41"/>
								</defs>
								<clipPath id="SVGID_18_">
									<use xlink:href="#SVGID_17_"  style="overflow:visible;"/>
								</clipPath>
								<rect x="13" y="-4.6" class="st8" width="36.4" height="50.1"/>
							</g>
						</g>
					</g>
				</g>
			</g>
		</g>
	</g>
	<g>
		<g>
			<defs>
				<path id="SVGID_19_" d="M30.8,35.7c0,0.4,0.3,0.6,0.7,0.6c0.1,0,0.1-0.1,0.2-0.1l0,0c0.3,0,0.5-0.1,0.6-0.3c0-0.1,0.1,0,0.1-0.1
					c0-0.7-0.7-0.7-0.9-0.7C31.1,35.1,30.8,35.3,30.8,35.7z"/>
			</defs>
			<clipPath id="SVGID_20_">
				<use xlink:href="#SVGID_19_"  style="overflow:visible;"/>
			</clipPath>
			<g class="st9">
				<g>
					<g>
						<defs>
							<rect id="SVGID_21_" x="25.1" y="30" width="13" height="12"/>
						</defs>
						<clipPath id="SVGID_22_">
							<use xlink:href="#SVGID_21_"  style="overflow:visible;"/>
						</clipPath>
						<g class="st10">
							<g>
								<defs>
									<rect id="SVGID_23_" x="30.1" y="35" width="3" height="2"/>
								</defs>
								<clipPath id="SVGID_24_">
									<use xlink:href="#SVGID_23_"  style="overflow:visible;"/>
								</clipPath>
								<rect x="25.8" y="30.1" class="st11" width="11.6" height="11.2"/>
							</g>
						</g>
					</g>
				</g>
			</g>
		</g>
	</g>
	<g>
		<g>
			<defs>
				<path id="SVGID_25_" d="M22.5,33.9c-0.3,0.2-0.3,0.7-0.1,0.9c1.3,1.5,2.7,1.8,4.3,1.8c0.6,0,1.2,0,1.9-0.1c0.3,0,0.6,0,1-0.1
					c0.4,0,0.7-0.3,0.6-0.7c0-0.4-0.3-0.7-0.7-0.6c-0.3,0-0.7,0-1,0.1c-2.4,0.2-3.8,0.3-5.1-1.3c-0.1-0.2-0.3-0.2-0.5-0.2
					C22.8,33.7,22.7,33.8,22.5,33.9z"/>
			</defs>
			<clipPath id="SVGID_26_">
				<use xlink:href="#SVGID_25_"  style="overflow:visible;"/>
			</clipPath>
			<g class="st12">
				<g>
					<g>
						<defs>
							<rect id="SVGID_27_" x="17.1" y="28" width="19" height="14"/>
						</defs>
						<clipPath id="SVGID_28_">
							<use xlink:href="#SVGID_27_"  style="overflow:visible;"/>
						</clipPath>
						<g class="st13">
							<g>
								<defs>
									<rect id="SVGID_29_" x="22.1" y="33" width="9" height="4"/>
								</defs>
								<clipPath id="SVGID_30_">
									<use xlink:href="#SVGID_29_"  style="overflow:visible;"/>
								</clipPath>
								<rect x="17.3" y="28.7" class="st14" width="17.9" height="12.9"/>
							</g>
						</g>
					</g>
				</g>
			</g>
		</g>
	</g>
</g>
</svg>
