<?xml version="1.0" encoding="utf-8"?>
<!-- Generator: Adobe Illustrator 23.0.1, SVG Export Plug-In . SVG Version: 6.00 Build 0)  -->
<svg version="1.1" id="Warstwa_1" xmlns="http://www.w3.org/2000/svg" xmlns:xlink="http://www.w3.org/1999/xlink" x="0px" y="0px"
	 width="45px" height="42.7px" viewBox="0 0 45 42.7" style="enable-background:new 0 0 45 42.7;" xml:space="preserve">
<style type="text/css">
	.st0{clip-path:url(#SVGID_2_);enable-background:new    ;}
	.st1{clip-path:url(#SVGID_4_);}
	.st2{clip-path:url(#SVGID_6_);fill:#000EE6;}
	.st3{clip-path:url(#SVGID_8_);enable-background:new    ;}
	.st4{clip-path:url(#SVGID_10_);}
	.st5{clip-path:url(#SVGID_12_);fill:#000EE6;}
	.st6{clip-path:url(#SVGID_14_);enable-background:new    ;}
	.st7{clip-path:url(#SVGID_16_);}
	.st8{clip-path:url(#SVGID_18_);fill:#000EE6;}
	.st9{clip-path:url(#SVGID_20_);enable-background:new    ;}
	.st10{clip-path:url(#SVGID_22_);}
	.st11{clip-path:url(#SVGID_24_);fill:#000EE6;}
	.st12{clip-path:url(#SVGID_26_);enable-background:new    ;}
	.st13{clip-path:url(#SVGID_28_);}
	.st14{clip-path:url(#SVGID_30_);fill:#000EE6;}
	.st15{clip-path:url(#SVGID_32_);enable-background:new    ;}
	.st16{clip-path:url(#SVGID_34_);}
	.st17{clip-path:url(#SVGID_36_);fill:#000EE6;}
	.st18{clip-path:url(#SVGID_38_);enable-background:new    ;}
	.st19{clip-path:url(#SVGID_40_);}
	.st20{clip-path:url(#SVGID_42_);fill:#000EE6;}
	.st21{clip-path:url(#SVGID_44_);enable-background:new    ;}
	.st22{clip-path:url(#SVGID_46_);}
	.st23{clip-path:url(#SVGID_48_);fill:#000EE6;}
	.st24{clip-path:url(#SVGID_50_);enable-background:new    ;}
	.st25{clip-path:url(#SVGID_52_);}
	.st26{clip-path:url(#SVGID_54_);fill:#000EE6;}
	.st27{clip-path:url(#SVGID_56_);enable-background:new    ;}
	.st28{clip-path:url(#SVGID_58_);}
	.st29{clip-path:url(#SVGID_60_);fill:#000EE6;}
	.st30{clip-path:url(#SVGID_62_);enable-background:new    ;}
	.st31{clip-path:url(#SVGID_64_);}
	.st32{clip-path:url(#SVGID_66_);fill:#000EE6;}
	.st33{clip-path:url(#SVGID_68_);enable-background:new    ;}
	.st34{clip-path:url(#SVGID_70_);}
	.st35{clip-path:url(#SVGID_72_);fill:#000EE6;}
	.st36{clip-path:url(#SVGID_74_);enable-background:new    ;}
	.st37{clip-path:url(#SVGID_76_);}
	.st38{clip-path:url(#SVGID_78_);fill:#000EE6;}
	.st39{clip-path:url(#SVGID_80_);enable-background:new    ;}
	.st40{clip-path:url(#SVGID_82_);}
	.st41{clip-path:url(#SVGID_84_);fill:#000EE6;}
	.st42{clip-path:url(#SVGID_86_);enable-background:new    ;}
	.st43{clip-path:url(#SVGID_88_);}
	.st44{clip-path:url(#SVGID_90_);fill:#000EE6;}
</style>
<g>
	<g>
		<g>
			<defs>
				<path id="SVGID_1_" d="M24.1,13c-0.3,0-0.6,0.3-0.6,0.6c0,0.4,0.3,0.6,0.6,0.6h5.1c0.4,0,0.6-0.3,0.6-0.6c0-0.4-0.3-0.6-0.6-0.6
					H24.1z"/>
			</defs>
			<clipPath id="SVGID_2_">
				<use xlink:href="#SVGID_1_"  style="overflow:visible;"/>
			</clipPath>
			<g class="st0">
				<g>
					<g>
						<defs>
							<rect id="SVGID_3_" x="18.2" y="7.9" width="17" height="12"/>
						</defs>
						<clipPath id="SVGID_4_">
							<use xlink:href="#SVGID_3_"  style="overflow:visible;"/>
						</clipPath>
						<g class="st1">
							<g>
								<defs>
									<rect id="SVGID_5_" x="23.2" y="12.9" width="7" height="2"/>
								</defs>
								<clipPath id="SVGID_6_">
									<use xlink:href="#SVGID_5_"  style="overflow:visible;"/>
								</clipPath>
								<rect x="18.5" y="8" class="st2" width="16.3" height="11.3"/>
							</g>
						</g>
					</g>
				</g>
			</g>
		</g>
	</g>
	<g>
		<g>
			<defs>
				<path id="SVGID_7_" d="M31.7,13c-0.3,0-0.6,0.3-0.6,0.6c0,0.4,0.3,0.6,0.6,0.6h2.9c0.3,0,0.6-0.3,0.6-0.6c0-0.4-0.3-0.6-0.6-0.6
					H31.7z"/>
			</defs>
			<clipPath id="SVGID_8_">
				<use xlink:href="#SVGID_7_"  style="overflow:visible;"/>
			</clipPath>
			<g class="st3">
				<g>
					<g>
						<defs>
							<rect id="SVGID_9_" x="25.2" y="7.9" width="16" height="12"/>
						</defs>
						<clipPath id="SVGID_10_">
							<use xlink:href="#SVGID_9_"  style="overflow:visible;"/>
						</clipPath>
						<g class="st4">
							<g>
								<defs>
									<rect id="SVGID_11_" x="30.2" y="12.9" width="6" height="2"/>
								</defs>
								<clipPath id="SVGID_12_">
									<use xlink:href="#SVGID_11_"  style="overflow:visible;"/>
								</clipPath>
								<rect x="26.1" y="8" class="st5" width="14.2" height="11.3"/>
							</g>
						</g>
					</g>
				</g>
			</g>
		</g>
	</g>
	<g>
		<g>
			<defs>
				<path id="SVGID_13_" d="M24.1,16.2c-0.3,0-0.6,0.3-0.6,0.6s0.3,0.6,0.6,0.6h2.5c0.4,0,0.6-0.3,0.6-0.6s-0.3-0.6-0.6-0.6H24.1z"
					/>
			</defs>
			<clipPath id="SVGID_14_">
				<use xlink:href="#SVGID_13_"  style="overflow:visible;"/>
			</clipPath>
			<g class="st6">
				<g>
					<g>
						<defs>
							<rect id="SVGID_15_" x="18.2" y="10.9" width="15" height="12"/>
						</defs>
						<clipPath id="SVGID_16_">
							<use xlink:href="#SVGID_15_"  style="overflow:visible;"/>
						</clipPath>
						<g class="st7">
							<g>
								<defs>
									<rect id="SVGID_17_" x="23.2" y="15.9" width="5" height="2"/>
								</defs>
								<clipPath id="SVGID_18_">
									<use xlink:href="#SVGID_17_"  style="overflow:visible;"/>
								</clipPath>
								<rect x="18.5" y="11.2" class="st8" width="13.8" height="11.3"/>
							</g>
						</g>
					</g>
				</g>
			</g>
		</g>
	</g>
	<g>
		<g>
			<defs>
				<path id="SVGID_19_" d="M29.2,16.2c-0.3,0-0.6,0.3-0.6,0.6s0.3,0.6,0.6,0.6h5.5c0.3,0,0.6-0.3,0.6-0.6s-0.3-0.6-0.6-0.6H29.2z"
					/>
			</defs>
			<clipPath id="SVGID_20_">
				<use xlink:href="#SVGID_19_"  style="overflow:visible;"/>
			</clipPath>
			<g class="st9">
				<g>
					<g>
						<defs>
							<rect id="SVGID_21_" x="23.2" y="10.9" width="18" height="12"/>
						</defs>
						<clipPath id="SVGID_22_">
							<use xlink:href="#SVGID_21_"  style="overflow:visible;"/>
						</clipPath>
						<g class="st10">
							<g>
								<defs>
									<rect id="SVGID_23_" x="28.2" y="15.9" width="8" height="2"/>
								</defs>
								<clipPath id="SVGID_24_">
									<use xlink:href="#SVGID_23_"  style="overflow:visible;"/>
								</clipPath>
								<rect x="23.5" y="11.2" class="st11" width="16.7" height="11.3"/>
							</g>
						</g>
					</g>
				</g>
			</g>
		</g>
	</g>
	<g>
		<g>
			<defs>
				<path id="SVGID_25_" d="M24.1,20c-0.4,0-0.6,0.3-0.6,0.6c0,0.4,0.3,0.6,0.6,0.6h6.3c0.4,0,0.6-0.3,0.6-0.6
					c0-0.4-0.3-0.6-0.6-0.6H24.1z"/>
			</defs>
			<clipPath id="SVGID_26_">
				<use xlink:href="#SVGID_25_"  style="overflow:visible;"/>
			</clipPath>
			<g class="st12">
				<g>
					<g>
						<defs>
							<rect id="SVGID_27_" x="18.2" y="14.9" width="18" height="12"/>
						</defs>
						<clipPath id="SVGID_28_">
							<use xlink:href="#SVGID_27_"  style="overflow:visible;"/>
						</clipPath>
						<g class="st13">
							<g>
								<defs>
									<rect id="SVGID_29_" x="23.2" y="19.9" width="8" height="2"/>
								</defs>
								<clipPath id="SVGID_30_">
									<use xlink:href="#SVGID_29_"  style="overflow:visible;"/>
								</clipPath>
								<rect x="18.5" y="15" class="st14" width="17.6" height="11.3"/>
							</g>
						</g>
					</g>
				</g>
			</g>
		</g>
	</g>
	<g>
		<g>
			<defs>
				<path id="SVGID_31_" d="M32.9,20c-0.3,0-0.6,0.3-0.6,0.6c0,0.4,0.3,0.6,0.6,0.6h1.7c0.3,0,0.6-0.3,0.6-0.6
					c0-0.4-0.3-0.6-0.6-0.6H32.9z"/>
			</defs>
			<clipPath id="SVGID_32_">
				<use xlink:href="#SVGID_31_"  style="overflow:visible;"/>
			</clipPath>
			<g class="st15">
				<g>
					<g>
						<defs>
							<rect id="SVGID_33_" x="27.2" y="14.9" width="14" height="12"/>
						</defs>
						<clipPath id="SVGID_34_">
							<use xlink:href="#SVGID_33_"  style="overflow:visible;"/>
						</clipPath>
						<g class="st16">
							<g>
								<defs>
									<rect id="SVGID_35_" x="32.2" y="19.9" width="4" height="2"/>
								</defs>
								<clipPath id="SVGID_36_">
									<use xlink:href="#SVGID_35_"  style="overflow:visible;"/>
								</clipPath>
								<rect x="27.3" y="15" class="st17" width="12.9" height="11.3"/>
							</g>
						</g>
					</g>
				</g>
			</g>
		</g>
	</g>
	<g>
		<g>
			<defs>
				<path id="SVGID_37_" d="M24.1,23.2c-0.3,0-0.6,0.3-0.6,0.6c0,0.4,0.3,0.6,0.6,0.6h2.5c0.4,0,0.6-0.3,0.6-0.6
					c0-0.4-0.3-0.6-0.6-0.6H24.1z"/>
			</defs>
			<clipPath id="SVGID_38_">
				<use xlink:href="#SVGID_37_"  style="overflow:visible;"/>
			</clipPath>
			<g class="st18">
				<g>
					<g>
						<defs>
							<rect id="SVGID_39_" x="18.2" y="17.9" width="15" height="12"/>
						</defs>
						<clipPath id="SVGID_40_">
							<use xlink:href="#SVGID_39_"  style="overflow:visible;"/>
						</clipPath>
						<g class="st19">
							<g>
								<defs>
									<rect id="SVGID_41_" x="23.2" y="22.9" width="5" height="2"/>
								</defs>
								<clipPath id="SVGID_42_">
									<use xlink:href="#SVGID_41_"  style="overflow:visible;"/>
								</clipPath>
								<rect x="18.5" y="18.2" class="st20" width="13.8" height="11.3"/>
							</g>
						</g>
					</g>
				</g>
			</g>
		</g>
	</g>
	<g>
		<g>
			<defs>
				<path id="SVGID_43_" d="M29.2,23.2c-0.3,0-0.6,0.3-0.6,0.6c0,0.4,0.3,0.6,0.6,0.6h5.5c0.3,0,0.6-0.3,0.6-0.6
					c0-0.4-0.3-0.6-0.6-0.6H29.2z"/>
			</defs>
			<clipPath id="SVGID_44_">
				<use xlink:href="#SVGID_43_"  style="overflow:visible;"/>
			</clipPath>
			<g class="st21">
				<g>
					<g>
						<defs>
							<rect id="SVGID_45_" x="23.2" y="17.9" width="18" height="12"/>
						</defs>
						<clipPath id="SVGID_46_">
							<use xlink:href="#SVGID_45_"  style="overflow:visible;"/>
						</clipPath>
						<g class="st22">
							<g>
								<defs>
									<rect id="SVGID_47_" x="28.2" y="22.9" width="8" height="2"/>
								</defs>
								<clipPath id="SVGID_48_">
									<use xlink:href="#SVGID_47_"  style="overflow:visible;"/>
								</clipPath>
								<rect x="23.5" y="18.2" class="st23" width="16.7" height="11.3"/>
							</g>
						</g>
					</g>
				</g>
			</g>
		</g>
	</g>
	<g>
		<g>
			<defs>
				<path id="SVGID_49_" d="M8.7,18.7c0,3.5,2.8,6.3,6.2,6.3s6.2-2.8,6.2-6.3c0-0.3-0.2-0.5-0.5-0.5s-0.5,0.2-0.5,0.5
					c0,2.9-2.3,5.2-5.2,5.2s-5.2-2.3-5.2-5.2s2.3-5.2,5.2-5.2c0.3,0,0.5-0.2,0.5-0.5s-0.2-0.5-0.5-0.5C11.5,12.4,8.7,15.2,8.7,18.7z
					"/>
			</defs>
			<clipPath id="SVGID_50_">
				<use xlink:href="#SVGID_49_"  style="overflow:visible;"/>
			</clipPath>
			<g class="st24">
				<g>
					<g>
						<defs>
							<rect id="SVGID_51_" x="3.2" y="6.9" width="23" height="24"/>
						</defs>
						<clipPath id="SVGID_52_">
							<use xlink:href="#SVGID_51_"  style="overflow:visible;"/>
						</clipPath>
						<g class="st25">
							<g>
								<defs>
									<rect id="SVGID_53_" x="8.2" y="11.9" width="13" height="14"/>
								</defs>
								<clipPath id="SVGID_54_">
									<use xlink:href="#SVGID_53_"  style="overflow:visible;"/>
								</clipPath>
								<rect x="3.7" y="7.4" class="st26" width="22.5" height="22.6"/>
							</g>
						</g>
					</g>
				</g>
			</g>
		</g>
	</g>
	<g>
		<g>
			<defs>
				<path id="SVGID_55_" d="M19.4,15.1c-0.2,0.2-0.3,0.5-0.2,0.7c0.2,0.3,0.4,0.6,0.5,0.9c0.1,0.2,0.3,0.3,0.5,0.3
					c0.1,0,0.1,0,0.2,0c0.3-0.1,0.4-0.4,0.3-0.7c-0.2-0.4-0.3-0.8-0.6-1.1C20,15,19.8,15,19.7,15C19.6,15,19.5,15,19.4,15.1z"/>
			</defs>
			<clipPath id="SVGID_56_">
				<use xlink:href="#SVGID_55_"  style="overflow:visible;"/>
			</clipPath>
			<g class="st27">
				<g>
					<g>
						<defs>
							<rect id="SVGID_57_" x="13.2" y="9.9" width="13" height="13"/>
						</defs>
						<clipPath id="SVGID_58_">
							<use xlink:href="#SVGID_57_"  style="overflow:visible;"/>
						</clipPath>
						<g class="st28">
							<g>
								<defs>
									<rect id="SVGID_59_" x="18.2" y="14.9" width="3" height="3"/>
								</defs>
								<clipPath id="SVGID_60_">
									<use xlink:href="#SVGID_59_"  style="overflow:visible;"/>
								</clipPath>
								<rect x="14.2" y="10" class="st29" width="11.6" height="12.1"/>
							</g>
						</g>
					</g>
				</g>
			</g>
		</g>
	</g>
	<g>
		<g>
			<defs>
				<path id="SVGID_61_" d="M16.7,13.2c-0.1,0.3,0,0.6,0.3,0.7c0.3,0.1,0.6,0.3,0.9,0.5c0.1,0.1,0.2,0.1,0.3,0.1
					c0.2,0,0.3-0.1,0.4-0.2c0.2-0.2,0.1-0.6-0.1-0.7c-0.3-0.2-0.7-0.4-1.1-0.6c-0.1,0-0.1,0-0.2,0C17,12.8,16.8,13,16.7,13.2z"/>
			</defs>
			<clipPath id="SVGID_62_">
				<use xlink:href="#SVGID_61_"  style="overflow:visible;"/>
			</clipPath>
			<g class="st30">
				<g>
					<g>
						<defs>
							<rect id="SVGID_63_" x="11.2" y="6.9" width="13" height="13"/>
						</defs>
						<clipPath id="SVGID_64_">
							<use xlink:href="#SVGID_63_"  style="overflow:visible;"/>
						</clipPath>
						<g class="st31">
							<g>
								<defs>
									<rect id="SVGID_65_" x="16.2" y="11.9" width="3" height="3"/>
								</defs>
								<clipPath id="SVGID_66_">
									<use xlink:href="#SVGID_65_"  style="overflow:visible;"/>
								</clipPath>
								<rect x="11.6" y="7.8" class="st32" width="12.1" height="11.6"/>
							</g>
						</g>
					</g>
				</g>
			</g>
		</g>
	</g>
	<g>
		<g>
			<defs>
				<path id="SVGID_67_" d="M2.7,31.6v-3.7v-2V12.4V8.2V5.8c0-1,0.8-1.8,1.8-1.8h35.9c1,0,1.8,0.8,1.8,1.8v2.5v20.9v2.5
					c0,1-0.8,1.8-1.8,1.8H4.6C3.6,33.4,2.7,32.6,2.7,31.6z M4.6,1.5c-2.4,0-4.4,1.9-4.4,4.2v25.9c0,2.3,2,4.2,4.4,4.2h35.9
					c2.4,0,4.4-1.9,4.4-4.2V5.8c0-2.3-2-4.2-4.4-4.2H4.6V1.5z"/>
			</defs>
			<clipPath id="SVGID_68_">
				<use xlink:href="#SVGID_67_"  style="overflow:visible;"/>
			</clipPath>
			<g class="st33">
				<g>
					<g>
						<defs>
							<rect id="SVGID_69_" x="-5.8" y="-4.1" width="56" height="45"/>
						</defs>
						<clipPath id="SVGID_70_">
							<use xlink:href="#SVGID_69_"  style="overflow:visible;"/>
						</clipPath>
						<g class="st34">
							<g>
								<defs>
									<rect id="SVGID_71_" x="0.2" y="0.9" width="45" height="35"/>
								</defs>
								<clipPath id="SVGID_72_">
									<use xlink:href="#SVGID_71_"  style="overflow:visible;"/>
								</clipPath>
								<rect x="-4.8" y="-3.5" class="st35" width="54.6" height="44.3"/>
							</g>
						</g>
					</g>
				</g>
			</g>
		</g>
	</g>
	<g>
		<g>
			<defs>
				<path id="SVGID_73_" d="M5.3,30.3V7.1c0-0.3,0.2-0.5,0.5-0.5h33.8v23.7c0,0.3-0.2,0.5-0.5,0.5H5.8C5.6,30.8,5.3,30.6,5.3,30.3z
					 M5.8,5.5C5,5.5,4.3,6.2,4.3,7.1v23.2c0,0.9,0.7,1.6,1.6,1.6h33.4c0.9,0,1.6-0.7,1.6-1.6V6c0-0.3-0.2-0.5-0.5-0.5H5.8z"/>
			</defs>
			<clipPath id="SVGID_74_">
				<use xlink:href="#SVGID_73_"  style="overflow:visible;"/>
			</clipPath>
			<g class="st36">
				<g>
					<g>
						<defs>
							<rect id="SVGID_75_" x="-0.8" y="-0.1" width="47" height="37"/>
						</defs>
						<clipPath id="SVGID_76_">
							<use xlink:href="#SVGID_75_"  style="overflow:visible;"/>
						</clipPath>
						<g class="st37">
							<g>
								<defs>
									<rect id="SVGID_77_" x="4.2" y="4.9" width="37" height="27"/>
								</defs>
								<clipPath id="SVGID_78_">
									<use xlink:href="#SVGID_77_"  style="overflow:visible;"/>
								</clipPath>
								<rect x="-0.7" y="0.5" class="st38" width="46.5" height="36.3"/>
							</g>
						</g>
					</g>
				</g>
			</g>
		</g>
	</g>
	<g>
		<g>
			<defs>
				<path id="SVGID_79_" d="M16.1,0.1c-0.7,0-1.3,0.6-1.3,1.3s0.6,1.3,1.3,1.3h12.7c0.7,0,1.3-0.6,1.3-1.3s-0.6-1.3-1.3-1.3
					C28.8,0.1,16.1,0.1,16.1,0.1z"/>
			</defs>
			<clipPath id="SVGID_80_">
				<use xlink:href="#SVGID_79_"  style="overflow:visible;"/>
			</clipPath>
			<g class="st39">
				<g>
					<g>
						<defs>
							<rect id="SVGID_81_" x="9.2" y="-5.1" width="26" height="13"/>
						</defs>
						<clipPath id="SVGID_82_">
							<use xlink:href="#SVGID_81_"  style="overflow:visible;"/>
						</clipPath>
						<g class="st40">
							<g>
								<defs>
									<rect id="SVGID_83_" x="14.2" y="-0.1" width="16" height="3"/>
								</defs>
								<clipPath id="SVGID_84_">
									<use xlink:href="#SVGID_83_"  style="overflow:visible;"/>
								</clipPath>
								<rect x="9.8" y="-4.9" class="st41" width="25.4" height="12.7"/>
							</g>
						</g>
					</g>
				</g>
			</g>
		</g>
	</g>
	<g>
		<g>
			<defs>
				<path id="SVGID_85_" d="M21.8,34.2l-5.5,7c-0.3,0.4-0.2,0.9,0.2,1.3c0.2,0.1,0.4,0.2,0.5,0.2c0.3,0,0.5-0.1,0.7-0.3l4.8-6.1
					l4.8,6.1c0.3,0.4,0.9,0.5,1.3,0.2s0.5-0.9,0.2-1.3l-5.5-7c-0.2-0.2-0.4-0.3-0.7-0.3C22.2,33.9,22,34,21.8,34.2z"/>
			</defs>
			<clipPath id="SVGID_86_">
				<use xlink:href="#SVGID_85_"  style="overflow:visible;"/>
			</clipPath>
			<g class="st42">
				<g>
					<g>
						<defs>
							<rect id="SVGID_87_" x="10.2" y="27.9" width="24" height="20"/>
						</defs>
						<clipPath id="SVGID_88_">
							<use xlink:href="#SVGID_87_"  style="overflow:visible;"/>
						</clipPath>
						<g class="st43">
							<g>
								<defs>
									<rect id="SVGID_89_" x="15.2" y="32.9" width="14" height="10"/>
								</defs>
								<clipPath id="SVGID_90_">
									<use xlink:href="#SVGID_89_"  style="overflow:visible;"/>
								</clipPath>
								<rect x="11.1" y="28.9" class="st44" width="22.7" height="18.7"/>
							</g>
						</g>
					</g>
				</g>
			</g>
		</g>
	</g>
</g>
</svg>
