<?xml version="1.0" encoding="utf-8"?>
<!-- Generator: Adobe Illustrator 23.0.1, SVG Export Plug-In . SVG Version: 6.00 Build 0)  -->
<svg version="1.1" id="Warstwa_1" xmlns="http://www.w3.org/2000/svg" xmlns:xlink="http://www.w3.org/1999/xlink" x="0px" y="0px"
	 width="45px" height="40px" viewBox="0 0 45 40" style="enable-background:new 0 0 45 40;" xml:space="preserve">
<style type="text/css">
	.st0{fill-rule:evenodd;clip-rule:evenodd;fill:#000EE6;}
	.st1{clip-path:url(#SVGID_3_);enable-background:new    ;}
	.st2{clip-path:url(#SVGID_5_);}
	.st3{clip-path:url(#SVGID_7_);fill:#000EE6;}
	.st4{clip-path:url(#SVGID_9_);enable-background:new    ;}
	.st5{clip-path:url(#SVGID_11_);}
	.st6{clip-path:url(#SVGID_13_);fill:#000EE6;}
	.st7{clip-path:url(#SVGID_15_);enable-background:new    ;}
	.st8{clip-path:url(#SVGID_17_);}
	.st9{clip-path:url(#SVGID_19_);fill:#000EE6;}
	.st10{clip-path:url(#SVGID_21_);enable-background:new    ;}
	.st11{clip-path:url(#SVGID_23_);}
	.st12{clip-path:url(#SVGID_25_);fill:#000EE6;}
	.st13{clip-path:url(#SVGID_27_);enable-background:new    ;}
	.st14{clip-path:url(#SVGID_29_);}
	.st15{clip-path:url(#SVGID_31_);fill:#000EE6;}
	.st16{clip-path:url(#SVGID_33_);enable-background:new    ;}
	.st17{clip-path:url(#SVGID_35_);}
	.st18{clip-path:url(#SVGID_37_);fill:#000EE6;}
	.st19{clip-path:url(#SVGID_39_);enable-background:new    ;}
	.st20{clip-path:url(#SVGID_41_);}
	.st21{clip-path:url(#SVGID_43_);fill:#000EE6;}
</style>
<g>
	<g>
		<path id="SVGID_1_" class="st0" d="M3,35.2v-25h39v25.1c0,1.1-0.9,2-2,2H5C3.9,37.2,3,36.3,3,35.2z M3,4.8c0-1.1,0.9-2,2-2h35
			c1.1,0,2,0.9,2,2l0,0v4.1H3V4.8z M4.9,0.1c-2.6,0-4.7,2.1-4.7,4.7v30.5c0,2.5,2.1,4.6,4.7,4.7h35.2c2.6,0,4.6-2.1,4.7-4.6V4.7
			c0-2.5-2.1-4.5-4.7-4.6C40.1,0.1,4.9,0.1,4.9,0.1z"/>
	</g>
</g>
<g>
	<g>
		<defs>
			<path id="SVGID_2_" d="M5.4,5.5C5,5.5,4.7,5.8,4.7,6.2c0,0.4,0.3,0.7,0.7,0.7h0.7c0.4,0,0.7-0.3,0.7-0.7c0-0.4-0.3-0.7-0.7-0.7
				H5.4z"/>
		</defs>
		<clipPath id="SVGID_3_">
			<use xlink:href="#SVGID_2_"  style="overflow:visible;"/>
		</clipPath>
		<g class="st1">
			<g>
				<g>
					<defs>
						<rect id="SVGID_4_" x="-0.8" y="-0.1" width="13" height="12"/>
					</defs>
					<clipPath id="SVGID_5_">
						<use xlink:href="#SVGID_4_"  style="overflow:visible;"/>
					</clipPath>
					<g class="st2">
						<g>
							<defs>
								<rect id="SVGID_6_" x="4.2" y="4.9" width="3" height="2"/>
							</defs>
							<clipPath id="SVGID_7_">
								<use xlink:href="#SVGID_6_"  style="overflow:visible;"/>
							</clipPath>
							<rect x="-0.2" y="0.5" class="st3" width="12.1" height="11.3"/>
						</g>
					</g>
				</g>
			</g>
		</g>
	</g>
</g>
<g>
	<g>
		<defs>
			<path id="SVGID_8_" d="M10.2,5.5c-0.4,0-0.7,0.3-0.7,0.7c0,0.4,0.3,0.7,0.7,0.7h0.7c0.4,0,0.7-0.3,0.7-0.7c0-0.4-0.3-0.7-0.7-0.7
				H10.2z"/>
		</defs>
		<clipPath id="SVGID_9_">
			<use xlink:href="#SVGID_8_"  style="overflow:visible;"/>
		</clipPath>
		<g class="st4">
			<g>
				<g>
					<defs>
						<rect id="SVGID_10_" x="4.2" y="-0.1" width="13" height="12"/>
					</defs>
					<clipPath id="SVGID_11_">
						<use xlink:href="#SVGID_10_"  style="overflow:visible;"/>
					</clipPath>
					<g class="st5">
						<g>
							<defs>
								<rect id="SVGID_12_" x="9.2" y="4.9" width="3" height="2"/>
							</defs>
							<clipPath id="SVGID_13_">
								<use xlink:href="#SVGID_12_"  style="overflow:visible;"/>
							</clipPath>
							<rect x="4.6" y="0.5" class="st6" width="12.1" height="11.3"/>
						</g>
					</g>
				</g>
			</g>
		</g>
	</g>
</g>
<g>
	<g>
		<defs>
			<path id="SVGID_14_" d="M15,5.5c-0.4,0-0.7,0.3-0.7,0.7c0,0.4,0.3,0.7,0.7,0.7h0.7c0.4,0,0.7-0.3,0.7-0.7c0-0.4-0.3-0.7-0.7-0.7
				H15z"/>
		</defs>
		<clipPath id="SVGID_15_">
			<use xlink:href="#SVGID_14_"  style="overflow:visible;"/>
		</clipPath>
		<g class="st7">
			<g>
				<g>
					<defs>
						<rect id="SVGID_16_" x="9.2" y="-0.1" width="13" height="12"/>
					</defs>
					<clipPath id="SVGID_17_">
						<use xlink:href="#SVGID_16_"  style="overflow:visible;"/>
					</clipPath>
					<g class="st8">
						<g>
							<defs>
								<rect id="SVGID_18_" x="14.2" y="4.9" width="3" height="2"/>
							</defs>
							<clipPath id="SVGID_19_">
								<use xlink:href="#SVGID_18_"  style="overflow:visible;"/>
							</clipPath>
							<rect x="9.4" y="0.5" class="st9" width="12.1" height="11.3"/>
						</g>
					</g>
				</g>
			</g>
		</g>
	</g>
</g>
<g>
	<g>
		<defs>
			<path id="SVGID_20_" d="M12.2,18.5l-3.9,4.7c-0.2,0.2-0.2,0.6,0,0.8l6.3,7.6c0.1,0.2,0.3,0.2,0.5,0.2s0.3,0,0.4-0.1
				c0.3-0.2,0.3-0.7,0.1-0.9l-5.9-7.2l3.5-4.3c0.2-0.3,0.2-0.7-0.1-0.9c-0.1-0.1-0.3-0.1-0.4-0.1C12.5,18.3,12.3,18.4,12.2,18.5z"/>
		</defs>
		<clipPath id="SVGID_21_">
			<use xlink:href="#SVGID_20_"  style="overflow:visible;"/>
		</clipPath>
		<g class="st10">
			<g>
				<g>
					<defs>
						<rect id="SVGID_22_" x="2.2" y="12.9" width="19" height="24"/>
					</defs>
					<clipPath id="SVGID_23_">
						<use xlink:href="#SVGID_22_"  style="overflow:visible;"/>
					</clipPath>
					<g class="st11">
						<g>
							<defs>
								<rect id="SVGID_24_" x="7.2" y="17.9" width="9" height="14"/>
							</defs>
							<clipPath id="SVGID_25_">
								<use xlink:href="#SVGID_24_"  style="overflow:visible;"/>
							</clipPath>
							<rect x="3.2" y="13.3" class="st12" width="17.7" height="23.6"/>
						</g>
					</g>
				</g>
			</g>
		</g>
	</g>
</g>
<g>
	<g>
		<defs>
			<path id="SVGID_26_" d="M14.6,15.6L14,16.4c-0.2,0.3-0.2,0.7,0.1,0.9c0.1,0.1,0.3,0.2,0.4,0.2c0.2,0,0.4-0.1,0.5-0.2l0.6-0.8
				c0.2-0.3,0.2-0.7-0.1-0.9c-0.1-0.1-0.3-0.2-0.4-0.2C15,15.4,14.8,15.4,14.6,15.6z"/>
		</defs>
		<clipPath id="SVGID_27_">
			<use xlink:href="#SVGID_26_"  style="overflow:visible;"/>
		</clipPath>
		<g class="st13">
			<g>
				<g>
					<defs>
						<rect id="SVGID_28_" x="8.2" y="9.9" width="13" height="13"/>
					</defs>
					<clipPath id="SVGID_29_">
						<use xlink:href="#SVGID_28_"  style="overflow:visible;"/>
					</clipPath>
					<g class="st14">
						<g>
							<defs>
								<rect id="SVGID_30_" x="13.2" y="14.9" width="3" height="3"/>
							</defs>
							<clipPath id="SVGID_31_">
								<use xlink:href="#SVGID_30_"  style="overflow:visible;"/>
							</clipPath>
							<rect x="8.8" y="10.4" class="st15" width="12" height="12.1"/>
						</g>
					</g>
				</g>
			</g>
		</g>
	</g>
</g>
<g>
	<g>
		<defs>
			<path id="SVGID_32_" d="M29.6,15.5c-0.3,0.2-0.3,0.7-0.1,0.9l5.9,7.2l-5.9,7.2c-0.2,0.3-0.2,0.7,0.1,0.9c0.1,0.1,0.3,0.1,0.4,0.1
				c0.2,0,0.4-0.1,0.5-0.2l6.3-7.6c0.2-0.2,0.2-0.6,0-0.8l-6.3-7.6c-0.1-0.2-0.3-0.2-0.5-0.2C29.9,15.4,29.7,15.4,29.6,15.5z"/>
		</defs>
		<clipPath id="SVGID_33_">
			<use xlink:href="#SVGID_32_"  style="overflow:visible;"/>
		</clipPath>
		<g class="st16">
			<g>
				<g>
					<defs>
						<rect id="SVGID_34_" x="24.2" y="9.9" width="18" height="27"/>
					</defs>
					<clipPath id="SVGID_35_">
						<use xlink:href="#SVGID_34_"  style="overflow:visible;"/>
					</clipPath>
					<g class="st17">
						<g>
							<defs>
								<rect id="SVGID_36_" x="29.2" y="14.9" width="8" height="17"/>
							</defs>
							<clipPath id="SVGID_37_">
								<use xlink:href="#SVGID_36_"  style="overflow:visible;"/>
							</clipPath>
							<rect x="24.3" y="10.4" class="st18" width="17.7" height="26.5"/>
						</g>
					</g>
				</g>
			</g>
		</g>
	</g>
</g>
<g>
	<g>
		<defs>
			<path id="SVGID_38_" d="M25.5,19.6l-6.3,7.6c-0.2,0.3-0.2,0.7,0.1,0.9c0.1,0.1,0.3,0.1,0.4,0.1c0.2,0,0.4-0.1,0.5-0.2l6.3-7.6
				c0.2-0.3,0.2-0.7-0.1-0.9c-0.1-0.1-0.3-0.1-0.4-0.1C25.8,19.4,25.6,19.5,25.5,19.6z"/>
		</defs>
		<clipPath id="SVGID_39_">
			<use xlink:href="#SVGID_38_"  style="overflow:visible;"/>
		</clipPath>
		<g class="st19">
			<g>
				<g>
					<defs>
						<rect id="SVGID_40_" x="13.2" y="13.9" width="19" height="20"/>
					</defs>
					<clipPath id="SVGID_41_">
						<use xlink:href="#SVGID_40_"  style="overflow:visible;"/>
					</clipPath>
					<g class="st20">
						<g>
							<defs>
								<rect id="SVGID_42_" x="18.2" y="18.9" width="9" height="10"/>
							</defs>
							<clipPath id="SVGID_43_">
								<use xlink:href="#SVGID_42_"  style="overflow:visible;"/>
							</clipPath>
							<rect x="14" y="14.4" class="st21" width="17.7" height="18.9"/>
						</g>
					</g>
				</g>
			</g>
		</g>
	</g>
</g>
</svg>
