<?xml version="1.0" encoding="utf-8"?>
<!-- Generator: Adobe Illustrator 23.0.1, SVG Export Plug-In . SVG Version: 6.00 Build 0)  -->
<svg version="1.1" id="Warstwa_1" xmlns="http://www.w3.org/2000/svg" xmlns:xlink="http://www.w3.org/1999/xlink" x="0px" y="0px"
	 width="45px" height="55px" viewBox="0 0 45 55" style="enable-background:new 0 0 45 55;" xml:space="preserve">
<style type="text/css">
	.st0{clip-path:url(#SVGID_2_);fill:#000EE6;}
	.st1{clip-path:url(#SVGID_4_);fill:#000EE6;}
	.st2{clip-path:url(#SVGID_6_);fill:#000EE6;}
	.st3{clip-path:url(#SVGID_8_);fill:#000EE6;}
	.st4{clip-path:url(#SVGID_10_);fill:#000EE6;}
	.st5{clip-path:url(#SVGID_12_);enable-background:new    ;}
	.st6{clip-path:url(#SVGID_14_);}
	.st7{clip-path:url(#SVGID_16_);}
	.st8{clip-path:url(#SVGID_18_);fill:#000EE6;}
	.st9{clip-path:url(#SVGID_20_);fill:#000EE6;}
	.st10{clip-path:url(#SVGID_22_);fill:#000EE6;}
</style>
<g>
	<g>
		<defs>
			<path id="SVGID_1_" d="M22.6,0.4c-0.7,0.1-1.2,0.8-1.2,1.5V6c0,0.6,0.4,1.2,1,1.4c1,0.3,1.8-0.4,1.8-1.3V1.8
				c0-0.8-0.6-1.4-1.4-1.4C22.7,0.4,22.6,0.4,22.6,0.4"/>
		</defs>
		<clipPath id="SVGID_2_">
			<use xlink:href="#SVGID_1_"  style="overflow:visible;"/>
		</clipPath>
		<rect x="16.4" y="-4.6" class="st0" width="12.8" height="17"/>
	</g>
</g>
<g>
	<g>
		<defs>
			<path id="SVGID_3_" d="M12.3,3C12,3.4,12,4.1,12.2,4.6l1.3,2.5c0.2,0.5,0.7,0.8,1.3,0.8c0.3,0,0.6-0.1,0.9-0.3
				c0.5-0.4,0.6-1.2,0.3-1.8l-1.3-2.5c-0.2-0.5-0.7-0.8-1.3-0.8C13,2.5,12.6,2.6,12.3,3"/>
		</defs>
		<clipPath id="SVGID_4_">
			<use xlink:href="#SVGID_3_"  style="overflow:visible;"/>
		</clipPath>
		<rect x="7" y="-2.5" class="st1" width="14.1" height="15.4"/>
	</g>
</g>
<g>
	<g>
		<defs>
			<path id="SVGID_5_" d="M3.5,7.1C3.2,7.7,3.4,8.3,3.7,8.7l1.8,2c0.3,0.3,0.7,0.5,1,0.5c0.5,0,0.9-0.2,1.2-0.7
				C8.1,10,8,9.2,7.5,8.7l-1.8-2C5.4,6.4,5,6.2,4.7,6.2C4.2,6.3,3.7,6.6,3.5,7.1"/>
		</defs>
		<clipPath id="SVGID_6_">
			<use xlink:href="#SVGID_5_"  style="overflow:visible;"/>
		</clipPath>
		<rect x="-1.7" y="1.3" class="st2" width="14.6" height="14.9"/>
	</g>
</g>
<g>
	<g>
		<defs>
			<path id="SVGID_7_" d="M30.3,3.3l-1.2,2.4c-0.3,0.6-0.2,1.4,0.3,1.8c0.3,0.2,0.6,0.3,0.9,0.3c0.5,0,1-0.3,1.2-0.8l1.3-2.6
				c0.4-0.8,0-1.7-0.8-2c-0.1,0-0.3-0.1-0.4-0.1C31.1,2.5,30.5,2.8,30.3,3.3"/>
		</defs>
		<clipPath id="SVGID_8_">
			<use xlink:href="#SVGID_7_"  style="overflow:visible;"/>
		</clipPath>
		<rect x="23.9" y="-2.5" class="st3" width="14.1" height="15.4"/>
	</g>
</g>
<g>
	<g>
		<defs>
			<path id="SVGID_9_" d="M39.2,6.8l-1.7,1.9c-0.4,0.5-0.6,1.2-0.2,1.8c0.3,0.4,0.7,0.7,1.2,0.7c0.4,0,0.8-0.2,1-0.5l1.8-2
				c0.6-0.7,0.4-1.8-0.5-2.2c-0.2-0.1-0.3-0.1-0.5-0.1C39.9,6.3,39.5,6.5,39.2,6.8"/>
		</defs>
		<clipPath id="SVGID_10_">
			<use xlink:href="#SVGID_9_"  style="overflow:visible;"/>
		</clipPath>
		<rect x="32" y="1.3" class="st4" width="14.6" height="14.9"/>
	</g>
</g>
<g>
	<g>
		<defs>
			<rect id="SVGID_11_" x="0.3" y="11.8" width="44.5" height="42.8"/>
		</defs>
		<clipPath id="SVGID_12_">
			<use xlink:href="#SVGID_11_"  style="overflow:visible;"/>
		</clipPath>
		<g class="st5">
			<g>
				<g>
					<defs>
						<rect id="SVGID_13_" x="-0.7" y="11.4" width="46" height="44"/>
					</defs>
					<clipPath id="SVGID_14_">
						<use xlink:href="#SVGID_13_"  style="overflow:visible;"/>
					</clipPath>
					<g class="st6">
						<g>
							<defs>
								<path id="SVGID_15_" d="M11.7,11.8c-2,0-4.2,1.1-5.2,2.7l-5.3,7.8c-1.3,1.7-1.2,4.3,0,5.9l18.6,25c0.7,0.9,1.6,1.4,2.7,1.4
									c1,0,2-0.5,2.7-1.4l18.6-25c1.2-1.7,1.3-4.2,0.1-5.9l-5.3-7.8c-1-1.5-3.3-2.7-5.3-2.7C33.3,11.8,11.7,11.8,11.7,11.8z
									 M21.9,24.5l-10.8-9.9c0.2,0,0.4-0.1,0.6-0.1h21.6c0.1,0,0.1,0,0.2,0L33,15c-0.3,0.2-0.3,0.7,0,0.9c0.1,0.1,0.3,0.2,0.5,0.2
									s0.3-0.1,0.4-0.2L35,15c0.6,0.3,1.1,0.7,1.4,1.1l5.3,7.8c0.1,0.2,0.2,0.5,0.3,0.7H24.6l5.5-5.1c0.3-0.2,0.3-0.7,0-0.9
									c-0.2-0.3-0.7-0.3-0.9,0l-6.5,6c0,0,0,0.1-0.1,0.1L21.9,24.5L21.9,24.5z M3.3,23.8L8.6,16c0.2-0.3,0.6-0.7,1.1-0.9L20,24.6
									h-8H3c0,0,0,0-0.1,0C3,24.3,3.1,24,3.3,23.8z M3.3,26.6c-0.1-0.2-0.2-0.4-0.3-0.7l0,0h8.5l0.6,1.6c0.1,0.3,0.4,0.4,0.6,0.4
									c0.1,0,0.2,0,0.2,0c0.3-0.1,0.5-0.5,0.4-0.9L13,25.9h18.9l-9.4,24.5l-7.3-18.8c-0.1-0.3-0.5-0.5-0.9-0.4
									c-0.3,0.1-0.5,0.5-0.4,0.9L21,50.4L3.3,26.6z M33.3,25.9H42c-0.1,0.3-0.2,0.5-0.3,0.7L23.9,50.5L33.3,25.9z"/>
							</defs>
							<clipPath id="SVGID_16_">
								<use xlink:href="#SVGID_15_"  style="overflow:visible;"/>
							</clipPath>
							<g class="st7">
								<g>
									<defs>
										<rect id="SVGID_17_" x="0.3" y="11.4" width="45" height="44"/>
									</defs>
									<clipPath id="SVGID_18_">
										<use xlink:href="#SVGID_17_"  style="overflow:visible;"/>
									</clipPath>
									<rect x="-4.7" y="6.8" class="st8" width="54.5" height="52.8"/>
								</g>
							</g>
						</g>
					</g>
				</g>
			</g>
		</g>
	</g>
</g>
<g>
	<g>
		<defs>
			<path id="SVGID_19_" d="M31.4,16.5l-0.5,0.4c-0.3,0.2-0.3,0.7,0,0.9c0.1,0.1,0.3,0.2,0.5,0.2s0.3-0.1,0.4-0.2l0.5-0.4
				c0.3-0.2,0.3-0.7,0-0.9c-0.1-0.1-0.3-0.2-0.5-0.2C31.7,16.3,31.5,16.4,31.4,16.5"/>
		</defs>
		<clipPath id="SVGID_20_">
			<use xlink:href="#SVGID_19_"  style="overflow:visible;"/>
		</clipPath>
		<rect x="25.7" y="11.3" class="st9" width="11.8" height="11.8"/>
	</g>
</g>
<g>
	<g>
		<defs>
			<path id="SVGID_21_" d="M13.2,28.3c-0.3,0.1-0.5,0.5-0.4,0.9l0.2,0.6c0.1,0.3,0.4,0.4,0.6,0.4c0.1,0,0.2,0,0.2,0
				c0.3-0.1,0.5-0.5,0.4-0.9L14,28.7c-0.1-0.3-0.4-0.4-0.6-0.4C13.4,28.3,13.3,28.3,13.2,28.3"/>
		</defs>
		<clipPath id="SVGID_22_">
			<use xlink:href="#SVGID_21_"  style="overflow:visible;"/>
		</clipPath>
		<rect x="7.8" y="23.3" class="st10" width="11.6" height="11.9"/>
	</g>
</g>
</svg>
