<?xml version="1.0" encoding="utf-8"?>
<!-- Generator: Adobe Illustrator 23.0.1, SVG Export Plug-In . SVG Version: 6.00 Build 0)  -->
<svg version="1.1" id="Warstwa_1" xmlns="http://www.w3.org/2000/svg" xmlns:xlink="http://www.w3.org/1999/xlink" x="0px" y="0px"
	 width="45px" height="46px" viewBox="0 0 45 46" style="enable-background:new 0 0 45 46;" xml:space="preserve">
<style type="text/css">
	.st0{clip-path:url(#SVGID_2_);enable-background:new    ;}
	.st1{clip-path:url(#SVGID_4_);}
	.st2{clip-path:url(#SVGID_6_);fill:#000EE6;}
	.st3{clip-path:url(#SVGID_8_);enable-background:new    ;}
	.st4{clip-path:url(#SVGID_10_);}
	.st5{clip-path:url(#SVGID_12_);fill:#000EE6;}
	.st6{clip-path:url(#SVGID_14_);enable-background:new    ;}
	.st7{clip-path:url(#SVGID_16_);}
	.st8{clip-path:url(#SVGID_18_);fill:#000EE6;}
	.st9{clip-path:url(#SVGID_20_);enable-background:new    ;}
	.st10{clip-path:url(#SVGID_22_);}
	.st11{clip-path:url(#SVGID_24_);fill:#000EE6;}
	.st12{clip-path:url(#SVGID_26_);enable-background:new    ;}
	.st13{clip-path:url(#SVGID_28_);}
	.st14{clip-path:url(#SVGID_30_);fill:#000EE6;}
	.st15{clip-path:url(#SVGID_32_);enable-background:new    ;}
	.st16{clip-path:url(#SVGID_34_);}
	.st17{clip-path:url(#SVGID_36_);fill:#000EE6;}
	.st18{clip-path:url(#SVGID_38_);enable-background:new    ;}
	.st19{clip-path:url(#SVGID_40_);}
	.st20{clip-path:url(#SVGID_42_);fill:#000EE6;}
</style>
<g>
	<g>
		<g>
			<defs>
				<path id="SVGID_1_" d="M8.6,37c-7.7-7.7-7.7-20.3,0-28c3.7-3.7,8.7-5.8,13.9-5.8c5.3,0,10.2,2.1,13.9,5.8s5.8,8.7,5.8,14
					s-2,10.2-5.8,14c-3.7,3.7-8.7,5.8-13.9,5.8C17.2,42.8,12.3,40.7,8.6,37z M22.2,0.4C16.3,0.5,10.8,2.9,6.6,7.1
					c-8.8,8.8-8.8,23.1,0,31.9c4.2,4.2,9.7,6.5,15.6,6.6h0.5c5.9-0.1,11.5-2.4,15.6-6.6c4.4-4.3,6.7-10,6.7-16s-2.3-11.7-6.6-16
					c-4.2-4.2-9.7-6.5-15.6-6.6C22.8,0.4,22.2,0.4,22.2,0.4z"/>
			</defs>
			<clipPath id="SVGID_2_">
				<use xlink:href="#SVGID_1_"  style="overflow:visible;"/>
			</clipPath>
			<g class="st0">
				<g>
					<g>
						<defs>
							<rect id="SVGID_3_" x="-6" y="-4.6" width="56" height="56"/>
						</defs>
						<clipPath id="SVGID_4_">
							<use xlink:href="#SVGID_3_"  style="overflow:visible;"/>
						</clipPath>
						<g class="st1">
							<g>
								<defs>
									<rect id="SVGID_5_" y="0.4" width="45" height="46"/>
								</defs>
								<clipPath id="SVGID_6_">
									<use xlink:href="#SVGID_5_"  style="overflow:visible;"/>
								</clipPath>
								<rect x="-5" y="-4.6" class="st2" width="55" height="55.1"/>
							</g>
						</g>
					</g>
				</g>
			</g>
		</g>
	</g>
	<g>
		<g>
			<defs>
				<path id="SVGID_7_" d="M0.6,20c0,0.4,0.2,0.7,0.6,0.8c0.6,0.1,1.1,0.1,1.7,0.2H3c0.3,0,0.6-0.2,0.7-0.6c0.1-0.4-0.2-0.7-0.6-0.8
					c-0.6-0.1-1.2-0.2-1.8-0.2H1.2C1,19.3,0.7,19.6,0.6,20z"/>
			</defs>
			<clipPath id="SVGID_8_">
				<use xlink:href="#SVGID_7_"  style="overflow:visible;"/>
			</clipPath>
			<g class="st3">
				<g>
					<g>
						<defs>
							<rect id="SVGID_9_" x="-5" y="13.4" width="14" height="13"/>
						</defs>
						<clipPath id="SVGID_10_">
							<use xlink:href="#SVGID_9_"  style="overflow:visible;"/>
						</clipPath>
						<g class="st4">
							<g>
								<defs>
									<rect id="SVGID_11_" y="18.4" width="4" height="3"/>
								</defs>
								<clipPath id="SVGID_12_">
									<use xlink:href="#SVGID_11_"  style="overflow:visible;"/>
								</clipPath>
								<rect x="-4.4" y="14.3" class="st5" width="13.1" height="11.6"/>
							</g>
						</g>
					</g>
				</g>
			</g>
		</g>
	</g>
	<g>
		<g>
			<defs>
				<path id="SVGID_13_" d="M22.8,34.7c-0.3,0.2-0.5,0.6-0.3,0.9c0.5,1.1,1,2.2,1.3,3.4c0.1,0.3,0.4,0.5,0.7,0.5c0.1,0,0.1,0,0.2,0
					c0.4-0.1,0.6-0.5,0.5-0.9c-0.4-1.2-0.8-2.4-1.4-3.6c-0.1-0.3-0.4-0.4-0.6-0.4C23,34.6,22.9,34.7,22.8,34.7z M18.5,28.6
					c-0.3,0.3-0.3,0.7-0.1,1c0.8,0.9,1.5,1.9,2.2,2.9c0.1,0.2,0.4,0.3,0.6,0.3c0.1,0,0.3,0,0.4-0.1c0.3-0.2,0.4-0.6,0.2-1
					c-0.7-1.1-1.5-2.1-2.3-3.1c-0.1-0.2-0.3-0.2-0.5-0.2C18.8,28.4,18.7,28.5,18.5,28.6z M12.8,23.9c-0.2,0.3-0.1,0.8,0.2,1
					c1,0.7,2,1.4,2.9,2.2c0.1,0.1,0.3,0.2,0.5,0.2s0.4-0.1,0.5-0.2c0.3-0.3,0.2-0.7-0.1-1c-1-0.8-2-1.6-3-2.3
					c-0.1-0.1-0.2-0.1-0.4-0.1C13.2,23.5,13,23.6,12.8,23.9z M6,20.9c-0.1,0.4,0.1,0.8,0.5,0.9c1.2,0.4,2.3,0.8,3.4,1.3
					c0.1,0,0.2,0.1,0.3,0.1c0.3,0,0.5-0.1,0.6-0.4c0.2-0.3,0-0.8-0.3-0.9c-1.1-0.5-2.3-1-3.6-1.4c-0.1,0-0.1,0-0.2,0
					C6.4,20.4,6.1,20.6,6,20.9z"/>
			</defs>
			<clipPath id="SVGID_14_">
				<use xlink:href="#SVGID_13_"  style="overflow:visible;"/>
			</clipPath>
			<g class="st6">
				<g>
					<g>
						<defs>
							<rect id="SVGID_15_" y="14.4" width="31" height="31"/>
						</defs>
						<clipPath id="SVGID_16_">
							<use xlink:href="#SVGID_15_"  style="overflow:visible;"/>
						</clipPath>
						<g class="st7">
							<g>
								<defs>
									<rect id="SVGID_17_" x="5" y="19.4" width="21" height="21"/>
								</defs>
								<clipPath id="SVGID_18_">
									<use xlink:href="#SVGID_17_"  style="overflow:visible;"/>
								</clipPath>
								<rect x="1" y="15.4" class="st8" width="29.1" height="29.1"/>
							</g>
						</g>
					</g>
				</g>
			</g>
		</g>
	</g>
	<g>
		<g>
			<defs>
				<path id="SVGID_19_" d="M25.3,41.8h-0.1c-0.4,0.1-0.6,0.4-0.6,0.8c0.1,0.6,0.2,1.1,0.2,1.7c0,0.4,0.3,0.6,0.7,0.6c0,0,0,0,0.1,0
					c0.4,0,0.7-0.4,0.6-0.8c-0.1-0.6-0.1-1.2-0.2-1.8C25.9,42,25.6,41.8,25.3,41.8L25.3,41.8z"/>
			</defs>
			<clipPath id="SVGID_20_">
				<use xlink:href="#SVGID_19_"  style="overflow:visible;"/>
			</clipPath>
			<g class="st9">
				<g>
					<g>
						<defs>
							<rect id="SVGID_21_" x="19" y="36.4" width="13" height="14"/>
						</defs>
						<clipPath id="SVGID_22_">
							<use xlink:href="#SVGID_21_"  style="overflow:visible;"/>
						</clipPath>
						<g class="st10">
							<g>
								<defs>
									<rect id="SVGID_23_" x="24" y="41.4" width="3" height="4"/>
								</defs>
								<clipPath id="SVGID_24_">
									<use xlink:href="#SVGID_23_"  style="overflow:visible;"/>
								</clipPath>
								<rect x="19.6" y="36.8" class="st11" width="11.6" height="13.1"/>
							</g>
						</g>
					</g>
				</g>
			</g>
		</g>
	</g>
	<g>
		<g>
			<defs>
				<path id="SVGID_25_" d="M19.1,1.5c-0.4,0-0.7,0.4-0.6,0.8c0.1,0.6,0.1,1.2,0.2,1.8c0.1,0.3,0.4,0.6,0.7,0.6h0.1
					c0.4-0.1,0.6-0.4,0.6-0.8c-0.1-0.6-0.2-1.1-0.2-1.7C19.8,1.7,19.5,1.5,19.1,1.5L19.1,1.5z"/>
			</defs>
			<clipPath id="SVGID_26_">
				<use xlink:href="#SVGID_25_"  style="overflow:visible;"/>
			</clipPath>
			<g class="st12">
				<g>
					<g>
						<defs>
							<rect id="SVGID_27_" x="13" y="-3.6" width="13" height="14"/>
						</defs>
						<clipPath id="SVGID_28_">
							<use xlink:href="#SVGID_27_"  style="overflow:visible;"/>
						</clipPath>
						<g class="st13">
							<g>
								<defs>
									<rect id="SVGID_29_" x="18" y="1.4" width="3" height="4"/>
								</defs>
								<clipPath id="SVGID_30_">
									<use xlink:href="#SVGID_29_"  style="overflow:visible;"/>
								</clipPath>
								<rect x="13.4" y="-3.5" class="st14" width="11.6" height="13.1"/>
							</g>
						</g>
					</g>
				</g>
			</g>
		</g>
	</g>
	<g>
		<g>
			<defs>
				<path id="SVGID_31_" d="M33.8,23.6c-0.2,0.4,0,0.8,0.3,0.9c1.1,0.5,2.3,1,3.6,1.4c0.1,0,0.1,0,0.2,0c0.3,0,0.6-0.2,0.7-0.5
					c0.1-0.4-0.1-0.8-0.5-0.9c-1.2-0.4-2.3-0.8-3.4-1.3c-0.1,0-0.2-0.1-0.3-0.1C34.2,23.2,33.9,23.4,33.8,23.6z M27.7,19.4
					c-0.3,0.3-0.2,0.7,0.1,1c1,0.8,2,1.6,3,2.3c0.1,0.1,0.2,0.1,0.4,0.1c0.2,0,0.5-0.1,0.6-0.3c0.2-0.3,0.1-0.8-0.2-1
					c-1-0.7-2-1.4-2.9-2.2c-0.1-0.1-0.3-0.2-0.5-0.2C28,19.2,27.8,19.3,27.7,19.4z M23,13.7c-0.3,0.2-0.4,0.6-0.2,1
					c0.7,1.1,1.5,2.1,2.3,3c0.1,0.2,0.3,0.2,0.5,0.2s0.3-0.1,0.5-0.2c0.3-0.3,0.3-0.7,0.1-1c-0.8-0.9-1.5-1.9-2.2-2.9
					c-0.1-0.2-0.4-0.3-0.6-0.3C23.2,13.6,23.1,13.6,23,13.7z M20,6.9c-0.4,0.1-0.6,0.5-0.5,0.9c0.4,1.2,0.8,2.4,1.4,3.6
					c0.1,0.3,0.4,0.4,0.6,0.4c0.1,0,0.2,0,0.3-0.1c0.3-0.2,0.5-0.6,0.3-0.9c-0.5-1.1-1-2.2-1.3-3.4C20.7,7.1,20.4,6.9,20,6.9
					C20.1,6.8,20.1,6.8,20,6.9z"/>
			</defs>
			<clipPath id="SVGID_32_">
				<use xlink:href="#SVGID_31_"  style="overflow:visible;"/>
			</clipPath>
			<g class="st15">
				<g>
					<g>
						<defs>
							<rect id="SVGID_33_" x="14" y="1.4" width="30" height="30"/>
						</defs>
						<clipPath id="SVGID_34_">
							<use xlink:href="#SVGID_33_"  style="overflow:visible;"/>
						</clipPath>
						<g class="st16">
							<g>
								<defs>
									<rect id="SVGID_35_" x="19" y="6.4" width="20" height="20"/>
								</defs>
								<clipPath id="SVGID_36_">
									<use xlink:href="#SVGID_35_"  style="overflow:visible;"/>
								</clipPath>
								<rect x="14.5" y="1.8" class="st17" width="29.1" height="29.1"/>
							</g>
						</g>
					</g>
				</g>
			</g>
		</g>
	</g>
	<g>
		<g>
			<defs>
				<path id="SVGID_37_" d="M40.9,26c-0.1,0.4,0.2,0.7,0.6,0.8c0.6,0.1,1.2,0.2,1.8,0.2c0,0,0,0,0.1,0c0.4,0,0.7-0.3,0.7-0.6
					c0-0.4-0.2-0.7-0.6-0.8c-0.6-0.1-1.1-0.1-1.7-0.2h-0.1C41.2,25.4,40.9,25.7,40.9,26z"/>
			</defs>
			<clipPath id="SVGID_38_">
				<use xlink:href="#SVGID_37_"  style="overflow:visible;"/>
			</clipPath>
			<g class="st18">
				<g>
					<g>
						<defs>
							<rect id="SVGID_39_" x="35" y="19.4" width="14" height="13"/>
						</defs>
						<clipPath id="SVGID_40_">
							<use xlink:href="#SVGID_39_"  style="overflow:visible;"/>
						</clipPath>
						<g class="st19">
							<g>
								<defs>
									<rect id="SVGID_41_" x="40" y="24.4" width="5" height="3"/>
								</defs>
								<clipPath id="SVGID_42_">
									<use xlink:href="#SVGID_41_"  style="overflow:visible;"/>
								</clipPath>
								<rect x="35.9" y="20.4" class="st20" width="13.1" height="11.6"/>
							</g>
						</g>
					</g>
				</g>
			</g>
		</g>
	</g>
</g>
</svg>
