<?xml version="1.0" encoding="utf-8"?>
<!-- Generator: Adobe Illustrator 23.0.3, SVG Export Plug-In . SVG Version: 6.00 Build 0)  -->
<svg version="1.1" id="Capa_1" xmlns="http://www.w3.org/2000/svg" xmlns:xlink="http://www.w3.org/1999/xlink" x="0px" y="0px"
	 viewBox="0 0 600 493" style="enable-background:new 0 0 600 493;" xml:space="preserve">
<style type="text/css">
	.st0{opacity:0.49;fill-rule:evenodd;clip-rule:evenodd;fill:url(#Path_1_);enable-background:new    ;}
	.st1{fill-rule:evenodd;clip-rule:evenodd;fill:#223762;}
	.st2{fill-rule:evenodd;clip-rule:evenodd;fill:url(#SVGID_1_);}
	.st3{fill-rule:evenodd;clip-rule:evenodd;fill:url(#SVGID_2_);}
	.st4{fill-rule:evenodd;clip-rule:evenodd;fill:#D6E3FA;}
	.st5{fill-rule:evenodd;clip-rule:evenodd;fill:#FFFFFF;}
	.st6{fill-rule:evenodd;clip-rule:evenodd;fill:#3769A5;}
	.st7{opacity:0.49;fill-rule:evenodd;clip-rule:evenodd;fill:url(#SVGID_3_);enable-background:new    ;}
	.st8{fill-rule:evenodd;clip-rule:evenodd;fill:url(#SVGID_4_);}
	.st9{fill-rule:evenodd;clip-rule:evenodd;fill:url(#SVGID_5_);}
	.st10{fill-rule:evenodd;clip-rule:evenodd;fill:url(#SVGID_6_);}
	.st11{fill-rule:evenodd;clip-rule:evenodd;fill:url(#SVGID_7_);}
	.st12{fill-rule:evenodd;clip-rule:evenodd;fill:url(#SVGID_8_);}
	.st13{fill-rule:evenodd;clip-rule:evenodd;fill:url(#SVGID_9_);}
	.st14{fill-rule:evenodd;clip-rule:evenodd;fill:url(#SVGID_10_);}
	.st15{fill-rule:evenodd;clip-rule:evenodd;fill:url(#SVGID_11_);}
	.st16{fill-rule:evenodd;clip-rule:evenodd;fill:url(#SVGID_12_);}
	.st17{fill-rule:evenodd;clip-rule:evenodd;fill:url(#SVGID_13_);}
	.st18{fill-rule:evenodd;clip-rule:evenodd;fill:url(#SVGID_14_);}
	.st19{fill-rule:evenodd;clip-rule:evenodd;fill:url(#SVGID_15_);}
	.st20{fill-rule:evenodd;clip-rule:evenodd;fill:url(#SVGID_16_);}
	.st21{fill-rule:evenodd;clip-rule:evenodd;fill:url(#SVGID_17_);}
	.st22{fill-rule:evenodd;clip-rule:evenodd;fill:url(#SVGID_18_);}
	.st23{fill-rule:evenodd;clip-rule:evenodd;fill:url(#SVGID_19_);}
	.st24{fill-rule:evenodd;clip-rule:evenodd;fill:url(#SVGID_20_);}
	.st25{fill-rule:evenodd;clip-rule:evenodd;fill:url(#SVGID_21_);}
	.st26{fill-rule:evenodd;clip-rule:evenodd;fill:url(#SVGID_22_);}
	.st27{fill-rule:evenodd;clip-rule:evenodd;fill:url(#SVGID_23_);}
	.st28{fill-rule:evenodd;clip-rule:evenodd;fill:url(#SVGID_24_);}
	.st29{fill-rule:evenodd;clip-rule:evenodd;fill:url(#SVGID_25_);}
	.st30{fill-rule:evenodd;clip-rule:evenodd;fill:url(#SVGID_26_);}
	.st31{fill-rule:evenodd;clip-rule:evenodd;fill:url(#SVGID_27_);}
	.st32{fill:none;stroke:#EB6057;stroke-linecap:round;stroke-linejoin:round;}
	.st33{fill-rule:evenodd;clip-rule:evenodd;fill:url(#SVGID_28_);}
	.st34{fill-rule:evenodd;clip-rule:evenodd;fill:url(#SVGID_29_);}
	.st35{fill-rule:evenodd;clip-rule:evenodd;fill:url(#SVGID_30_);}
	.st36{fill-rule:evenodd;clip-rule:evenodd;fill:url(#SVGID_31_);}
	.st37{fill-rule:evenodd;clip-rule:evenodd;fill:url(#SVGID_32_);}
	.st38{fill-rule:evenodd;clip-rule:evenodd;fill:url(#SVGID_33_);}
	.st39{fill-rule:evenodd;clip-rule:evenodd;fill:url(#SVGID_34_);}
	.st40{fill-rule:evenodd;clip-rule:evenodd;fill:url(#SVGID_35_);}
	.st41{opacity:0.48;fill-rule:evenodd;clip-rule:evenodd;fill:#EF8C48;enable-background:new    ;}
	.st42{fill-rule:evenodd;clip-rule:evenodd;fill:url(#SVGID_36_);}
	.st43{fill-rule:evenodd;clip-rule:evenodd;fill:url(#SVGID_37_);}
	.st44{fill-rule:evenodd;clip-rule:evenodd;fill:url(#SVGID_38_);}
	.st45{fill-rule:evenodd;clip-rule:evenodd;fill:#4C93F4;}
	.st46{fill-rule:evenodd;clip-rule:evenodd;fill:url(#SVGID_39_);}
	.st47{fill-rule:evenodd;clip-rule:evenodd;fill:#83A4D6;}
	.st48{fill-rule:evenodd;clip-rule:evenodd;fill:url(#SVGID_40_);}
	.st49{fill-rule:evenodd;clip-rule:evenodd;fill:url(#SVGID_41_);}
	.st50{fill-rule:evenodd;clip-rule:evenodd;fill:url(#SVGID_42_);}
	.st51{fill-rule:evenodd;clip-rule:evenodd;fill:url(#SVGID_43_);}
	.st52{fill-rule:evenodd;clip-rule:evenodd;fill:url(#SVGID_44_);}
	.st53{fill-rule:evenodd;clip-rule:evenodd;fill:url(#SVGID_45_);}
	.st54{display:none;fill:none;stroke:#112244;stroke-linecap:round;stroke-linejoin:round;}
	.st55{fill:none;stroke:#112244;stroke-linecap:round;stroke-linejoin:round;}
	.st56{fill-rule:evenodd;clip-rule:evenodd;fill:url(#SVGID_46_);}
	.st57{fill-rule:evenodd;clip-rule:evenodd;fill:url(#SVGID_47_);}
	.st58{fill-rule:evenodd;clip-rule:evenodd;fill:url(#SVGID_48_);}
	.st59{fill-rule:evenodd;clip-rule:evenodd;fill:url(#SVGID_49_);}
	.st60{fill-rule:evenodd;clip-rule:evenodd;fill:url(#SVGID_50_);}
	.st61{fill-rule:evenodd;clip-rule:evenodd;fill:url(#SVGID_51_);}
	.st62{fill-rule:evenodd;clip-rule:evenodd;fill:#FFD46A;}
	.st63{fill-rule:evenodd;clip-rule:evenodd;fill:url(#SVGID_52_);}
	.st64{fill-rule:evenodd;clip-rule:evenodd;fill:url(#SVGID_53_);}
	.st65{fill-rule:evenodd;clip-rule:evenodd;fill:url(#SVGID_54_);}
	.st66{fill-rule:evenodd;clip-rule:evenodd;fill:url(#SVGID_55_);}
	.st67{fill-rule:evenodd;clip-rule:evenodd;fill:url(#SVGID_56_);}
	.st68{fill-rule:evenodd;clip-rule:evenodd;fill:url(#SVGID_57_);}
	.st69{fill-rule:evenodd;clip-rule:evenodd;fill:url(#SVGID_58_);}
	.st70{fill-rule:evenodd;clip-rule:evenodd;fill:url(#SVGID_59_);}
	.st71{fill-rule:evenodd;clip-rule:evenodd;fill:url(#SVGID_60_);}
	.st72{fill-rule:evenodd;clip-rule:evenodd;fill:url(#SVGID_61_);}
	.st73{fill-rule:evenodd;clip-rule:evenodd;fill:url(#SVGID_62_);}
	.st74{fill-rule:evenodd;clip-rule:evenodd;fill:url(#SVGID_63_);}
	.st75{fill-rule:evenodd;clip-rule:evenodd;fill:url(#SVGID_64_);}
	.st76{fill-rule:evenodd;clip-rule:evenodd;fill:url(#SVGID_65_);}
	.st77{display:none;fill-rule:evenodd;clip-rule:evenodd;fill:url(#SVGID_66_);}
	.st78{display:none;fill-rule:evenodd;clip-rule:evenodd;fill:url(#SVGID_67_);}
	.st79{display:none;fill-rule:evenodd;clip-rule:evenodd;fill:url(#SVGID_68_);}
	.st80{display:none;fill-rule:evenodd;clip-rule:evenodd;fill:url(#SVGID_69_);}
	.st81{display:none;fill-rule:evenodd;clip-rule:evenodd;fill:url(#SVGID_70_);}
	.st82{display:none;fill-rule:evenodd;clip-rule:evenodd;fill:url(#SVGID_71_);}
	.st83{fill-rule:evenodd;clip-rule:evenodd;fill:url(#SVGID_72_);}
	.st84{fill-rule:evenodd;clip-rule:evenodd;fill:url(#SVGID_73_);}
	.st85{display:none;fill-rule:evenodd;clip-rule:evenodd;fill:url(#SVGID_74_);}
	.st86{display:none;fill-rule:evenodd;clip-rule:evenodd;fill:url(#SVGID_75_);}
	.st87{display:none;fill-rule:evenodd;clip-rule:evenodd;fill:url(#SVGID_76_);}
	.st88{display:none;fill-rule:evenodd;clip-rule:evenodd;fill:url(#SVGID_77_);}
	.st89{display:none;fill-rule:evenodd;clip-rule:evenodd;fill:url(#SVGID_78_);}
	.st90{display:none;fill-rule:evenodd;clip-rule:evenodd;fill:url(#SVGID_79_);}
	.st91{display:none;fill-rule:evenodd;clip-rule:evenodd;fill:url(#SVGID_80_);}
	.st92{display:none;fill-rule:evenodd;clip-rule:evenodd;fill:url(#SVGID_81_);}
</style>
<title>3_work</title>
<desc>Created with Sketch.</desc>
<g id="Page-1">
	<g transform="translate(0.000000, -1.000000)">
		
			<linearGradient id="Path_1_" gradientUnits="userSpaceOnUse" x1="-4.7949" y1="643.6887" x2="-4.1147" y2="642.8095" gradientTransform="matrix(578.7457 0 0 -482.7519 2900.3604 310744.1875)">
			<stop  offset="0" style="stop-color:#EAF1FC"/>
			<stop  offset="1" style="stop-color:#C0D4F4"/>
		</linearGradient>
		<path id="Path" class="st0" d="M413.5,47.7C293.8,80.8,196,4.3,134.3,1.1C41.5-3.5-53,98.9,71,278.3s174.8,219.8,310.4,201.4
			C489.9,464.9,562.3,362.1,583.2,290C615.8,177.2,533.2,14.6,413.5,47.7z"/>
		<rect id="Rectangle" x="136.8" y="24.9" class="st1" width="152.2" height="110"/>
		
			<linearGradient id="SVGID_1_" gradientUnits="userSpaceOnUse" x1="-4.237" y1="642.5741" x2="-4.5739" y2="641.9459" gradientTransform="matrix(150.33 0 0 -110.02 881.68 70728.7891)">
			<stop  offset="0" style="stop-color:#4C93F4"/>
			<stop  offset="1" style="stop-color:#0B63DA"/>
		</linearGradient>
		<rect x="135" y="24.9" class="st2" width="150.3" height="110"/>
		
			<linearGradient id="SVGID_2_" gradientUnits="userSpaceOnUse" x1="-4.1233" y1="642.4529" x2="-4.4764" y2="641.9496" gradientTransform="matrix(138.57 0 0 -97.22 828.77 62492)">
			<stop  offset="0" style="stop-color:#4C93F4"/>
			<stop  offset="1" style="stop-color:#0B63DA"/>
		</linearGradient>
		<rect x="140.9" y="31.3" class="st3" width="138.6" height="97.2"/>
		<rect x="140.9" y="31.3" class="st1" width="2.7" height="97.2"/>
		<polygon class="st4" points="143.6,111.8 180,87.8 222.5,96.8 266.9,48.1 279.5,62 279.5,128.5 143.6,128.5 		"/>
		<ellipse id="Oval" class="st5" cx="165.2" cy="56.8" rx="8.9" ry="11.2"/>
		<polygon class="st5" points="164.6,98 176.8,103.3 187.2,96.2 208.6,93.8 180,87.8 		"/>
		<polygon class="st5" points="252.6,63.7 262.4,69.6 268.8,65.3 275.5,68 279.8,66.7 279.5,62 266.9,48.1 		"/>
		<path class="st5" d="M143.6,118.8c11.1-7.2,24.4-10.1,37.4-8.1c22.1,3.3,24,14.6,44.7,9.8c20.7-4.8,29.2-28.3,38.7-26.6
			c9.5,1.8,15.3,11.9,15.3,11.9l-0.3,22.5H143.6V118.8z"/>
		<path class="st6" d="M143.6,120.6c0,0,15.3-9.3,37.4-6.6s24,11.9,44.7,8s29.2-23.1,38.7-21.6c9.5,1.5,15.3,9.7,15.3,9.7l-0.3,18.4
			H143.6V120.6z"/>
		
			<linearGradient id="SVGID_3_" gradientUnits="userSpaceOnUse" x1="1.3155" y1="642.8978" x2="-5.9568" y2="642.5537" gradientTransform="matrix(121.1616 0 0 -168.5944 654.6854 108730.4922)">
			<stop  offset="0" style="stop-color:#EAF1FC"/>
			<stop  offset="1" style="stop-color:#C0D4F4"/>
		</linearGradient>
		<path class="st7" d="M56,315.8c2.5-12.5,19.2-15.2,25.7-4.3c15.4,25.9,49.1,72.5,80,99.5c43.3,37.8-29.1,74.9-70.5,58.1
			c-41.4-16.7-39.3-131.8-35.4-152.7L56,315.8z"/>
		
			<linearGradient id="SVGID_4_" gradientUnits="userSpaceOnUse" x1="-5.7138" y1="640.6625" x2="-3.6553" y2="640.0266" gradientTransform="matrix(41.3201 0 0 -46.6556 331.3802 30122.5371)">
			<stop  offset="0" style="stop-color:#223762"/>
			<stop  offset="1" style="stop-color:#041B48"/>
		</linearGradient>
		<path class="st8" d="M158.2,248.2c0,0-5.1-2.3-7.3-4.7c-2.2-2.4-13.5-17.5-15.6-17.9c-1.9-0.4-3.9,0-5.4,1.3
			C128.5,228,151,272,151,272l20.1-6.9L158.2,248.2z"/>
		
			<linearGradient id="SVGID_5_" gradientUnits="userSpaceOnUse" x1="-5.8437" y1="640.5729" x2="-3.416" y2="640.1177" gradientTransform="matrix(25.0845 0 0 -46.6603 247.6115 30127.0391)">
			<stop  offset="0" style="stop-color:#3769A5"/>
			<stop  offset="1" style="stop-color:#08448B"/>
		</linearGradient>
		<path class="st9" d="M129.8,226.8c0,0-1.1,0-2.2,2.1s-0.3,12,3.1,19.3s7.3,21,8.1,22.6c1.2,1.8,3.3,2.9,5.4,2.6
			c1.9-0.4,5.3-0.9,6.7-1.4c1.4-0.5,2.7-2.7-2.4-11.7c-5.1-9-7.9-13.2-10.4-20.4s-3.6-11.1-5.4-12.1
			C131.9,227.2,130.9,226.9,129.8,226.8z"/>
		<linearGradient id="SVGID_6_" gradientUnits="userSpaceOnUse" x1="154.93" y1="275.3422" x2="323.29" y2="275.3422">
			<stop  offset="0" style="stop-color:#3D3FAF"/>
			<stop  offset="1" style="stop-color:#242272"/>
		</linearGradient>
		<path class="st10" d="M323.3,297.8c0,0-49.8-42.6-65.2-52s-98.5,0-99.4,0c-0.9,0-3.7,5.8-3.7,11.5c0,5.7,7.8,13,7.8,13l73,2.6
			l85,36.1L323.3,297.8z"/>
		<linearGradient id="SVGID_7_" gradientUnits="userSpaceOnUse" x1="154.96" y1="278.9095" x2="323.35" y2="278.9095">
			<stop  offset="0" style="stop-color:#3E3C9A"/>
			<stop  offset="1" style="stop-color:#181963"/>
		</linearGradient>
		<path class="st11" d="M208.2,248.8c-12.4,0.9-37.4,5-53.3,7.8c0,0.3,0,0.6,0,0.8c0,5.7,7.8,13,7.8,13l73,2.6l85,36.1l2.6-11.3
			c0,0-23.1-19.8-42.8-35.4C254.4,255.9,219.6,247.9,208.2,248.8z"/>
		
			<linearGradient id="SVGID_8_" gradientUnits="userSpaceOnUse" x1="-5.9008" y1="640.9965" x2="-3.5464" y2="640.0624" gradientTransform="matrix(32.871 0 0 -49.3193 306.9641 31854.793)">
			<stop  offset="0" style="stop-color:#223762"/>
			<stop  offset="1" style="stop-color:#041B48"/>
		</linearGradient>
		<path class="st12" d="M171.2,269.5c0,0-4.6-3.3-6.2-6.1c-1.6-2.8-9.7-19.9-11.7-20.7c-1.8-0.8-3.9-0.8-5.6,0.2
			c-1.6,0.9,11.6,48.6,11.6,48.6l21.1-2.8L171.2,269.5z"/>
		
			<linearGradient id="SVGID_9_" gradientUnits="userSpaceOnUse" x1="-4.274" y1="627.7014" x2="-4.071" y2="627.0915" gradientTransform="matrix(84.34 0 0 -9.74 698.3199 6596.5332)">
			<stop  offset="0" style="stop-color:#223762"/>
			<stop  offset="1" style="stop-color:#041B48"/>
		</linearGradient>
		<polygon class="st13" points="359.6,473 281.6,482.7 366,482.7 366,473 		"/>
		
			<linearGradient id="SVGID_10_" gradientUnits="userSpaceOnUse" x1="-4.6075" y1="627.7014" x2="-4.8105" y2="627.0915" gradientTransform="matrix(84.33 0 0 -9.74 782.6101 6596.5332)">
			<stop  offset="0" style="stop-color:#223762"/>
			<stop  offset="1" style="stop-color:#041B48"/>
		</linearGradient>
		<polygon class="st14" points="372.4,473 450.3,482.7 366,482.7 366,473 		"/>
		
			<linearGradient id="SVGID_11_" gradientUnits="userSpaceOnUse" x1="-6.5494" y1="642.0031" x2="-3.6285" y2="642.2846" gradientTransform="matrix(12.76 0 0 -118.1 418.36 76262.2656)">
			<stop  offset="0" style="stop-color:#223762"/>
			<stop  offset="1" style="stop-color:#041B48"/>
		</linearGradient>
		<rect x="359.6" y="354.9" class="st15" width="12.8" height="118.1"/>
		
			<linearGradient id="SVGID_12_" gradientUnits="userSpaceOnUse" x1="-4.7694" y1="636.209" x2="-4.1917" y2="636.7621" gradientTransform="matrix(23.42 0 0 -21.82 466.33 14264.0195)">
			<stop  offset="0" style="stop-color:#223762"/>
			<stop  offset="1" style="stop-color:#041B48"/>
		</linearGradient>
		<rect x="354.2" y="360.9" class="st16" width="23.4" height="21.8"/>
		
			<linearGradient id="SVGID_13_" gradientUnits="userSpaceOnUse" x1="-4.3349" y1="627.4792" x2="-4.3844" y2="629.0653" gradientTransform="matrix(111.63 0 0 -12.25 807.46 8084.4702)">
			<stop  offset="0" style="stop-color:#223762"/>
			<stop  offset="1" style="stop-color:#041B48"/>
		</linearGradient>
		<rect x="254.3" y="344.5" class="st17" width="111.6" height="12.3"/>
		
			<linearGradient id="SVGID_14_" gradientUnits="userSpaceOnUse" x1="-4.3607" y1="642.0266" x2="-4.3728" y2="642.0842" gradientTransform="matrix(213.8038 0 0 -157.98 1313.4851 101793.875)">
			<stop  offset="0" style="stop-color:#223762"/>
			<stop  offset="1" style="stop-color:#041B48"/>
		</linearGradient>
		<path class="st18" d="M462.5,203.8H349.1c-2.8,0-5,2.7-5,6v0.3c-0.2,14.8-1.2,29.5-3,44.2c-1.4,11.8-3.5,23.5-6.4,35.1
			c-2.9,11.4-6.8,21.9-11.5,29.7c-5.3,8.7-12.4,16.1-20.9,21.7c-8.4,5.6-17.9,8.9-27.4,8.9c-6.5,0-12.8-1.6-18.5-4.6
			c-2.5-1.3-5.5,0.1-6.6,3.1c-1.1,3.1,0.1,6.6,2.6,8c6.2,3.3,13,5.2,20,5.5l0.1,0.1h113.5l50.4-30.4l16.6-28.4l10.1-76.5
			L462.5,203.8z"/>
		
			<linearGradient id="SVGID_15_" gradientUnits="userSpaceOnUse" x1="-4.0871" y1="630.1628" x2="-4.1815" y2="630.8713" gradientTransform="matrix(27.31 0 0 -12.83 469.93 8457.9902)">
			<stop  offset="0" style="stop-color:#223762"/>
			<stop  offset="1" style="stop-color:#041B48"/>
		</linearGradient>
		<rect x="338.4" y="344.5" class="st19" width="27.3" height="12.8"/>
		
			<linearGradient id="SVGID_16_" gradientUnits="userSpaceOnUse" x1="-5.1457" y1="641.5998" x2="-5.0571" y2="641.6924" gradientTransform="matrix(104.6438 0 0 -157.89 878.905 101736.0156)">
			<stop  offset="0" style="stop-color:#3769A5"/>
			<stop  offset="1" style="stop-color:#08448B"/>
		</linearGradient>
		<path class="st20" d="M455.3,209.8v0.2c-0.2,14.8-1.2,29.5-3,44.2c-1.4,11.8-3.5,23.5-6.4,35.1c-2.9,11.4-6.8,21.9-11.5,29.7
			c-5.3,8.7-12.4,16.1-20.9,21.7c-8.4,5.6-17.9,8.9-27.4,8.9c-6.5,0-12.8-1.6-18.5-4.6c-2.5-1.3-5.5,0.1-6.6,3.1s0.1,6.6,2.6,8
			c6.9,3.7,14.7,5.6,22.5,5.6c11.4,0,22.5-4,32.1-10.4c9.8-6.5,18-15.1,24.1-25.1c5.9-9.7,10.1-21.8,13.3-34.4
			c4.8-19,7.1-39.3,8.3-55s1.2-26.7,1.2-26.8c0-3.3-2.2-6.1-5-6.1C457.5,203.8,455.3,206.5,455.3,209.8L455.3,209.8z"/>
		<linearGradient id="SVGID_17_" gradientUnits="userSpaceOnUse" x1="170.29" y1="301.3466" x2="395.26" y2="301.3466">
			<stop  offset="6.926126e-08" style="stop-color:#4D4EB6"/>
			<stop  offset="1" style="stop-color:#27267A"/>
		</linearGradient>
		<path class="st21" d="M395.3,315c0,0-5.3,15.9-25.8,25.4c-20.5,9.5-50.5,14-69.4,8c-32-10-63.4-67.9-63.4-67.9l-60.4,10.3
			c-3.7-3.6-5.9-8.6-6-13.8v-9.2c0,0,62.9-15.9,76.6-16.2c13.7-0.3,71,49.2,74.1,51.8c3.1,2.6,15.9-14.9,15.9-14.9L395.3,315z"/>
		<linearGradient id="SVGID_18_" gradientUnits="userSpaceOnUse" x1="170.72" y1="310.8571" x2="395.26" y2="310.8571">
			<stop  offset="0" style="stop-color:#2F2F90"/>
			<stop  offset="1" style="stop-color:#19176A"/>
		</linearGradient>
		<path class="st22" d="M323.3,331c-18.7,1.5-35.2-8.3-49.1-17.8c-13.9-9.5-22.9-42.1-43.3-42.6c-15.7-0.4-46.6,6.9-60.1,10.3
			c0.9,3.7,2.8,7.1,5.6,9.8l60.4-10.3c0,0,31.5,57.9,63.4,67.9c18.9,5.9,48.9,1.5,69.4-8s25.8-25.4,25.8-25.4l-38.8-17.5
			C349.1,310.4,335.8,330.1,323.3,331z"/>
		
			<linearGradient id="SVGID_19_" gradientUnits="userSpaceOnUse" x1="-4.1042" y1="636.8607" x2="-4.4444" y2="637.3193" gradientTransform="matrix(30.2992 0 0 -23.4897 541.1161 15083.9805)">
			<stop  offset="0" style="stop-color:#F8A695"/>
			<stop  offset="1" style="stop-color:#E56045"/>
		</linearGradient>
		<path class="st23" d="M394.6,112.5c0,0,1.4-1.6,8-4.9c6.6-3.3,20.5-1.7,21-1.2c0.5,0.5,3.9,13.7-2.9,17.8
			c-6.8,4.1-12.8,5.4-16.4,4.6c-3.5-0.8-8.8-1.6-8.8-1.6L394.6,112.5z"/>
		
			<linearGradient id="SVGID_20_" gradientUnits="userSpaceOnUse" x1="-5.8067" y1="640.1226" x2="-6.2247" y2="640.5781" gradientTransform="matrix(36.701 0 0 -30.0506 616.6355 19315.623)">
			<stop  offset="0" style="stop-color:#F8A695"/>
			<stop  offset="1" style="stop-color:#E56045"/>
		</linearGradient>
		<path class="st24" d="M474.8,132.9c0,0,0.9-5-6.1-11.8c-7.1-6.8-21-11.5-26.4-7.6c-5.4,4-3.9,13.2-3.9,13.8S456,134,456,134
			l-8.1,1c0,0,10.1,6.1,14.3,7S474.8,132.9,474.8,132.9z"/>
		
			<linearGradient id="SVGID_21_" gradientUnits="userSpaceOnUse" x1="-4.871" y1="642.4937" x2="-4.1424" y2="642.1255" gradientTransform="matrix(76.8361 0 0 -111.088 703.2053 71503.2188)">
			<stop  offset="0" style="stop-color:#FFC063"/>
			<stop  offset="0.95" style="stop-color:#E44D0B"/>
		</linearGradient>
		<path class="st25" d="M383.8,179.2c0,0-21.6-8.7-27.4-22.3c-5.8-13.6,42.8-27.6,42.8-27.6s0.9-6.7,1.6-11.7c0.7-5-6.3-6-6.3-6
			s-16.8,3-45.2,13.5c-21.3,7.8-22,10-25.1,21.3c-3.1,11.3,25.4,49.7,36.9,73.9C368,234.8,383.8,179.2,383.8,179.2z"/>
		
			<linearGradient id="SVGID_22_" gradientUnits="userSpaceOnUse" x1="-4.1459" y1="642.8327" x2="-4.5629" y2="642.3206" gradientTransform="matrix(140.8493 0 0 -143.9036 1013.2463 92702.4063)">
			<stop  offset="0" style="stop-color:#FFC063"/>
			<stop  offset="1" style="stop-color:#E58F0F"/>
		</linearGradient>
		<path class="st26" d="M416.4,184.3c0,0,22.1,1.7,27.5,5.6c5.4,3.9,9.3,13.6,10.9,23.3c1.6,9.7-17.9,67-35.2,88.6
			c-17.3,21.6-21.4,19.5-21.4,19.5s-58-6.6-68.7-12.9c-10.7-6.2-15.5-12.8-15.5-12.8s27.7-45.5,34.1-69.9s11.7-41.6,22.7-44.9
			c11-3.3,23.7-3.4,23.7-3.4L416.4,184.3z"/>
		
			<linearGradient id="SVGID_23_" gradientUnits="userSpaceOnUse" x1="-4.9897" y1="642.7161" x2="-4.0153" y2="641.9781" gradientTransform="matrix(140.7696 0 0 -117.0949 1012.9281 75464.4844)">
			<stop  offset="0" style="stop-color:#FFC063"/>
			<stop  offset="0.95" style="stop-color:#E44D0B"/>
		</linearGradient>
		<path class="st27" d="M454.8,213.2c-0.5-3-1.2-6-2.1-8.9l-13.4,0.9c0,0,4.6,16.7,2.1,23.1c-2.5,6.5-16.6,19.2-32.7,22
			c-16.1,2.8,4.3,9.3,6,14.9c1.7,5.6-33.9,17.2-55.5,11c-9.7-2.7-19-6.3-28-10.9c-8.6,16.5-17,30.3-17,30.3s4.8,6.6,15.5,12.8
			c10.7,6.2,68.7,12.9,68.7,12.9s4.1,2.1,21.4-19.5S456.3,222.9,454.8,213.2z"/>
		<path class="st5" d="M397.8,177.7c-1.4,0.4-2.5,1.3-3.2,2.5c-1.5,2.9-0.9,6.5,1.6,8.7c3.1,2.6,14.3,4.7,19.8,2.5
			c5.5-2.1,4.7-6.1,4.7-6.1L397.8,177.7z"/>
		
			<linearGradient id="SVGID_24_" gradientUnits="userSpaceOnUse" x1="-4.561" y1="637.1102" x2="-4.4032" y2="637.613" gradientTransform="matrix(29.45 0 0 -25.5528 540.0699 16467.3398)">
			<stop  offset="0" style="stop-color:#F8A695"/>
			<stop  offset="1" style="stop-color:#E56045"/>
		</linearGradient>
		<path class="st28" d="M400.7,160.3l-2.9,17.4c0,0,1.2,4,8,6.7c6.8,2.6,14.9,0.9,14.9,0.9l6.5-16.4L400.7,160.3z"/>
		
			<linearGradient id="SVGID_25_" gradientUnits="userSpaceOnUse" x1="-3.9538" y1="640.3907" x2="-4.0919" y2="640.2822" gradientTransform="matrix(29.8295 0 0 -44.31 543.8079 28485.1836)">
			<stop  offset="0" style="stop-color:#223762"/>
			<stop  offset="1" style="stop-color:#041B48"/>
		</linearGradient>
		<path class="st29" d="M414.1,98.5c0,0-10.3,22.5-13.7,30.5c-3.4,8,5.8,13.9,5.8,13.9l20.5-9.7l2.8-26.6L414.1,98.5z"/>
		
			<linearGradient id="SVGID_26_" gradientUnits="userSpaceOnUse" x1="-4.7171" y1="640.9207" x2="-4.0881" y2="641.683" gradientTransform="matrix(58.0124 0 0 -66.9887 682.2291 43099.0938)">
			<stop  offset="0" style="stop-color:#F8A695"/>
			<stop  offset="1" style="stop-color:#E56045"/>
		</linearGradient>
		<path class="st30" d="M403.6,126.1c-3,9.3-6.6,20.5-6.4,31.6c0.1,11.1,18.2,20.4,27.5,15.2c9.3-5.2,16.1-16.5,16.1-16.5
			s6.3,3,9.9-1.3c3.5-4.3,6-11.6,3.5-14.3c-2.5-2.6-6.7-0.4-6.7-0.4s4.7-9,0.3-17.5c-4.4-8.5-30.8-16.3-32.6-15.6
			S406.6,116.8,403.6,126.1z"/>
		
			<linearGradient id="SVGID_27_" gradientUnits="userSpaceOnUse" x1="-4.4234" y1="641.962" x2="-4.6356" y2="641.2712" gradientTransform="matrix(61.0081 0 0 -85.734 710.8798 55149.8086)">
			<stop  offset="0" style="stop-color:#223762"/>
			<stop  offset="1" style="stop-color:#041B48"/>
		</linearGradient>
		<path class="st31" d="M438.6,150.7c0,0,6.9-10.7,8-16.4s-0.4-10.2-5.7-14.7s-23.3-9-26.8-11.7c-3.4-2.6-5-5.3-0.7-12.5
			c4.3-7.1,19.5-13.7,34.5-6s19.8,17.5,23.1,24.2c3.3,6.7-4.8,18.4-10.4,28.7c-5.6,10.3-15,23.7-20.2,27.6c-5.2,3.9-11.9,0-11.9,0
			l12.4-14.9c0,0,2.2,2.2,6.5-0.2c4.4-2.4,8-8.2,7.4-11.9c-0.6-3.7-5.7-4.8-8.7-1.5S438.6,150.7,438.6,150.7z"/>
		<path class="st32" d="M410.9,132.7c0,0-6.5,10.8-7.2,13.8c-0.7,3,7.6,3.8,7.6,3.8"/>
		
			<linearGradient id="SVGID_28_" gradientUnits="userSpaceOnUse" x1="-4.034" y1="640.6564" x2="-4.3433" y2="641.1014" gradientTransform="matrix(43.7776 0 0 -58.64 624.7772 37707.2734)">
			<stop  offset="0" style="stop-color:#223762"/>
			<stop  offset="1" style="stop-color:#041B48"/>
		</linearGradient>
		<path class="st33" d="M453.3,112.8c-7-6.3-34.4-8.4-36.6-13.2c-0.7-1.5-0.6-4.3-0.1-7.5c-1.2,1-2.3,2.2-3.1,3.5
			c-4.3,7.2-2.8,9.9,0.7,12.5s21.6,7.2,26.8,11.7c5.2,4.4,6.8,9,5.7,14.7c-1.1,5.6-8,16.3-8,16.3S460.2,119.1,453.3,112.8z"/>
		<path class="st32" d="M446.3,145.5c0,0,2.8-0.6,2.8,1.6c0,2.3-0.8,4.2-3.8,4.4c-1,0.1-1.8-0.6-2-1.6"/>
		<path class="st32" d="M418.2,128.4c0,0,1.1,7.7,5.4,8.8c2.3,0.7,4.8,0.5,7.1-0.4"/>
		<path class="st32" d="M413.1,126.2c0,0-2.9,2.6-5.4,2c-2.5-0.6-0.8-4.7-0.8-4.7"/>
		
			<linearGradient id="SVGID_29_" gradientUnits="userSpaceOnUse" x1="-4.71" y1="641.5529" x2="-5.3155" y2="640.6708" gradientTransform="matrix(99.4046 0 0 -96.7733 925.8282 62303.2539)">
			<stop  offset="0" style="stop-color:#FFC063"/>
			<stop  offset="1" style="stop-color:#E58F0F"/>
		</linearGradient>
		<path class="st34" d="M440.4,188.9c0,0,50.6-6.2,57.7-12.1c7.1-5.9-36.5-34.1-36.5-34.1s6.5-11.3,10.6-11.9l4.1-0.6
			c0,0,51.4,28.8,56.3,42.7c4.9,13.9-24.1,34-40.6,40.8c-16.5,6.8-38,15.7-47.7,12.7c-9.7-3-12.4-16.9-9.5-26.4
			C437.9,190.6,440.4,188.9,440.4,188.9z"/>
		
			<linearGradient id="SVGID_30_" gradientUnits="userSpaceOnUse" x1="-4.416" y1="642.4473" x2="-4.416" y2="643.352" gradientTransform="matrix(59.53 0 0 -176.93 450.91 114099.6641)">
			<stop  offset="0" style="stop-color:#3769A5"/>
			<stop  offset="1" style="stop-color:#08448B"/>
		</linearGradient>
		<polygon class="st35" points="205.7,482.7 217.8,482.7 170.4,305.8 158.3,305.8 		"/>
		
			<linearGradient id="SVGID_31_" gradientUnits="userSpaceOnUse" x1="-4.416" y1="642.4473" x2="-4.416" y2="643.352" gradientTransform="matrix(59.53 0 0 -176.93 391.01 114099.6641)">
			<stop  offset="0" style="stop-color:#3769A5"/>
			<stop  offset="1" style="stop-color:#08448B"/>
		</linearGradient>
		<polygon class="st36" points="110.5,482.7 98.4,482.7 145.8,305.8 157.9,305.8 		"/>
		
			<linearGradient id="SVGID_32_" gradientUnits="userSpaceOnUse" x1="-4.416" y1="642.9079" x2="-4.416" y2="643.1841" gradientTransform="matrix(59.54 0 0 -176.93 731.6 114099.6641)">
			<stop  offset="0" style="stop-color:#3769A5"/>
			<stop  offset="1" style="stop-color:#08448B"/>
		</linearGradient>
		<polygon class="st37" points="486.3,482.7 498.4,482.7 451,305.8 438.9,305.8 		"/>
		
			<linearGradient id="SVGID_33_" gradientUnits="userSpaceOnUse" x1="-4.416" y1="642.9079" x2="-4.416" y2="643.1841" gradientTransform="matrix(59.54 0 0 -176.93 671.7001 114099.6641)">
			<stop  offset="0" style="stop-color:#3769A5"/>
			<stop  offset="1" style="stop-color:#08448B"/>
		</linearGradient>
		<polygon class="st38" points="391.1,482.7 379,482.7 426.4,305.8 438.5,305.8 		"/>
		
			<linearGradient id="SVGID_34_" gradientUnits="userSpaceOnUse" x1="-4.416" y1="642.4984" x2="-4.416" y2="643.1679" gradientTransform="matrix(59.54 0 0 -176.93 390.11 114099.6641)">
			<stop  offset="0" style="stop-color:#A7BDE5"/>
			<stop  offset="1" style="stop-color:#2F66CB"/>
		</linearGradient>
		<polygon class="st39" points="144.8,482.7 156.9,482.7 109.5,305.8 97.4,305.8 		"/>
		
			<linearGradient id="SVGID_35_" gradientUnits="userSpaceOnUse" x1="-4.416" y1="642.4984" x2="-4.416" y2="643.1679" gradientTransform="matrix(59.54 0 0 -176.93 330.21 114099.6641)">
			<stop  offset="0" style="stop-color:#A7BDE5"/>
			<stop  offset="1" style="stop-color:#2F66CB"/>
		</linearGradient>
		<polygon class="st40" points="49.6,482.7 37.5,482.7 84.9,305.8 97.1,305.8 		"/>
		<path class="st1" d="M102.9,166.9l-0.2,1.2c-0.1,0.7-0.8,1.2-1.6,1.1l-72.4-13.1c-0.7-0.1-1.2-0.8-1.1-1.6l0.2-1.2
			c0.1-0.7,0.8-1.2,1.6-1.1l72.4,13.1C102.5,165.5,103,166.2,102.9,166.9z"/>
		<circle class="st41" cx="124.1" cy="198.7" r="11.2"/>
		<path class="st1" d="M104.3,159.1l-0.2,1.2c-0.1,0.7-0.8,1.2-1.6,1.1l-72.4-13.1c-0.7-0.1-1.2-0.8-1.1-1.6l0.2-1.2
			c0.1-0.7,0.8-1.2,1.6-1.1l72.4,13.1C103.9,157.7,104.4,158.4,104.3,159.1z"/>
		<path class="st1" d="M35.9,148.1l1.2-0.2c0.7-0.1,1.4,0.3,1.6,1.1l27.9,148.4c0.1,0.7-0.3,1.4-1.1,1.6l-1.2,0.2
			c-0.7,0.1-1.4-0.3-1.6-1.1L34.8,149.7C34.7,149,35.2,148.3,35.9,148.1z"/>
		
			<linearGradient id="SVGID_36_" gradientUnits="userSpaceOnUse" x1="0.9025" y1="646.6414" x2="1.1723" y2="646.0112" gradientTransform="matrix(-11.1821 7.1265 28.7749 45.1502 -18461.334 -28993.5234)">
			<stop  offset="0" style="stop-color:#4C93F4"/>
			<stop  offset="1" style="stop-color:#0B63DA"/>
		</linearGradient>
		<path class="st42" d="M128.1,198.1l-6.2,3.9c-1.4,0.9-3.2,0.5-4.1-0.9L92.2,161c-0.9-1.4-0.5-3.2,0.9-4.1l6.2-3.9
			c1.4-0.9,3.2-0.5,4.1,0.9L129,194C129.9,195.4,129.5,197.3,128.1,198.1z"/>
		
			<linearGradient id="SVGID_37_" gradientUnits="userSpaceOnUse" x1="-9.1417" y1="634.1917" x2="-9.1764" y2="634.6115" gradientTransform="matrix(13.4759 -8.5884 -8.5884 -13.4759 5706.4175 8682.7998)">
			<stop  offset="0" style="stop-color:#FFC063"/>
			<stop  offset="0.95" style="stop-color:#E44D0B"/>
		</linearGradient>
		<circle class="st43" cx="124.1" cy="198.7" r="8"/>
		
			<linearGradient id="SVGID_38_" gradientUnits="userSpaceOnUse" x1="-4.1683" y1="639.6618" x2="-4.6184" y2="640.2697" gradientTransform="matrix(46.7719 0 0 -43.4313 328.1977 27991.8691)">
			<stop  offset="0" style="stop-color:#4C93F4"/>
			<stop  offset="1" style="stop-color:#0B63DA"/>
		</linearGradient>
		<path class="st44" d="M108.3,173.9c11-7,28-0.2,37.8,15.2l-40,25.5C96.3,199.1,97.3,180.9,108.3,173.9z"/>
		<path class="st1" d="M146.1,189.1l-10.8,6.9c-7.2-11.3-16.6-19.4-25.3-23C121.1,167.6,136.8,174.4,146.1,189.1z"/>
		<path class="st1" d="M28.1,149.6l1.2-0.2c0.7-0.1,1.4,0.3,1.6,1.1l27.9,148.4c0.1,0.7-0.3,1.4-1.1,1.6l-1.2,0.2
			c-0.7,0.1-1.4-0.3-1.6-1.1L27,151.2C26.9,150.4,27.4,149.7,28.1,149.6z"/>
		<circle class="st1" cx="35.8" cy="151" r="9.6"/>
		<circle class="st45" cx="34" cy="151" r="9.6"/>
		<circle class="st1" cx="34" cy="151" r="4.8"/>
		
			<linearGradient id="SVGID_39_" gradientUnits="userSpaceOnUse" x1="-4.2633" y1="653.4849" x2="-5.3292" y2="655.4512" gradientTransform="matrix(-462.31 0 0 14.27 -1816.73 -9033.1299)">
			<stop  offset="0" style="stop-color:#A7BDE5"/>
			<stop  offset="1" style="stop-color:#2F66CB"/>
		</linearGradient>
		<rect x="37.5" y="291.5" class="st46" width="462.3" height="14.3"/>
		<rect x="414.8" y="291.5" class="st6" width="85.1" height="14.3"/>
		<rect x="37.5" y="301.1" class="st47" width="462.3" height="4.6"/>
		<rect x="415.2" y="301.1" class="st1" width="84.7" height="4.6"/>
		
			<linearGradient id="SVGID_40_" gradientUnits="userSpaceOnUse" x1="-4.416" y1="642.6699" x2="-4.416" y2="643.3736" gradientTransform="matrix(59.53 0 0 -176.93 672.63 114099.6641)">
			<stop  offset="0" style="stop-color:#A7BDE5"/>
			<stop  offset="1" style="stop-color:#2F66CB"/>
		</linearGradient>
		<polygon class="st48" points="427.4,482.7 439.5,482.7 392.1,305.8 380,305.8 		"/>
		
			<linearGradient id="SVGID_41_" gradientUnits="userSpaceOnUse" x1="-4.416" y1="642.6699" x2="-4.416" y2="643.3736" gradientTransform="matrix(59.54 0 0 -176.93 612.78 114099.6641)">
			<stop  offset="0" style="stop-color:#A7BDE5"/>
			<stop  offset="1" style="stop-color:#2F66CB"/>
		</linearGradient>
		<polygon class="st49" points="332.2,482.7 320.1,482.7 367.5,305.8 379.6,305.8 		"/>
		
			<linearGradient id="SVGID_42_" gradientUnits="userSpaceOnUse" x1="-3.9917" y1="629.35" x2="-4.9917" y2="629.35" gradientTransform="matrix(600 0 0 -10.53 2995 7114.999)">
			<stop  offset="0" style="stop-color:#223762"/>
			<stop  offset="1" style="stop-color:#041B48"/>
		</linearGradient>
		<polygon class="st50" points="0,493.2 600,493.2 558.8,482.7 38,482.7 		"/>
		
			<linearGradient id="SVGID_43_" gradientUnits="userSpaceOnUse" x1="-6.1662" y1="640.8342" x2="-3.0625" y2="640.1564" gradientTransform="matrix(17.8499 0 0 -48.6594 227.6192 31430.5254)">
			<stop  offset="0" style="stop-color:#3769A5"/>
			<stop  offset="1" style="stop-color:#08448B"/>
		</linearGradient>
		<path class="st51" d="M147.8,242.9c0,0-1.1-0.2-2.6,1.6c-1.5,1.8-2.7,11.7-0.8,19.5s3,22,3.4,23.7c0.8,2,2.6,3.5,4.8,3.7
			c1.9,0,5.4,0.2,6.9,0c1.5-0.2,3.2-2.1,0-12s-5.1-14.5-6.1-22.1c-1-7.6-1.3-11.6-2.8-13C149.7,243.7,148.8,243.2,147.8,242.9z"/>
		<polygon class="st1" points="81.8,291.5 126.4,291.5 114,231.8 69.4,231.8 		"/>
		
			<linearGradient id="SVGID_44_" gradientUnits="userSpaceOnUse" x1="-4.9367" y1="641.6387" x2="-4.0978" y2="640.623" gradientTransform="matrix(58.11 0 0 -59.74 350.77 38555.332)">
			<stop  offset="0" style="stop-color:#4C93F4"/>
			<stop  offset="1" style="stop-color:#0B63DA"/>
		</linearGradient>
		<polygon class="st52" points="77.9,291.5 123.3,291.5 110.6,231.8 65.2,231.8 		"/>
		<polygon class="st1" points="88.3,250.3 73.2,291.5 97.1,291.5 90.7,250.3 		"/>
		<polygon class="st45" points="90.7,250.3 75.6,291.5 99.5,291.5 		"/>
		
			<linearGradient id="SVGID_45_" gradientUnits="userSpaceOnUse" x1="-4.8916" y1="642.6214" x2="-3.9622" y2="642.5664" gradientTransform="matrix(69.9844 0 0 -164.46 841.4869 105996.8828)">
			<stop  offset="0" style="stop-color:#223762"/>
			<stop  offset="1" style="stop-color:#041B48"/>
		</linearGradient>
		<path class="st53" d="M501.3,307.9c-8.8,33.4-4.8,66.2,8.6,90.2c23.5-14.3,43.2-40.8,52-74.2s4.8-66.2-8.6-90.2
			C529.8,247.9,510.1,274.5,501.3,307.9z"/>
		<path class="st54" d="M536.3,306.5c-5.5,15.5-10.1,31.4-13.7,47.5c-6.4,28-4.8,61.3-4.8,61.3"/>
		<path class="st55" d="M499.2,296.9c0,0,3.8,32.1,8.5,56.9c4.7,24.8,7.9,57.5,7.9,57.5"/>
		<path class="st55" d="M491.5,350.9c0,0,7.7,20.9,13.3,34.5c5.6,13.5,10.9,27.5,10.9,27.5"/>
		
			<linearGradient id="SVGID_46_" gradientUnits="userSpaceOnUse" x1="-3.738" y1="642.889" x2="-5.043" y2="642.019" gradientTransform="matrix(39.217 0 0 -144.1 713.1317 92761.2656)">
			<stop  offset="0" style="stop-color:#223762"/>
			<stop  offset="1" style="stop-color:#041B48"/>
		</linearGradient>
		<path class="st56" d="M523.7,179.5c-4,29.3-0.5,56.3,8.1,74.5c13.2-15.3,23.8-40.3,27.8-69.6s0.5-56.3-8.1-74.5
			C538.3,125.1,527.7,150.2,523.7,179.5z"/>
		
			<linearGradient id="SVGID_47_" gradientUnits="userSpaceOnUse" x1="-4.8362" y1="642.7354" x2="-3.8362" y2="642.7354" gradientTransform="matrix(30.52 0 0 -194.86 617.64 125463.8906)">
			<stop  offset="0" style="stop-color:#3769A5"/>
			<stop  offset="1" style="stop-color:#08448B"/>
		</linearGradient>
		<path class="st57" d="M496.6,226.4c1.2-26.8,3-75.1,4-103.3c-18.6,23-30.5,58.3-30.5,97.9c0,39.1,11.7,74,29.9,97
			C497.9,290.9,495.5,250.8,496.6,226.4z"/>
		
			<linearGradient id="SVGID_48_" gradientUnits="userSpaceOnUse" x1="-3.9632" y1="643.2258" x2="-5.4944" y2="641.9473" gradientTransform="matrix(36.3693 0 0 -197.73 673.147 127311.1484)">
			<stop  offset="0" style="stop-color:#4C93F4"/>
			<stop  offset="1" style="stop-color:#0B63DA"/>
		</linearGradient>
		<path class="st58" d="M532.7,220.9c0-40.2-12.3-75.9-31.3-98.9c-0.3,0.3-0.5,0.7-0.8,1c-1,28.2-2.8,76.5-4,103.3
			c-1.1,24.4,1.4,64.5,3.4,91.6c0.5,0.6,0.9,1.2,1.4,1.8C520.4,296.8,532.7,261.1,532.7,220.9z"/>
		
			<linearGradient id="SVGID_49_" gradientUnits="userSpaceOnUse" x1="-3.7943" y1="642.8257" x2="-4.8206" y2="641.8298" gradientTransform="matrix(47.4705 0 0 -118.55 760.2573 76391.8906)">
			<stop  offset="0" style="stop-color:#3769A5"/>
			<stop  offset="1" style="stop-color:#08448B"/>
		</linearGradient>
		<path class="st59" d="M532.9,248.3c-7.2,24.1-6.3,47.7,1,64.9c15.5-10.4,29.3-29.6,36.5-53.7c7.2-24.1,6.3-47.7-1-64.9
			C553.9,205,540.1,224.3,532.9,248.3z"/>
		
			<linearGradient id="SVGID_50_" gradientUnits="userSpaceOnUse" x1="-3.5664" y1="642.2492" x2="-4.9111" y2="641.6489" gradientTransform="matrix(89.39 0 0 -89.32 913.0701 57766.4453)">
			<stop  offset="0" style="stop-color:#FF9F5B"/>
			<stop  offset="1" style="stop-color:#E5670E"/>
		</linearGradient>
		<polygon class="st60" points="550.3,482.7 481.4,482.7 471.1,393.4 560.5,393.4 		"/>
		
			<linearGradient id="SVGID_51_" gradientUnits="userSpaceOnUse" x1="-1.7374" y1="641.8318" x2="-2.2686" y2="641.8318" gradientTransform="matrix(36.6 0 0 -89.32 649.12 57766.4453)">
			<stop  offset="0" style="stop-color:#FF9F5B"/>
			<stop  offset="1" style="stop-color:#E5670E"/>
		</linearGradient>
		<polygon class="st61" points="471.1,393.4 481.4,482.7 507.7,482.7 500.1,393.4 		"/>
		<rect x="467.6" y="390.8" class="st62" width="96.4" height="22"/>
		
			<linearGradient id="SVGID_52_" gradientUnits="userSpaceOnUse" x1="-1.7777" y1="634.7261" x2="-2.4834" y2="633.6787" gradientTransform="matrix(7.1 0 0 -12.66 529.68 8230.4297)">
			<stop  offset="0" style="stop-color:#4C93F4"/>
			<stop  offset="1" style="stop-color:#0B63DA"/>
		</linearGradient>
		<ellipse class="st63" cx="502.7" cy="232.7" rx="3.5" ry="6.3"/>
		
			<linearGradient id="SVGID_53_" gradientUnits="userSpaceOnUse" x1="-9.2787" y1="625.9636" x2="-10.3261" y2="626.6693" gradientTransform="matrix(8.952 -8.952 -5.0205 -5.0205 3776.8811 3281.0994)">
			<stop  offset="0" style="stop-color:#4C93F4"/>
			<stop  offset="1" style="stop-color:#0B63DA"/>
		</linearGradient>
		<path class="st64" d="M508.4,237.2c2.5-2.5,5.6-3.4,7-2c1.4,1.4,0.5,4.5-2,7c-2.5,2.5-5.6,3.4-7,2
			C505.1,242.8,506,239.7,508.4,237.2z"/>
		
			<linearGradient id="SVGID_54_" gradientUnits="userSpaceOnUse" x1="-7.1803" y1="630.1754" x2="-7.9427" y2="630.6898" gradientTransform="matrix(12.2895 -12.2895 -6.8872 -6.8872 4992.0068 4500.9575)">
			<stop  offset="0" style="stop-color:#4C93F4"/>
			<stop  offset="1" style="stop-color:#0B63DA"/>
		</linearGradient>
		<path class="st65" d="M506.3,269.9c3.4-3.4,7.7-4.6,9.6-2.7c1.9,1.9,0.7,6.2-2.7,9.6c-3.4,3.4-7.7,4.6-9.6,2.7
			C501.7,277.6,502.9,273.3,506.3,269.9z"/>
		
			<linearGradient id="SVGID_55_" gradientUnits="userSpaceOnUse" x1="-8.5135" y1="634.123" x2="-9.2758" y2="634.6374" gradientTransform="matrix(7.3369 -15.7555 -8.8296 -4.1117 6217.6284 2716.6211)">
			<stop  offset="0" style="stop-color:#4C93F4"/>
			<stop  offset="1" style="stop-color:#0B63DA"/>
		</linearGradient>
		<path class="st66" d="M503.4,288.6c2-4.4,5.6-7,8.1-5.8s2.8,5.6,0.7,9.9c-2,4.4-5.6,7-8.1,5.8S501.3,292.9,503.4,288.6z"/>
		
			<linearGradient id="SVGID_56_" gradientUnits="userSpaceOnUse" x1="-4.8505" y1="642.961" x2="-4.2866" y2="642.0392" gradientTransform="matrix(58.3771 0 0 -136.63 726.6984 88073.1719)">
			<stop  offset="0" style="stop-color:#3769A5"/>
			<stop  offset="1" style="stop-color:#08448B"/>
		</linearGradient>
		<path class="st67" d="M449.5,309.4c11,27.8,29.3,49.1,48.7,59.7c-27-30.4-54.2-136.6-54.2-136.6
			C437.2,253.6,438.5,281.6,449.5,309.4z"/>
		
			<linearGradient id="SVGID_57_" gradientUnits="userSpaceOnUse" x1="-4.6702" y1="642.9892" x2="-4.1062" y2="642.0673" gradientTransform="matrix(58.3686 0 0 -136.63 730.8831 88073.1719)">
			<stop  offset="0" style="stop-color:#4C93F4"/>
			<stop  offset="1" style="stop-color:#0B63DA"/>
		</linearGradient>
		<path class="st68" d="M492.8,292.2c-11-27.8-29.3-49.1-48.7-59.7c0,0,27.2,106.2,54.1,136.6C505.1,348,503.7,320,492.8,292.2z"/>
		
			<linearGradient id="SVGID_58_" gradientUnits="userSpaceOnUse" x1="-4.7495" y1="643.1188" x2="-3.9411" y2="641.7975" gradientTransform="matrix(58.3686 0 0 -136.63 730.8831 88073.1719)">
			<stop  offset="0" style="stop-color:#4C93F4"/>
			<stop  offset="1" style="stop-color:#0B63DA"/>
		</linearGradient>
		<path class="st69" d="M492.8,292.2c-11-27.8-29.3-49.1-48.7-59.7c0,0,27.2,106.2,54.1,136.6C505.1,348,503.7,320,492.8,292.2z"/>
		
			<linearGradient id="SVGID_59_" gradientUnits="userSpaceOnUse" x1="-12.1495" y1="632.2194" x2="-12.8539" y2="631.1712" gradientTransform="matrix(5.0544 -2.1174 -3.7712 -9.002 2918.3679 5946.6982)">
			<stop  offset="0" style="stop-color:#4C93F4"/>
			<stop  offset="1" style="stop-color:#0B63DA"/>
		</linearGradient>
		<path class="st70" d="M472,307.9c1.4-0.6,3.4,1,4.4,3.4s0.8,5-0.6,5.6s-3.4-1-4.4-3.4S470.6,308.5,472,307.9z"/>
		
			<linearGradient id="SVGID_60_" gradientUnits="userSpaceOnUse" x1="-12.1491" y1="632.2201" x2="-12.8534" y2="631.1719" gradientTransform="matrix(5.0544 -2.1174 -3.7712 -9.002 2936.0012 5949.5225)">
			<stop  offset="0" style="stop-color:#4C93F4"/>
			<stop  offset="1" style="stop-color:#0B63DA"/>
		</linearGradient>
		<path class="st71" d="M489.6,310.8c1.4-0.6,3.4,1,4.4,3.4s0.8,5-0.6,5.6s-3.4-1-4.4-3.4S488.2,311.3,489.6,310.8z"/>
		
			<linearGradient id="SVGID_61_" gradientUnits="userSpaceOnUse" x1="-15.1085" y1="630.2222" x2="-16.1567" y2="630.9284" gradientTransform="matrix(3.7088 -9.0768 -5.0964 -2.0824 3774.9592 1463.2633)">
			<stop  offset="0" style="stop-color:#4C93F4"/>
			<stop  offset="1" style="stop-color:#0B63DA"/>
		</linearGradient>
		<path class="st72" d="M481.2,312c1-2.5,3-4.1,4.4-3.5s1.7,3.1,0.7,5.6c-1,2.5-3,4.1-4.4,3.5S480.2,314.5,481.2,312z"/>
		
			<linearGradient id="SVGID_62_" gradientUnits="userSpaceOnUse" x1="-15.1662" y1="630.1558" x2="-16.2143" y2="630.8602" gradientTransform="matrix(3.6988 -9.032 -5.0712 -2.0768 3758.2163 1471.1628)">
			<stop  offset="0" style="stop-color:#4C93F4"/>
			<stop  offset="1" style="stop-color:#0B63DA"/>
		</linearGradient>
		<path class="st73" d="M480.7,323.4c1-2.5,3-4.1,4.4-3.5s1.7,3.1,0.7,5.6c-1,2.5-3,4.1-4.4,3.5S479.7,325.9,480.7,323.4z"/>
		
			<linearGradient id="SVGID_63_" gradientUnits="userSpaceOnUse" x1="-11.4694" y1="633.2327" x2="-12.2328" y2="633.7474" gradientTransform="matrix(5.0782 -12.4005 -6.9591 -2.8499 4987.0098 1968.3112)">
			<stop  offset="0" style="stop-color:#4C93F4"/>
			<stop  offset="1" style="stop-color:#0B63DA"/>
		</linearGradient>
		<path class="st74" d="M487.5,337.8c1.4-3.4,4.1-5.6,6-4.8c1.9,0.8,2.3,4.2,0.9,7.6s-4.1,5.6-6,4.8
			C486.5,344.6,486.1,341.2,487.5,337.8z"/>
		
			<linearGradient id="SVGID_64_" gradientUnits="userSpaceOnUse" x1="-11.9562" y1="639.6137" x2="-12.7196" y2="640.127" gradientTransform="matrix(0.5237 -13.3898 -7.5143 -0.2939 5327.5083 332.0282)">
			<stop  offset="0" style="stop-color:#4C93F4"/>
			<stop  offset="1" style="stop-color:#0B63DA"/>
		</linearGradient>
		<path class="st75" d="M491,352c0.1-3.7,1.9-6.6,4-6.5c2.1,0.1,3.6,3.1,3.5,6.8c-0.1,3.7-1.9,6.6-4,6.5
			C492.4,358.8,490.8,355.7,491,352z"/>
		
			<linearGradient id="SVGID_65_" gradientUnits="userSpaceOnUse" x1="-4.3322" y1="627.8171" x2="-4.3817" y2="629.2792" gradientTransform="matrix(102.84 0 0 -12.25 763.45 8084.4702)">
			<stop  offset="0" style="stop-color:#223762"/>
			<stop  offset="1" style="stop-color:#041B48"/>
		</linearGradient>
		<polygon class="st76" points="254.3,356.7 353.8,356.7 357.1,344.5 254.3,344.5 		"/>
		
			<linearGradient id="SVGID_66_" gradientUnits="userSpaceOnUse" x1="-4.8205" y1="638.7205" x2="-4.4509" y2="638.8919" gradientTransform="matrix(34.8202 0 0 -31.9711 386.371 20619.0879)">
			<stop  offset="0" style="stop-color:#FFC063"/>
			<stop  offset="0.95" style="stop-color:#E44D0B"/>
		</linearGradient>
		<path class="st77" d="M248.3,178.7H221c-2.1,0-3.7,1.7-3.7,3.7v16.8c0,1,0.4,2,1.1,2.7s1.7,1.1,2.7,1.1h6l5.6,7.7h2.1l7.7-7.7h6
			c2.1,0,3.7-1.7,3.7-3.7v-16.8c0-1-0.4-2-1.1-2.7C250.3,179.1,249.3,178.7,248.3,178.7z"/>
		
			<linearGradient id="SVGID_67_" gradientUnits="userSpaceOnUse" x1="-4.2408" y1="639.5721" x2="-4.5932" y2="637.6884" gradientTransform="matrix(34.82 0 0 -31.9314 384.3101 20593.498)">
			<stop  offset="0" style="stop-color:#FFC063"/>
			<stop  offset="0.95" style="stop-color:#E44D0B"/>
		</linearGradient>
		<path class="st78" d="M246.2,178.7h-27.3c-2.1,0-3.7,1.7-3.7,3.7v16.8c0,2.1,1.7,3.7,3.7,3.7h6l7.7,7.7l7.7-7.7h6
			c2.1,0,3.7-1.7,3.7-3.7v-16.8c0-1-0.4-2-1.1-2.7C248.2,179.1,247.2,178.7,246.2,178.7z"/>
		
			<linearGradient id="SVGID_68_" gradientUnits="userSpaceOnUse" x1="-4.8207" y1="638.7144" x2="-4.4511" y2="638.886" gradientTransform="matrix(34.82 0 0 -31.9314 344.9 20542.4883)">
			<stop  offset="0" style="stop-color:#FFC063"/>
			<stop  offset="0.95" style="stop-color:#E44D0B"/>
		</linearGradient>
		<path class="st79" d="M206.8,127.7h-27.3c-2.1,0-3.7,1.7-3.7,3.7v16.8c0,2.1,1.7,3.7,3.7,3.7h6l5.6,7.7h2.1l7.7-7.7h6
			c2.1,0,3.7-1.7,3.7-3.7v-16.8c0-1-0.4-2-1.1-2.7C208.8,128.1,207.8,127.7,206.8,127.7z"/>
		
			<linearGradient id="SVGID_69_" gradientUnits="userSpaceOnUse" x1="-4.2408" y1="639.5721" x2="-4.5932" y2="637.6884" gradientTransform="matrix(34.82 0 0 -31.9314 342.84 20542.4883)">
			<stop  offset="0" style="stop-color:#FFC063"/>
			<stop  offset="0.95" style="stop-color:#E44D0B"/>
		</linearGradient>
		<path class="st80" d="M204.7,127.7h-27.3c-2.1,0-3.7,1.7-3.7,3.7v16.8c0,2.1,1.7,3.7,3.7,3.7h6l7.7,7.7l7.7-7.7h6
			c2.1,0,3.7-1.7,3.7-3.7v-16.8c0-1-0.4-2-1.1-2.7C206.7,128.1,205.7,127.7,204.7,127.7z"/>
		
			<linearGradient id="SVGID_70_" gradientUnits="userSpaceOnUse" x1="-4.8204" y1="638.7159" x2="-4.4511" y2="638.8875" gradientTransform="matrix(34.82 0 0 -31.9411 433.51 20567.8379)">
			<stop  offset="0" style="stop-color:#FFC063"/>
			<stop  offset="0.95" style="stop-color:#E44D0B"/>
		</linearGradient>
		<path class="st81" d="M295.4,146.8h-27.3c-2.1,0-3.7,1.7-3.7,3.7v16.8c0,2.1,1.7,3.7,3.7,3.7h6l5.6,7.7h2.1l7.7-7.7h6
			c2.1,0,3.7-1.7,3.7-3.7v-16.8c0-1-0.4-2-1.1-2.7C297.4,147.1,296.4,146.7,295.4,146.8z"/>
		
			<linearGradient id="SVGID_71_" gradientUnits="userSpaceOnUse" x1="-4.2407" y1="639.5734" x2="-4.5931" y2="637.6903" gradientTransform="matrix(34.82 0 0 -31.9411 431.45 20567.8379)">
			<stop  offset="0" style="stop-color:#FFC063"/>
			<stop  offset="0.95" style="stop-color:#E44D0B"/>
		</linearGradient>
		<path class="st82" d="M293.4,146.8h-27.3c-1,0-1.9,0.4-2.6,1.1c-0.7,0.7-1.1,1.6-1.1,2.6v16.8c0,1,0.4,1.9,1.1,2.6
			c0.7,0.7,1.6,1.1,2.6,1.1h6l7.7,7.7l7.7-7.7h6c2.1,0,3.7-1.7,3.7-3.7v-16.8c0-1-0.4-2-1.1-2.7
			C295.3,147.1,294.4,146.7,293.4,146.8z"/>
		
			<linearGradient id="SVGID_72_" gradientUnits="userSpaceOnUse" x1="-4.5107" y1="637.4002" x2="-4.4309" y2="635.8038" gradientTransform="matrix(113.15 0 0 -20.8401 700.47 13542.8262)">
			<stop  offset="0" style="stop-color:#FFC063"/>
			<stop  offset="0.95" style="stop-color:#E44D0B"/>
		</linearGradient>
		<path class="st83" d="M252.9,291.5c0,0-34.1,0.4-47.9-0.8s-19.3-9.7-20.5-13.5c-0.7-2.1-1.2-4.3-1.3-6.5h-43.4
			c0.1,2.2,0.5,4.4,1.3,6.5c1.3,3.8,6.7,12.4,20.5,13.5s47.9,0.8,47.9,0.8H252.9z"/>
		<path class="st1" d="M287.2,286.3h43.5c0.3,0,0.6,0.3,0.6,0.6v4.1c0,0.3-0.3,0.6-0.6,0.6h-43.5c-0.3,0-0.6-0.3-0.6-0.6v-4.1
			C286.6,286.5,286.9,286.3,287.2,286.3z"/>
		<path class="st1" d="M210.1,291.5h83.6c1.6,0,2.6-1.6,2.2-3.6l-14.2-65.1c-0.4-2-2.1-3.6-3.7-3.6h-83.6c-1.6,0-2.6,1.6-2.2,3.6
			l14.2,65.1C206.8,289.9,208.5,291.5,210.1,291.5z"/>
		
			<linearGradient id="SVGID_73_" gradientUnits="userSpaceOnUse" x1="-4.3067" y1="641.9678" x2="-4.695" y2="640.5505" gradientTransform="matrix(103.8738 0 0 -72.26 702.3971 46605.668)">
			<stop  offset="0" style="stop-color:#4C93F4"/>
			<stop  offset="1" style="stop-color:#0B63DA"/>
		</linearGradient>
		<path class="st84" d="M206,291.5h83.6c1.6,0,2.6-1.6,2.2-3.6l-14.2-65.1c-0.4-2-2.1-3.6-3.7-3.6h-83.6c-1.6,0-2.6,1.6-2.2,3.6
			l14.2,65.1C202.7,289.9,204.4,291.5,206,291.5z"/>
		<path class="st4" d="M235.9,248.5c-0.5-1.1-0.8-2.2-1-3.3c-0.9,0-1.9,0.3-2.6,0.9c-3,2.3-3.6,8.3-1.3,13.4
			c2.2,5.1,6.5,7.4,9.5,5.1c2.4-1.8,3.2-5.9,2.4-10.1C240.2,254.5,237.5,252.3,235.9,248.5z"/>
		
			<linearGradient id="SVGID_74_" gradientUnits="userSpaceOnUse" x1="-4.216" y1="637.0927" x2="-4.9508" y2="636.3425" gradientTransform="matrix(13.84 0 0 -22.86 381.91 14799.4805)">
			<stop  offset="0" style="stop-color:#FFC063"/>
			<stop  offset="0.95" style="stop-color:#E44D0B"/>
		</linearGradient>
		<polygon class="st85" points="317.7,249.5 317.7,236.2 329.9,226.6 331.5,229.1 320.8,237.5 320.8,249.5 		"/>
		
			<linearGradient id="SVGID_75_" gradientUnits="userSpaceOnUse" x1="-4.1851" y1="639.8511" x2="-4.4048" y2="640.203" gradientTransform="matrix(26.53 0 0 -41.92 434.08 27097.7891)">
			<stop  offset="0" style="stop-color:#4C93F4"/>
			<stop  offset="1" style="stop-color:#0B63DA"/>
		</linearGradient>
		<polygon class="st86" points="329.4,292.2 310,292.2 306.4,250.3 333,250.3 		"/>
		
			<linearGradient id="SVGID_76_" gradientUnits="userSpaceOnUse" x1="-4.0576" y1="609.2875" x2="-4.506" y2="610.4178" gradientTransform="matrix(28.81 0 0 -4.45 444.34 2964.5981)">
			<stop  offset="0" style="stop-color:#4C93F4"/>
			<stop  offset="1" style="stop-color:#0B63DA"/>
		</linearGradient>
		<polygon class="st87" points="332.9,247.8 306.7,247.8 305.3,252.3 334.1,252.3 		"/>
		
			<linearGradient id="SVGID_77_" gradientUnits="userSpaceOnUse" x1="-4.8268" y1="634.4072" x2="-3.8296" y2="634.123" gradientTransform="matrix(28.41 0 0 -16.19 471.7499 10547.3916)">
			<stop  offset="0" style="stop-color:#FFC063"/>
			<stop  offset="0.95" style="stop-color:#E44D0B"/>
		</linearGradient>
		<polygon class="st88" points="342.3,270 338.5,273.2 335.4,271.6 334.7,276.7 348.5,286.2 359.8,280.9 363.1,279.9 363.1,273.3 		
			"/>
		
			<linearGradient id="SVGID_78_" gradientUnits="userSpaceOnUse" x1="-4.8555" y1="634.7405" x2="-3.8555" y2="634.7405" gradientTransform="matrix(34.61 0 0 -17.01 501.0101 11080.2266)">
			<stop  offset="0" style="stop-color:#4C93F4"/>
			<stop  offset="1" style="stop-color:#0B63DA"/>
		</linearGradient>
		<polygon class="st89" points="337.7,291.8 333,274.8 367.6,274.8 365.5,291.8 		"/>
		
			<linearGradient id="SVGID_79_" gradientUnits="userSpaceOnUse" x1="-4.7869" y1="634.7405" x2="-3.7869" y2="634.7405" gradientTransform="matrix(23.46 0 0 -17.01 477.84 11080.2266)">
			<stop  offset="0" style="stop-color:#4C93F4"/>
			<stop  offset="1" style="stop-color:#0B63DA"/>
		</linearGradient>
		<polygon class="st90" points="365.5,291.8 384.1,291.8 389,274.8 367.6,274.8 		"/>
		
			<linearGradient id="SVGID_80_" gradientUnits="userSpaceOnUse" x1="-4.7853" y1="636.7294" x2="-3.8033" y2="636.4727" gradientTransform="matrix(34.89 0 0 -21.57 507.9101 13998.4551)">
			<stop  offset="0" style="stop-color:#4C93F4"/>
			<stop  offset="1" style="stop-color:#0B63DA"/>
		</linearGradient>
		<polygon class="st91" points="345.9,256.4 338.5,272.4 372.6,277.9 373.4,260.8 		"/>
		
			<linearGradient id="SVGID_81_" gradientUnits="userSpaceOnUse" x1="-4.7373" y1="636.3275" x2="-3.6396" y2="636.1448" gradientTransform="matrix(21.16 0 0 -20.54 473.43 13339.5957)">
			<stop  offset="0" style="stop-color:#4C93F4"/>
			<stop  offset="1" style="stop-color:#0B63DA"/>
		</linearGradient>
		<polygon class="st92" points="373.4,260.8 391.6,263.8 393.8,281.4 372.6,277.9 		"/>
	</g>
</g>
</svg>
