<svg xmlns="http://www.w3.org/2000/svg" xmlns:xlink="http://www.w3.org/1999/xlink" viewBox="0 0 600 492.21"><defs><style>.cls-1,.cls-10,.cls-11,.cls-12,.cls-13,.cls-14,.cls-15,.cls-16,.cls-20,.cls-22,.cls-23,.cls-24,.cls-25,.cls-26,.cls-27,.cls-28,.cls-29,.cls-30,.cls-31,.cls-32,.cls-33,.cls-35,.cls-36,.cls-37,.cls-38,.cls-39,.cls-40,.cls-41,.cls-42,.cls-46,.cls-47,.cls-5,.cls-52,.cls-53,.cls-54,.cls-55,.cls-56,.cls-57,.cls-58,.cls-60,.cls-61,.cls-62,.cls-63,.cls-68,.cls-69,.cls-7,.cls-70,.cls-77,.cls-78,.cls-79,.cls-8,.cls-80,.cls-81,.cls-9{fill-rule:evenodd;}.cls-1,.cls-9{opacity:0.49;}.cls-1,.cls-43,.cls-9{isolation:isolate;}.cls-1{fill:url(#Degradado_sin_nombre);}.cls-2,.cls-47{fill:#223762;}.cls-3{fill:url(#Degradado_sin_nombre_2);}.cls-4{fill:url(#Degradado_sin_nombre_3);}.cls-5{fill:#d6e3fa;}.cls-6,.cls-7{fill:#fff;}.cls-50,.cls-8{fill:#3769a5;}.cls-9{fill:url(#Degradado_sin_nombre_4);}.cls-10{fill:url(#Degradado_sin_nombre_5);}.cls-11{fill:url(#Degradado_sin_nombre_6);}.cls-12{fill:url(#Degradado_sin_nombre_7);}.cls-13{fill:url(#Degradado_sin_nombre_8);}.cls-14{fill:url(#Degradado_sin_nombre_9);}.cls-15{fill:url(#Degradado_sin_nombre_10);}.cls-16{fill:url(#Degradado_sin_nombre_11);}.cls-17{fill:url(#Degradado_sin_nombre_12);}.cls-18{fill:url(#Degradado_sin_nombre_13);}.cls-19{fill:url(#Degradado_sin_nombre_14);}.cls-20{fill:url(#Degradado_sin_nombre_15);}.cls-21{fill:url(#Degradado_sin_nombre_16);}.cls-22{fill:url(#Degradado_sin_nombre_17);}.cls-23{fill:url(#Degradado_sin_nombre_18);}.cls-24{fill:url(#Degradado_sin_nombre_19);}.cls-25{fill:url(#Degradado_sin_nombre_20);}.cls-26{fill:url(#Degradado_sin_nombre_21);}.cls-27{fill:url(#Degradado_sin_nombre_186);}.cls-28{fill:url(#Degradado_sin_nombre_175);}.cls-29{fill:url(#Degradado_sin_nombre_193);}.cls-30{fill:url(#Degradado_sin_nombre_25);}.cls-31{fill:url(#Degradado_sin_nombre_26);}.cls-32{fill:url(#Degradado_sin_nombre_27);}.cls-33{fill:url(#Degradado_sin_nombre_28);}.cls-34,.cls-59{fill:none;stroke-linecap:round;stroke-linejoin:round;}.cls-34{stroke:#eb6057;}.cls-35{fill:url(#Degradado_sin_nombre_29);}.cls-36{fill:url(#Degradado_sin_nombre_156);}.cls-37{fill:url(#Degradado_sin_nombre_31);}.cls-38{fill:url(#Degradado_sin_nombre_32);}.cls-39{fill:url(#Degradado_sin_nombre_33);}.cls-40{fill:url(#Degradado_sin_nombre_34);}.cls-41{fill:url(#Degradado_sin_nombre_35);}.cls-42{fill:url(#Degradado_sin_nombre_36);}.cls-43{fill:#ef8c48;opacity:0.48;}.cls-44{fill:url(#Degradado_sin_nombre_37);}.cls-45{fill:url(#Degradado_sin_nombre_38);}.cls-46{fill:url(#Degradado_sin_nombre_39);}.cls-48,.cls-57{fill:#4c93f4;}.cls-49{fill:url(#Degradado_sin_nombre_40);}.cls-51{fill:#83a4d6;}.cls-52{fill:url(#Degradado_sin_nombre_41);}.cls-53{fill:url(#Degradado_sin_nombre_42);}.cls-54{fill:url(#Degradado_sin_nombre_43);}.cls-55{fill:url(#Degradado_sin_nombre_44);}.cls-56{fill:url(#Degradado_sin_nombre_45);}.cls-58{fill:url(#Degradado_sin_nombre_46);}.cls-59{stroke:#124;}.cls-60{fill:url(#Degradado_sin_nombre_47);}.cls-61{fill:url(#Degradado_sin_nombre_48);}.cls-62{fill:url(#Degradado_sin_nombre_49);}.cls-63{fill:url(#Degradado_sin_nombre_50);}.cls-64{fill:url(#Degradado_sin_nombre_53);}.cls-65{fill:url(#Degradado_sin_nombre_54);}.cls-66{fill:url(#Degradado_sin_nombre_55);}.cls-67{fill:url(#Degradado_sin_nombre_56);}.cls-68{fill:url(#Degradado_sin_nombre_57);}.cls-69{fill:url(#Degradado_sin_nombre_58);}.cls-70{fill:url(#Degradado_sin_nombre_59);}.cls-71{fill:url(#Degradado_sin_nombre_60);}.cls-72{fill:url(#Degradado_sin_nombre_61);}.cls-73{fill:url(#Degradado_sin_nombre_62);}.cls-74{fill:url(#Degradado_sin_nombre_63);}.cls-75{fill:url(#Degradado_sin_nombre_64);}.cls-76{fill:url(#Degradado_sin_nombre_65);}.cls-77{fill:url(#Degradado_sin_nombre_66);}.cls-78{fill:url(#Degradado_sin_nombre_202);}.cls-79{fill:url(#Degradado_sin_nombre_74);}.cls-80{fill:url(#Degradado_sin_nombre_199);}.cls-81{fill:url(#Degradado_sin_nombre_196);}.cls-82{fill:#b286f9;}</style><linearGradient id="Degradado_sin_nombre" x1="-4.79" y1="642.69" x2="-4.11" y2="641.81" gradientTransform="matrix(578.75, 0, 0, -482.75, 2900.36, 310260.44)" gradientUnits="userSpaceOnUse"><stop offset="0" stop-color="#eaf1fc"/><stop offset="1" stop-color="#c0d4f4"/></linearGradient><linearGradient id="Degradado_sin_nombre_2" x1="-4.24" y1="641.57" x2="-4.57" y2="640.95" gradientTransform="matrix(150.33, 0, 0, -110.02, 881.68, 70617.77)" gradientUnits="userSpaceOnUse"><stop offset="0" stop-color="#4c93f4"/><stop offset="1" stop-color="#0b63da"/></linearGradient><linearGradient id="Degradado_sin_nombre_3" x1="-4.12" y1="641.45" x2="-4.48" y2="640.95" gradientTransform="matrix(138.57, 0, 0, -97.22, 828.77, 62393.78)" xlink:href="#Degradado_sin_nombre_2"/><linearGradient id="Degradado_sin_nombre_4" x1="1.32" y1="641.9" x2="-5.96" y2="641.55" gradientTransform="matrix(121.16, 0, 0, -168.59, 654.69, 108560.89)" xlink:href="#Degradado_sin_nombre"/><linearGradient id="Degradado_sin_nombre_5" x1="-5.71" y1="639.66" x2="-3.66" y2="639.03" gradientTransform="matrix(41.32, 0, 0, -46.66, 331.38, 30074.88)" gradientUnits="userSpaceOnUse"><stop offset="0" stop-color="#223762"/><stop offset="1" stop-color="#041b48"/></linearGradient><linearGradient id="Degradado_sin_nombre_6" x1="-5.84" y1="639.57" x2="-3.42" y2="639.12" gradientTransform="matrix(25.08, 0, 0, -46.66, 247.61, 30079.38)" gradientUnits="userSpaceOnUse"><stop offset="0" stop-color="#3769a5"/><stop offset="1" stop-color="#08448b"/></linearGradient><linearGradient id="Degradado_sin_nombre_7" x1="-4.72" y1="640.24" x2="-4.36" y2="640.28" gradientTransform="matrix(168.36, 0, 0, -67.48, 991.73, 43478.39)" xlink:href="#Degradado_sin_nombre_6"/><linearGradient id="Degradado_sin_nombre_8" x1="-4.72" y1="639.97" x2="-4.36" y2="640.03" gradientTransform="matrix(168.39, 0, 0, -60.42, 991.91, 38949.42)" xlink:href="#Degradado_sin_nombre_5"/><linearGradient id="Degradado_sin_nombre_9" x1="-5.9" y1="640" x2="-3.55" y2="639.06" gradientTransform="matrix(32.87, 0, 0, -49.32, 306.96, 31804.47)" xlink:href="#Degradado_sin_nombre_5"/><linearGradient id="Degradado_sin_nombre_10" x1="-4.27" y1="626.7" x2="-4.07" y2="626.09" gradientTransform="matrix(84.34, 0, 0, -9.74, 698.32, 6585.8)" xlink:href="#Degradado_sin_nombre_5"/><linearGradient id="Degradado_sin_nombre_11" x1="-4.61" y1="626.7" x2="-4.81" y2="626.09" gradientTransform="matrix(84.33, 0, 0, -9.74, 782.61, 6585.8)" xlink:href="#Degradado_sin_nombre_5"/><linearGradient id="Degradado_sin_nombre_12" x1="-6.55" y1="641" x2="-3.63" y2="641.28" gradientTransform="matrix(12.76, 0, 0, -118.1, 418.36, 76143.17)" xlink:href="#Degradado_sin_nombre_5"/><linearGradient id="Degradado_sin_nombre_13" x1="-4.77" y1="635.21" x2="-4.19" y2="635.76" gradientTransform="matrix(23.42, 0, 0, -21.82, 466.33, 14241.2)" xlink:href="#Degradado_sin_nombre_5"/><linearGradient id="Degradado_sin_nombre_14" x1="-4.33" y1="626.48" x2="-4.38" y2="628.07" gradientTransform="matrix(111.63, 0, 0, -12.25, 807.46, 8071.22)" xlink:href="#Degradado_sin_nombre_5"/><linearGradient id="Degradado_sin_nombre_15" x1="-4.36" y1="641.03" x2="-4.37" y2="641.08" gradientTransform="matrix(213.8, 0, 0, -157.98, 1313.49, 101634.9)" xlink:href="#Degradado_sin_nombre_5"/><linearGradient id="Degradado_sin_nombre_16" x1="-4.09" y1="629.16" x2="-4.18" y2="629.87" gradientTransform="matrix(27.31, 0, 0, -12.83, 469.93, 8444.16)" xlink:href="#Degradado_sin_nombre_5"/><linearGradient id="Degradado_sin_nombre_17" x1="-5.15" y1="640.6" x2="-5.06" y2="640.69" gradientTransform="matrix(104.64, 0, 0, -157.89, 878.91, 101577.13)" xlink:href="#Degradado_sin_nombre_6"/><linearGradient id="Degradado_sin_nombre_18" x1="-4.73" y1="640.97" x2="-4.37" y2="641.02" gradientTransform="matrix(224.97, 0, 0, -99.52, 1290.14, 64090.57)" xlink:href="#Degradado_sin_nombre_2"/><linearGradient id="Degradado_sin_nombre_19" x1="-4.45" y1="640.63" x2="-4.25" y2="640.57" gradientTransform="matrix(224.54, 0, 0, -80.46, 1288.42, 51857.26)" xlink:href="#Degradado_sin_nombre_6"/><linearGradient id="Degradado_sin_nombre_20" x1="-4.1" y1="635.86" x2="-4.44" y2="636.32" gradientTransform="matrix(30.3, 0, 0, -23.49, 541.12, 15059.49)" gradientUnits="userSpaceOnUse"><stop offset="0" stop-color="#f8a695"/><stop offset="1" stop-color="#e56045"/></linearGradient><linearGradient id="Degradado_sin_nombre_21" x1="-5.81" y1="639.12" x2="-6.22" y2="639.58" gradientTransform="matrix(36.7, 0, 0, -30.05, 616.64, 19284.57)" xlink:href="#Degradado_sin_nombre_20"/><linearGradient id="Degradado_sin_nombre_186" x1="-4.87" y1="641.49" x2="-4.14" y2="641.13" gradientTransform="matrix(76.84, 0, 0, -111.09, 703.21, 71391.13)" gradientUnits="userSpaceOnUse"><stop offset="0" stop-color="#a26ef7"/><stop offset="0.94" stop-color="#4709aa"/></linearGradient><linearGradient id="Degradado_sin_nombre_175" x1="438.18" y1="184.31" x2="335.51" y2="313.15" gradientUnits="userSpaceOnUse"><stop offset="0" stop-color="#843df5"/><stop offset="1" stop-color="#a26ef7"/></linearGradient><linearGradient id="Degradado_sin_nombre_193" x1="-4.99" y1="641.72" x2="-4.02" y2="640.98" gradientTransform="matrix(140.77, 0, 0, -117.09, 1012.93, 75346.39)" gradientUnits="userSpaceOnUse"><stop offset="0" stop-color="#a26ef7"/><stop offset="0.95" stop-color="#4709aa"/></linearGradient><linearGradient id="Degradado_sin_nombre_25" x1="-4.56" y1="636.11" x2="-4.4" y2="636.61" gradientTransform="matrix(29.45, 0, 0, -25.55, 540.07, 16440.79)" xlink:href="#Degradado_sin_nombre_20"/><linearGradient id="Degradado_sin_nombre_26" x1="-3.95" y1="639.39" x2="-4.09" y2="639.28" gradientTransform="matrix(29.83, 0, 0, -44.31, 543.81, 28439.87)" xlink:href="#Degradado_sin_nombre_5"/><linearGradient id="Degradado_sin_nombre_27" x1="-4.72" y1="639.92" x2="-4.09" y2="640.68" gradientTransform="matrix(58.01, 0, 0, -66.99, 682.23, 43031.1)" xlink:href="#Degradado_sin_nombre_20"/><linearGradient id="Degradado_sin_nombre_28" x1="-4.42" y1="640.96" x2="-4.64" y2="640.27" gradientTransform="matrix(61.01, 0, 0, -85.73, 710.88, 55063.07)" xlink:href="#Degradado_sin_nombre_5"/><linearGradient id="Degradado_sin_nombre_29" x1="-4.03" y1="639.66" x2="-4.34" y2="640.1" gradientTransform="matrix(43.78, 0, 0, -58.64, 624.78, 37647.63)" xlink:href="#Degradado_sin_nombre_5"/><linearGradient id="Degradado_sin_nombre_156" x1="-4.71" y1="640.55" x2="-5.32" y2="639.67" gradientTransform="matrix(99.4, 0, 0, -96.77, 925.83, 62205.48)" gradientUnits="userSpaceOnUse"><stop offset="0" stop-color="#843df5"/><stop offset="1" stop-color="#7425f4"/></linearGradient><linearGradient id="Degradado_sin_nombre_31" x1="-4.42" y1="641.45" x2="-4.42" y2="642.35" gradientTransform="matrix(59.53, 0, 0, -176.93, 450.91, 113921.74)" xlink:href="#Degradado_sin_nombre_6"/><linearGradient id="Degradado_sin_nombre_32" x1="-4.42" y1="641.45" x2="-4.42" y2="642.35" gradientTransform="matrix(59.53, 0, 0, -176.93, 391.01, 113921.74)" xlink:href="#Degradado_sin_nombre_6"/><linearGradient id="Degradado_sin_nombre_33" x1="-4.42" y1="641.91" x2="-4.42" y2="642.18" gradientTransform="matrix(59.54, 0, 0, -176.93, 731.6, 113921.74)" xlink:href="#Degradado_sin_nombre_6"/><linearGradient id="Degradado_sin_nombre_34" x1="-4.42" y1="641.91" x2="-4.42" y2="642.18" gradientTransform="matrix(59.54, 0, 0, -176.93, 671.7, 113921.74)" xlink:href="#Degradado_sin_nombre_6"/><linearGradient id="Degradado_sin_nombre_35" x1="-4.42" y1="641.5" x2="-4.42" y2="642.17" gradientTransform="matrix(59.54, 0, 0, -176.93, 390.11, 113921.74)" gradientUnits="userSpaceOnUse"><stop offset="0" stop-color="#a7bde5"/><stop offset="1" stop-color="#2f66cb"/></linearGradient><linearGradient id="Degradado_sin_nombre_36" x1="-4.42" y1="641.5" x2="-4.42" y2="642.17" gradientTransform="matrix(59.54, 0, 0, -176.93, 330.21, 113921.74)" xlink:href="#Degradado_sin_nombre_35"/><linearGradient id="Degradado_sin_nombre_37" x1="0.9" y1="645.64" x2="1.17" y2="645.01" gradientTransform="matrix(-13.26, 0, 0, 53.54, 126.83, -34351.25)" xlink:href="#Degradado_sin_nombre_2"/><linearGradient id="Degradado_sin_nombre_38" x1="-9.14" y1="633.19" x2="-9.18" y2="633.61" gradientTransform="matrix(15.98, 0, 0, -15.98, 271.91, 10336.52)" gradientUnits="userSpaceOnUse"><stop offset="0" stop-color="#ffc063"/><stop offset="0.95" stop-color="#e44d0b"/></linearGradient><linearGradient id="Degradado_sin_nombre_39" x1="-4.17" y1="638.66" x2="-4.62" y2="639.27" gradientTransform="matrix(46.77, 0, 0, -43.43, 328.2, 27947.44)" xlink:href="#Degradado_sin_nombre_2"/><linearGradient id="Degradado_sin_nombre_40" x1="-4.26" y1="652.48" x2="-5.33" y2="654.45" gradientTransform="matrix(-462.31, 0, 0, 14.27, -1816.73, -9019.86)" xlink:href="#Degradado_sin_nombre_35"/><linearGradient id="Degradado_sin_nombre_41" x1="-4.42" y1="641.67" x2="-4.42" y2="642.37" gradientTransform="matrix(59.53, 0, 0, -176.93, 672.63, 113921.74)" xlink:href="#Degradado_sin_nombre_35"/><linearGradient id="Degradado_sin_nombre_42" x1="-4.42" y1="641.67" x2="-4.42" y2="642.37" gradientTransform="matrix(59.54, 0, 0, -176.93, 612.78, 113921.74)" xlink:href="#Degradado_sin_nombre_35"/><linearGradient id="Degradado_sin_nombre_43" x1="-3.99" y1="628.35" x2="-4.99" y2="628.35" gradientTransform="matrix(600, 0, 0, -10.53, 2995, 7103.47)" xlink:href="#Degradado_sin_nombre_5"/><linearGradient id="Degradado_sin_nombre_44" x1="-6.17" y1="639.83" x2="-3.06" y2="639.16" gradientTransform="matrix(17.85, 0, 0, -48.66, 227.62, 31380.87)" xlink:href="#Degradado_sin_nombre_6"/><linearGradient id="Degradado_sin_nombre_45" x1="-4.94" y1="640.64" x2="-4.1" y2="639.62" gradientTransform="matrix(58.11, 0, 0, -59.74, 350.77, 38494.6)" xlink:href="#Degradado_sin_nombre_2"/><linearGradient id="Degradado_sin_nombre_46" x1="-4.89" y1="641.62" x2="-3.96" y2="641.57" gradientTransform="matrix(69.98, 0, 0, -164.46, 841.49, 105831.42)" xlink:href="#Degradado_sin_nombre_5"/><linearGradient id="Degradado_sin_nombre_47" x1="-3.74" y1="641.89" x2="-5.04" y2="641.02" gradientTransform="matrix(39.22, 0, 0, -144.1, 713.13, 92616.16)" xlink:href="#Degradado_sin_nombre_5"/><linearGradient id="Degradado_sin_nombre_48" x1="-4.84" y1="641.74" x2="-3.84" y2="641.74" gradientTransform="matrix(30.52, 0, 0, -194.86, 617.64, 125268.03)" xlink:href="#Degradado_sin_nombre_6"/><linearGradient id="Degradado_sin_nombre_49" x1="-3.96" y1="642.23" x2="-5.49" y2="640.95" gradientTransform="matrix(36.37, 0, 0, -197.73, 673.15, 127112.42)" xlink:href="#Degradado_sin_nombre_2"/><linearGradient id="Degradado_sin_nombre_50" x1="-3.79" y1="641.83" x2="-4.82" y2="640.83" gradientTransform="matrix(47.47, 0, 0, -118.55, 760.26, 76272.34)" xlink:href="#Degradado_sin_nombre_6"/><linearGradient id="Degradado_sin_nombre_53" x1="-1.78" y1="633.73" x2="-2.48" y2="632.68" gradientTransform="matrix(7.1, 0, 0, -12.66, 529.68, 8216.77)" xlink:href="#Degradado_sin_nombre_2"/><linearGradient id="Degradado_sin_nombre_54" x1="-9.28" y1="624.96" x2="-10.33" y2="625.67" gradientTransform="matrix(12.66, 0, 0, -7.1, 669.73, 4691.57)" xlink:href="#Degradado_sin_nombre_2"/><linearGradient id="Degradado_sin_nombre_55" x1="-7.18" y1="629.18" x2="-7.94" y2="629.69" gradientTransform="matrix(17.38, 0, 0, -9.74, 689.81, 6421.39)" xlink:href="#Degradado_sin_nombre_2"/><linearGradient id="Degradado_sin_nombre_56" x1="-8.51" y1="633.12" x2="-9.28" y2="633.64" gradientTransform="matrix(17.38, 0, 0, -9.74, 718.94, 6480.17)" xlink:href="#Degradado_sin_nombre_2"/><linearGradient id="Degradado_sin_nombre_57" x1="-4.85" y1="641.96" x2="-4.29" y2="641.04" gradientTransform="matrix(58.38, 0, 0, -136.63, 726.7, 87935.54)" xlink:href="#Degradado_sin_nombre_6"/><linearGradient id="Degradado_sin_nombre_58" x1="-4.67" y1="641.99" x2="-4.11" y2="641.07" gradientTransform="matrix(58.37, 0, 0, -136.63, 730.88, 87935.54)" xlink:href="#Degradado_sin_nombre_2"/><linearGradient id="Degradado_sin_nombre_59" x1="-4.75" y1="642.12" x2="-3.94" y2="640.8" gradientTransform="matrix(58.37, 0, 0, -136.63, 730.88, 87935.54)" xlink:href="#Degradado_sin_nombre_2"/><linearGradient id="Degradado_sin_nombre_60" x1="-12.15" y1="631.22" x2="-12.85" y2="630.17" gradientTransform="matrix(5.48, 0, 0, -9.76, 551.5, 6442.88)" xlink:href="#Degradado_sin_nombre_2"/><linearGradient id="Degradado_sin_nombre_61" x1="-12.15" y1="631.22" x2="-12.85" y2="630.17" gradientTransform="matrix(5.48, 0, 0, -9.76, 569.14, 6445.7)" xlink:href="#Degradado_sin_nombre_2"/><linearGradient id="Degradado_sin_nombre_62" x1="-15.11" y1="629.22" x2="-16.16" y2="629.93" gradientTransform="matrix(9.81, 0, 0, -5.51, 663.9, 3788.33)" xlink:href="#Degradado_sin_nombre_2"/><linearGradient id="Degradado_sin_nombre_63" x1="-15.17" y1="629.16" x2="-16.21" y2="629.86" gradientTransform="matrix(9.76, 0, 0, -5.48, 663.14, 3783.22)" xlink:href="#Degradado_sin_nombre_2"/><linearGradient id="Degradado_sin_nombre_64" x1="-11.47" y1="632.23" x2="-12.23" y2="632.75" gradientTransform="matrix(13.4, 0, 0, -7.52, 687.29, 5108.73)" xlink:href="#Degradado_sin_nombre_2"/><linearGradient id="Degradado_sin_nombre_65" x1="-11.96" y1="638.61" x2="-12.72" y2="639.13" gradientTransform="matrix(13.4, 0, 0, -7.52, 703.72, 5171.92)" xlink:href="#Degradado_sin_nombre_2"/><linearGradient id="Degradado_sin_nombre_66" x1="-4.33" y1="626.82" x2="-4.38" y2="628.28" gradientTransform="matrix(102.84, 0, 0, -12.25, 763.45, 8071.22)" xlink:href="#Degradado_sin_nombre_5"/><linearGradient id="Degradado_sin_nombre_202" x1="-4.51" y1="636.4" x2="-4.43" y2="634.8" gradientTransform="matrix(113.15, 0, 0, -20.84, 700.47, 13520.99)" gradientUnits="userSpaceOnUse"><stop offset="0" stop-color="#d1b6fb"/><stop offset="0.95" stop-color="#5b0bda"/></linearGradient><linearGradient id="Degradado_sin_nombre_74" x1="-4.31" y1="640.97" x2="-4.7" y2="639.55" gradientTransform="matrix(103.87, 0, 0, -72.26, 702.4, 46532.41)" xlink:href="#Degradado_sin_nombre_2"/><linearGradient id="Degradado_sin_nombre_199" x1="-3.57" y1="641.25" x2="-4.91" y2="640.65" gradientTransform="matrix(89.39, 0, 0, -89.32, 913.07, 57676.13)" gradientUnits="userSpaceOnUse"><stop offset="0" stop-color="#a26ef7"/><stop offset="1" stop-color="#6610f2"/></linearGradient><linearGradient id="Degradado_sin_nombre_196" x1="-1.74" y1="640.83" x2="-2.27" y2="640.83" gradientTransform="matrix(36.6, 0, 0, -89.32, 649.12, 57676.13)" gradientUnits="userSpaceOnUse"><stop offset="0" stop-color="#6610f2"/><stop offset="1" stop-color="#3c0891"/></linearGradient></defs><title>sentado</title><g id="Capa_1" data-name="Capa 1"><g id="Page-1"><path id="Path" class="cls-1" d="M413.49,46.69C293.83,79.79,196,3.27,134.28.15,41.48-4.53-53,97.93,71,277.31S245.83,497.13,381.42,478.68C489.91,463.92,562.35,361.07,583.21,289,615.85,176.16,533.15,13.6,413.49,46.69Z" transform="translate(0 0)"/><rect id="Rectangle" class="cls-2" x="136.78" y="23.91" width="152.18" height="110.02"/><rect class="cls-3" x="135.03" y="23.91" width="150.33" height="110.02"/><rect class="cls-4" x="140.92" y="30.32" width="138.57" height="97.22"/><rect class="cls-2" x="140.92" y="30.32" width="2.72" height="97.22"/><polygon class="cls-5" points="143.63 110.85 180 86.75 222.51 95.76 266.9 47.08 279.49 60.95 279.49 127.53 143.63 127.53 143.63 110.85"/><ellipse id="Oval" class="cls-6" cx="165.22" cy="55.84" rx="8.94" ry="11.2"/><polygon class="cls-7" points="164.55 96.99 176.78 102.27 187.18 95.15 208.61 92.81 180 86.75 164.55 96.99"/><polygon class="cls-7" points="252.62 62.73 262.43 68.63 268.78 64.3 275.54 67.03 279.79 65.68 279.49 60.95 266.9 47.08 252.62 62.73"/><path class="cls-7" d="M143.63,117.82a53.66,53.66,0,0,1,37.4-8.06c22.09,3.28,24,14.62,44.73,9.85S255,91.26,264.49,93.05s15.3,12,15.3,12l-.31,22.54H143.63Z" transform="translate(0 0)"/><path class="cls-8" d="M143.63,119.61s15.31-9.25,37.4-6.57,24,11.93,44.73,8S255,98,264.49,99.41s15.3,9.74,15.3,9.74l-.31,18.39H143.63Z" transform="translate(0 0)"/><path class="cls-9" d="M56,314.81c2.52-12.51,19.18-15.23,25.69-4.26,15.39,25.93,49.13,72.54,80,99.46,43.32,37.77-29.12,74.87-70.47,58.14S51.88,336.38,55.85,315.43Z" transform="translate(0 0)"/><path class="cls-10" d="M158.2,247.18s-5.13-2.3-7.3-4.74-13.52-17.5-15.61-17.93a6.31,6.31,0,0,0-5.45,1.28C128.47,227,151,271,151,271l20.1-6.93Z" transform="translate(0 0)"/><path class="cls-11" d="M129.84,225.79s-1.14,0-2.2,2.13-.34,12,3.11,19.3,7.33,21,8.1,22.57a5.76,5.76,0,0,0,5.45,2.63c1.88-.38,5.29-.88,6.71-1.37s2.7-2.72-2.4-11.73-7.92-13.19-10.42-20.41-3.58-11.1-5.37-12.13A6,6,0,0,0,129.84,225.79Z" transform="translate(0 0)"/><path class="cls-12" d="M323.29,296.8s-49.78-42.56-65.19-52-98.51,0-99.44,0-3.73,5.81-3.73,11.51,7.77,13,7.77,13l73,2.65,85,36.12Z" transform="translate(0 0)"/><path class="cls-13" d="M208.24,247.76c-12.4.92-37.42,5-53.28,7.75v.84c0,5.69,7.77,13,7.77,13l73,2.65,85,36.12,2.62-11.26s-23.14-19.78-42.75-35.37C254.37,254.92,219.58,246.92,208.24,247.76Z" transform="translate(0 0)"/><path class="cls-14" d="M171.24,268.55s-4.57-3.28-6.2-6.11-9.74-19.85-11.7-20.7a6.27,6.27,0,0,0-5.6.16c-1.58.89,11.65,48.58,11.65,48.58l21.09-2.76Z" transform="translate(0 0)"/><polygon class="cls-15" points="359.56 471.96 281.62 481.7 365.96 481.7 365.96 471.96 359.56 471.96"/><polygon class="cls-16" points="372.36 471.96 450.29 481.7 365.96 481.7 365.96 471.96 372.36 471.96"/><rect class="cls-17" x="359.56" y="353.87" width="12.76" height="118.1"/><rect class="cls-18" x="354.23" y="359.94" width="23.42" height="21.82"/><rect class="cls-19" x="254.31" y="343.47" width="111.63" height="12.25"/><path class="cls-20" d="M462.45,202.75H349.09c-2.76,0-5,2.69-5,6V209a424.59,424.59,0,0,1-3,44.22,280.11,280.11,0,0,1-6.37,35.08C331.8,299.69,328,310.17,323.19,318a70.28,70.28,0,0,1-20.85,21.72c-8.41,5.56-17.87,8.91-27.35,8.91A39.56,39.56,0,0,1,256.45,344c-2.53-1.33-5.47.08-6.57,3.15s.07,6.63,2.6,8a48.12,48.12,0,0,0,20,5.53l.15.07H386.17l50.41-30.43,16.55-28.4,10.14-76.55Z" transform="translate(0 0)"/><rect class="cls-21" x="338.38" y="343.47" width="27.31" height="12.83"/><path class="cls-22" d="M455.31,208.78V209a424.59,424.59,0,0,1-3,44.22,280.11,280.11,0,0,1-6.37,35.08c-2.92,11.39-6.76,21.87-11.53,29.66a70.28,70.28,0,0,1-20.85,21.72c-8.41,5.56-17.87,8.91-27.35,8.91A39.56,39.56,0,0,1,367.67,344c-2.53-1.33-5.47.08-6.57,3.15s.07,6.63,2.6,8a48,48,0,0,0,22.5,5.61c11.43,0,22.46-4,32.14-10.39a81,81,0,0,0,24.1-25.15c5.92-9.73,10.15-21.79,13.33-34.44,4.76-19,7.11-39.32,8.32-55s1.24-26.71,1.24-26.84c0-3.34-2.22-6.06-5-6.07s-5,2.69-5,6Z" transform="translate(0 0)"/><path class="cls-23" d="M395.26,314s-5.33,15.95-25.78,25.44-50.5,14-69.37,8c-32-10-63.41-67.91-63.41-67.91l-60.41,10.31a20,20,0,0,1-6-13.78v-9.2s62.93-15.9,76.62-16.22,71,49.17,74.15,51.81S337,287.51,337,287.51Z" transform="translate(0 0)"/><path class="cls-24" d="M323.29,330c-18.67,1.46-35.22-8.3-49.09-17.78s-22.88-42.1-43.33-42.58c-15.68-.37-46.58,6.91-60.15,10.33a20.51,20.51,0,0,0,5.57,9.84L236.7,279.5s31.46,57.87,63.41,67.91c18.87,5.93,48.93,1.46,69.37-8S395.26,314,395.26,314l-38.75-17.55C349.08,309.36,335.79,329.06,323.29,330Z" transform="translate(0 0)"/><path class="cls-25" d="M394.62,111.47s1.35-1.6,8-4.87,20.52-1.68,21-1.16,3.93,13.72-2.87,17.83-12.83,5.4-16.35,4.58-8.78-1.63-8.78-1.63Z" transform="translate(0 0)"/><path class="cls-26" d="M474.79,131.85s.94-5-6.12-11.82-21-11.54-26.43-7.57-3.93,13.24-3.89,13.79S456,133,456,133l-8.1,1s10.14,6.08,14.29,7S474.79,131.85,474.79,131.85Z" transform="translate(0 0)"/><path class="cls-27" d="M383.82,178.16s-21.59-8.69-27.43-22.33,42.8-27.58,42.8-27.58.91-6.69,1.62-11.71-6.25-6-6.25-6-16.8,3-45.19,13.48c-21.31,7.85-22,10-25.11,21.28S349.7,195,361.12,219.18C368,233.8,383.82,178.16,383.82,178.16Z" transform="translate(0 0)"/><path class="cls-28" d="M416.41,183.28s22.08,1.74,27.48,5.6,9.3,13.63,10.87,23.35-17.86,67-35.18,88.58-21.4,19.51-21.4,19.51-58-6.65-68.66-12.86S314,294.66,314,294.66s27.7-45.47,34.1-69.86,11.71-41.6,22.7-44.9,23.69-3.43,23.69-3.43Z" transform="translate(0 0)"/><path class="cls-29" d="M454.76,212.22a61.32,61.32,0,0,0-2.11-8.88l-13.44.94s4.55,16.67,2.09,23.13-16.56,19.22-32.69,22,4.3,9.27,6,14.88-33.92,17.19-55.53,11a154.51,154.51,0,0,1-28-10.85c-8.62,16.47-17,30.28-17,30.28s4.81,6.59,15.52,12.8,68.66,12.86,68.66,12.86,4.08,2.09,21.4-19.51S456.33,221.94,454.76,212.22Z" transform="translate(0 0)"/><path class="cls-7" d="M397.82,176.72a5.56,5.56,0,0,0-3.23,2.49,7.11,7.11,0,0,0,1.64,8.67c3.09,2.56,14.28,4.66,19.82,2.54s4.69-6.11,4.69-6.11Z" transform="translate(0 0)"/><path class="cls-30" d="M400.67,159.31l-2.85,17.42s1.23,4,8,6.65,14.95.94,14.95.94l6.5-16.36Z" transform="translate(0 0)"/><path class="cls-31" d="M414.1,97.54S403.76,120,400.4,128s5.82,13.85,5.82,13.85l20.48-9.68,2.79-26.58Z" transform="translate(0 0)"/><path class="cls-32" d="M403.62,125.11c-3,9.27-6.57,20.5-6.45,31.56s18.23,20.4,27.48,15.2,16.13-16.54,16.13-16.54,6.34,3,9.89-1.27,6-11.65,3.47-14.25-6.67-.37-6.67-.37,4.71-9,.29-17.46S417,105.73,415.16,106.4,406.63,115.84,403.62,125.11Z" transform="translate(0 0)"/><path class="cls-33" d="M438.59,149.71s6.9-10.74,8-16.35-.44-10.22-5.66-14.65-23.33-9-26.78-11.65-5-5.32-.67-12.47S433,80.93,448,88.54s19.77,17.52,23.08,24.23-4.82,18.42-10.39,28.74-15,23.65-20.23,27.59-11.85.05-11.85.05L441,154.26s2.16,2.15,6.52-.23,8-8.19,7.39-11.87-5.68-4.82-8.71-1.54S438.59,149.71,438.59,149.71Z" transform="translate(0 0)"/><path class="cls-34" d="M410.86,131.66s-6.5,10.82-7.23,13.85,7.56,3.79,7.56,3.79" transform="translate(0 0)"/><path class="cls-35" d="M453.29,111.77c-7-6.29-34.4-8.42-36.59-13.18-.68-1.48-.57-4.29-.09-7.47a14.88,14.88,0,0,0-3.1,3.52c-4.29,7.15-2.77,9.86.67,12.47s21.55,7.22,26.78,11.65,6.8,9,5.66,14.65-8,16.35-8,16.35S460.24,118.06,453.29,111.77Z" transform="translate(0 0)"/><path class="cls-34" d="M446.25,144.46s2.77-.64,2.75,1.63-.84,4.15-3.82,4.41a1.92,1.92,0,0,1-2-1.61" transform="translate(0 0)"/><path class="cls-34" d="M418.22,127.4s1.13,7.69,5.35,8.75a10.61,10.61,0,0,0,7.09-.45" transform="translate(0 0)"/><path class="cls-34" d="M413.08,125.17s-2.86,2.61-5.38,2-.82-4.73-.82-4.73" transform="translate(0 0)"/><path class="cls-36" d="M440.39,188s50.65-6.17,57.71-12.07-36.51-34-36.51-34,6.54-11.28,10.63-11.93l4.09-.65S527.7,158,532.65,172s-24.1,34-40.56,40.76-38,15.69-47.68,12.73-12.43-16.91-9.48-26.38S440.39,188,440.39,188Z" transform="translate(0 0)"/><polygon class="cls-37" points="205.67 481.68 217.79 481.68 170.38 304.75 158.26 304.75 205.67 481.68"/><polygon class="cls-38" points="110.48 481.68 98.36 481.68 145.77 304.75 157.89 304.75 110.48 481.68"/><polygon class="cls-39" points="486.31 481.68 498.44 481.68 451.03 304.75 438.9 304.75 486.31 481.68"/><polygon class="cls-40" points="391.13 481.68 379 481.68 426.41 304.75 438.54 304.75 391.13 481.68"/><polygon class="cls-41" points="144.82 481.68 156.95 481.68 109.54 304.75 97.41 304.75 144.82 481.68"/><polygon class="cls-42" points="49.64 481.68 37.51 481.68 84.92 304.75 97.05 304.75 49.64 481.68"/><rect class="cls-2" x="63.26" y="121.59" width="3.92" height="76.27" rx="1.34" transform="translate(-103.55 195.52) rotate(-79.76)"/><circle class="cls-43" cx="124.14" cy="197.71" r="11.22"/><rect class="cls-2" x="64.67" y="113.81" width="3.92" height="76.27" rx="1.34" transform="translate(-94.74 190.51) rotate(-79.76)"/><rect class="cls-2" x="48.75" y="145.71" width="3.92" height="153.64" rx="1.34" transform="translate(-40.29 13.22) rotate(-10.66)"/><rect class="cls-44" x="104" y="149.77" width="13.26" height="53.54" rx="2.97" transform="translate(-77.54 87.13) rotate(-32.51)"/><circle class="cls-45" cx="124.14" cy="197.71" r="7.99" transform="translate(-86.8 97.7) rotate(-32.51)"/><path class="cls-46" d="M108.31,172.88c11-7,28-.24,37.8,15.18l-40,25.49C96.28,198.13,97.27,179.92,108.31,172.88Z" transform="translate(0 0)"/><path class="cls-47" d="M146.11,188.06l-10.75,6.85c-7.19-11.28-16.55-19.43-25.31-23C121.07,166.56,136.79,173.42,146.11,188.06Z" transform="translate(0 0)"/><rect class="cls-2" x="40.97" y="147.17" width="3.92" height="153.64" rx="1.34" transform="translate(-40.69 11.81) rotate(-10.66)"/><circle class="cls-2" cx="35.78" cy="150.04" r="9.57"/><circle class="cls-48" cx="34" cy="150.04" r="9.57"/><circle class="cls-2" cx="34" cy="150.04" r="4.79"/><rect class="cls-49" x="37.51" y="290.48" width="462.31" height="14.27"/><rect class="cls-50" x="414.75" y="290.48" width="85.07" height="14.27"/><rect class="cls-51" x="37.51" y="300.11" width="462.31" height="4.64"/><rect class="cls-2" x="415.16" y="300.11" width="84.66" height="4.64"/><polygon class="cls-52" points="427.39 481.68 439.51 481.68 392.11 304.75 379.98 304.75 427.39 481.68"/><polygon class="cls-53" points="332.21 481.68 320.08 481.68 367.49 304.75 379.62 304.75 332.21 481.68"/><polygon class="cls-54" points="0 492.21 600 492.21 558.82 481.68 37.98 481.68 0 492.21"/><path class="cls-55" d="M147.75,241.9s-1.13-.18-2.59,1.64-2.74,11.68-.82,19.53,3,22,3.41,23.73a5.77,5.77,0,0,0,4.81,3.67c1.92,0,5.36.19,6.85,0s3.19-2.12,0-12-5.11-14.51-6.12-22.09-1.28-11.59-2.83-13A6,6,0,0,0,147.75,241.9Z" transform="translate(0 0)"/><polygon class="cls-47" points="81.83 290.51 126.43 290.51 113.96 230.77 69.36 230.77 81.83 290.51"/><polygon class="cls-56" points="77.92 290.51 123.33 290.51 110.63 230.77 65.22 230.77 77.92 290.51"/><polygon class="cls-47" points="88.31 249.33 73.21 290.51 97.07 290.51 90.7 249.33 88.31 249.33"/><polygon class="cls-57" points="90.7 249.33 75.61 290.51 99.46 290.51 90.7 249.33"/><path class="cls-58" d="M501.25,306.89c-8.81,33.4-4.78,66.24,8.61,90.22,23.48-14.26,43.18-40.84,52-74.24s4.78-66.24-8.61-90.22C529.76,246.91,510.06,273.49,501.25,306.89Z" transform="translate(0 0)"/><path class="cls-59" d="M536.3,305.55A402.91,402.91,0,0,0,522.63,353c-6.37,28-4.76,61.28-4.76,61.28" transform="translate(0 0)"/><path class="cls-59" d="M499.18,295.94S503,328,507.72,352.8s7.91,57.45,7.91,57.45" transform="translate(0 0)"/><path class="cls-59" d="M491.52,349.85s7.66,20.92,13.26,34.47,10.85,27.5,10.85,27.5" transform="translate(0 0)"/><path class="cls-60" d="M523.7,178.46c-4,29.26-.53,56.26,8.11,74.5,13.21-15.26,23.8-40.33,27.8-69.6s.53-56.26-8.11-74.5C538.29,124.12,527.7,149.19,523.7,178.46Z" transform="translate(0 0)"/><path class="cls-61" d="M496.56,225.39c1.2-26.79,3-75.15,4-103.34C482,145.05,470,180.32,470,219.91c0,39.13,11.66,74,29.88,97C497.91,289.92,495.46,249.78,496.56,225.39Z" transform="translate(0 0)"/><path class="cls-62" d="M532.67,219.91c0-40.16-12.26-75.88-31.31-98.87-.27.33-.52.68-.79,1-1,28.19-2.81,76.55-4,103.34-1.09,24.39,1.35,64.53,3.37,91.56.48.6.94,1.24,1.43,1.83C520.41,295.79,532.67,260.06,532.67,219.91Z" transform="translate(0 0)"/><path class="cls-63" d="M532.87,247.33c-7.22,24.08-6.29,47.7,1,64.9,15.55-10.36,29.32-29.57,36.54-53.65s6.29-47.7-1-64.9C553.86,204,540.09,223.26,532.87,247.33Z" transform="translate(0 0)"/><ellipse class="cls-64" cx="502.73" cy="231.72" rx="3.55" ry="6.33"/><ellipse class="cls-65" cx="510.93" cy="238.72" rx="6.33" ry="3.55" transform="translate(-19.15 431.21) rotate(-45)"/><ellipse class="cls-66" cx="509.78" cy="272.33" rx="8.69" ry="4.87" transform="translate(-43.26 440.24) rotate(-45)"/><ellipse class="cls-67" cx="507.77" cy="289.66" rx="8.69" ry="4.87" transform="translate(30.84 627.69) rotate(-65.03)"/><path class="cls-68" d="M449.48,308.35c11,27.75,29.25,49.08,48.71,59.74C471.24,337.65,444,231.46,444,231.46,437.17,252.56,438.49,280.6,449.48,308.35Z" transform="translate(0 0)"/><path class="cls-69" d="M492.75,291.2c-11-27.75-29.25-49.08-48.71-59.74,0,0,27.21,106.19,54.15,136.63C505.06,347,503.74,319,492.75,291.2Z" transform="translate(0 0)"/><path class="cls-70" d="M492.75,291.2c-11-27.75-29.25-49.08-48.71-59.74,0,0,27.21,106.19,54.15,136.63C505.06,347,503.74,319,492.75,291.2Z" transform="translate(0 0)"/><ellipse class="cls-71" cx="473.88" cy="311.44" rx="2.74" ry="4.88" transform="translate(-83.53 207.29) rotate(-22.73)"/><ellipse class="cls-72" cx="491.52" cy="314.26" rx="2.74" ry="4.88" transform="translate(-83.26 214.33) rotate(-22.73)"/><ellipse class="cls-73" cx="483.74" cy="312.08" rx="4.9" ry="2.75" transform="translate(11.87 641.84) rotate(-67.77)"/><ellipse class="cls-74" cx="483.23" cy="323.41" rx="4.88" ry="2.74" transform="translate(0.81 648.04) rotate(-67.73)"/><ellipse class="cls-75" cx="491" cy="338.22" rx="6.7" ry="3.76" transform="translate(-8.07 664.42) rotate(-67.73)"/><ellipse class="cls-76" cx="494.73" cy="351.14" rx="6.7" ry="3.76" transform="translate(124.52 831.77) rotate(-87.76)"/><polygon class="cls-77" points="254.25 355.72 353.77 355.72 357.09 343.47 254.25 343.47 254.25 355.72"/><path class="cls-78" d="M252.87,290.55s-34.07.38-47.9-.77-19.25-9.68-20.53-13.5a22.66,22.66,0,0,1-1.28-6.51H139.72a22.66,22.66,0,0,0,1.28,6.51c1.28,3.82,6.7,12.35,20.53,13.5s47.9.77,47.9.77Z" transform="translate(0 0)"/><rect class="cls-2" x="286.63" y="285.26" width="44.65" height="5.22" rx="0.56"/><path class="cls-47" d="M210.12,290.48h83.63c1.63,0,2.6-1.6,2.17-3.57l-14.17-65.12c-.43-2-2.1-3.57-3.72-3.57H194.4c-1.63,0-2.6,1.6-2.17,3.57l14.17,65.12C206.83,288.88,208.5,290.48,210.12,290.48Z" transform="translate(0 0)"/><path class="cls-79" d="M206,290.48h83.63c1.63,0,2.6-1.6,2.17-3.57l-14.17-65.12c-.43-2-2.1-3.57-3.72-3.57H190.3c-1.63,0-2.6,1.6-2.17,3.57l14.17,65.12C202.72,288.88,204.39,290.48,206,290.48Z" transform="translate(0 0)"/><path class="cls-5" d="M235.88,247.53a16.07,16.07,0,0,1-1-3.34,4.1,4.1,0,0,0-2.63.86c-3,2.28-3.58,8.28-1.34,13.4s6.48,7.42,9.46,5.13c2.35-1.8,3.19-5.9,2.36-10.06C240.21,253.47,237.51,251.26,235.88,247.53Z" transform="translate(0 0)"/></g></g><g id="mazeta"><polygon class="cls-80" points="550.27 481.68 481.35 481.68 471.12 392.36 560.51 392.36 550.27 481.68"/><polygon class="cls-81" points="471.12 392.36 481.35 481.68 507.72 481.68 500.09 392.36 471.12 392.36"/><rect class="cls-82" x="467.62" y="389.81" width="96.37" height="22.01"/></g></svg>