<?xml version="1.0" encoding="UTF-8" standalone="no"?>
<!-- Creator: CorelDRAW X7 -->

<svg
   xmlns:dc="http://purl.org/dc/elements/1.1/"
   xmlns:cc="http://creativecommons.org/ns#"
   xmlns:rdf="http://www.w3.org/1999/02/22-rdf-syntax-ns#"
   xmlns:svg="http://www.w3.org/2000/svg"
   xmlns="http://www.w3.org/2000/svg"
   xmlns:sodipodi="http://sodipodi.sourceforge.net/DTD/sodipodi-0.dtd"
   xmlns:inkscape="http://www.inkscape.org/namespaces/inkscape"
   xml:space="preserve"
   width="246.46001mm"
   height="103.22725mm"
   version="1.1"
   style="clip-rule:evenodd;fill-rule:evenodd;image-rendering:optimizeQuality;shape-rendering:geometricPrecision;text-rendering:geometricPrecision"
   viewBox="0 0 24646.001 10322.725"
   id="svg61"
   sodipodi:docname="brand-negro.svg"
   inkscape:version="0.92.4 (f8dce91, 2019-08-02)"><metadata
   id="metadata65"><rdf:RDF><cc:Work
       rdf:about=""><dc:format>image/svg+xml</dc:format><dc:type
         rdf:resource="http://purl.org/dc/dcmitype/StillImage" /><dc:title></dc:title></cc:Work></rdf:RDF></metadata><sodipodi:namedview
   pagecolor="#ffffff"
   bordercolor="#666666"
   borderopacity="1"
   objecttolerance="10"
   gridtolerance="10"
   guidetolerance="10"
   inkscape:pageopacity="0"
   inkscape:pageshadow="2"
   inkscape:window-width="1920"
   inkscape:window-height="996"
   id="namedview63"
   showgrid="false"
   fit-margin-top="0"
   fit-margin-left="0"
   fit-margin-right="0"
   fit-margin-bottom="0"
   inkscape:zoom="0.29734127"
   inkscape:cx="465.75118"
   inkscape:cy="195.07512"
   inkscape:window-x="1920"
   inkscape:window-y="0"
   inkscape:window-maximized="1"
   inkscape:current-layer="svg61" />
 <defs
   id="defs15">
  <style
   type="text/css"
   id="style2">
   <![CDATA[
    .str1 {stroke:#FEFEFE;stroke-width:282.22}
    .str4 {stroke:#E6E7E8;stroke-width:105.83}
    .str3 {stroke:#E6E7E8;stroke-width:211.66}
    .str6 {stroke:#2178B6;stroke-width:211.66}
    .str5 {stroke:#33B5E5;stroke-width:211.66}
    .str0 {stroke:#3ACFE6;stroke-width:211.66}
    .str2 {stroke:#3ED6DB;stroke-width:211.66}
    .fil1 {fill:none}
    .fil3 {fill:#E6E7E8}
    .fil6 {fill:#373435}
    .fil0 {fill:black}
    .fil8 {fill:#2178B6}
    .fil7 {fill:#33B5E5}
    .fil5 {fill:#3ED6DB}
    .fil2 {fill:#E6E7E8;fill-rule:nonzero}
    .fil4 {fill:url(#id0)}
   ]]>
  </style>
  <linearGradient
   id="id0"
   gradientUnits="userSpaceOnUse"
   x1="17736.301"
   y1="9644.2695"
   x2="20581.801"
   y2="12491.8">
   <stop
   offset="0"
   style="stop-opacity:1; stop-color:#13548A"
   id="stop4" />
   <stop
   offset="0.321569"
   style="stop-opacity:1; stop-color:#2B92D5"
   id="stop6" />
   <stop
   offset="0.54902"
   style="stop-opacity:1; stop-color:#37C9EE"
   id="stop8" />
   <stop
   offset="0.811765"
   style="stop-opacity:1; stop-color:#40D9D7"
   id="stop10" />
   <stop
   offset="1"
   style="stop-opacity:1; stop-color:#ADD9DA"
   id="stop12" />
  </linearGradient>
 </defs>
 <g
   id="Capa_x0020_1"
   transform="translate(-2527,-5338.6375)">
  <metadata
   id="CorelCorpID_0Corel-Layer" />
  <path
   class="fil0"
   d="m 3363,7068 h 22974 c 460,0 836,376 836,836 v 4869 c 0,460 -376,836 -836,836 H 3363 c -460,0 -836,-376 -836,-836 V 7904 c 0,-460 376,-836 836,-836 z"
   id="path18"
   inkscape:connector-curvature="0"
   style="fill:#000000" />
  <polyline
   class="fil1 str0"
   points="3909,10591 3909,11870 9733,11870 "
   id="polyline20"
   style="fill:none;stroke:#3acfe6;stroke-width:211.66000366" />
  <path
   class="fil2"
   d="m 3365,8679 v -332 h 1087 v 332 h -366 v 1960 H 3732 V 8679 Z m 1250,1960 V 8347 h 922 v 332 h -568 v 600 h 409 v 331 h -409 v 685 h 568 v 344 z M 6161,8679 v 665 h 140 c 94,0 157,-37 189,-111 19,-45 28,-124 28,-236 0,-107 -12,-182 -36,-226 -33,-62 -97,-92 -194,-92 z m 0,996 v 964 H 5807 V 8347 h 519 c 207,0 354,61 442,183 74,103 111,263 111,480 0,272 -75,461 -225,564 l 260,1065 h -368 l -218,-964 z m 1003,964 V 8347 h 469 l 231,1270 c 21,105 31,220 31,344 0,-100 10,-213 31,-341 l 220,-1273 h 479 v 2292 H 8291 V 9192 c 0,-84 10,-217 29,-399 0,3 -7,45 -20,126 -11,66 -23,132 -36,198 l -288,1522 H 7800 L 7527,9116 c -11,-77 -30,-184 -58,-323 16,168 23,301 23,399 v 1447 z m 1822,0 V 8347 h 360 v 2292 z m 714,0 V 8347 h 316 l 450,1370 c 17,54 41,135 69,244 -28,-151 -42,-254 -42,-309 V 8347 h 334 v 2292 h -332 l -432,-1266 c 0,-1 0,-3 -1,-5 l -7,-19 c -30,-91 -52,-166 -66,-225 26,167 39,273 39,317 v 1198 z m 1461,-2292 h 361 v 1775 c 0,146 62,219 187,219 120,0 180,-73 180,-219 V 8347 h 360 v 1714 c 0,190 -42,339 -125,448 -93,120 -232,179 -417,179 -364,0 -546,-212 -546,-637 z m 1322,1711 338,-51 c 12,227 91,340 234,340 66,0 118,-20 158,-61 39,-42 59,-95 59,-160 0,-119 -95,-273 -286,-462 l -33,-33 c -146,-146 -245,-257 -298,-333 -93,-136 -139,-274 -139,-415 0,-158 52,-294 156,-406 104,-112 235,-168 392,-168 159,0 286,56 381,168 87,103 137,236 150,400 l -346,49 c -12,-191 -76,-286 -194,-286 -126,0 -189,71 -189,212 0,133 111,307 334,521 5,5 12,12 20,20 137,132 230,240 280,322 78,123 116,257 116,405 0,163 -51,299 -152,408 -102,109 -234,163 -396,163 -184,0 -328,-60 -431,-182 -94,-112 -145,-262 -154,-451 z"
   id="path22"
   inkscape:connector-curvature="0"
   style="fill:#e6e7e8;fill-rule:nonzero" />
  <path
   class="fil2"
   d="m 10484,12712 24,-319 c -161,1 -249,3 -266,5 -16,2 -30,3 -42,3 -114,0 -172,-59 -172,-178 v -1626 h -328 v 1563 c 0,191 32,333 95,425 65,96 161,142 288,138 z m 738,-694 h -260 l 5,277 c 1,123 43,184 126,184 87,0 130,-61 129,-184 z m 301,-431 v 705 c 0,134 -39,244 -119,329 -82,88 -190,132 -323,132 -133,0 -236,-40 -308,-120 -72,-79 -108,-213 -108,-402 0,-333 186,-492 557,-478 v -157 c 1,-146 -41,-219 -126,-219 -48,0 -99,10 -151,28 l -118,-229 235,-70 c 308,-6 461,155 461,481 z m 543,826 c 44,48 90,72 138,72 68,0 102,-47 102,-141 v -811 c 0,-108 -40,-162 -120,-162 -42,0 -82,22 -120,64 z m -296,298 v -2126 h 296 v 684 c 80,-99 166,-148 258,-148 189,0 284,132 284,395 v 870 c 0,231 -89,346 -266,346 -110,0 -202,-47 -276,-141 v 120 z m 994,-425 283,-63 c 23,171 88,256 193,256 90,0 135,-46 135,-138 0,-83 -101,-201 -305,-353 -182,-136 -273,-289 -273,-457 0,-128 40,-232 118,-311 79,-78 183,-117 313,-117 123,0 222,37 296,111 71,73 112,172 121,296 l -277,66 c -21,-133 -73,-199 -156,-199 -84,0 -126,46 -126,138 0,68 69,157 207,267 29,22 58,45 87,70 94,78 160,145 200,204 56,82 84,171 84,270 0,130 -40,234 -120,311 -80,78 -185,116 -317,116 -133,0 -241,-45 -325,-136 -74,-83 -121,-193 -138,-331 z"
   id="path24"
   inkscape:connector-curvature="0"
   style="fill:#e6e7e8;fill-rule:nonzero" />
  <path
   class="fil3 str1"
   d="M 24467,9909 20281,5723 c -325,-325 -857,-325 -1182,0 l -4186,4186 c -325,325 -325,857 0,1182 l 4186,4186 c 325,325 857,325 1182,0 l 4186,-4186 c 325,-325 325,-857 0,-1182 z"
   id="path26"
   inkscape:connector-curvature="0"
   style="fill:#e6e7e8;stroke:#fefefe;stroke-width:282.22000122" />
  <line
   class="fil1 str2"
   x1="19074"
   y1="9140"
   x2="18798"
   y2="8314"
   id="line28"
   style="fill:none;stroke:#3ed6db;stroke-width:211.66000366" />
  <path
   class="fil4"
   d="m 16781,9762 c -207,207 -211,491 -55,647 l 3094,3094 c 141,141 451,141 592,0 196,-196 174,-329 271,-658 l 479,-1778 c 77,-314 539,-1900 539,-2073 1,-260 -206,-467 -466,-467 -111,0 -190,32 -297,60 l -2369,639 c -198,53 -392,101 -592,160 l -889,240 c -104,26 -207,37 -307,136 z"
   id="path30"
   inkscape:connector-curvature="0"
   style="fill:url(#id0)" />
  <path
   class="fil5 str2"
   d="m 18910,7818 c -117,-117 -308,-117 -425,0 -118,118 -118,308 0,425 117,118 308,118 425,0 118,-117 118,-307 0,-425 z"
   id="path32"
   inkscape:connector-curvature="0"
   style="fill:#3ed6db;stroke:#3ed6db;stroke-width:211.66000366" />
  <polyline
   class="fil1 str3"
   points="21185,11507 19774,11507 18770,12512 "
   id="polyline34"
   style="fill:none;stroke:#e6e7e8;stroke-width:211.66000366" />
  <path
   class="fil6 str4"
   d="m 18820,9977 c -118,-117 -308,-117 -425,0 -118,118 -118,308 0,425 117,118 307,118 425,0 117,-117 117,-307 0,-425 z"
   id="path36"
   inkscape:connector-curvature="0"
   style="fill:#373435;stroke:#e6e7e8;stroke-width:105.83000183" />
  <path
   class="fil7 str5"
   d="m 17872,12318 c -117,-118 -308,-118 -425,0 -118,117 -118,308 0,425 117,118 308,118 425,0 117,-117 117,-308 0,-425 z"
   id="path38"
   inkscape:connector-curvature="0"
   style="fill:#33b5e5;stroke:#33b5e5;stroke-width:211.66000366" />
  <line
   class="fil1 str5"
   x1="18292"
   y1="11937"
   x2="17879"
   y2="12325"
   id="line40"
   style="fill:none;stroke:#33b5e5;stroke-width:211.66000366" />
  <polyline
   class="fil1 str3"
   points="21698,9308 20921,9308 18273,11956 "
   id="polyline42"
   style="fill:none;stroke:#e6e7e8;stroke-width:211.66000366" />
  <polygon
   class="fil8"
   points="21072,11403 21681,11403 21695,11614 21014,11614 "
   id="polygon44"
   style="fill:#2178b6" />
  <path
   class="fil8 str6"
   d="m 22222,11280 c -118,-118 -308,-118 -426,0 -117,117 -117,307 0,425 118,117 308,117 426,0 117,-118 117,-308 0,-425 z"
   id="path46"
   inkscape:connector-curvature="0"
   style="fill:#2178b6;stroke:#2178b6;stroke-width:211.66000366" />
  <path
   class="fil6"
   d="m 22222,11280 c -118,-118 -308,-118 -426,0 -117,117 -117,307 0,425 118,117 308,117 426,0 117,-118 117,-308 0,-425 z"
   id="path48"
   inkscape:connector-curvature="0"
   style="fill:#373435" />
  <path
   class="fil6"
   d="m 18910,7818 c -117,-117 -308,-117 -425,0 -118,118 -118,308 0,425 117,118 308,118 425,0 118,-117 118,-307 0,-425 z"
   id="path50"
   inkscape:connector-curvature="0"
   style="fill:#373435" />
  <path
   class="fil6"
   d="m 17872,12318 c -117,-118 -308,-118 -425,0 -118,117 -118,308 0,425 117,118 308,118 425,0 117,-117 117,-308 0,-425 z"
   id="path52"
   inkscape:connector-curvature="0"
   style="fill:#373435" />
  <polygon
   class="fil5"
   points="15314,13609 15013,13609 17482,11165 17631,11314 "
   id="polygon54"
   style="fill:#3ed6db" />
  <line
   class="fil1 str3"
   x1="18395"
   y1="10402"
   x2="17557"
   y2="11240"
   id="line56"
   style="fill:none;stroke:#e6e7e8;stroke-width:211.66000366" />
  <polygon
   class="fil7"
   points="27173,9198 27173,9411 21611,9415 21664,9200 "
   id="polygon58"
   style="fill:#33b5e5" />
 </g>
</svg>