<?xml version="1.0" encoding="UTF-8" standalone="no"?>
<!-- Creator: CorelDRAW X7 -->

<svg
   xmlns:dc="http://purl.org/dc/elements/1.1/"
   xmlns:cc="http://creativecommons.org/ns#"
   xmlns:rdf="http://www.w3.org/1999/02/22-rdf-syntax-ns#"
   xmlns:svg="http://www.w3.org/2000/svg"
   xmlns="http://www.w3.org/2000/svg"
   xmlns:sodipodi="http://sodipodi.sourceforge.net/DTD/sodipodi-0.dtd"
   xmlns:inkscape="http://www.inkscape.org/namespaces/inkscape"
   xml:space="preserve"
   width="241.95294mm"
   height="103.22725mm"
   version="1.1"
   style="clip-rule:evenodd;fill-rule:evenodd;image-rendering:optimizeQuality;shape-rendering:geometricPrecision;text-rendering:geometricPrecision"
   viewBox="0 0 24195.295 10322.725"
   id="svg62"
   sodipodi:docname="brand-transparente2.svg"
   inkscape:version="0.92.4 (f8dce91, 2019-08-02)"><metadata
   id="metadata66"><rdf:RDF><cc:Work
       rdf:about=""><dc:format>image/svg+xml</dc:format><dc:type
         rdf:resource="http://purl.org/dc/dcmitype/StillImage" /><dc:title></dc:title></cc:Work></rdf:RDF></metadata><sodipodi:namedview
   pagecolor="#ffffff"
   bordercolor="#666666"
   borderopacity="1"
   objecttolerance="10"
   gridtolerance="10"
   guidetolerance="10"
   inkscape:pageopacity="0"
   inkscape:pageshadow="2"
   inkscape:window-width="1920"
   inkscape:window-height="996"
   id="namedview64"
   showgrid="false"
   inkscape:zoom="0.78484147"
   inkscape:cx="304.88716"
   inkscape:cy="237.82984"
   inkscape:window-x="1920"
   inkscape:window-y="0"
   inkscape:window-maximized="1"
   inkscape:current-layer="_944043562816"
   fit-margin-top="0"
   fit-margin-left="0"
   fit-margin-right="0"
   fit-margin-bottom="0"
   showguides="true"
   inkscape:guide-bbox="true"><sodipodi:guide
     position="16484.743,2090.1243"
     orientation="0,1"
     id="guide5024"
     inkscape:locked="false" /><sodipodi:guide
     position="19285.497,8121.3256"
     orientation="0,1"
     id="guide5026"
     inkscape:locked="false" /></sodipodi:namedview>
 <defs
   id="defs15">
  <style
   type="text/css"
   id="style2">
   <![CDATA[
    .str1 {stroke:#373435;stroke-width:282.22}
    .str4 {stroke:#E6E7E8;stroke-width:105.83}
    .str6 {stroke:#33B5E5;stroke-width:105.83}
    .str3 {stroke:#E6E7E8;stroke-width:211.66}
    .str7 {stroke:#2178B6;stroke-width:211.66}
    .str5 {stroke:#33B5E5;stroke-width:211.66}
    .str0 {stroke:#3ACFE6;stroke-width:211.66}
    .str2 {stroke:#3ED6DB;stroke-width:211.66}
    .fil1 {fill:none}
    .fil0 {fill:#FEFEFE}
    .fil3 {fill:#E6E7E8}
    .fil6 {fill:#373435}
    .fil8 {fill:#2178B6}
    .fil7 {fill:#33B5E5}
    .fil5 {fill:#3ED6DB}
    .fil2 {fill:#373435;fill-rule:nonzero}
    .fil4 {fill:url(#id0)}
   ]]>
  </style>
  <linearGradient
   id="id0"
   gradientUnits="userSpaceOnUse"
   x1="17736.199"
   y1="9644.2598"
   x2="20581.801"
   y2="12491.8"
   gradientTransform="translate(-11596.822,33.711403)">
   <stop
   offset="0"
   style="stop-opacity:1; stop-color:#13548A"
   id="stop4" />
   <stop
   offset="0.321569"
   style="stop-opacity:1; stop-color:#2B92D5"
   id="stop6" />
   <stop
   offset="0.54902"
   style="stop-opacity:1; stop-color:#37C9EE"
   id="stop8" />
   <stop
   offset="0.811765"
   style="stop-opacity:1; stop-color:#40D9D7"
   id="stop10" />
   <stop
   offset="1"
   style="stop-opacity:1; stop-color:#ADD9DA"
   id="stop12" />
  </linearGradient>
 </defs>
 <g
   id="Capa_x0020_1"
   transform="translate(-2931.816,-5372.3489)">
  <metadata
   id="CorelCorpID_0Corel-Layer" />
  <g
   id="_944043562816">
   
   <polyline
   class="fil1 str0"
   points="3909,10591 3909,11870 9733,11870 "
   id="polyline20"
   style="fill:none;stroke:#3acfe6;stroke-width:211.66000366"
   transform="matrix(1.273359,0,0,1.273359,9727.9314,-2843.313)" />
   <path
   class="fil2"
   d="M 14012.786,8208.1701 V 7785.415 h 1384.141 v 422.7551 h -466.049 v 2495.7849 h -450.77 V 8208.1701 Z m 1591.698,2495.7849 v -2918.54 h 1174.038 v 422.7551 h -723.268 v 764.0155 h 520.804 v 421.4818 h -520.804 v 872.2526 h 723.268 v 438.035 z m 1968.613,-2495.7849 v 846.7838 h 178.271 c 119.696,0 199.918,-47.1142 240.665,-141.3428 24.194,-57.3012 35.654,-157.8965 35.654,-300.5128 0,-136.2493 -15.28,-231.7513 -45.841,-287.7791 -42.021,-78.9483 -123.516,-117.1491 -247.032,-117.1491 z m 0,1268.2657 v 1227.5192 h -450.768 v -2918.54 h 660.873 c 263.585,0 450.769,77.6748 562.825,233.0247 94.228,131.1559 141.343,334.8934 141.343,611.2123 0,346.3537 -95.502,587.0185 -286.506,718.1745 l 331.073,1356.1285 h -468.596 l -277.593,-1227.5192 z m 1277.18,1227.5192 v -2918.54 h 597.206 l 294.145,1617.1659 c 26.74,133.7027 39.475,280.139 39.475,438.0353 0,-127.3357 12.733,-271.2252 39.474,-434.2152 l 280.139,-1620.986 h 609.938 v 2918.54 h -425.302 V 8861.4033 c 0,-106.9621 12.734,-276.3189 36.928,-508.0702 0,3.8201 -8.913,57.3012 -25.467,160.4432 -14.007,84.0417 -29.287,168.0834 -45.841,252.1251 l -366.728,1938.0536 h -224.11 l -347.627,-1939.3269 c -14.008,-98.0487 -38.201,-234.2981 -73.856,-411.295 20.375,213.9243 29.287,383.2811 29.287,508.0702 v 1842.5517 z m 2320.06,0 v -2918.54 h 458.41 v 2918.54 z m 909.178,0 v -2918.54 h 402.382 l 573.012,1744.5019 c 21.647,68.7613 52.207,171.9034 87.861,310.6993 -35.654,-192.277 -53.481,-323.433 -53.481,-393.4678 V 7785.415 h 425.302 v 2918.54 h -422.755 l -550.092,-1612.0737 c 0,-1.2733 0,-3.8201 -1.272,-6.3668 l -8.914,-24.1938 c -38.201,-115.8756 -66.214,-211.3775 -84.042,-286.5058 33.108,212.6509 49.661,347.6271 49.661,403.6548 v 1525.4853 z m 1860.379,-2918.54 h 459.682 v 2260.212 c 0,185.912 78.948,278.867 238.118,278.867 151.53,0 229.204,-92.955 229.204,-278.867 V 7785.415 h 458.41 v 2182.5373 c 0,241.9387 -53.482,431.6697 -159.17,570.4657 -118.422,152.803 -295.419,227.932 -530.991,227.932 -463.503,0 -695.253,-269.952 -695.253,-811.1317 z m 1683.38,2178.7173 430.395,-64.9417 c 15.28,289.0534 115.876,432.9434 297.966,432.9434 84.042,0 150.256,-25.467 201.191,-77.675 49.661,-53.481 75.128,-120.969 75.128,-203.738 0,-151.5304 -120.969,-347.6273 -364.18,-588.2922 l -42.022,-42.0208 c -185.91,-185.9105 -311.973,-327.2534 -379.461,-424.0286 -118.422,-173.1768 -176.997,-348.9004 -176.997,-528.444 0,-201.1907 66.216,-374.3676 198.644,-516.9837 132.43,-142.6163 299.24,-215.1977 499.158,-215.1977 202.463,0 364.18,72.5814 485.149,215.1977 110.782,131.1559 174.451,300.5126 191.004,509.3435 l -440.582,62.3946 c -15.28,-243.2116 -96.776,-364.1807 -247.032,-364.1807 -160.443,0 -240.665,90.4086 -240.665,269.9521 0,169.3568 141.343,390.9213 425.302,663.4201 6.367,6.3668 15.281,15.2803 25.467,25.4672 174.45,168.0834 292.873,305.6061 356.54,410.0216 99.322,156.6232 147.71,327.2528 147.71,514.4369 0,208.832 -64.94,382.009 -193.55,520.805 -129.882,138.797 -297.966,207.558 -504.25,207.558 -234.298,0 -417.662,-76.401 -548.818,-231.752 -119.696,-142.616 -184.638,-333.62 -196.097,-574.2857 z"
   id="path22"
   inkscape:connector-curvature="0"
   style="fill:#373435;fill-rule:nonzero;stroke-width:1.27335906" />
   <path
   class="fil2"
   d="m 23077.829,13343.628 29.287,-406.202 c -203.737,1.274 -315.792,3.821 -337.439,6.368 -20.375,2.546 -38.201,3.82 -53.482,3.82 -145.163,0 -219.018,-75.128 -219.018,-226.658 v -2070.482 h -417.662 v 1990.26 c 0,243.211 40.748,424.029 120.969,541.178 82.768,122.242 205.011,180.816 366.728,175.723 z m 939.739,-883.711 h -331.073 l 6.366,352.721 c 1.274,156.623 54.755,234.298 160.444,234.298 110.782,0 165.536,-77.675 164.263,-234.298 z m 383.281,-548.818 v 897.718 c 0,170.631 -49.661,309.427 -151.529,418.935 -104.417,112.056 -241.939,168.084 -411.296,168.084 -169.357,0 -300.513,-50.934 -392.195,-152.803 -91.681,-100.596 -137.522,-271.225 -137.522,-511.89 0,-424.029 236.844,-626.493 709.261,-608.666 v -199.917 c 1.273,-185.911 -52.208,-278.866 -160.444,-278.866 -61.121,0 -126.062,12.734 -192.276,35.654 l -150.257,-291.599 299.239,-89.135 c 392.195,-7.641 587.019,197.37 587.019,612.485 z m 691.434,1051.795 c 56.027,61.121 114.603,91.682 175.724,91.682 86.588,0 129.883,-59.848 129.883,-179.543 v -1032.694 c 0,-137.523 -50.936,-206.285 -152.804,-206.285 -53.481,0 -104.416,28.014 -152.803,81.495 z m -376.915,379.461 v -2707.162 h 376.915 v 870.978 c 101.868,-126.063 211.378,-188.456 328.527,-188.456 240.665,0 361.634,168.082 361.634,502.976 v 1107.823 c 0,294.145 -113.329,440.582 -338.714,440.582 -140.069,0 -257.219,-59.849 -351.447,-179.544 v 152.803 z m 1265.72,-541.178 360.36,-80.221 c 29.288,217.744 112.056,325.98 245.758,325.98 114.603,0 171.903,-58.575 171.903,-175.724 0,-105.689 -128.609,-255.945 -388.373,-449.496 -231.752,-173.176 -347.628,-368 -347.628,-581.925 0,-162.99 50.935,-295.419 150.257,-396.014 100.595,-99.322 233.025,-148.983 398.561,-148.983 156.623,0 282.686,47.114 376.914,141.343 90.409,92.955 142.617,219.017 154.077,376.913 l -352.72,84.042 c -26.741,-169.356 -92.956,-253.398 -198.644,-253.398 -106.963,0 -160.444,58.575 -160.444,175.724 0,86.588 87.862,199.917 263.585,339.987 36.928,28.013 73.855,57.3 110.783,89.135 118.422,99.322 203.737,184.637 254.671,259.765 71.309,104.415 106.963,217.744 106.963,343.807 0,165.537 -50.934,297.965 -152.804,396.015 -101.868,99.321 -235.571,147.709 -403.654,147.709 -169.356,0 -306.879,-57.301 -413.842,-173.177 -95.502,-105.688 -154.076,-245.758 -175.723,-421.482 z"
   id="path24"
   inkscape:connector-curvature="0"
   style="fill:#373435;fill-rule:nonzero;stroke-width:1.27335906" />
   <path
   class="fil3 str1"
   d="m 12870.179,9942.7114 -4186.0005,-4186 c -325,-325 -857,-325 -1182,0 l -4186,4186 c -325,324.9996 -325,856.9996 0,1181.9996 l 4186,4186 c 325,325 857,325 1182,0 l 4186.0005,-4186 c 325,-325 325,-857 0,-1181.9996 z"
   id="path26"
   inkscape:connector-curvature="0"
   style="fill:#e6e7e8;stroke:#373435;stroke-width:282.22000122" />
   <line
   class="fil1 str2"
   x1="7477.1777"
   y1="9173.7119"
   x2="7201.1777"
   y2="8347.7119"
   id="line28"
   style="fill:none;stroke:#3ed6db;stroke-width:211.66000366" />
   <path
   class="fil4"
   d="m 5184.1785,9795.7114 c -207,206.9996 -211,490.9996 -55,646.9996 l 3094,3094 c 141,141 451,141 592,0 196,-196 174,-329 271,-658 l 479,-1778 c 77,-314 539.0005,-1899.9996 539.0005,-2072.9996 0,-260 -206.0005,-467 -466.0005,-467 -111,0 -190,32 -297,60 l -2369,639 c -198,53 -392,101 -592,160 l -889,240 c -104,26 -207,36 -307,136 z"
   id="path30"
   style="fill:url(#id0)"
   inkscape:connector-curvature="0" />
   <path
   class="fil5 str2"
   d="m 7313.1785,7851.7114 c -117,-117 -308,-117 -425,0 -118,118 -118,308 0,425 117,118 308,118 425,0 118,-117 118,-307 0,-425 z"
   id="path32"
   inkscape:connector-curvature="0"
   style="fill:#3ed6db;stroke:#3ed6db;stroke-width:211.66000366" />
   <polyline
   class="fil1 str3"
   points="21185,11507 19774,11507 18770,12512 "
   id="polyline34"
   style="fill:none;stroke:#e6e7e8;stroke-width:211.66000366"
   transform="translate(-11596.822,33.711403)" />
   <path
   class="fil6 str4"
   d="m 7223.1785,10010.711 c -118,-116.9996 -308,-116.9996 -426,0 -117,118 -117,308 0,425 118,118 308,118 426,0 117,-117 117,-307 0,-425 z"
   id="path36"
   inkscape:connector-curvature="0"
   style="fill:#373435;stroke:#e6e7e8;stroke-width:105.83000183" />
   <path
   class="fil7 str5"
   d="m 6275.1785,12351.711 c -117,-118 -308,-118 -425,0 -118,117 -118,308 0,425 117,118 308,118 425,0 117,-117 117,-308 0,-425 z"
   id="path38"
   inkscape:connector-curvature="0"
   style="fill:#33b5e5;stroke:#33b5e5;stroke-width:211.66000366" />
   <line
   class="fil1 str6"
   x1="6695.1777"
   y1="11970.712"
   x2="6282.1777"
   y2="12358.712"
   id="line40"
   style="fill:none;stroke:#33b5e5;stroke-width:105.83000183" />
   <polyline
   class="fil1 str3"
   points="21698,9308 20921,9308 18273,11956 "
   id="polyline42"
   style="fill:none;stroke:#e6e7e8;stroke-width:211.66000366"
   transform="translate(-11596.822,33.711403)" />
   <polygon
   class="fil8"
   points="21695,11614 21014,11614 21071,11403 21681,11403 "
   id="polygon44"
   style="fill:#2178b6"
   transform="translate(-11596.822,33.711403)" />
   <path
   class="fil8 str7"
   d="m 10625.179,11313.711 c -118,-118 -308,-118 -426,0 -117,117 -117,307 0,425 118,117 308,117 426,0 117,-118 117,-308 0,-425 z"
   id="path46"
   inkscape:connector-curvature="0"
   style="fill:#2178b6;stroke:#2178b6;stroke-width:211.66000366" />
   <path
   class="fil6"
   d="m 10624.179,11313.711 c -117,-118 -307,-118 -425,0 -117,117 -117,307 0,425 118,117 308,117 425,0 118,-118 118,-308 0,-425 z"
   id="path48"
   inkscape:connector-curvature="0"
   style="fill:#373435" />
   <path
   class="fil6"
   d="m 7313.1785,7851.7114 c -117,-117 -308,-117 -425,0 -118,118 -118,308 0,425 117,118 308,118 425,0 118,-117 118,-307 0,-425 z"
   id="path50"
   inkscape:connector-curvature="0"
   style="fill:#373435" />
   <path
   class="fil6"
   d="m 6275.1785,12351.711 c -117,-118 -308,-118 -425,0 -118,117 -118,308 0,425 117,118 308,118 425,0 117,-117 117,-308 0,-425 z"
   id="path52"
   inkscape:connector-curvature="0"
   style="fill:#373435" />
   <path
   style="fill:#3ed6db"
   d="m 5885.1785,11198.711 149,149 -1360.51,1335.53 -151.817,-143.012 z"
   id="polygon54"
   inkscape:connector-curvature="0"
   sodipodi:nodetypes="ccccc" />
   <line
   class="fil1 str3"
   x1="6797.1777"
   y1="10435.712"
   x2="5960.1777"
   y2="11273.712"
   id="line56"
   style="fill:none;stroke:#e6e7e8;stroke-width:211.66000366" />
   <path
   style="fill:#33b5e5"
   d="m 10014.179,9448.7114 53,-215 2290.902,0.98 220.499,210.02 z"
   id="polygon58"
   inkscape:connector-curvature="0"
   sodipodi:nodetypes="ccccc" />
  </g>
 </g>
</svg>