<svg xmlns="http://www.w3.org/2000/svg" xmlns:xlink="http://www.w3.org/1999/xlink" width="200.436" height="83.951" viewBox="0 0 5303.229 2221.203" fill-rule="evenodd" image-rendering="optimizeQuality" shape-rendering="geometricPrecision"><style><![CDATA[.R{stroke-width:45.544}.S{fill:none}.T{stroke:#e6e7e8}.U{fill:#373435}.V{stroke-width:22.772}]]></style><defs><linearGradient id="A" gradientUnits="userSpaceOnUse" x1="17736.199" y1="9644.26" x2="20581.801" y2="12491.8"><stop offset="0" stop-color="#13548a"/><stop offset=".322" stop-color="#2b92d5"/><stop offset=".549" stop-color="#37c9ee"/><stop offset=".812" stop-color="#40d9d7"/><stop offset="1" stop-color="#add9da"/></linearGradient><path id="B" d="M3525.228 533.5c-25.176-25.176-66.274-25.176-91.45 0-25.39 25.39-25.39 66.274 0 91.45 25.176 25.39 66.274 25.39 91.45 0 25.39-25.176 25.39-66.06 0-91.45z"/><path id="C" d="M3301.876 1501.79c-25.176-25.39-66.274-25.39-91.45 0-25.39 25.176-25.39 66.274 0 91.45 25.176 25.39 66.274 25.39 91.45 0 25.176-25.176 25.176-66.274 0-91.45z"/></defs><path d="M179.887 372.117H5123.34c98.98 0 179.887 80.906 179.887 179.887v1047.692c0 98.98-80.906 179.887-179.887 179.887H179.887C80.906 1779.583 0 1698.677 0 1599.696V552.004c0-98.98 80.906-179.887 179.887-179.887z" fill="#fefefe"/><path d="M297.373 1130.182v275.2h1253.185" stroke="#3acfe6" class="R S"/><g fill-rule="nonzero" class="U"><path d="M180.317 718.766v-71.438h233.896v71.438H335.46v421.745h-76.172V718.766zm268.97 421.745V647.327H647.68v71.438H525.46V847.87h88.007v71.223H525.46V1066.5h122.22v74.02zM781.95 718.766v143.092h30.125c20.227 0 33.783-7.962 40.668-23.885 4.088-9.683 6.025-26.682 6.025-50.782 0-23.024-2.582-39.162-7.746-48.63-7.1-13.34-20.872-19.796-41.744-19.796zm0 214.315v207.43h-76.172V647.327h111.676c44.54 0 76.172 13.126 95.108 39.377 15.923 22.163 23.885 56.59 23.885 103.284 0 58.528-16.138 99.196-48.415 121.36l55.946 229.162h-79.185l-46.908-207.43zm215.822 207.43V647.327h100.918l49.706 273.274c4.52 22.593 6.67 47.34 6.67 74.02 0-21.518 2.152-45.832 6.67-73.375l47.34-273.92h103.07v493.183h-71.87V829.15c0-18.075 2.152-46.693 6.24-85.855 0 .646-1.506 9.683-4.304 27.112l-7.746 42.605-61.97 327.498h-37.87l-58.743-327.713c-2.367-16.57-6.455-39.592-12.48-69.502 3.443 36.15 4.95 64.768 4.95 85.855v311.36zm392.05 0V647.327h77.463v493.183zm153.636 0V647.327h67.996l96.83 294.79c3.658 11.62 8.822 29.05 14.847 52.503-6.025-32.492-9.037-54.655-9.037-66.49V647.327h71.87v493.183h-71.438l-92.956-272.413c0-.215 0-.646-.215-1.076l-1.506-4.088c-6.455-19.58-11.19-35.72-14.202-48.415 5.595 35.934 8.392 58.743 8.392 68.21v257.78zm314.372-493.183h77.68v381.937c0 31.416 13.34 47.124 40.238 47.124 25.606 0 38.732-15.708 38.732-47.124V647.327h77.463v368.812c0 40.883-9.037 72.945-26.897 96.4-20.01 25.82-49.92 38.517-89.728 38.517-78.324 0-117.486-45.617-117.486-137.067zm284.463 368.166l72.73-10.974c2.582 48.845 19.58 73.16 50.35 73.16 14.202 0 25.39-4.304 33.998-13.126 8.392-9.037 12.695-20.442 12.695-34.428 0-25.606-20.442-58.743-61.54-99.41l-7.1-7.1c-31.416-31.416-52.718-55.3-64.122-71.654-20.01-29.264-29.91-58.958-29.91-89.298 0-33.998 11.19-63.262 33.567-87.36s50.566-36.365 84.35-36.365c34.213 0 61.54 12.265 81.982 36.365 18.72 22.163 29.48 50.782 32.276 86.07l-74.45 10.544c-2.582-41.1-16.353-61.54-41.744-61.54-27.112 0-40.668 15.277-40.668 45.617 0 28.618 23.885 66.06 71.87 112.107l4.304 4.304c29.48 28.403 49.5 51.642 60.25 69.287 16.784 26.467 24.96 55.3 24.96 86.93 0 35.29-10.974 64.553-32.707 88.007-21.948 23.454-50.35 35.074-85.2 35.074-39.592 0-70.578-12.91-92.74-39.162-20.227-24.1-31.2-56.376-33.137-97.044z"/><path d="M1712.155 1586.57l4.95-68.64-57.022 1.076c-3.443.43-6.455.646-9.037.646-24.53 0-37-12.695-37-38.3v-349.876h-70.578v336.32c0 41.1 6.886 71.654 20.442 91.45 13.986 20.657 34.643 30.555 61.97 29.694zm158.8-149.332h-55.946l1.076 59.604c.215 26.467 9.253 39.592 27.112 39.592 18.72 0 27.973-13.126 27.758-39.592zm64.768-92.74v151.7c0 28.834-8.392 52.288-25.606 70.793-17.644 18.935-40.883 28.403-69.502 28.403s-50.782-8.607-66.274-25.82c-15.493-17-23.24-45.832-23.24-86.5 0-71.654 40.023-105.867 119.853-102.854v-33.783c.215-31.416-8.822-47.124-27.112-47.124-10.328 0-21.302 2.152-32.492 6.025l-25.39-49.275 50.566-15.062c66.274-1.29 99.196 33.352 99.196 103.5zm116.84 177.735c9.468 10.328 19.366 15.493 29.694 15.493 14.632 0 21.948-10.113 21.948-30.34v-174.508c0-23.24-8.607-34.86-25.82-34.86-9.037 0-17.644 4.734-25.82 13.77zm-63.692 64.122V1128.89h63.692v147.18c17.214-21.302 35.72-31.846 55.515-31.846 40.668 0 61.1 28.403 61.1 84.995v187.203c0 49.706-19.15 74.45-57.237 74.45-23.67 0-43.466-10.113-59.39-30.34v25.82zm213.885-91.45l60.895-13.556c4.95 36.795 18.935 55.085 41.53 55.085 19.366 0 29.05-9.898 29.05-29.694 0-17.86-21.733-43.25-65.63-75.957-39.162-29.264-58.743-62.186-58.743-98.335 0-27.543 8.607-49.92 25.39-66.92 17-16.784 39.377-25.176 67.35-25.176 26.467 0 47.77 7.962 63.692 23.885 15.277 15.708 24.1 37 26.036 63.692l-59.604 14.202c-4.52-28.618-15.708-42.82-33.567-42.82-18.075 0-27.112 9.898-27.112 29.694 0 14.632 14.847 33.783 44.54 57.452 6.24 4.734 12.48 9.683 18.72 15.062 20.01 16.784 34.428 31.2 43.035 43.896 12.05 17.644 18.075 36.795 18.075 58.098 0 27.973-8.607 50.35-25.82 66.92-17.214 16.784-39.808 24.96-68.21 24.96-28.618 0-51.857-9.683-69.932-29.264-16.138-17.86-26.036-41.53-29.694-71.223z"/></g><path d="M4720.96 983.432L3820.235 82.705c-69.932-69.932-184.406-69.932-254.338 0L2665.17 983.432c-69.932 69.932-69.932 184.406 0 254.338l900.727 900.727c69.932 69.932 184.406 69.932 254.338 0l900.727-900.727c69.932-69.932 69.932-184.406 0-254.338z" stroke="#373435" fill="#e6e7e8" stroke-width="60.727"/><path d="M3560.517 817.962l-59.39-177.735" stroke="#3ed6db" class="R S"/><path d="M16781 9762c-207 207-211 491-55 647l3094 3094c141 141 451 141 592 0 196-196 174-329 271-658l479-1778c77-314 539-1900 539-2073 0-260-206-467-466-467-111 0-190 32-297 60l-3850 1039c-104 26-207 36-307 136z" fill="url(#A)" transform="matrix(.215176 0 0 .215176 -543.74988 -1148.7469)"/><g class="R"><use xlink:href="#B" stroke="#3ed6db" fill="#3ed6db"/><path d="M4014.754 1327.283H3711.14l-216.037 216.252" class="S T"/></g><path d="M3505.862 998.064c-25.39-25.176-66.274-25.176-91.665 0-25.176 25.39-25.176 66.274 0 91.45a64.68 64.68 0 0 0 91.665 0c25.176-25.176 25.176-66.06 0-91.45z" class="T U V"/><g stroke="#33b5e5"><use xlink:href="#C" fill="#33b5e5" class="R"/><path d="M3392.25 1419.81l-88.868 83.488" class="S V"/></g><path d="M4125.14 854.11h-167.192l-569.786 569.786" class="R S T"/><g fill="#2178b6"><path d="M3977.96 1350.307l12.265-45.402h131.257l3.012 45.402z"/><path d="M4237.89 1278.438a64.68 64.68 0 0 0-91.665 0c-25.176 25.176-25.176 66.06 0 91.45 25.39 25.176 66.274 25.176 91.665 0 25.176-25.39 25.176-66.274 0-91.45z" stroke="#2178b6" class="R"/></g><g class="U"><path d="M4237.676 1278.438c-25.176-25.39-66.06-25.39-91.45 0-25.176 25.176-25.176 66.06 0 91.45 25.39 25.176 66.274 25.176 91.45 0 25.39-25.39 25.39-66.274 0-91.45z"/><use xlink:href="#B"/><use xlink:href="#C"/></g><path d="M3250.018 1285.754l-498.563 493.83h-64.768l531.27-525.9z" fill="#3ed6db"/><path d="M3414.197 1089.514l-180.102 180.317" class="R S T"/><path d="M4117.823 830.872l1185.405-.43v45.832l-1196.81.86z" fill="#33b5e5"/></svg>