<svg xmlns="http://www.w3.org/2000/svg" xmlns:xlink="http://www.w3.org/1999/xlink" width="230.362" height="98.283" viewBox="0 0 6095 2600.382" fill-rule="evenodd" image-rendering="optimizeQuality" shape-rendering="geometricPrecision"><style><![CDATA[.Q{fill:none}.R{stroke-width:53.319}.S{stroke:#e6e7e8}.T{fill:#373435}.U{stroke-width:26.659}]]></style><defs><linearGradient id="A" gradientUnits="userSpaceOnUse" x1="12789.975" y1="10318.143" x2="13506.807" y2="11035.463"><stop offset="0" stop-color="#13548a"/><stop offset=".322" stop-color="#2b92d5"/><stop offset=".549" stop-color="#37c9ee"/><stop offset=".812" stop-color="#40d9d7"/><stop offset="1" stop-color="#add9da"/></linearGradient><path id="B" d="M1103.703 624.573c-29.474-29.473-77.588-29.473-107.06 0-29.726 29.725-29.726 77.588 0 107.06 29.473 29.725 77.587 29.725 107.06 0 29.725-29.473 29.725-77.336 0-107.06z"/><path id="C" d="M842.222 1758.16c-29.474-29.725-77.588-29.725-107.062 0-29.725 29.474-29.725 77.59 0 107.062 29.474 29.725 77.588 29.725 107.062 0 29.474-29.473 29.474-77.588 0-107.062z"/></defs><path d="M2965.9 1327.68v410.265h1868.164" stroke="#3acfe6" stroke-width="67.894" class="Q"/><g fill-rule="nonzero" class="T"><path d="M2791.39 714.368V607.872h348.677v106.495h-117.402v628.7h-113.553v-628.7zm400.962 628.7V607.872h295.75v106.495h-182.197v192.46H3437.1v106.175h-131.195v219.73h182.197v110.345zm495.91-628.7V927.68h44.908c30.152 0 50.36-11.87 60.625-35.606 6.095-14.434 8.98-39.775 8.98-75.702 0-34.322-3.85-58.38-11.547-72.493-10.585-19.888-31.114-29.51-62.23-29.51zm0 319.487v309.223H3574.71V607.872h166.48c66.4 0 113.552 19.567 141.78 58.7 23.737 33.04 35.605 84.363 35.605 153.97 0 87.25-24.057 147.874-72.173 180.913l83.4 341.622H3811.76l-69.93-309.223zm321.73 309.223V607.872h150.442l74.098 407.378c6.736 33.68 9.943 70.57 9.943 110.345 0-32.078 3.21-68.324 9.944-109.382l70.57-408.34h153.648v735.206h-107.137V878.923c0-26.944 3.208-69.607 9.303-127.987 0 .96-2.246 14.435-6.416 40.416l-11.548 63.513-92.38 488.213h-56.455l-87.57-488.534c-3.53-24.7-9.624-59.02-18.605-103.608 5.132 53.89 7.377 96.55 7.377 127.987v464.155zm584.443 0V607.872h115.478v735.206zm229.03 0V607.872h101.363l144.348 439.454c5.452 17.322 13.15 43.305 22.132 78.27-8.98-48.436-13.472-81.476-13.472-99.12V607.872h107.137v735.206H5078.48L4939.908 936.98c0-.32 0-.962-.32-1.603l-2.245-6.095c-9.624-29.19-16.68-53.247-21.17-72.173 8.34 53.57 12.5 87.57 12.5 101.685v384.283zm468.645-735.206h115.798v569.367c0 46.832 19.888 70.25 59.984 70.25 38.172 0 57.74-23.417 57.74-70.25V607.872h115.477v549.8c0 60.948-13.474 108.743-40.097 143.706-29.83 38.492-74.418 57.418-133.76 57.418-116.762 0-175.14-68.004-175.14-204.33zM5716.17 1156.7l108.42-16.36c3.85 72.815 29.2 109.06 75.06 109.06 21.17 0 37.85-6.414 50.68-19.565 12.512-13.473 18.927-30.475 18.927-51.323 0-38.173-30.474-87.57-91.74-148.197l-10.586-10.586c-46.833-46.83-78.59-82.436-95.59-106.816-29.833-43.624-44.588-87.89-44.588-133.12 0-50.682 16.68-94.307 50.04-130.233s75.382-54.2 125.743-54.2c51.002 0 91.74 18.284 122.212 54.2 27.908 33.04 43.947 75.702 48.116 128.308l-110.986 15.718c-3.85-61.267-24.38-91.74-62.23-91.74-40.416 0-60.626 22.775-60.626 68.003 0 42.662 35.606 98.476 107.138 167.12l6.416 6.416c43.946 42.342 73.776 76.985 89.815 103.288 25.02 39.455 37.2 82.44 37.2 129.592 0 52.606-16.36 96.23-48.758 131.195-32.718 34.964-75.06 52.284-127.025 52.284-59.02 0-105.212-19.245-138.25-58.38-30.154-35.927-46.513-84.042-49.4-144.667z"/><path d="M5074.95 2008.033l7.38-102.325-85.004 1.603c-5.133.642-9.623.963-13.473.963-36.567 0-55.172-18.925-55.172-57.097v-521.572h-105.213v501.363c0 61.267 10.265 106.817 30.473 136.327 20.85 30.794 51.644 45.55 92.382 44.267zm236.73-222.615h-83.4l1.604 88.855c.32 39.453 13.793 59.02 40.417 59.02 27.907 0 41.7-19.568 41.38-59.02zm96.552-138.252v226.143c0 42.984-12.5 77.948-38.17 105.534-26.304 28.227-60.947 42.34-103.61 42.34s-75.702-12.83-98.798-38.49c-23.094-25.342-34.643-68.324-34.643-128.95 0-106.817 59.663-157.82 178.67-153.328v-50.36c.32-46.833-13.15-70.25-40.417-70.25-15.397 0-31.756 3.21-48.436 8.98l-37.85-73.456 75.38-22.454c98.797-1.925 147.875 49.72 147.875 154.3zm174.178 264.957c14.114 15.397 28.87 23.096 44.266 23.096 21.813 0 32.72-15.077 32.72-45.23v-260.144c0-34.643-12.83-51.965-38.493-51.965-13.472 0-26.303 7.057-38.492 20.53zm-94.948 95.6v-681.957h94.948v219.407c25.662-31.757 53.248-47.474 82.76-47.474 60.625 0 91.098 42.34 91.098 126.704v279.07c0 74.097-28.548 110.986-85.325 110.986-35.284 0-64.796-15.076-88.532-45.23v38.493zm318.845-136.328l90.778-20.208c7.377 54.852 28.227 82.117 61.91 82.117 28.87 0 43.303-14.756 43.303-44.267 0-26.624-32.397-64.474-97.835-113.232-58.38-43.624-87.57-92.7-87.57-146.592 0-41.058 12.83-74.418 37.85-99.758 25.342-25.02 58.7-37.53 100.402-37.53 39.454 0 71.2 11.87 94.947 35.605 22.775 23.417 35.927 55.172 38.814 94.948l-88.854 21.172c-6.736-42.663-23.416-63.834-50.04-63.834-26.945 0-40.417 14.755-40.417 44.266 0 21.813 22.134 50.362 66.4 85.646 9.302 7.057 18.604 14.434 27.906 22.454 29.833 25.02 51.324 46.512 64.155 65.437 17.963 26.303 26.944 54.852 26.944 86.608 0 41.7-12.83 75.06-38.492 99.76-25.662 25.02-59.343 37.21-101.684 37.21-42.662 0-77.305-14.434-104.25-43.624-24.058-26.624-38.813-61.91-44.267-106.175z"/></g><path d="M2503.558 1151.312L1449.07 96.824c-81.87-81.87-215.886-81.87-297.757 0L96.824 1151.312c-81.87 81.87-81.87 215.887 0 297.757l1054.49 1054.49c81.87 81.87 215.886 81.87 297.757 0l1054.488-1054.49c81.87-81.87 81.87-215.886 0-297.757z" stroke="#373435" stroke-width="71.094" fill="#e6e7e8"/><path d="M1145.016 957.595L1075.49 749.52" stroke="#3ed6db" class="Q R"/><path d="M12549.352 10347.803c-52.144 52.144-53.152 123.687-13.855 162.984l779.406 779.405c35.52 35.52 113.6 35.52 149.13 0 49.374-49.373 43.83-82.877 68.266-165.755l120.665-447.894c19.396-79.1 135.78-478.626 135.78-522.206 0-65.496-51.893-117.64-117.4-117.64-27.96 0-47.863 8.06-74.816 15.114l-969.85 261.734c-26.198 6.55-52.144 9.068-77.336 34.26z" fill="url(#A)" transform="translate(-11981.963 -9233.52)"/><g class="R"><use xlink:href="#B" stroke="#3ed6db" fill="#3ed6db"/><path d="M1676.794 1553.863H1321.35l-252.916 253.168" class="Q S"/></g><path d="M1081.03 1168.443c-29.725-29.474-77.588-29.474-107.313 0-29.474 29.725-29.474 77.588 0 107.06a75.72 75.72 0 0 0 107.313 0c29.473-29.472 29.473-77.335 0-107.06z" class="S T U"/><g stroke="#33b5e5"><use xlink:href="#C" fill="#33b5e5" class="R"/><path d="M948.023 1662.183l-104.04 97.74" class="Q U"/></g><path d="M1806.023 999.916H1610.29L943.237 1666.97" class="Q R S"/><g fill="#2178b6"><path d="M1648.077 1527.664h153.664l3.527 53.153h-171.55z"/><path d="M1938.024 1496.68c-29.725-29.724-77.588-29.724-107.314 0-29.472 29.474-29.472 77.337 0 107.062 29.726 29.472 77.59 29.472 107.314 0 29.473-29.725 29.473-77.588 0-107.062z" stroke="#2178b6" class="R"/></g><g class="T"><path d="M1937.772 1496.68c-29.473-29.724-77.336-29.724-107.062 0-29.472 29.474-29.472 77.337 0 107.062 29.726 29.472 77.59 29.472 107.062 0 29.725-29.725 29.725-77.588 0-107.062z"/><use xlink:href="#B"/><use xlink:href="#C"/></g><path d="M743.977 1467.71l37.534 37.533-342.723 336.432-38.245-36.026z" fill="#3ed6db"/><path d="M973.717 1275.504l-210.846 211.1" class="Q R S"/><path d="M1784.107 1026.87l13.352-54.16 577.098.247 55.545 52.907z" fill="#33b5e5"/></svg>